M48
; DRILL file {KiCad 9.0.7} date 2026-01-25T23:07:12+0100
; FORMAT={-:-/ absolute / metric / decimal}
; #@! TF.CreationDate,2026-01-25T23:07:12+01:00
; #@! TF.GenerationSoftware,Kicad,Pcbnew,9.0.7
; #@! TF.FileFunction,Plated,1,2,PTH
FMAT,2
METRIC
; #@! TA.AperFunction,Plated,PTH,ViaDrill
T1C0.300
; #@! TA.AperFunction,Plated,PTH,ComponentDrill
T2C0.800
; #@! TA.AperFunction,Plated,PTH,ComponentDrill
T3C0.900
; #@! TA.AperFunction,Plated,PTH,ComponentDrill
T4C1.000
; #@! TA.AperFunction,Plated,PTH,ComponentDrill
T5C1.100
%
G90
G05
T1
X103.4Y-77.0
X118.622Y-96.75
X118.75Y-93.5
X119.4Y-92.9
X119.835Y-96.599
X120.6Y-92.9
X121.591Y-93.607
X135.792Y-93.092
X137.524Y-93.624
T2
X112.25Y-81.5
X117.44Y-89.75
X117.5Y-86.5
X119.63Y-102.5
X119.87Y-81.5
X125.06Y-89.75
X125.12Y-86.5
X127.25Y-102.5
T3
X102.725Y-79.0
X102.725Y-95.0
X102.725Y-111.0
X105.265Y-79.0
X105.265Y-95.0
X105.265Y-111.0
X112.21Y-95.0
X114.75Y-95.0
X118.725Y-95.0
X121.265Y-95.0
X134.725Y-79.0
X134.725Y-95.0
X134.725Y-111.0
X137.265Y-79.0
X137.265Y-95.0
X137.265Y-111.0
T4
X110.0Y-78.0
X112.54Y-78.0
X115.08Y-78.0
X117.62Y-78.0
X120.16Y-78.0
X122.7Y-78.0
X130.0Y-106.0
X130.0Y-108.54
X130.0Y-111.08
T5
X116.8Y-107.25
X116.8Y-111.75
X123.3Y-107.25
X123.3Y-111.75
M30
