%TF.GenerationSoftware,KiCad,Pcbnew,9.0.7*%
%TF.CreationDate,2026-01-25T23:07:14+01:00*%
%TF.ProjectId,DiceDIP_UpperPart,44696365-4449-4505-9f55-707065725061,rev?*%
%TF.SameCoordinates,Original*%
%TF.FileFunction,Soldermask,Bot*%
%TF.FilePolarity,Negative*%
%FSLAX46Y46*%
G04 Gerber Fmt 4.6, Leading zero omitted, Abs format (unit mm)*
G04 Created by KiCad (PCBNEW 9.0.7) date 2026-01-25 23:07:14*
%MOMM*%
%LPD*%
G01*
G04 APERTURE LIST*
%ADD10C,0.187500*%
%ADD11C,0.250000*%
%ADD12C,0.000000*%
%ADD13C,2.000000*%
%ADD14R,1.800000X1.800000*%
%ADD15C,1.800000*%
%ADD16R,1.700000X1.700000*%
%ADD17C,1.700000*%
G04 APERTURE END LIST*
D10*
G36*
X112861765Y-100036343D02*
G01*
X112879237Y-100047872D01*
X112890974Y-100065161D01*
X112894990Y-100087027D01*
X112894990Y-100797911D01*
X112891016Y-100819249D01*
X112879237Y-100836746D01*
X112861670Y-100848503D01*
X112839898Y-100852500D01*
X112818214Y-100848486D01*
X112801064Y-100836746D01*
X112789677Y-100819289D01*
X112785814Y-100797911D01*
X112785814Y-100567972D01*
X112630384Y-100567972D01*
X112578625Y-100564059D01*
X112532355Y-100552749D01*
X112490662Y-100534358D01*
X112452925Y-100508929D01*
X112421462Y-100478006D01*
X112395727Y-100441118D01*
X112377022Y-100400122D01*
X112365564Y-100354853D01*
X112361610Y-100304419D01*
X112466619Y-100304419D01*
X112472007Y-100349403D01*
X112487639Y-100388270D01*
X112512568Y-100421179D01*
X112545387Y-100446156D01*
X112584302Y-100461713D01*
X112630384Y-100467130D01*
X112785814Y-100467130D01*
X112785814Y-100133235D01*
X112630384Y-100133235D01*
X112598818Y-100135790D01*
X112570608Y-100143186D01*
X112545158Y-100155262D01*
X112512258Y-100181269D01*
X112487410Y-100215484D01*
X112472016Y-100255992D01*
X112466619Y-100304419D01*
X112361610Y-100304419D01*
X112365596Y-100251762D01*
X112377088Y-100204978D01*
X112395727Y-100163094D01*
X112421506Y-100125231D01*
X112452981Y-100093449D01*
X112490662Y-100067243D01*
X112532451Y-100048174D01*
X112578716Y-100036479D01*
X112630384Y-100032439D01*
X112840402Y-100032439D01*
X112861765Y-100036343D01*
G37*
G36*
X112200455Y-100493417D02*
G01*
X112196915Y-100452300D01*
X112186573Y-100414916D01*
X112169497Y-100380531D01*
X112146484Y-100349605D01*
X112118802Y-100323284D01*
X112086012Y-100301259D01*
X112050022Y-100284991D01*
X112011721Y-100275189D01*
X111970516Y-100271858D01*
X111928707Y-100274597D01*
X111898262Y-100281797D01*
X111876543Y-100292329D01*
X111859406Y-100307804D01*
X111852156Y-100323643D01*
X111852913Y-100341147D01*
X111857697Y-100354477D01*
X111865003Y-100363724D01*
X111874573Y-100370163D01*
X111885474Y-100373707D01*
X111910661Y-100372654D01*
X111955586Y-100366220D01*
X111995593Y-100365732D01*
X112031424Y-100370547D01*
X112065817Y-100380941D01*
X112093636Y-100395359D01*
X112115963Y-100413595D01*
X112133027Y-100436226D01*
X112143334Y-100462477D01*
X112146920Y-100493417D01*
X112200455Y-100493417D01*
G37*
G36*
X112199402Y-100852500D02*
G01*
X112222430Y-100848975D01*
X112238237Y-100839402D01*
X112248171Y-100823828D01*
X112251884Y-100800018D01*
X112251884Y-100330659D01*
X112248229Y-100307682D01*
X112238237Y-100291825D01*
X112222375Y-100281797D01*
X112199402Y-100278132D01*
X112175551Y-100281726D01*
X112160064Y-100291275D01*
X112150513Y-100306801D01*
X112146920Y-100330659D01*
X112146920Y-100800018D01*
X112150456Y-100823041D01*
X112160064Y-100838852D01*
X112175600Y-100848785D01*
X112199402Y-100852500D01*
G37*
G36*
X111579146Y-100278306D02*
G01*
X111628701Y-100290876D01*
X111673486Y-100311379D01*
X111713907Y-100339509D01*
X111747868Y-100373632D01*
X111775885Y-100414282D01*
X111796216Y-100459279D01*
X111808733Y-100509457D01*
X111813071Y-100565865D01*
X111808750Y-100621568D01*
X111796250Y-100671411D01*
X111775885Y-100716395D01*
X111747868Y-100757045D01*
X111713907Y-100791168D01*
X111673486Y-100819298D01*
X111628694Y-100839783D01*
X111578964Y-100852362D01*
X111523277Y-100856713D01*
X111467583Y-100852375D01*
X111417885Y-100839840D01*
X111373159Y-100819435D01*
X111332815Y-100791363D01*
X111299042Y-100757245D01*
X111271310Y-100716533D01*
X111251174Y-100671485D01*
X111238809Y-100621590D01*
X111234536Y-100565865D01*
X111337438Y-100565865D01*
X111340214Y-100603764D01*
X111348211Y-100637457D01*
X111361161Y-100667623D01*
X111379092Y-100695030D01*
X111400867Y-100717993D01*
X111426786Y-100736912D01*
X111455657Y-100750782D01*
X111487596Y-100759264D01*
X111523277Y-100762191D01*
X111558988Y-100759264D01*
X111590958Y-100750782D01*
X111619859Y-100736912D01*
X111645816Y-100718013D01*
X111667780Y-100695049D01*
X111686034Y-100667623D01*
X111699242Y-100637432D01*
X111707389Y-100603741D01*
X111710214Y-100565865D01*
X111707397Y-100527986D01*
X111699258Y-100494118D01*
X111686034Y-100463604D01*
X111667748Y-100435830D01*
X111645779Y-100412693D01*
X111619859Y-100393766D01*
X111590956Y-100379869D01*
X111558986Y-100371372D01*
X111523277Y-100368441D01*
X111487599Y-100371372D01*
X111455660Y-100379869D01*
X111426786Y-100393766D01*
X111400904Y-100412713D01*
X111379125Y-100435849D01*
X111361161Y-100463604D01*
X111348196Y-100494092D01*
X111340206Y-100527963D01*
X111337438Y-100565865D01*
X111234536Y-100565865D01*
X111238899Y-100509469D01*
X111251490Y-100459292D01*
X111271951Y-100414282D01*
X111300065Y-100373613D01*
X111334032Y-100339491D01*
X111374350Y-100311379D01*
X111418989Y-100290885D01*
X111468478Y-100278311D01*
X111523826Y-100273965D01*
X111579146Y-100278306D01*
G37*
G36*
X110600897Y-100036198D02*
G01*
X110617899Y-100047139D01*
X110629169Y-100063872D01*
X110633103Y-100086020D01*
X110633103Y-100369494D01*
X110658670Y-100342221D01*
X110687952Y-100319015D01*
X110721305Y-100299702D01*
X110757063Y-100285491D01*
X110795048Y-100276890D01*
X110835748Y-100273965D01*
X110885739Y-100278338D01*
X110931296Y-100291130D01*
X110973318Y-100312295D01*
X111010923Y-100340752D01*
X111042812Y-100375187D01*
X111069351Y-100416205D01*
X111088645Y-100461139D01*
X111100456Y-100510387D01*
X111104522Y-100564812D01*
X111100132Y-100619060D01*
X111087321Y-100668465D01*
X111066237Y-100713922D01*
X111037545Y-100755046D01*
X111003054Y-100789693D01*
X110962281Y-100818382D01*
X110917186Y-100839509D01*
X110868296Y-100852326D01*
X110814728Y-100856713D01*
X110761199Y-100852317D01*
X110712515Y-100839493D01*
X110667770Y-100818382D01*
X110627314Y-100789723D01*
X110592983Y-100755080D01*
X110564318Y-100713922D01*
X110543209Y-100668463D01*
X110530383Y-100619058D01*
X110525987Y-100564812D01*
X110628890Y-100564812D01*
X110631662Y-100601290D01*
X110639759Y-100634709D01*
X110653070Y-100665608D01*
X110671323Y-100693783D01*
X110693279Y-100717266D01*
X110719199Y-100736499D01*
X110748138Y-100750645D01*
X110779771Y-100759241D01*
X110814728Y-100762191D01*
X110849024Y-100759268D01*
X110880525Y-100750699D01*
X110909800Y-100736499D01*
X110936073Y-100717254D01*
X110958378Y-100693766D01*
X110976982Y-100665608D01*
X110990579Y-100634682D01*
X110998840Y-100601266D01*
X111001666Y-100564812D01*
X110998804Y-100527667D01*
X110990512Y-100494282D01*
X110976982Y-100464016D01*
X110958440Y-100436524D01*
X110936143Y-100413368D01*
X110909800Y-100394178D01*
X110880522Y-100379952D01*
X110849022Y-100371368D01*
X110814728Y-100368441D01*
X110779773Y-100371396D01*
X110748141Y-100380006D01*
X110719199Y-100394178D01*
X110693209Y-100413357D01*
X110671260Y-100436509D01*
X110653070Y-100464016D01*
X110639825Y-100494253D01*
X110631697Y-100527642D01*
X110628890Y-100564812D01*
X110525987Y-100564812D01*
X110525987Y-100086020D01*
X110529808Y-100063829D01*
X110540688Y-100047139D01*
X110557372Y-100036258D01*
X110579522Y-100032439D01*
X110600897Y-100036198D01*
G37*
G36*
X110095784Y-100857766D02*
G01*
X110143288Y-100854188D01*
X110186265Y-100843794D01*
X110225477Y-100826808D01*
X110260758Y-100803078D01*
X110290728Y-100773023D01*
X110315786Y-100735950D01*
X110333581Y-100694788D01*
X110344849Y-100646275D01*
X110348850Y-100588946D01*
X110348850Y-100330659D01*
X110344977Y-100309333D01*
X110333646Y-100292329D01*
X110316600Y-100280960D01*
X110295269Y-100277079D01*
X110273986Y-100280960D01*
X110256984Y-100292329D01*
X110245618Y-100309337D01*
X110241734Y-100330659D01*
X110241734Y-100588946D01*
X110239028Y-100627651D01*
X110231487Y-100659636D01*
X110219707Y-100686079D01*
X110203031Y-100709663D01*
X110183179Y-100728401D01*
X110159852Y-100742773D01*
X110120280Y-100756413D01*
X110074764Y-100761137D01*
X110031469Y-100756534D01*
X109994484Y-100743323D01*
X109962601Y-100722119D01*
X109938293Y-100695009D01*
X109922557Y-100662805D01*
X109917273Y-100626728D01*
X109851144Y-100626728D01*
X109854788Y-100669234D01*
X109865467Y-100708211D01*
X109883155Y-100744376D01*
X109907024Y-100776869D01*
X109935913Y-100804400D01*
X109970304Y-100827312D01*
X110008115Y-100844015D01*
X110049685Y-100854242D01*
X110095784Y-100857766D01*
G37*
G36*
X109863738Y-100852500D02*
G01*
X109885033Y-100848630D01*
X109902069Y-100837295D01*
X109913404Y-100820259D01*
X109917273Y-100798965D01*
X109917273Y-100330659D01*
X109913339Y-100308511D01*
X109902069Y-100291779D01*
X109885073Y-100280835D01*
X109863738Y-100277079D01*
X109841587Y-100280897D01*
X109824904Y-100291779D01*
X109814024Y-100308469D01*
X109810203Y-100330659D01*
X109810203Y-100798965D01*
X109813960Y-100820299D01*
X109824904Y-100837295D01*
X109841630Y-100848567D01*
X109863738Y-100852500D01*
G37*
G36*
X109360995Y-100856713D02*
G01*
X109415967Y-100852289D01*
X109465531Y-100839437D01*
X109510655Y-100818382D01*
X109551391Y-100789680D01*
X109585514Y-100755194D01*
X109613557Y-100714426D01*
X109634023Y-100669379D01*
X109646502Y-100620159D01*
X109650789Y-100565865D01*
X109646528Y-100510103D01*
X109634185Y-100460016D01*
X109614061Y-100414648D01*
X109586332Y-100373540D01*
X109552887Y-100339272D01*
X109513265Y-100311242D01*
X109469208Y-100290799D01*
X109420534Y-100278283D01*
X109366261Y-100273965D01*
X109325482Y-100276677D01*
X109287847Y-100284605D01*
X109252872Y-100297595D01*
X109220192Y-100315643D01*
X109189452Y-100339095D01*
X109160456Y-100368441D01*
X109150349Y-100385970D01*
X109149969Y-100403108D01*
X109157494Y-100419428D01*
X109173050Y-100434615D01*
X109188520Y-100441560D01*
X109205611Y-100441439D01*
X109222414Y-100435132D01*
X109238171Y-100423029D01*
X109265642Y-100399019D01*
X109295726Y-100382166D01*
X109328991Y-100371954D01*
X109366261Y-100368441D01*
X109401258Y-100371302D01*
X109432544Y-100379587D01*
X109460783Y-100393125D01*
X109486004Y-100411654D01*
X109507272Y-100434430D01*
X109524851Y-100461909D01*
X109537378Y-100492119D01*
X109545195Y-100526512D01*
X109547932Y-100565865D01*
X109545185Y-100603063D01*
X109537235Y-100636454D01*
X109524302Y-100666661D01*
X109506406Y-100694151D01*
X109484631Y-100717302D01*
X109458677Y-100736499D01*
X109429708Y-100750569D01*
X109397390Y-100759202D01*
X109360995Y-100762191D01*
X109325547Y-100759824D01*
X109296469Y-100753261D01*
X109269868Y-100741881D01*
X109245498Y-100725463D01*
X109228020Y-100714656D01*
X109210877Y-100710259D01*
X109194063Y-100711944D01*
X109179370Y-100720196D01*
X109165163Y-100736303D01*
X109159403Y-100753306D01*
X109161401Y-100770496D01*
X109171997Y-100786371D01*
X109211776Y-100816905D01*
X109255918Y-100838703D01*
X109305276Y-100852079D01*
X109360995Y-100856713D01*
G37*
G36*
X108781590Y-100852500D02*
G01*
X108815792Y-100849458D01*
X108847080Y-100840544D01*
X108876066Y-100825755D01*
X108901961Y-100805850D01*
X108923940Y-100781669D01*
X108942240Y-100752757D01*
X108955490Y-100721160D01*
X108963591Y-100686698D01*
X108966375Y-100648801D01*
X108966375Y-100147935D01*
X108962599Y-100126694D01*
X108951674Y-100110154D01*
X108935134Y-100099229D01*
X108913893Y-100095454D01*
X108892613Y-100099231D01*
X108876066Y-100110154D01*
X108865141Y-100126694D01*
X108861366Y-100147935D01*
X108861366Y-100648801D01*
X108858656Y-100675975D01*
X108850910Y-100699148D01*
X108838285Y-100719143D01*
X108821306Y-100735174D01*
X108802655Y-100744389D01*
X108781590Y-100747490D01*
X108745869Y-100747490D01*
X108728525Y-100751123D01*
X108713858Y-100762191D01*
X108704137Y-100778611D01*
X108700715Y-100800018D01*
X108705071Y-100821040D01*
X108718071Y-100837799D01*
X108737353Y-100848649D01*
X108762676Y-100852500D01*
X108781590Y-100852500D01*
G37*
G36*
X109014689Y-100389461D02*
G01*
X109035014Y-100386172D01*
X109050364Y-100376867D01*
X109060586Y-100362700D01*
X109064011Y-100345360D01*
X109060488Y-100326175D01*
X109050364Y-100311746D01*
X109035014Y-100302441D01*
X109014689Y-100299152D01*
X108772110Y-100299152D01*
X108751785Y-100302441D01*
X108736435Y-100311746D01*
X108726311Y-100326175D01*
X108722788Y-100345360D01*
X108726213Y-100362700D01*
X108736435Y-100376867D01*
X108751785Y-100386172D01*
X108772110Y-100389461D01*
X109014689Y-100389461D01*
G37*
G36*
X108087558Y-100867200D02*
G01*
X108131113Y-100864294D01*
X108169732Y-100855949D01*
X108204154Y-100842516D01*
X108235543Y-100823501D01*
X108261424Y-100800154D01*
X108282373Y-100772174D01*
X108297473Y-100740640D01*
X108306873Y-100704394D01*
X108310170Y-100662448D01*
X108304855Y-100616565D01*
X108289004Y-100573875D01*
X108261902Y-100533305D01*
X108208423Y-100476576D01*
X108134819Y-100412542D01*
X108047670Y-100343253D01*
X108011763Y-100311870D01*
X107989080Y-100286357D01*
X107976275Y-100265584D01*
X107964158Y-100231283D01*
X107959468Y-100196250D01*
X107962478Y-100170689D01*
X107971321Y-100147827D01*
X107986259Y-100126961D01*
X108005939Y-100111086D01*
X108031106Y-100101148D01*
X108063424Y-100097560D01*
X108093132Y-100100797D01*
X108117601Y-100109961D01*
X108137979Y-100124854D01*
X108153950Y-100144464D01*
X108163212Y-100165586D01*
X108166327Y-100188922D01*
X108163357Y-100215769D01*
X108154282Y-100242457D01*
X108139128Y-100267952D01*
X108114898Y-100295992D01*
X107637114Y-100772678D01*
X107623443Y-100789937D01*
X107618246Y-100804185D01*
X107620414Y-100818400D01*
X107632946Y-100835693D01*
X107650502Y-100848674D01*
X107666522Y-100852499D01*
X107682549Y-100848676D01*
X107700128Y-100835693D01*
X108183134Y-100353740D01*
X108215081Y-100315428D01*
X108237722Y-100276575D01*
X108251894Y-100235018D01*
X108256635Y-100190983D01*
X108253769Y-100158127D01*
X108245369Y-100128046D01*
X108231448Y-100100170D01*
X108212625Y-100075246D01*
X108189661Y-100054154D01*
X108162114Y-100036652D01*
X108131961Y-100023964D01*
X108099239Y-100016225D01*
X108063424Y-100013571D01*
X108026257Y-100016382D01*
X107993061Y-100024504D01*
X107963178Y-100037705D01*
X107936025Y-100055887D01*
X107913222Y-100077831D01*
X107894393Y-100103834D01*
X107880474Y-100132733D01*
X107872043Y-100164046D01*
X107869159Y-100198356D01*
X107872810Y-100237994D01*
X107883356Y-100272911D01*
X107900870Y-100305371D01*
X107926953Y-100338536D01*
X107959137Y-100370484D01*
X108003569Y-100408329D01*
X108086551Y-100474503D01*
X108120845Y-100503522D01*
X108150573Y-100532251D01*
X108176339Y-100562636D01*
X108195224Y-100592656D01*
X108207427Y-100624569D01*
X108211481Y-100658235D01*
X108207442Y-100696077D01*
X108196374Y-100724955D01*
X108178920Y-100746987D01*
X108155511Y-100763005D01*
X108125666Y-100773194D01*
X108087558Y-100776891D01*
X108046402Y-100773519D01*
X108010131Y-100763811D01*
X107977878Y-100748040D01*
X107932223Y-100715003D01*
X107882852Y-100668768D01*
X107729529Y-100507064D01*
X107713372Y-100492752D01*
X107700128Y-100486044D01*
X107686708Y-100486458D01*
X107669674Y-100497584D01*
X107656590Y-100514278D01*
X107652363Y-100530145D01*
X107655549Y-100546420D01*
X107667568Y-100564812D01*
X107820891Y-100726516D01*
X107858952Y-100765869D01*
X107898472Y-100799505D01*
X107939547Y-100827816D01*
X107983712Y-100849421D01*
X108032692Y-100862636D01*
X108087558Y-100867200D01*
G37*
G36*
X107145031Y-100036302D02*
G01*
X107162489Y-100047689D01*
X107174204Y-100064877D01*
X107178242Y-100087027D01*
X107178242Y-100797911D01*
X107174268Y-100819249D01*
X107162489Y-100836746D01*
X107144992Y-100848525D01*
X107123654Y-100852500D01*
X106933603Y-100852500D01*
X106873983Y-100849031D01*
X106819434Y-100838956D01*
X106769288Y-100822595D01*
X106721802Y-100799675D01*
X106679069Y-100771384D01*
X106640648Y-100737553D01*
X106607200Y-100698774D01*
X106579252Y-100655532D01*
X106556659Y-100607356D01*
X106540552Y-100556518D01*
X106530656Y-100501585D01*
X106527259Y-100441943D01*
X106632268Y-100441943D01*
X106636780Y-100501846D01*
X106649839Y-100555589D01*
X106671103Y-100604196D01*
X106700412Y-100648309D01*
X106735778Y-100685189D01*
X106777669Y-100715479D01*
X106824311Y-100737659D01*
X106875929Y-100751232D01*
X106933603Y-100755917D01*
X107069066Y-100755917D01*
X107069066Y-100129067D01*
X106933603Y-100129067D01*
X106875901Y-100133694D01*
X106824279Y-100147089D01*
X106777669Y-100168955D01*
X106735765Y-100198897D01*
X106700403Y-100235426D01*
X106671103Y-100279185D01*
X106649890Y-100327453D01*
X106636806Y-100381337D01*
X106632268Y-100441943D01*
X106527259Y-100441943D01*
X106530664Y-100382302D01*
X106540567Y-100327575D01*
X106556659Y-100277124D01*
X106579228Y-100229274D01*
X106607171Y-100186193D01*
X106640648Y-100147431D01*
X106679073Y-100113576D01*
X106721806Y-100085286D01*
X106769288Y-100062389D01*
X106819437Y-100046003D01*
X106873985Y-100035912D01*
X106933603Y-100032439D01*
X107123654Y-100032439D01*
X107145031Y-100036302D01*
G37*
G36*
X106096781Y-100856713D02*
G01*
X106153911Y-100852385D01*
X106205213Y-100839854D01*
X106251661Y-100819435D01*
X106293759Y-100791264D01*
X106328909Y-100757126D01*
X106357724Y-100716533D01*
X106378718Y-100671398D01*
X106391572Y-100621513D01*
X106396009Y-100565865D01*
X106391777Y-100509406D01*
X106379575Y-100459174D01*
X106359784Y-100414145D01*
X106332408Y-100373374D01*
X106299156Y-100339265D01*
X106259538Y-100311242D01*
X106215481Y-100290799D01*
X106166807Y-100278283D01*
X106112534Y-100273965D01*
X106058963Y-100278246D01*
X106012480Y-100290480D01*
X105971851Y-100310189D01*
X105935772Y-100337344D01*
X105906002Y-100370377D01*
X105882091Y-100409931D01*
X105865209Y-100453286D01*
X105854732Y-100501802D01*
X105851088Y-100556386D01*
X105854546Y-100574759D01*
X105864735Y-100589496D01*
X105879990Y-100599229D01*
X105899402Y-100602593D01*
X106322507Y-100602593D01*
X106322507Y-100518604D01*
X105902516Y-100518604D01*
X105945564Y-100548005D01*
X105951520Y-100497476D01*
X105966584Y-100454033D01*
X105981934Y-100428055D01*
X106000760Y-100406325D01*
X106023279Y-100388408D01*
X106048773Y-100375263D01*
X106078232Y-100367095D01*
X106112534Y-100364228D01*
X106151702Y-100367344D01*
X106185524Y-100376231D01*
X106214933Y-100390514D01*
X106241002Y-100410176D01*
X106262413Y-100434007D01*
X106279505Y-100462459D01*
X106291549Y-100493591D01*
X106298969Y-100527874D01*
X106301533Y-100565865D01*
X106298504Y-100603647D01*
X106289705Y-100637728D01*
X106275292Y-100668768D01*
X106255591Y-100696735D01*
X106231576Y-100720427D01*
X106202843Y-100740163D01*
X106171105Y-100754539D01*
X106135983Y-100763358D01*
X106096781Y-100766404D01*
X106064262Y-100763470D01*
X106030102Y-100754360D01*
X105998100Y-100740764D01*
X105974965Y-100726516D01*
X105958425Y-100717653D01*
X105940847Y-100714426D01*
X105923609Y-100716929D01*
X105908836Y-100725463D01*
X105894898Y-100742526D01*
X105889922Y-100760130D01*
X105893403Y-100777310D01*
X105906729Y-100792645D01*
X105945626Y-100817768D01*
X105995481Y-100838852D01*
X106048221Y-100852409D01*
X106096781Y-100856713D01*
G37*
G36*
X105506293Y-100856713D02*
G01*
X105554889Y-100854115D01*
X105600071Y-100846523D01*
X105642260Y-100834135D01*
X105682731Y-100816774D01*
X105714662Y-100797626D01*
X105739392Y-100776891D01*
X105750607Y-100758752D01*
X105752536Y-100738560D01*
X105746126Y-100719087D01*
X105732019Y-100703389D01*
X105710451Y-100691208D01*
X105690574Y-100689238D01*
X105671643Y-100695084D01*
X105655403Y-100707602D01*
X105633941Y-100725731D01*
X105598159Y-100744880D01*
X105557175Y-100757739D01*
X105510506Y-100762191D01*
X105470135Y-100759572D01*
X105439896Y-100752600D01*
X105417587Y-100742270D01*
X105399061Y-100727010D01*
X105388450Y-100710089D01*
X105384477Y-100690795D01*
X105387162Y-100671256D01*
X105396710Y-100653320D01*
X105414427Y-100636207D01*
X105436580Y-100623541D01*
X105472523Y-100610731D01*
X105527267Y-100598380D01*
X105597030Y-100580235D01*
X105646826Y-100558927D01*
X105681140Y-100535411D01*
X105707979Y-100504852D01*
X105723606Y-100470986D01*
X105728905Y-100432509D01*
X105725216Y-100397996D01*
X105714669Y-100368794D01*
X105697398Y-100343757D01*
X105674774Y-100322576D01*
X105648021Y-100305096D01*
X105616569Y-100291275D01*
X105566296Y-100278317D01*
X105513620Y-100273965D01*
X105467837Y-100276574D01*
X105427120Y-100284057D01*
X105390797Y-100296038D01*
X105356709Y-100313086D01*
X105328613Y-100333371D01*
X105305754Y-100356900D01*
X105294823Y-100374540D01*
X105292107Y-100392071D01*
X105296910Y-100408721D01*
X105309922Y-100423029D01*
X105327944Y-100430597D01*
X105349856Y-100430402D01*
X105371310Y-100423467D01*
X105388690Y-100411489D01*
X105416448Y-100389957D01*
X105445385Y-100376867D01*
X105477187Y-100369896D01*
X105515727Y-100367387D01*
X105559682Y-100371590D01*
X105593992Y-100383141D01*
X105612363Y-100395854D01*
X105622567Y-100410973D01*
X105626003Y-100429349D01*
X105623484Y-100447425D01*
X105616019Y-100463512D01*
X105602623Y-100476916D01*
X105576635Y-100490806D01*
X105543628Y-100501832D01*
X105490539Y-100514391D01*
X105416441Y-100533425D01*
X105366113Y-100554325D01*
X105337133Y-100572306D01*
X105315685Y-100591013D01*
X105300488Y-100610470D01*
X105285648Y-100644489D01*
X105280521Y-100684521D01*
X105283432Y-100715923D01*
X105291990Y-100744780D01*
X105306258Y-100771670D01*
X105325540Y-100795257D01*
X105350452Y-100815890D01*
X105381867Y-100833632D01*
X105415898Y-100845927D01*
X105456929Y-100853861D01*
X105506293Y-100856713D01*
G37*
G36*
X105081127Y-100852500D02*
G01*
X105102422Y-100848630D01*
X105119458Y-100837295D01*
X105130793Y-100820259D01*
X105134662Y-100798965D01*
X105134662Y-100331713D01*
X105130728Y-100309565D01*
X105119458Y-100292832D01*
X105102462Y-100281889D01*
X105081127Y-100278132D01*
X105058977Y-100281951D01*
X105042293Y-100292832D01*
X105031413Y-100309522D01*
X105027592Y-100331713D01*
X105027592Y-100798965D01*
X105031349Y-100820299D01*
X105042293Y-100837295D01*
X105059019Y-100848567D01*
X105081127Y-100852500D01*
G37*
G36*
X105081127Y-100184709D02*
G01*
X105107439Y-100179619D01*
X105129945Y-100164238D01*
X105145326Y-100141732D01*
X105150416Y-100115420D01*
X105145324Y-100089069D01*
X105129945Y-100066557D01*
X105107439Y-100051176D01*
X105081127Y-100046086D01*
X105054776Y-100051178D01*
X105032264Y-100066557D01*
X105016885Y-100089069D01*
X105011793Y-100115420D01*
X105016883Y-100141732D01*
X105032264Y-100164238D01*
X105054776Y-100179617D01*
X105081127Y-100184709D01*
G37*
G36*
X104623912Y-100278301D02*
G01*
X104673626Y-100290836D01*
X104718381Y-100311242D01*
X104758762Y-100339294D01*
X104792725Y-100373412D01*
X104820780Y-100414145D01*
X104841141Y-100459232D01*
X104853671Y-100509458D01*
X104858012Y-100565865D01*
X104853972Y-100621698D01*
X104842309Y-100671605D01*
X104823390Y-100716533D01*
X104797136Y-100757506D01*
X104765581Y-100791585D01*
X104728364Y-100819435D01*
X104686696Y-100839906D01*
X104640649Y-100852404D01*
X104589238Y-100856713D01*
X104542083Y-100852435D01*
X104499707Y-100839981D01*
X104461147Y-100819435D01*
X104427024Y-100791795D01*
X104397865Y-100757756D01*
X104382379Y-100731610D01*
X104382379Y-100785317D01*
X104385432Y-100830242D01*
X104394034Y-100868356D01*
X104407612Y-100900768D01*
X104426704Y-100930178D01*
X104449207Y-100953761D01*
X104475344Y-100972163D01*
X104504477Y-100985570D01*
X104535277Y-100993617D01*
X104568217Y-100996343D01*
X104620808Y-100991175D01*
X104665899Y-100976376D01*
X104705444Y-100952371D01*
X104737295Y-100920735D01*
X104751868Y-100907070D01*
X104770359Y-100899715D01*
X104790226Y-100899692D01*
X104809743Y-100908141D01*
X104823339Y-100921636D01*
X104830214Y-100938595D01*
X104829649Y-100956873D01*
X104820230Y-100975369D01*
X104787761Y-101010274D01*
X104751155Y-101038842D01*
X104710000Y-101061465D01*
X104665779Y-101077729D01*
X104619384Y-101087543D01*
X104570324Y-101090865D01*
X104514059Y-101086234D01*
X104463848Y-101072829D01*
X104418603Y-101050932D01*
X104377991Y-101021181D01*
X104344041Y-100985491D01*
X104316250Y-100943312D01*
X104295981Y-100896943D01*
X104283680Y-100846987D01*
X104279477Y-100792645D01*
X104279477Y-100565865D01*
X104382379Y-100565865D01*
X104385143Y-100603770D01*
X104393109Y-100637496D01*
X104406010Y-100667715D01*
X104423926Y-100695169D01*
X104445701Y-100718129D01*
X104471635Y-100737003D01*
X104500559Y-100750824D01*
X104532531Y-100759275D01*
X104568217Y-100762191D01*
X104603934Y-100759274D01*
X104635921Y-100750823D01*
X104664846Y-100737003D01*
X104690818Y-100718149D01*
X104712782Y-100695188D01*
X104731021Y-100667715D01*
X104744206Y-100637467D01*
X104752336Y-100603744D01*
X104755155Y-100565865D01*
X104752344Y-100527983D01*
X104744221Y-100494082D01*
X104731021Y-100463512D01*
X104712750Y-100435691D01*
X104690782Y-100412557D01*
X104664846Y-100393674D01*
X104635918Y-100379829D01*
X104603932Y-100371362D01*
X104568217Y-100368441D01*
X104532533Y-100371361D01*
X104500562Y-100379827D01*
X104471635Y-100393674D01*
X104445737Y-100412577D01*
X104423958Y-100435709D01*
X104406010Y-100463512D01*
X104393094Y-100494054D01*
X104385135Y-100527957D01*
X104382379Y-100565865D01*
X104279477Y-100565865D01*
X104283822Y-100509460D01*
X104296367Y-100459234D01*
X104316754Y-100414145D01*
X104344809Y-100373412D01*
X104378772Y-100339294D01*
X104419153Y-100311242D01*
X104463866Y-100290803D01*
X104513229Y-100278284D01*
X104568217Y-100273965D01*
X104623912Y-100278301D01*
G37*
G36*
X103634996Y-100853553D02*
G01*
X103656291Y-100849683D01*
X103673327Y-100838349D01*
X103684662Y-100821312D01*
X103688531Y-100800018D01*
X103688531Y-100541685D01*
X103691270Y-100502258D01*
X103698850Y-100470155D01*
X103710604Y-100444049D01*
X103727193Y-100420778D01*
X103746867Y-100402215D01*
X103769910Y-100387904D01*
X103809147Y-100374270D01*
X103855502Y-100369494D01*
X103897995Y-100374069D01*
X103935323Y-100387354D01*
X103967636Y-100408492D01*
X103992018Y-100435165D01*
X104007668Y-100467039D01*
X104012992Y-100503904D01*
X104079121Y-100503904D01*
X104075448Y-100460706D01*
X104064742Y-100421598D01*
X104047110Y-100385797D01*
X104023246Y-100353652D01*
X103994203Y-100326278D01*
X103959457Y-100303365D01*
X103921308Y-100286611D01*
X103879883Y-100276409D01*
X103834481Y-100272911D01*
X103786978Y-100276490D01*
X103744017Y-100286885D01*
X103704834Y-100303869D01*
X103669529Y-100327577D01*
X103639561Y-100357617D01*
X103614525Y-100394682D01*
X103596705Y-100435846D01*
X103585421Y-100484359D01*
X103581415Y-100541685D01*
X103581415Y-100800018D01*
X103585295Y-100821309D01*
X103596665Y-100838349D01*
X103613670Y-100849680D01*
X103634996Y-100853553D01*
G37*
G36*
X104066527Y-100853553D02*
G01*
X104087854Y-100849680D01*
X104104858Y-100838349D01*
X104116193Y-100821312D01*
X104120062Y-100800018D01*
X104120062Y-100331713D01*
X104116128Y-100309565D01*
X104104858Y-100292832D01*
X104087894Y-100281892D01*
X104066527Y-100278132D01*
X104044377Y-100281951D01*
X104027693Y-100292832D01*
X104016813Y-100309522D01*
X104012992Y-100331713D01*
X104012992Y-100800018D01*
X104016749Y-100821353D01*
X104027693Y-100838349D01*
X104044419Y-100849620D01*
X104066527Y-100853553D01*
G37*
G36*
X103065005Y-100036199D02*
G01*
X103081969Y-100047139D01*
X103093239Y-100063872D01*
X103097173Y-100086020D01*
X103097173Y-100564812D01*
X103092271Y-100619079D01*
X103079288Y-100668499D01*
X103058384Y-100713922D01*
X103030018Y-100755065D01*
X102995875Y-100789707D01*
X102955482Y-100818382D01*
X102910707Y-100839493D01*
X102861993Y-100852317D01*
X102808432Y-100856713D01*
X102754201Y-100852299D01*
X102705180Y-100839457D01*
X102660421Y-100818382D01*
X102619965Y-100789723D01*
X102585634Y-100755080D01*
X102556969Y-100713922D01*
X102535860Y-100668463D01*
X102523034Y-100619058D01*
X102518638Y-100564812D01*
X102621541Y-100564812D01*
X102624367Y-100601266D01*
X102632628Y-100634682D01*
X102646225Y-100665608D01*
X102664800Y-100693802D01*
X102686945Y-100717286D01*
X102712903Y-100736499D01*
X102741842Y-100750645D01*
X102773475Y-100759241D01*
X102808432Y-100762191D01*
X102842728Y-100759268D01*
X102874229Y-100750699D01*
X102903504Y-100736499D01*
X102929742Y-100717236D01*
X102951874Y-100693749D01*
X102970182Y-100665608D01*
X102983467Y-100634712D01*
X102991549Y-100601292D01*
X102994316Y-100564812D01*
X102991515Y-100527640D01*
X102983401Y-100494251D01*
X102970182Y-100464016D01*
X102951936Y-100436542D01*
X102929812Y-100413386D01*
X102903504Y-100394178D01*
X102874226Y-100379952D01*
X102842726Y-100371368D01*
X102808432Y-100368441D01*
X102773477Y-100371396D01*
X102741845Y-100380006D01*
X102712903Y-100394178D01*
X102686875Y-100413337D01*
X102664737Y-100436490D01*
X102646225Y-100464016D01*
X102632694Y-100494282D01*
X102624402Y-100527667D01*
X102621541Y-100564812D01*
X102518638Y-100564812D01*
X102522705Y-100510387D01*
X102534515Y-100461139D01*
X102553809Y-100416205D01*
X102580351Y-100375190D01*
X102612255Y-100340755D01*
X102649888Y-100312295D01*
X102691910Y-100291130D01*
X102737467Y-100278338D01*
X102787458Y-100273965D01*
X102828122Y-100276897D01*
X102865918Y-100285504D01*
X102901352Y-100299702D01*
X102934412Y-100318941D01*
X102963899Y-100342139D01*
X102990103Y-100369494D01*
X102990103Y-100086020D01*
X102993924Y-100063829D01*
X103004804Y-100047139D01*
X103021487Y-100036258D01*
X103043638Y-100032439D01*
X103065005Y-100036199D01*
G37*
G36*
X102287966Y-101104512D02*
G01*
X102313154Y-101098193D01*
X102332795Y-101085501D01*
X102342593Y-101071071D01*
X102344731Y-101053951D01*
X102338341Y-101032064D01*
X102018093Y-100308586D01*
X102005503Y-100289882D01*
X101991057Y-100280241D01*
X101973848Y-100277820D01*
X101951964Y-100283398D01*
X101931844Y-100295695D01*
X101921737Y-100309979D01*
X101919376Y-100327195D01*
X101925678Y-100349527D01*
X102246979Y-101071952D01*
X102257779Y-101090813D01*
X102271178Y-101101072D01*
X102287966Y-101104512D01*
G37*
G36*
X102164043Y-100829419D02*
G01*
X102183712Y-100834012D01*
X102201321Y-100830976D01*
X102216590Y-100821197D01*
X102229165Y-100804185D01*
X102469591Y-100347466D01*
X102475507Y-100327593D01*
X102472202Y-100309135D01*
X102461455Y-100293393D01*
X102444404Y-100282345D01*
X102424666Y-100277754D01*
X102406622Y-100280788D01*
X102391111Y-100290640D01*
X102379282Y-100307533D01*
X102149343Y-100764297D01*
X102142034Y-100784340D01*
X102141466Y-100802628D01*
X102148176Y-100818220D01*
X102164043Y-100829419D01*
G37*
G36*
X112873309Y-101296199D02*
G01*
X112890273Y-101307139D01*
X112901543Y-101323872D01*
X112905478Y-101346020D01*
X112905478Y-101824812D01*
X112900575Y-101879079D01*
X112887592Y-101928499D01*
X112866689Y-101973922D01*
X112838323Y-102015065D01*
X112804180Y-102049707D01*
X112763786Y-102078382D01*
X112719011Y-102099493D01*
X112670297Y-102112317D01*
X112616737Y-102116713D01*
X112562505Y-102112299D01*
X112513485Y-102099457D01*
X112468726Y-102078382D01*
X112428269Y-102049723D01*
X112393938Y-102015080D01*
X112365273Y-101973922D01*
X112344164Y-101928463D01*
X112331338Y-101879058D01*
X112326943Y-101824812D01*
X112429845Y-101824812D01*
X112432671Y-101861266D01*
X112440932Y-101894682D01*
X112454529Y-101925608D01*
X112473104Y-101953802D01*
X112495249Y-101977286D01*
X112521207Y-101996499D01*
X112550146Y-102010645D01*
X112581779Y-102019241D01*
X112616737Y-102022191D01*
X112651032Y-102019268D01*
X112682533Y-102010699D01*
X112711808Y-101996499D01*
X112738046Y-101977236D01*
X112760178Y-101953749D01*
X112778487Y-101925608D01*
X112791771Y-101894712D01*
X112799854Y-101861292D01*
X112802621Y-101824812D01*
X112799819Y-101787640D01*
X112791705Y-101754251D01*
X112778487Y-101724016D01*
X112760241Y-101696542D01*
X112738117Y-101673386D01*
X112711808Y-101654178D01*
X112682531Y-101639952D01*
X112651030Y-101631368D01*
X112616737Y-101628441D01*
X112581782Y-101631396D01*
X112550149Y-101640006D01*
X112521207Y-101654178D01*
X112495179Y-101673337D01*
X112473042Y-101696490D01*
X112454529Y-101724016D01*
X112440999Y-101754282D01*
X112432706Y-101787667D01*
X112429845Y-101824812D01*
X112326943Y-101824812D01*
X112331009Y-101770387D01*
X112342820Y-101721139D01*
X112362114Y-101676205D01*
X112388655Y-101635190D01*
X112420559Y-101600755D01*
X112458193Y-101572295D01*
X112500214Y-101551130D01*
X112545771Y-101538338D01*
X112595762Y-101533965D01*
X112636426Y-101536897D01*
X112674222Y-101545504D01*
X112709656Y-101559702D01*
X112742716Y-101578941D01*
X112772203Y-101602139D01*
X112798408Y-101629494D01*
X112798408Y-101346020D01*
X112802228Y-101323829D01*
X112813108Y-101307139D01*
X112829792Y-101296258D01*
X112851943Y-101292439D01*
X112873309Y-101296199D01*
G37*
G36*
X112031149Y-102112500D02*
G01*
X112061150Y-102109629D01*
X112088250Y-102101240D01*
X112113077Y-102087312D01*
X112134864Y-102068723D01*
X112153370Y-102046000D01*
X112168719Y-102018619D01*
X112183442Y-101972854D01*
X112188640Y-101918235D01*
X112188640Y-101344966D01*
X112184893Y-101323382D01*
X112174169Y-101306956D01*
X112157739Y-101296196D01*
X112136158Y-101292439D01*
X112114578Y-101296196D01*
X112098148Y-101306956D01*
X112087388Y-101323386D01*
X112083631Y-101344966D01*
X112083631Y-101918235D01*
X112079656Y-101954866D01*
X112068839Y-101982303D01*
X112057404Y-101996911D01*
X112045028Y-102004882D01*
X112031149Y-102007490D01*
X112004908Y-102007490D01*
X111985354Y-102011217D01*
X111970562Y-102022008D01*
X111961036Y-102038305D01*
X111957647Y-102060018D01*
X111962545Y-102081152D01*
X111977477Y-102098028D01*
X111999435Y-102108639D01*
X112029043Y-102112500D01*
X112031149Y-102112500D01*
G37*
G36*
X111789257Y-102112500D02*
G01*
X111810552Y-102108630D01*
X111827588Y-102097295D01*
X111838923Y-102080259D01*
X111842792Y-102058965D01*
X111842792Y-101591713D01*
X111838858Y-101569565D01*
X111827588Y-101552832D01*
X111810592Y-101541889D01*
X111789257Y-101538132D01*
X111767106Y-101541951D01*
X111750423Y-101552832D01*
X111739543Y-101569522D01*
X111735722Y-101591713D01*
X111735722Y-102058965D01*
X111739479Y-102080299D01*
X111750423Y-102097295D01*
X111767149Y-102108567D01*
X111789257Y-102112500D01*
G37*
G36*
X111789257Y-101444709D02*
G01*
X111815569Y-101439619D01*
X111838075Y-101424238D01*
X111853456Y-101401732D01*
X111858546Y-101375420D01*
X111853454Y-101349069D01*
X111838075Y-101326557D01*
X111815569Y-101311176D01*
X111789257Y-101306086D01*
X111762906Y-101311178D01*
X111740393Y-101326557D01*
X111725015Y-101349069D01*
X111719923Y-101375420D01*
X111725013Y-101401732D01*
X111740393Y-101424238D01*
X111762906Y-101439617D01*
X111789257Y-101444709D01*
G37*
G36*
X111051674Y-102113553D02*
G01*
X111072969Y-102109683D01*
X111090005Y-102098349D01*
X111101340Y-102081312D01*
X111105209Y-102060018D01*
X111105209Y-101801685D01*
X111107948Y-101762258D01*
X111115528Y-101730155D01*
X111127283Y-101704049D01*
X111143872Y-101680778D01*
X111163546Y-101662215D01*
X111186588Y-101647904D01*
X111225825Y-101634270D01*
X111272180Y-101629494D01*
X111314673Y-101634069D01*
X111352001Y-101647354D01*
X111384315Y-101668492D01*
X111408696Y-101695165D01*
X111424346Y-101727039D01*
X111429671Y-101763904D01*
X111495799Y-101763904D01*
X111492126Y-101720706D01*
X111481420Y-101681598D01*
X111463788Y-101645797D01*
X111439925Y-101613652D01*
X111410882Y-101586278D01*
X111376136Y-101563365D01*
X111337987Y-101546611D01*
X111296561Y-101536409D01*
X111251160Y-101532911D01*
X111203656Y-101536490D01*
X111160695Y-101546885D01*
X111121512Y-101563869D01*
X111086208Y-101587577D01*
X111056239Y-101617617D01*
X111031204Y-101654682D01*
X111013383Y-101695846D01*
X111002100Y-101744359D01*
X110998094Y-101801685D01*
X110998094Y-102060018D01*
X111001973Y-102081309D01*
X111013343Y-102098349D01*
X111030348Y-102109680D01*
X111051674Y-102113553D01*
G37*
G36*
X111483206Y-102113553D02*
G01*
X111504532Y-102109680D01*
X111521536Y-102098349D01*
X111532871Y-102081312D01*
X111536741Y-102060018D01*
X111536741Y-101591713D01*
X111532806Y-101569565D01*
X111521536Y-101552832D01*
X111504572Y-101541892D01*
X111483206Y-101538132D01*
X111461055Y-101541951D01*
X111444371Y-101552832D01*
X111433491Y-101569522D01*
X111429671Y-101591713D01*
X111429671Y-102060018D01*
X111433427Y-102081353D01*
X111444371Y-102098349D01*
X111461097Y-102109620D01*
X111483206Y-102113553D01*
G37*
G36*
X110720069Y-101902481D02*
G01*
X110785190Y-101831086D01*
X110462835Y-101543398D01*
X110445931Y-101532546D01*
X110427664Y-101529751D01*
X110409838Y-101534404D01*
X110394600Y-101546558D01*
X110383725Y-101563393D01*
X110380953Y-101581226D01*
X110385531Y-101598770D01*
X110397714Y-101614794D01*
X110720069Y-101902481D01*
G37*
G36*
X110769436Y-102112500D02*
G01*
X110790636Y-102108831D01*
X110806714Y-102098349D01*
X110817197Y-102082271D01*
X110820865Y-102061071D01*
X110820865Y-101343913D01*
X110817193Y-101322681D01*
X110806714Y-101306635D01*
X110790633Y-101296118D01*
X110769436Y-101292439D01*
X110748248Y-101296119D01*
X110732205Y-101306635D01*
X110721690Y-101322685D01*
X110718008Y-101343913D01*
X110718008Y-102061071D01*
X110721687Y-102082267D01*
X110732205Y-102098349D01*
X110748244Y-102108830D01*
X110769436Y-102112500D01*
G37*
G36*
X110394600Y-102107233D02*
G01*
X110412450Y-102117120D01*
X110431878Y-102119323D01*
X110450525Y-102114017D01*
X110465995Y-102100959D01*
X110679128Y-101837406D01*
X110605626Y-101768117D01*
X110387227Y-102036891D01*
X110377311Y-102054597D01*
X110375183Y-102073115D01*
X110380600Y-102090970D01*
X110394600Y-102107233D01*
G37*
G36*
X110120834Y-102364512D02*
G01*
X110146022Y-102358193D01*
X110165663Y-102345501D01*
X110175461Y-102331071D01*
X110177599Y-102313951D01*
X110171209Y-102292064D01*
X109850961Y-101568586D01*
X109838371Y-101549882D01*
X109823925Y-101540241D01*
X109806716Y-101537820D01*
X109784832Y-101543398D01*
X109764712Y-101555695D01*
X109754605Y-101569979D01*
X109752244Y-101587195D01*
X109758546Y-101609527D01*
X110079847Y-102331952D01*
X110090647Y-102350813D01*
X110104046Y-102361072D01*
X110120834Y-102364512D01*
G37*
G36*
X109996912Y-102089419D02*
G01*
X110016580Y-102094012D01*
X110034189Y-102090976D01*
X110049458Y-102081197D01*
X110062033Y-102064185D01*
X110302459Y-101607466D01*
X110308375Y-101587593D01*
X110305070Y-101569135D01*
X110294323Y-101553393D01*
X110277272Y-101542345D01*
X110257534Y-101537754D01*
X110239491Y-101540788D01*
X110223979Y-101550640D01*
X110212151Y-101567533D01*
X109982211Y-102024297D01*
X109974902Y-102044340D01*
X109974334Y-102062628D01*
X109981045Y-102078220D01*
X109996912Y-102089419D01*
G37*
G36*
X109422729Y-101538333D02*
G01*
X109471193Y-101551101D01*
X109515921Y-101572158D01*
X109556306Y-101600757D01*
X109590514Y-101635424D01*
X109619007Y-101676709D01*
X109640051Y-101722261D01*
X109653103Y-101771699D01*
X109658025Y-101825865D01*
X109658025Y-102304658D01*
X109654154Y-102325944D01*
X109642821Y-102342943D01*
X109625812Y-102354309D01*
X109604490Y-102358193D01*
X109582527Y-102354260D01*
X109565747Y-102342943D01*
X109554734Y-102325977D01*
X109550955Y-102304658D01*
X109550955Y-102021137D01*
X109524752Y-102048496D01*
X109495265Y-102071710D01*
X109462203Y-102090976D01*
X109426769Y-102105174D01*
X109388973Y-102113781D01*
X109348309Y-102116713D01*
X109298312Y-102112356D01*
X109252817Y-102099619D01*
X109210923Y-102078565D01*
X109173383Y-102050191D01*
X109141474Y-102015747D01*
X109114844Y-101974609D01*
X109095430Y-101929552D01*
X109083568Y-101880344D01*
X109079490Y-101826140D01*
X109079527Y-101825682D01*
X109182392Y-101825682D01*
X109185223Y-101862070D01*
X109193487Y-101895330D01*
X109207076Y-101926020D01*
X109225627Y-101953953D01*
X109247769Y-101977307D01*
X109273754Y-101996499D01*
X109302695Y-102010642D01*
X109334357Y-102019239D01*
X109369375Y-102022191D01*
X109403774Y-102019290D01*
X109435320Y-102010791D01*
X109464584Y-101996728D01*
X109490825Y-101977611D01*
X109512907Y-101954305D01*
X109531125Y-101926386D01*
X109544347Y-101895670D01*
X109552405Y-101862316D01*
X109555168Y-101825774D01*
X109552376Y-101788627D01*
X109544282Y-101755156D01*
X109531079Y-101724749D01*
X109512874Y-101697096D01*
X109490751Y-101673774D01*
X109464401Y-101654407D01*
X109435084Y-101640042D01*
X109403628Y-101631388D01*
X109369467Y-101628441D01*
X109334692Y-101631387D01*
X109303067Y-101639989D01*
X109273983Y-101654178D01*
X109247849Y-101673380D01*
X109225634Y-101696707D01*
X109207076Y-101724566D01*
X109193524Y-101755151D01*
X109185242Y-101788654D01*
X109182392Y-101825682D01*
X109079527Y-101825682D01*
X109083903Y-101771379D01*
X109096746Y-101721821D01*
X109117821Y-101676526D01*
X109146476Y-101635486D01*
X109180806Y-101600917D01*
X109221273Y-101572295D01*
X109266037Y-101551233D01*
X109315174Y-101538385D01*
X109369650Y-101533965D01*
X109422729Y-101538333D01*
G37*
G36*
X108713492Y-101538357D02*
G01*
X108762424Y-101551179D01*
X108807464Y-101572295D01*
X108848161Y-101600939D01*
X108882607Y-101635511D01*
X108911283Y-101676526D01*
X108932331Y-101721818D01*
X108945159Y-101771376D01*
X108949568Y-101826140D01*
X108945495Y-101880346D01*
X108933647Y-101929554D01*
X108914259Y-101974609D01*
X108887605Y-102015751D01*
X108855695Y-102050195D01*
X108818180Y-102078565D01*
X108776286Y-102099619D01*
X108730791Y-102112356D01*
X108680794Y-102116713D01*
X108630625Y-102112329D01*
X108585092Y-102099527D01*
X108543270Y-102078382D01*
X108505809Y-102049879D01*
X108478148Y-102019898D01*
X108478148Y-102060018D01*
X108474279Y-102081312D01*
X108462944Y-102098349D01*
X108445883Y-102109676D01*
X108424430Y-102113553D01*
X108403009Y-102109669D01*
X108386099Y-102098349D01*
X108374872Y-102081323D01*
X108371033Y-102060018D01*
X108371033Y-101825865D01*
X108371048Y-101825682D01*
X108473935Y-101825682D01*
X108476712Y-101862094D01*
X108484813Y-101895357D01*
X108498115Y-101926020D01*
X108516344Y-101953933D01*
X108538297Y-101977287D01*
X108564244Y-101996499D01*
X108593183Y-102010645D01*
X108624816Y-102019241D01*
X108659774Y-102022191D01*
X108694129Y-102019266D01*
X108725644Y-102010694D01*
X108754891Y-101996499D01*
X108781172Y-101977286D01*
X108803458Y-101953971D01*
X108822027Y-101926157D01*
X108835601Y-101895551D01*
X108843873Y-101862236D01*
X108846711Y-101825636D01*
X108843854Y-101788426D01*
X108835566Y-101754883D01*
X108822027Y-101724382D01*
X108803464Y-101696659D01*
X108781164Y-101673387D01*
X108754845Y-101654178D01*
X108725567Y-101639954D01*
X108694052Y-101631369D01*
X108659728Y-101628441D01*
X108624774Y-101631397D01*
X108593157Y-101640007D01*
X108564244Y-101654178D01*
X108538291Y-101673385D01*
X108516338Y-101696710D01*
X108498115Y-101724566D01*
X108484849Y-101755123D01*
X108476731Y-101788630D01*
X108473935Y-101825682D01*
X108371048Y-101825682D01*
X108375430Y-101771589D01*
X108388257Y-101722186D01*
X108409364Y-101676755D01*
X108438025Y-101635562D01*
X108472313Y-101600921D01*
X108512678Y-101572295D01*
X108557368Y-101551195D01*
X108606093Y-101538366D01*
X108659774Y-101533965D01*
X108713492Y-101538357D01*
G37*
G36*
X108160190Y-101753417D02*
G01*
X108156650Y-101712300D01*
X108146308Y-101674916D01*
X108129232Y-101640531D01*
X108106219Y-101609605D01*
X108078537Y-101583284D01*
X108045747Y-101561259D01*
X108009756Y-101544991D01*
X107971456Y-101535189D01*
X107930251Y-101531858D01*
X107888442Y-101534597D01*
X107857997Y-101541797D01*
X107836278Y-101552329D01*
X107819141Y-101567804D01*
X107811891Y-101583643D01*
X107812648Y-101601147D01*
X107817432Y-101614477D01*
X107824738Y-101623724D01*
X107834308Y-101630163D01*
X107845208Y-101633707D01*
X107870396Y-101632654D01*
X107915321Y-101626220D01*
X107955328Y-101625732D01*
X107991159Y-101630547D01*
X108025551Y-101640941D01*
X108053371Y-101655359D01*
X108075697Y-101673595D01*
X108092762Y-101696226D01*
X108103069Y-101722477D01*
X108106655Y-101753417D01*
X108160190Y-101753417D01*
G37*
G36*
X108159137Y-102112500D02*
G01*
X108182164Y-102108975D01*
X108197971Y-102099402D01*
X108207906Y-102083828D01*
X108211618Y-102060018D01*
X108211618Y-101590659D01*
X108207964Y-101567682D01*
X108197971Y-101551825D01*
X108182110Y-101541797D01*
X108159137Y-101538132D01*
X108135286Y-101541726D01*
X108119798Y-101551275D01*
X108110248Y-101566801D01*
X108106655Y-101590659D01*
X108106655Y-102060018D01*
X108110191Y-102083041D01*
X108119798Y-102098852D01*
X108135335Y-102108785D01*
X108159137Y-102112500D01*
G37*
G36*
X107492720Y-102112500D02*
G01*
X107526922Y-102109458D01*
X107558210Y-102100544D01*
X107587196Y-102085755D01*
X107613091Y-102065850D01*
X107635071Y-102041669D01*
X107653371Y-102012757D01*
X107666620Y-101981160D01*
X107674721Y-101946698D01*
X107677505Y-101908801D01*
X107677505Y-101407935D01*
X107673730Y-101386694D01*
X107662805Y-101370154D01*
X107646264Y-101359229D01*
X107625023Y-101355454D01*
X107603743Y-101359231D01*
X107587196Y-101370154D01*
X107576271Y-101386694D01*
X107572496Y-101407935D01*
X107572496Y-101908801D01*
X107569787Y-101935975D01*
X107562040Y-101959148D01*
X107549415Y-101979143D01*
X107532436Y-101995174D01*
X107513785Y-102004389D01*
X107492720Y-102007490D01*
X107457000Y-102007490D01*
X107439655Y-102011123D01*
X107424989Y-102022191D01*
X107415267Y-102038611D01*
X107411845Y-102060018D01*
X107416201Y-102081040D01*
X107429202Y-102097799D01*
X107448483Y-102108649D01*
X107473807Y-102112500D01*
X107492720Y-102112500D01*
G37*
G36*
X107725819Y-101649461D02*
G01*
X107746144Y-101646172D01*
X107761494Y-101636867D01*
X107771717Y-101622700D01*
X107775141Y-101605360D01*
X107771618Y-101586175D01*
X107761494Y-101571746D01*
X107746144Y-101562441D01*
X107725819Y-101559152D01*
X107483241Y-101559152D01*
X107462916Y-101562441D01*
X107447566Y-101571746D01*
X107437442Y-101586175D01*
X107433919Y-101605360D01*
X107437343Y-101622700D01*
X107447566Y-101636867D01*
X107462916Y-101646172D01*
X107483241Y-101649461D01*
X107725819Y-101649461D01*
G37*
G36*
X107072134Y-102116713D02*
G01*
X107120730Y-102114115D01*
X107165912Y-102106523D01*
X107208101Y-102094135D01*
X107248572Y-102076774D01*
X107280503Y-102057626D01*
X107305233Y-102036891D01*
X107316448Y-102018752D01*
X107318377Y-101998560D01*
X107311967Y-101979087D01*
X107297860Y-101963389D01*
X107276292Y-101951208D01*
X107256415Y-101949238D01*
X107237483Y-101955084D01*
X107221244Y-101967602D01*
X107199782Y-101985731D01*
X107164000Y-102004880D01*
X107123016Y-102017739D01*
X107076347Y-102022191D01*
X107035976Y-102019572D01*
X107005737Y-102012600D01*
X106983428Y-102002270D01*
X106964902Y-101987010D01*
X106954291Y-101970089D01*
X106950318Y-101950795D01*
X106953003Y-101931256D01*
X106962551Y-101913320D01*
X106980268Y-101896207D01*
X107002421Y-101883541D01*
X107038364Y-101870731D01*
X107093108Y-101858380D01*
X107162871Y-101840235D01*
X107212667Y-101818927D01*
X107246981Y-101795411D01*
X107273820Y-101764852D01*
X107289447Y-101730986D01*
X107294746Y-101692509D01*
X107291057Y-101657996D01*
X107280510Y-101628794D01*
X107263239Y-101603757D01*
X107240615Y-101582576D01*
X107213862Y-101565096D01*
X107182410Y-101551275D01*
X107132137Y-101538317D01*
X107079461Y-101533965D01*
X107033678Y-101536574D01*
X106992961Y-101544057D01*
X106956638Y-101556038D01*
X106922550Y-101573086D01*
X106894454Y-101593371D01*
X106871595Y-101616900D01*
X106860664Y-101634540D01*
X106857948Y-101652071D01*
X106862751Y-101668721D01*
X106875763Y-101683029D01*
X106893785Y-101690597D01*
X106915696Y-101690402D01*
X106937151Y-101683467D01*
X106954531Y-101671489D01*
X106982289Y-101649957D01*
X107011226Y-101636867D01*
X107043027Y-101629896D01*
X107081568Y-101627387D01*
X107125523Y-101631590D01*
X107159832Y-101643141D01*
X107178204Y-101655854D01*
X107188408Y-101670973D01*
X107191844Y-101689349D01*
X107189325Y-101707425D01*
X107181860Y-101723512D01*
X107168464Y-101736916D01*
X107142476Y-101750806D01*
X107109469Y-101761832D01*
X107056380Y-101774391D01*
X106982282Y-101793425D01*
X106931954Y-101814325D01*
X106902974Y-101832306D01*
X106881526Y-101851013D01*
X106866329Y-101870470D01*
X106851489Y-101904489D01*
X106846362Y-101944521D01*
X106849272Y-101975923D01*
X106857831Y-102004780D01*
X106872099Y-102031670D01*
X106891381Y-102055257D01*
X106916293Y-102075890D01*
X106947708Y-102093632D01*
X106981739Y-102105927D01*
X107022770Y-102113861D01*
X107072134Y-102116713D01*
G37*
G36*
X106680582Y-102129306D02*
G01*
X106707900Y-102123974D01*
X106731507Y-102107783D01*
X106747698Y-102084175D01*
X106753031Y-102056858D01*
X106747649Y-102028635D01*
X106731507Y-102004880D01*
X106707900Y-101988689D01*
X106680582Y-101983356D01*
X106652454Y-101988756D01*
X106629154Y-102004880D01*
X106613405Y-102028596D01*
X106608134Y-102056858D01*
X106613358Y-102084214D01*
X106629154Y-102107783D01*
X106652454Y-102123907D01*
X106680582Y-102129306D01*
G37*
G36*
X106200737Y-102116713D02*
G01*
X106255708Y-102112289D01*
X106305273Y-102099437D01*
X106350396Y-102078382D01*
X106391133Y-102049680D01*
X106425255Y-102015194D01*
X106453299Y-101974426D01*
X106473765Y-101929379D01*
X106486243Y-101880159D01*
X106490531Y-101825865D01*
X106486270Y-101770103D01*
X106473927Y-101720016D01*
X106453803Y-101674648D01*
X106426074Y-101633540D01*
X106392628Y-101599272D01*
X106353007Y-101571242D01*
X106308950Y-101550799D01*
X106260276Y-101538283D01*
X106206003Y-101533965D01*
X106165224Y-101536677D01*
X106127589Y-101544605D01*
X106092613Y-101557595D01*
X106059934Y-101575643D01*
X106029194Y-101599095D01*
X106000198Y-101628441D01*
X105990091Y-101645970D01*
X105989711Y-101663108D01*
X105997235Y-101679428D01*
X106012792Y-101694615D01*
X106028262Y-101701560D01*
X106045352Y-101701439D01*
X106062156Y-101695132D01*
X106077913Y-101683029D01*
X106105384Y-101659019D01*
X106135467Y-101642166D01*
X106168732Y-101631954D01*
X106206003Y-101628441D01*
X106240999Y-101631302D01*
X106272285Y-101639587D01*
X106300525Y-101653125D01*
X106325746Y-101671654D01*
X106347013Y-101694430D01*
X106364593Y-101721909D01*
X106377120Y-101752119D01*
X106384937Y-101786512D01*
X106387674Y-101825865D01*
X106384927Y-101863063D01*
X106376977Y-101896454D01*
X106364043Y-101926661D01*
X106346148Y-101954151D01*
X106324373Y-101977302D01*
X106298418Y-101996499D01*
X106269450Y-102010569D01*
X106237132Y-102019202D01*
X106200737Y-102022191D01*
X106165289Y-102019824D01*
X106136211Y-102013261D01*
X106109609Y-102001881D01*
X106085240Y-101985463D01*
X106067762Y-101974656D01*
X106050619Y-101970259D01*
X106033805Y-101971944D01*
X106019112Y-101980196D01*
X106004905Y-101996303D01*
X105999145Y-102013306D01*
X106001143Y-102030496D01*
X106011738Y-102046371D01*
X106051518Y-102076905D01*
X106095659Y-102098703D01*
X106145018Y-102112079D01*
X106200737Y-102116713D01*
G37*
G36*
X105625726Y-101538306D02*
G01*
X105675281Y-101550876D01*
X105720067Y-101571379D01*
X105760487Y-101599509D01*
X105794448Y-101633632D01*
X105822465Y-101674282D01*
X105842796Y-101719279D01*
X105855313Y-101769457D01*
X105859651Y-101825865D01*
X105855331Y-101881568D01*
X105842831Y-101931411D01*
X105822465Y-101976395D01*
X105794448Y-102017045D01*
X105760487Y-102051168D01*
X105720067Y-102079298D01*
X105675274Y-102099783D01*
X105625545Y-102112362D01*
X105569857Y-102116713D01*
X105514164Y-102112375D01*
X105464465Y-102099840D01*
X105419740Y-102079435D01*
X105379396Y-102051363D01*
X105345623Y-102017245D01*
X105317890Y-101976533D01*
X105297754Y-101931485D01*
X105285390Y-101881590D01*
X105281116Y-101825865D01*
X105384019Y-101825865D01*
X105386795Y-101863764D01*
X105394792Y-101897457D01*
X105407741Y-101927623D01*
X105425673Y-101955030D01*
X105447448Y-101977993D01*
X105473366Y-101996912D01*
X105502238Y-102010782D01*
X105534177Y-102019264D01*
X105569857Y-102022191D01*
X105605569Y-102019264D01*
X105637539Y-102010782D01*
X105666440Y-101996912D01*
X105692396Y-101978013D01*
X105714361Y-101955049D01*
X105732615Y-101927623D01*
X105745823Y-101897432D01*
X105753969Y-101863741D01*
X105756795Y-101825865D01*
X105753978Y-101787986D01*
X105745838Y-101754118D01*
X105732615Y-101723604D01*
X105714328Y-101695830D01*
X105692360Y-101672693D01*
X105666440Y-101653766D01*
X105637536Y-101639869D01*
X105605567Y-101631372D01*
X105569857Y-101628441D01*
X105534179Y-101631372D01*
X105502240Y-101639869D01*
X105473366Y-101653766D01*
X105447485Y-101672713D01*
X105425705Y-101695849D01*
X105407741Y-101723604D01*
X105394776Y-101754092D01*
X105386786Y-101787963D01*
X105384019Y-101825865D01*
X105281116Y-101825865D01*
X105285479Y-101769469D01*
X105298071Y-101719292D01*
X105318531Y-101674282D01*
X105346646Y-101633613D01*
X105380612Y-101599491D01*
X105420930Y-101571379D01*
X105465570Y-101550885D01*
X105515059Y-101538311D01*
X105570407Y-101533965D01*
X105625726Y-101538306D01*
G37*
G36*
X104367816Y-102113553D02*
G01*
X104389150Y-102109681D01*
X104406193Y-102098349D01*
X104417528Y-102081312D01*
X104421397Y-102060018D01*
X104421397Y-101759691D01*
X104425551Y-101716803D01*
X104436739Y-101684981D01*
X104453958Y-101661551D01*
X104477376Y-101644003D01*
X104505281Y-101633270D01*
X104538954Y-101629494D01*
X104573728Y-101633833D01*
X104603243Y-101646363D01*
X104628759Y-101667321D01*
X104648031Y-101694336D01*
X104659804Y-101726089D01*
X104663930Y-101763904D01*
X104751079Y-101763904D01*
X104747650Y-101719193D01*
X104737754Y-101679397D01*
X104721678Y-101643691D01*
X104699447Y-101611541D01*
X104672133Y-101584550D01*
X104639246Y-101562312D01*
X104602867Y-101546203D01*
X104562701Y-101536322D01*
X104517980Y-101532911D01*
X104478777Y-101535957D01*
X104443656Y-101544776D01*
X104411917Y-101559152D01*
X104383618Y-101579191D01*
X104359749Y-101604687D01*
X104340018Y-101636318D01*
X104326163Y-101671176D01*
X104317390Y-101711934D01*
X104314281Y-101759691D01*
X104314281Y-102060018D01*
X104318038Y-102081353D01*
X104328982Y-102098349D01*
X104345708Y-102109620D01*
X104367816Y-102113553D01*
G37*
G36*
X105068167Y-102113553D02*
G01*
X105089493Y-102109680D01*
X105106498Y-102098349D01*
X105117833Y-102081312D01*
X105121702Y-102060018D01*
X105121702Y-101592766D01*
X105117768Y-101570618D01*
X105106498Y-101553886D01*
X105089534Y-101542945D01*
X105068167Y-101539185D01*
X105046016Y-101543004D01*
X105029333Y-101553886D01*
X105018453Y-101570576D01*
X105014632Y-101592766D01*
X105014632Y-102060018D01*
X105018389Y-102081353D01*
X105029333Y-102098349D01*
X105046059Y-102109620D01*
X105068167Y-102113553D01*
G37*
G36*
X104717465Y-102113553D02*
G01*
X104738799Y-102109681D01*
X104755842Y-102098349D01*
X104767176Y-102081312D01*
X104771046Y-102060018D01*
X104771046Y-101759691D01*
X104775200Y-101716803D01*
X104786388Y-101684981D01*
X104803606Y-101661551D01*
X104827025Y-101644003D01*
X104854930Y-101633270D01*
X104888603Y-101629494D01*
X104923395Y-101633821D01*
X104953105Y-101646344D01*
X104978958Y-101667321D01*
X104998525Y-101694372D01*
X105010455Y-101726124D01*
X105014632Y-101763904D01*
X105080761Y-101763904D01*
X105077562Y-101719085D01*
X105068352Y-101679278D01*
X105053467Y-101643691D01*
X105032737Y-101611284D01*
X105007653Y-101584332D01*
X104977904Y-101562312D01*
X104944614Y-101546140D01*
X104908101Y-101536295D01*
X104867629Y-101532911D01*
X104828426Y-101535957D01*
X104793305Y-101544776D01*
X104761566Y-101559152D01*
X104733267Y-101579191D01*
X104709398Y-101604687D01*
X104689667Y-101636318D01*
X104675812Y-101671176D01*
X104667039Y-101711934D01*
X104663930Y-101759691D01*
X104663930Y-102060018D01*
X104667687Y-102081353D01*
X104678630Y-102098349D01*
X104695357Y-102109620D01*
X104717465Y-102113553D01*
G37*
G36*
X112840402Y-103372500D02*
G01*
X112861740Y-103368525D01*
X112879237Y-103356746D01*
X112891016Y-103339249D01*
X112894990Y-103317911D01*
X112894990Y-102607027D01*
X112890952Y-102584877D01*
X112879237Y-102567689D01*
X112861779Y-102556302D01*
X112840402Y-102552439D01*
X112365777Y-102552439D01*
X112343584Y-102556143D01*
X112326943Y-102566635D01*
X112316038Y-102582727D01*
X112312242Y-102603913D01*
X112316008Y-102624063D01*
X112326943Y-102639588D01*
X112343538Y-102649658D01*
X112365777Y-102653235D01*
X112785814Y-102653235D01*
X112785814Y-102908408D01*
X112484433Y-102908408D01*
X112462240Y-102912111D01*
X112445599Y-102922604D01*
X112434647Y-102938545D01*
X112430898Y-102958783D01*
X112434647Y-102979068D01*
X112445599Y-102995053D01*
X112462237Y-103005510D01*
X112484433Y-103009204D01*
X112785814Y-103009204D01*
X112785814Y-103271704D01*
X112365777Y-103271704D01*
X112343538Y-103275280D01*
X112326943Y-103285351D01*
X112316010Y-103300882D01*
X112312242Y-103321071D01*
X112316034Y-103342225D01*
X112326943Y-103358349D01*
X112343580Y-103368806D01*
X112365777Y-103372500D01*
X112840402Y-103372500D01*
G37*
G36*
X111965852Y-102798301D02*
G01*
X112015566Y-102810836D01*
X112060321Y-102831242D01*
X112100702Y-102859294D01*
X112134665Y-102893412D01*
X112162720Y-102934145D01*
X112183081Y-102979232D01*
X112195611Y-103029458D01*
X112199952Y-103085865D01*
X112195912Y-103141698D01*
X112184249Y-103191605D01*
X112165330Y-103236533D01*
X112139076Y-103277506D01*
X112107521Y-103311585D01*
X112070304Y-103339435D01*
X112028636Y-103359906D01*
X111982589Y-103372404D01*
X111931178Y-103376713D01*
X111884023Y-103372435D01*
X111841647Y-103359981D01*
X111803087Y-103339435D01*
X111768964Y-103311795D01*
X111739805Y-103277756D01*
X111724319Y-103251610D01*
X111724319Y-103305317D01*
X111727372Y-103350242D01*
X111735974Y-103388356D01*
X111749552Y-103420768D01*
X111768644Y-103450178D01*
X111791147Y-103473761D01*
X111817284Y-103492163D01*
X111846417Y-103505570D01*
X111877217Y-103513617D01*
X111910157Y-103516343D01*
X111962748Y-103511175D01*
X112007839Y-103496376D01*
X112047384Y-103472371D01*
X112079234Y-103440735D01*
X112093808Y-103427070D01*
X112112299Y-103419715D01*
X112132166Y-103419692D01*
X112151683Y-103428141D01*
X112165279Y-103441636D01*
X112172154Y-103458595D01*
X112171589Y-103476873D01*
X112162170Y-103495369D01*
X112129701Y-103530274D01*
X112093095Y-103558842D01*
X112051940Y-103581465D01*
X112007719Y-103597729D01*
X111961324Y-103607543D01*
X111912264Y-103610865D01*
X111855999Y-103606234D01*
X111805788Y-103592829D01*
X111760543Y-103570932D01*
X111719931Y-103541181D01*
X111685981Y-103505491D01*
X111658190Y-103463312D01*
X111637921Y-103416943D01*
X111625620Y-103366987D01*
X111621417Y-103312645D01*
X111621417Y-103085865D01*
X111724319Y-103085865D01*
X111727083Y-103123770D01*
X111735049Y-103157496D01*
X111747950Y-103187715D01*
X111765866Y-103215169D01*
X111787641Y-103238129D01*
X111813575Y-103257003D01*
X111842499Y-103270824D01*
X111874471Y-103279275D01*
X111910157Y-103282191D01*
X111945874Y-103279274D01*
X111977861Y-103270823D01*
X112006786Y-103257003D01*
X112032758Y-103238149D01*
X112054722Y-103215188D01*
X112072961Y-103187715D01*
X112086146Y-103157467D01*
X112094276Y-103123744D01*
X112097095Y-103085865D01*
X112094284Y-103047983D01*
X112086161Y-103014082D01*
X112072961Y-102983512D01*
X112054690Y-102955691D01*
X112032722Y-102932557D01*
X112006786Y-102913674D01*
X111977858Y-102899829D01*
X111945872Y-102891362D01*
X111910157Y-102888441D01*
X111874473Y-102891361D01*
X111842502Y-102899827D01*
X111813575Y-102913674D01*
X111787677Y-102932577D01*
X111765898Y-102955709D01*
X111747950Y-102983512D01*
X111735034Y-103014054D01*
X111727075Y-103047957D01*
X111724319Y-103085865D01*
X111621417Y-103085865D01*
X111625762Y-103029460D01*
X111638307Y-102979234D01*
X111658694Y-102934145D01*
X111686749Y-102893412D01*
X111720712Y-102859294D01*
X111761093Y-102831242D01*
X111805806Y-102810803D01*
X111855169Y-102798284D01*
X111910157Y-102793965D01*
X111965852Y-102798301D01*
G37*
G36*
X111192175Y-103376713D02*
G01*
X111249305Y-103372385D01*
X111300607Y-103359854D01*
X111347056Y-103339435D01*
X111389153Y-103311264D01*
X111424303Y-103277126D01*
X111453118Y-103236533D01*
X111474112Y-103191398D01*
X111486967Y-103141513D01*
X111491403Y-103085865D01*
X111487172Y-103029406D01*
X111474970Y-102979174D01*
X111455179Y-102934145D01*
X111427802Y-102893374D01*
X111394550Y-102859265D01*
X111354932Y-102831242D01*
X111310876Y-102810799D01*
X111262202Y-102798283D01*
X111207929Y-102793965D01*
X111154357Y-102798246D01*
X111107874Y-102810480D01*
X111067245Y-102830189D01*
X111031167Y-102857344D01*
X111001397Y-102890377D01*
X110977486Y-102929931D01*
X110960603Y-102973286D01*
X110950126Y-103021802D01*
X110946482Y-103076386D01*
X110949940Y-103094759D01*
X110960129Y-103109496D01*
X110975384Y-103119229D01*
X110994796Y-103122593D01*
X111417901Y-103122593D01*
X111417901Y-103038604D01*
X110997910Y-103038604D01*
X111040958Y-103068005D01*
X111046914Y-103017476D01*
X111061978Y-102974033D01*
X111077328Y-102948055D01*
X111096155Y-102926325D01*
X111118673Y-102908408D01*
X111144167Y-102895263D01*
X111173626Y-102887095D01*
X111207929Y-102884228D01*
X111247097Y-102887344D01*
X111280919Y-102896231D01*
X111310327Y-102910514D01*
X111336397Y-102930176D01*
X111357807Y-102954007D01*
X111374899Y-102982459D01*
X111386944Y-103013591D01*
X111394364Y-103047874D01*
X111396927Y-103085865D01*
X111393899Y-103123647D01*
X111385100Y-103157728D01*
X111370686Y-103188768D01*
X111350985Y-103216735D01*
X111326970Y-103240427D01*
X111298237Y-103260163D01*
X111266499Y-103274539D01*
X111231377Y-103283358D01*
X111192175Y-103286404D01*
X111159657Y-103283470D01*
X111125497Y-103274360D01*
X111093494Y-103260764D01*
X111070359Y-103246516D01*
X111053819Y-103237653D01*
X111036241Y-103234426D01*
X111019003Y-103236929D01*
X111004230Y-103245463D01*
X110990292Y-103262526D01*
X110985317Y-103280130D01*
X110988797Y-103297310D01*
X111002124Y-103312645D01*
X111041021Y-103337768D01*
X111090875Y-103358852D01*
X111143615Y-103372409D01*
X111192175Y-103376713D01*
G37*
G36*
X110759178Y-103013417D02*
G01*
X110755638Y-102972300D01*
X110745296Y-102934916D01*
X110728220Y-102900531D01*
X110705207Y-102869605D01*
X110677525Y-102843284D01*
X110644735Y-102821259D01*
X110608745Y-102804991D01*
X110570444Y-102795189D01*
X110529239Y-102791858D01*
X110487430Y-102794597D01*
X110456985Y-102801797D01*
X110435266Y-102812329D01*
X110418129Y-102827804D01*
X110410879Y-102843643D01*
X110411636Y-102861147D01*
X110416420Y-102874477D01*
X110423726Y-102883724D01*
X110433296Y-102890163D01*
X110444197Y-102893707D01*
X110469384Y-102892654D01*
X110514309Y-102886220D01*
X110554316Y-102885732D01*
X110590147Y-102890547D01*
X110624540Y-102900941D01*
X110652359Y-102915359D01*
X110674685Y-102933595D01*
X110691750Y-102956226D01*
X110702057Y-102982477D01*
X110705643Y-103013417D01*
X110759178Y-103013417D01*
G37*
G36*
X110758125Y-103372500D02*
G01*
X110781153Y-103368975D01*
X110796960Y-103359402D01*
X110806894Y-103343828D01*
X110810607Y-103320018D01*
X110810607Y-102850659D01*
X110806952Y-102827682D01*
X110796960Y-102811825D01*
X110781098Y-102801797D01*
X110758125Y-102798132D01*
X110734274Y-102801726D01*
X110718787Y-102811275D01*
X110709236Y-102826801D01*
X110705643Y-102850659D01*
X110705643Y-103320018D01*
X110709179Y-103343041D01*
X110718787Y-103358852D01*
X110734323Y-103368785D01*
X110758125Y-103372500D01*
G37*
G36*
X110091708Y-103376713D02*
G01*
X110140305Y-103374115D01*
X110185486Y-103366523D01*
X110227675Y-103354135D01*
X110268146Y-103336774D01*
X110300077Y-103317626D01*
X110324808Y-103296891D01*
X110336022Y-103278752D01*
X110337951Y-103258560D01*
X110331541Y-103239087D01*
X110317435Y-103223389D01*
X110295866Y-103211208D01*
X110275990Y-103209238D01*
X110257058Y-103215084D01*
X110240819Y-103227602D01*
X110219356Y-103245731D01*
X110183574Y-103264880D01*
X110142590Y-103277739D01*
X110095922Y-103282191D01*
X110055551Y-103279572D01*
X110025312Y-103272600D01*
X110003002Y-103262270D01*
X109984476Y-103247010D01*
X109973865Y-103230089D01*
X109969892Y-103210795D01*
X109972577Y-103191256D01*
X109982125Y-103173320D01*
X109999842Y-103156207D01*
X110021995Y-103143541D01*
X110057938Y-103130731D01*
X110112683Y-103118380D01*
X110182446Y-103100235D01*
X110232241Y-103078927D01*
X110266556Y-103055411D01*
X110293394Y-103024852D01*
X110309021Y-102990986D01*
X110314320Y-102952509D01*
X110310631Y-102917996D01*
X110300084Y-102888794D01*
X110282813Y-102863757D01*
X110260189Y-102842576D01*
X110233436Y-102825096D01*
X110201984Y-102811275D01*
X110151711Y-102798317D01*
X110099036Y-102793965D01*
X110053252Y-102796574D01*
X110012535Y-102804057D01*
X109976212Y-102816038D01*
X109942124Y-102833086D01*
X109914028Y-102853371D01*
X109891170Y-102876900D01*
X109880238Y-102894540D01*
X109877523Y-102912071D01*
X109882325Y-102928721D01*
X109895337Y-102943029D01*
X109913359Y-102950597D01*
X109935271Y-102950402D01*
X109956726Y-102943467D01*
X109974105Y-102931489D01*
X110001863Y-102909957D01*
X110030800Y-102896867D01*
X110062602Y-102889896D01*
X110101142Y-102887387D01*
X110145097Y-102891590D01*
X110179407Y-102903141D01*
X110197778Y-102915854D01*
X110207982Y-102930973D01*
X110211418Y-102949349D01*
X110208899Y-102967425D01*
X110201434Y-102983512D01*
X110188038Y-102996916D01*
X110162050Y-103010806D01*
X110129043Y-103021832D01*
X110075955Y-103034391D01*
X110001856Y-103053425D01*
X109951528Y-103074325D01*
X109922548Y-103092306D01*
X109901100Y-103111013D01*
X109885903Y-103130470D01*
X109871064Y-103164489D01*
X109865936Y-103204521D01*
X109868847Y-103235923D01*
X109877405Y-103264780D01*
X109891673Y-103291670D01*
X109910955Y-103315257D01*
X109935868Y-103335890D01*
X109967282Y-103353632D01*
X110001313Y-103365927D01*
X110042345Y-103373861D01*
X110091708Y-103376713D01*
G37*
G36*
X109521646Y-103372500D02*
G01*
X109555848Y-103369458D01*
X109587136Y-103360544D01*
X109616122Y-103345755D01*
X109642016Y-103325850D01*
X109663996Y-103301669D01*
X109682296Y-103272757D01*
X109695546Y-103241160D01*
X109703646Y-103206698D01*
X109706431Y-103168801D01*
X109706431Y-102667935D01*
X109702655Y-102646694D01*
X109691730Y-102630154D01*
X109675190Y-102619229D01*
X109653949Y-102615454D01*
X109632668Y-102619231D01*
X109616122Y-102630154D01*
X109605197Y-102646694D01*
X109601421Y-102667935D01*
X109601421Y-103168801D01*
X109598712Y-103195975D01*
X109590966Y-103219148D01*
X109578340Y-103239143D01*
X109561362Y-103255174D01*
X109542711Y-103264389D01*
X109521646Y-103267490D01*
X109485925Y-103267490D01*
X109468581Y-103271123D01*
X109453914Y-103282191D01*
X109444192Y-103298611D01*
X109440771Y-103320018D01*
X109445126Y-103341040D01*
X109458127Y-103357799D01*
X109477409Y-103368649D01*
X109502732Y-103372500D01*
X109521646Y-103372500D01*
G37*
G36*
X109754745Y-102909461D02*
G01*
X109775069Y-102906172D01*
X109790420Y-102896867D01*
X109800642Y-102882700D01*
X109804067Y-102865360D01*
X109800543Y-102846175D01*
X109790420Y-102831746D01*
X109775069Y-102822441D01*
X109754745Y-102819152D01*
X109512166Y-102819152D01*
X109491841Y-102822441D01*
X109476491Y-102831746D01*
X109466367Y-102846175D01*
X109462844Y-102865360D01*
X109466268Y-102882700D01*
X109476491Y-102896867D01*
X109491841Y-102906172D01*
X109512166Y-102909461D01*
X109754745Y-102909461D01*
G37*
G36*
X109258550Y-103013417D02*
G01*
X109255010Y-102972300D01*
X109244668Y-102934916D01*
X109227592Y-102900531D01*
X109204579Y-102869605D01*
X109176897Y-102843284D01*
X109144107Y-102821259D01*
X109108116Y-102804991D01*
X109069816Y-102795189D01*
X109028611Y-102791858D01*
X108986802Y-102794597D01*
X108956357Y-102801797D01*
X108934638Y-102812329D01*
X108917501Y-102827804D01*
X108910251Y-102843643D01*
X108911008Y-102861147D01*
X108915792Y-102874477D01*
X108923098Y-102883724D01*
X108932668Y-102890163D01*
X108943568Y-102893707D01*
X108968756Y-102892654D01*
X109013681Y-102886220D01*
X109053688Y-102885732D01*
X109089519Y-102890547D01*
X109123911Y-102900941D01*
X109151731Y-102915359D01*
X109174057Y-102933595D01*
X109191122Y-102956226D01*
X109201429Y-102982477D01*
X109205015Y-103013417D01*
X109258550Y-103013417D01*
G37*
G36*
X109257497Y-103372500D02*
G01*
X109280524Y-103368975D01*
X109296331Y-103359402D01*
X109306266Y-103343828D01*
X109309979Y-103320018D01*
X109309979Y-102850659D01*
X109306324Y-102827682D01*
X109296331Y-102811825D01*
X109280470Y-102801797D01*
X109257497Y-102798132D01*
X109233646Y-102801726D01*
X109218159Y-102811275D01*
X109208608Y-102826801D01*
X109205015Y-102850659D01*
X109205015Y-103320018D01*
X109208551Y-103343041D01*
X109218159Y-103358852D01*
X109233695Y-103368785D01*
X109257497Y-103372500D01*
G37*
G36*
X108905879Y-103389306D02*
G01*
X108933196Y-103383974D01*
X108956803Y-103367783D01*
X108972994Y-103344175D01*
X108978327Y-103316858D01*
X108972946Y-103288635D01*
X108956803Y-103264880D01*
X108933196Y-103248689D01*
X108905879Y-103243356D01*
X108877751Y-103248756D01*
X108854450Y-103264880D01*
X108838702Y-103288596D01*
X108833430Y-103316858D01*
X108838654Y-103344214D01*
X108854450Y-103367783D01*
X108877751Y-103383907D01*
X108905879Y-103389306D01*
G37*
G36*
X108227361Y-102555109D02*
G01*
X108269785Y-102565882D01*
X108308064Y-102583442D01*
X108342541Y-102607524D01*
X108371442Y-102636768D01*
X108395213Y-102671645D01*
X108412450Y-102710182D01*
X108423023Y-102752770D01*
X108426674Y-102800239D01*
X108423007Y-102848413D01*
X108412417Y-102891352D01*
X108395213Y-102929931D01*
X108371447Y-102964782D01*
X108342546Y-102994028D01*
X108308064Y-103018134D01*
X108269788Y-103035669D01*
X108227364Y-103046427D01*
X108179928Y-103050145D01*
X108161693Y-103048718D01*
X108305957Y-103288465D01*
X108313766Y-103307718D01*
X108313834Y-103326292D01*
X108307382Y-103343617D01*
X108295424Y-103357799D01*
X108279195Y-103367140D01*
X108258696Y-103370393D01*
X108240635Y-103367266D01*
X108224771Y-103357856D01*
X108210382Y-103340992D01*
X107966796Y-102934648D01*
X107966899Y-102934705D01*
X107963636Y-102929931D01*
X107946405Y-102891350D01*
X107935801Y-102848411D01*
X107932128Y-102800239D01*
X108032924Y-102800239D01*
X108037716Y-102844385D01*
X108051334Y-102881113D01*
X108073419Y-102912120D01*
X108102762Y-102935702D01*
X108137807Y-102950506D01*
X108178875Y-102955623D01*
X108219949Y-102950508D01*
X108255033Y-102935702D01*
X108284492Y-102912142D01*
X108307011Y-102881113D01*
X108320974Y-102844356D01*
X108325878Y-102800239D01*
X108321016Y-102756966D01*
X108307011Y-102719913D01*
X108284429Y-102688544D01*
X108255033Y-102665325D01*
X108219981Y-102650901D01*
X108178875Y-102645908D01*
X108137776Y-102650903D01*
X108102762Y-102665325D01*
X108073482Y-102688565D01*
X108051334Y-102719913D01*
X108037675Y-102756939D01*
X108032924Y-102800239D01*
X107932128Y-102800239D01*
X107935784Y-102752773D01*
X107946372Y-102710184D01*
X107963636Y-102671645D01*
X107987437Y-102636806D01*
X108016511Y-102607558D01*
X108051334Y-102583442D01*
X108089905Y-102565867D01*
X108132490Y-102555101D01*
X108179928Y-102551386D01*
X108227361Y-102555109D01*
G37*
G36*
X107926541Y-103554170D02*
G01*
X107937885Y-103551979D01*
X107945959Y-103545744D01*
X107951087Y-103536795D01*
X107952782Y-103526830D01*
X107949713Y-103507113D01*
X107940738Y-103490606D01*
X107916558Y-103457542D01*
X107907610Y-103438270D01*
X107904468Y-103414494D01*
X107906696Y-103397796D01*
X107912894Y-103385093D01*
X107931808Y-103363569D01*
X107950721Y-103340992D01*
X107956886Y-103327265D01*
X107959102Y-103309485D01*
X107954301Y-103283327D01*
X107940188Y-103262270D01*
X107918520Y-103248330D01*
X107888714Y-103243356D01*
X107863480Y-103246611D01*
X107843811Y-103255725D01*
X107828356Y-103270650D01*
X107817324Y-103289865D01*
X107809979Y-103313964D01*
X107806832Y-103344152D01*
X107809501Y-103377968D01*
X107817868Y-103414494D01*
X107830830Y-103450156D01*
X107847269Y-103482729D01*
X107866883Y-103512114D01*
X107886653Y-103534204D01*
X107908243Y-103549729D01*
X107926541Y-103554170D01*
G37*
G36*
X107200808Y-102555109D02*
G01*
X107243233Y-102565882D01*
X107281511Y-102583442D01*
X107315988Y-102607524D01*
X107344889Y-102636768D01*
X107368660Y-102671645D01*
X107385897Y-102710182D01*
X107396471Y-102752770D01*
X107400122Y-102800239D01*
X107396454Y-102848413D01*
X107385865Y-102891352D01*
X107368660Y-102929931D01*
X107344894Y-102964782D01*
X107315993Y-102994028D01*
X107281511Y-103018134D01*
X107243235Y-103035669D01*
X107200811Y-103046427D01*
X107153375Y-103050145D01*
X107135140Y-103048718D01*
X107279405Y-103288465D01*
X107287214Y-103307718D01*
X107287281Y-103326292D01*
X107280829Y-103343617D01*
X107268872Y-103357799D01*
X107252642Y-103367140D01*
X107232144Y-103370393D01*
X107214082Y-103367266D01*
X107198218Y-103357856D01*
X107183829Y-103340992D01*
X106940243Y-102934648D01*
X106940346Y-102934705D01*
X106937083Y-102929931D01*
X106919853Y-102891350D01*
X106909248Y-102848411D01*
X106905576Y-102800239D01*
X107006372Y-102800239D01*
X107011164Y-102844385D01*
X107024781Y-102881113D01*
X107046867Y-102912120D01*
X107076210Y-102935702D01*
X107111254Y-102950506D01*
X107152322Y-102955623D01*
X107193396Y-102950508D01*
X107228480Y-102935702D01*
X107257939Y-102912142D01*
X107280458Y-102881113D01*
X107294421Y-102844356D01*
X107299326Y-102800239D01*
X107294463Y-102756966D01*
X107280458Y-102719913D01*
X107257876Y-102688544D01*
X107228480Y-102665325D01*
X107193428Y-102650901D01*
X107152322Y-102645908D01*
X107111223Y-102650903D01*
X107076210Y-102665325D01*
X107046929Y-102688565D01*
X107024781Y-102719913D01*
X107011122Y-102756939D01*
X107006372Y-102800239D01*
X106905576Y-102800239D01*
X106909232Y-102752773D01*
X106919820Y-102710184D01*
X106937083Y-102671645D01*
X106960884Y-102636806D01*
X106989958Y-102607558D01*
X107024781Y-102583442D01*
X107063352Y-102565867D01*
X107105937Y-102555101D01*
X107153375Y-102551386D01*
X107200808Y-102555109D01*
G37*
G36*
X106510131Y-103372500D02*
G01*
X106561796Y-103368651D01*
X106608059Y-103357525D01*
X106649808Y-103339435D01*
X106687785Y-103314479D01*
X106719449Y-103284497D01*
X106745383Y-103249126D01*
X106764493Y-103209723D01*
X106776054Y-103167107D01*
X106780004Y-103120487D01*
X106776328Y-103098205D01*
X106765853Y-103081148D01*
X106750120Y-103069669D01*
X106731690Y-103065898D01*
X106712492Y-103069735D01*
X106697069Y-103081148D01*
X106686981Y-103098164D01*
X106683422Y-103120487D01*
X106677894Y-103161903D01*
X106661394Y-103199759D01*
X106635484Y-103232220D01*
X106601539Y-103257507D01*
X106561787Y-103273540D01*
X106516451Y-103279031D01*
X106471711Y-103274448D01*
X106435021Y-103261538D01*
X106404664Y-103240746D01*
X106381538Y-103212612D01*
X106367234Y-103177430D01*
X106362120Y-103133080D01*
X106366965Y-103090726D01*
X106381034Y-103053808D01*
X106403420Y-103022083D01*
X106432462Y-102997663D01*
X106466867Y-102981970D01*
X106505964Y-102976643D01*
X106527214Y-102972652D01*
X106544295Y-102960889D01*
X106555646Y-102943436D01*
X106559499Y-102922055D01*
X106555626Y-102900728D01*
X106544295Y-102883724D01*
X106527258Y-102872389D01*
X106505964Y-102868520D01*
X106477302Y-102864775D01*
X106449269Y-102853316D01*
X106424339Y-102835449D01*
X106404115Y-102812329D01*
X106390763Y-102785026D01*
X106386254Y-102754031D01*
X106390039Y-102724703D01*
X106401106Y-102699138D01*
X106419868Y-102676362D01*
X106443895Y-102659100D01*
X106472194Y-102648553D01*
X106505964Y-102644854D01*
X106544528Y-102648876D01*
X106578916Y-102660608D01*
X106608951Y-102679281D01*
X106631444Y-102702602D01*
X106646010Y-102730433D01*
X106650861Y-102761404D01*
X106654384Y-102783907D01*
X106664508Y-102801841D01*
X106680014Y-102814047D01*
X106699129Y-102818099D01*
X106717563Y-102814338D01*
X106733293Y-102802895D01*
X106743811Y-102785942D01*
X106747444Y-102764564D01*
X106743863Y-102724900D01*
X106733376Y-102688738D01*
X106715982Y-102655341D01*
X106692607Y-102625617D01*
X106664100Y-102600326D01*
X106629887Y-102579229D01*
X106592577Y-102563921D01*
X106552178Y-102554585D01*
X106508070Y-102551386D01*
X106467448Y-102554465D01*
X106430375Y-102563443D01*
X106396238Y-102578176D01*
X106365037Y-102598356D01*
X106338958Y-102622422D01*
X106317515Y-102650625D01*
X106301565Y-102682139D01*
X106291919Y-102716378D01*
X106288618Y-102754031D01*
X106293344Y-102793174D01*
X106306982Y-102826525D01*
X106327857Y-102855783D01*
X106353694Y-102880564D01*
X106382980Y-102901265D01*
X106413548Y-102917841D01*
X106361905Y-102940743D01*
X106323285Y-102968766D01*
X106293078Y-103003492D01*
X106272361Y-103042817D01*
X106260224Y-103086138D01*
X106256058Y-103134134D01*
X106260011Y-103178629D01*
X106271575Y-103219145D01*
X106290725Y-103256499D01*
X106316344Y-103289931D01*
X106346973Y-103318164D01*
X106383094Y-103341542D01*
X106422590Y-103358645D01*
X106464727Y-103368981D01*
X106510131Y-103372500D01*
G37*
G36*
X105944822Y-102554570D02*
G01*
X105980106Y-102563817D01*
X106012186Y-102578965D01*
X106041597Y-102600249D01*
X106074776Y-102635848D01*
X106103404Y-102682054D01*
X106127189Y-102740933D01*
X106142862Y-102802855D01*
X106152975Y-102875958D01*
X106156590Y-102961943D01*
X106152975Y-103047926D01*
X106142863Y-103121045D01*
X106127189Y-103182998D01*
X106103404Y-103241877D01*
X106074776Y-103288083D01*
X106041597Y-103323681D01*
X106012189Y-103344944D01*
X105980109Y-103360079D01*
X105944824Y-103369318D01*
X105905630Y-103372500D01*
X105866467Y-103369258D01*
X105831199Y-103359837D01*
X105799110Y-103344383D01*
X105769663Y-103322628D01*
X105736435Y-103286398D01*
X105707810Y-103239807D01*
X105684071Y-103180891D01*
X105668357Y-103118941D01*
X105658264Y-103046475D01*
X105654671Y-102961943D01*
X105762840Y-102961943D01*
X105766992Y-103045651D01*
X105778593Y-103116319D01*
X105791650Y-103160893D01*
X105807523Y-103196258D01*
X105825809Y-103223939D01*
X105849053Y-103246055D01*
X105875283Y-103258905D01*
X105905630Y-103263277D01*
X105935340Y-103258994D01*
X105961412Y-103246333D01*
X105984902Y-103224443D01*
X106003455Y-103197062D01*
X106019514Y-103161897D01*
X106032667Y-103117373D01*
X106044254Y-103046586D01*
X106048421Y-102961943D01*
X106044254Y-102877304D01*
X106032667Y-102806558D01*
X106019580Y-102761953D01*
X106003691Y-102726591D01*
X105985406Y-102698939D01*
X105962159Y-102676791D01*
X105935944Y-102663930D01*
X105905630Y-102659555D01*
X105875322Y-102663976D01*
X105849094Y-102676988D01*
X105825809Y-102699443D01*
X105807501Y-102727436D01*
X105791631Y-102763001D01*
X105778593Y-102807612D01*
X105766993Y-102878239D01*
X105762840Y-102961943D01*
X105654671Y-102961943D01*
X105658265Y-102877410D01*
X105668358Y-102804960D01*
X105684071Y-102743040D01*
X105707812Y-102684093D01*
X105736438Y-102637488D01*
X105769663Y-102601257D01*
X105799110Y-102579502D01*
X105831199Y-102564048D01*
X105866467Y-102554627D01*
X105905630Y-102551386D01*
X105944822Y-102554570D01*
G37*
G36*
X105267607Y-103372500D02*
G01*
X105317260Y-103368460D01*
X105362332Y-103356685D01*
X105403665Y-103337329D01*
X105440997Y-103311014D01*
X105472619Y-103279224D01*
X105498966Y-103241478D01*
X105518338Y-103199764D01*
X105530105Y-103154455D01*
X105534137Y-103104733D01*
X105530366Y-103083224D01*
X105519436Y-103066311D01*
X105502856Y-103055067D01*
X105481609Y-103051198D01*
X105460150Y-103055036D01*
X105442729Y-103066311D01*
X105431017Y-103083305D01*
X105427021Y-103104733D01*
X105421662Y-103148518D01*
X105406001Y-103186936D01*
X105381138Y-103219584D01*
X105348802Y-103244409D01*
X105310732Y-103260023D01*
X105266966Y-103265384D01*
X105223136Y-103260016D01*
X105184900Y-103244364D01*
X105152417Y-103219426D01*
X105127656Y-103186707D01*
X105112099Y-103148207D01*
X105106773Y-103104321D01*
X105112108Y-103060482D01*
X105127656Y-103022255D01*
X105152408Y-102989763D01*
X105184900Y-102965011D01*
X105223191Y-102949442D01*
X105267424Y-102944082D01*
X105442775Y-102944082D01*
X105463832Y-102940206D01*
X105480464Y-102928878D01*
X105491479Y-102911875D01*
X105495256Y-102890547D01*
X105495256Y-102607027D01*
X105491496Y-102585614D01*
X105480464Y-102568193D01*
X105463788Y-102556437D01*
X105442775Y-102552439D01*
X105092073Y-102552439D01*
X105071723Y-102556482D01*
X105054337Y-102568742D01*
X105042443Y-102586468D01*
X105038538Y-102606707D01*
X105042313Y-102626849D01*
X105053650Y-102643984D01*
X105070602Y-102655586D01*
X105092073Y-102659555D01*
X105389240Y-102659555D01*
X105389240Y-102837012D01*
X105267424Y-102837012D01*
X105217099Y-102841071D01*
X105171721Y-102852863D01*
X105130403Y-102872183D01*
X105093047Y-102898479D01*
X105061395Y-102930183D01*
X105035011Y-102967759D01*
X105015551Y-103009252D01*
X105003717Y-103054476D01*
X104999657Y-103104275D01*
X105003709Y-103154112D01*
X105015537Y-103199526D01*
X105035011Y-103241341D01*
X105061423Y-103279173D01*
X105093092Y-103311007D01*
X105130449Y-103337329D01*
X105171797Y-103356648D01*
X105217221Y-103368440D01*
X105267607Y-103372500D01*
G37*
G36*
X104792020Y-103372500D02*
G01*
X104811586Y-103368620D01*
X104828794Y-103356746D01*
X104840621Y-103339396D01*
X104844548Y-103318965D01*
X104841937Y-103302661D01*
X104835068Y-103285351D01*
X104533733Y-102659555D01*
X104852928Y-102659555D01*
X104874254Y-102655682D01*
X104891259Y-102644351D01*
X104902594Y-102627314D01*
X104906463Y-102606020D01*
X104902590Y-102584693D01*
X104891259Y-102567689D01*
X104874251Y-102556322D01*
X104852928Y-102552439D01*
X104452904Y-102552439D01*
X104432433Y-102556368D01*
X104415077Y-102568193D01*
X104403252Y-102585549D01*
X104399323Y-102606020D01*
X104401430Y-102620170D01*
X104406697Y-102634367D01*
X104742698Y-103343099D01*
X104755917Y-103359670D01*
X104772028Y-103369211D01*
X104792020Y-103372500D01*
G37*
G36*
X103923224Y-102556302D02*
G01*
X103940681Y-102567689D01*
X103952396Y-102584877D01*
X103956435Y-102607027D01*
X103956435Y-103317911D01*
X103952460Y-103339249D01*
X103940681Y-103356746D01*
X103923184Y-103368525D01*
X103901847Y-103372500D01*
X103879697Y-103368461D01*
X103862508Y-103356746D01*
X103851121Y-103339289D01*
X103847258Y-103317911D01*
X103847258Y-103056465D01*
X103712848Y-103056465D01*
X103694065Y-103055129D01*
X103513363Y-103346259D01*
X103503820Y-103358280D01*
X103492892Y-103366226D01*
X103480275Y-103370901D01*
X103466102Y-103372500D01*
X103445324Y-103369330D01*
X103430036Y-103360506D01*
X103418841Y-103345755D01*
X103413403Y-103327893D01*
X103414895Y-103309230D01*
X103424108Y-103288510D01*
X103584837Y-103029760D01*
X103573218Y-103024957D01*
X103535215Y-103000985D01*
X103503757Y-102972048D01*
X103478192Y-102937808D01*
X103459395Y-102899451D01*
X103447959Y-102857391D01*
X103444029Y-102810771D01*
X103549038Y-102810771D01*
X103554384Y-102850857D01*
X103570058Y-102885830D01*
X103594807Y-102915075D01*
X103627806Y-102937305D01*
X103666568Y-102950889D01*
X103712848Y-102955669D01*
X103847258Y-102955669D01*
X103847258Y-102653235D01*
X103712848Y-102653235D01*
X103666665Y-102658408D01*
X103627806Y-102673202D01*
X103594946Y-102697142D01*
X103570058Y-102728889D01*
X103554437Y-102766639D01*
X103549038Y-102810771D01*
X103444029Y-102810771D01*
X103448015Y-102760605D01*
X103459510Y-102716130D01*
X103478192Y-102676362D01*
X103503835Y-102640696D01*
X103535312Y-102610555D01*
X103573218Y-102585549D01*
X103614939Y-102567434D01*
X103661186Y-102556293D01*
X103712848Y-102552439D01*
X103901847Y-102552439D01*
X103923224Y-102556302D01*
G37*
G36*
X103099103Y-102798301D02*
G01*
X103148818Y-102810836D01*
X103193573Y-102831242D01*
X103233954Y-102859294D01*
X103267917Y-102893412D01*
X103295972Y-102934145D01*
X103316333Y-102979232D01*
X103328863Y-103029458D01*
X103333203Y-103085865D01*
X103329164Y-103141698D01*
X103317501Y-103191605D01*
X103298582Y-103236533D01*
X103272328Y-103277506D01*
X103240773Y-103311585D01*
X103203556Y-103339435D01*
X103161888Y-103359906D01*
X103115841Y-103372404D01*
X103064429Y-103376713D01*
X103017275Y-103372435D01*
X102974898Y-103359981D01*
X102936339Y-103339435D01*
X102902216Y-103311795D01*
X102873057Y-103277756D01*
X102857571Y-103251610D01*
X102857571Y-103305317D01*
X102860624Y-103350242D01*
X102869226Y-103388356D01*
X102882804Y-103420768D01*
X102901896Y-103450178D01*
X102924399Y-103473761D01*
X102950536Y-103492163D01*
X102979669Y-103505570D01*
X103010469Y-103513617D01*
X103043409Y-103516343D01*
X103096000Y-103511175D01*
X103141091Y-103496376D01*
X103180636Y-103472371D01*
X103212486Y-103440735D01*
X103227060Y-103427070D01*
X103245551Y-103419715D01*
X103265418Y-103419692D01*
X103284935Y-103428141D01*
X103298531Y-103441636D01*
X103305406Y-103458595D01*
X103304841Y-103476873D01*
X103295422Y-103495369D01*
X103262952Y-103530274D01*
X103226347Y-103558842D01*
X103185192Y-103581465D01*
X103140971Y-103597729D01*
X103094576Y-103607543D01*
X103045516Y-103610865D01*
X102989250Y-103606234D01*
X102939040Y-103592829D01*
X102893795Y-103570932D01*
X102853182Y-103541181D01*
X102819233Y-103505491D01*
X102791442Y-103463312D01*
X102771173Y-103416943D01*
X102758872Y-103366987D01*
X102754668Y-103312645D01*
X102754668Y-103085865D01*
X102857571Y-103085865D01*
X102860335Y-103123770D01*
X102868301Y-103157496D01*
X102881202Y-103187715D01*
X102899118Y-103215169D01*
X102920892Y-103238129D01*
X102946827Y-103257003D01*
X102975751Y-103270824D01*
X103007723Y-103279275D01*
X103043409Y-103282191D01*
X103079126Y-103279274D01*
X103111113Y-103270823D01*
X103140038Y-103257003D01*
X103166010Y-103238149D01*
X103187974Y-103215188D01*
X103206212Y-103187715D01*
X103219398Y-103157467D01*
X103227528Y-103123744D01*
X103230347Y-103085865D01*
X103227536Y-103047983D01*
X103219413Y-103014082D01*
X103206212Y-102983512D01*
X103187941Y-102955691D01*
X103165974Y-102932557D01*
X103140038Y-102913674D01*
X103111110Y-102899829D01*
X103079124Y-102891362D01*
X103043409Y-102888441D01*
X103007725Y-102891361D01*
X102975754Y-102899827D01*
X102946827Y-102913674D01*
X102920929Y-102932577D01*
X102899150Y-102955709D01*
X102881202Y-102983512D01*
X102868285Y-103014054D01*
X102860327Y-103047957D01*
X102857571Y-103085865D01*
X102754668Y-103085865D01*
X102759014Y-103029460D01*
X102771559Y-102979234D01*
X102791946Y-102934145D01*
X102820001Y-102893412D01*
X102853964Y-102859294D01*
X102894345Y-102831242D01*
X102939057Y-102810803D01*
X102988421Y-102798284D01*
X103043409Y-102793965D01*
X103099103Y-102798301D01*
G37*
G36*
X102563086Y-102556199D02*
G01*
X102580050Y-102567139D01*
X102591320Y-102583872D01*
X102595254Y-102606020D01*
X102595254Y-103084812D01*
X102590352Y-103139079D01*
X102577369Y-103188499D01*
X102556465Y-103233922D01*
X102528099Y-103275065D01*
X102493956Y-103309707D01*
X102453563Y-103338382D01*
X102408788Y-103359493D01*
X102360074Y-103372317D01*
X102306513Y-103376713D01*
X102252282Y-103372299D01*
X102203261Y-103359457D01*
X102158502Y-103338382D01*
X102118046Y-103309723D01*
X102083715Y-103275080D01*
X102055050Y-103233922D01*
X102033941Y-103188463D01*
X102021114Y-103139058D01*
X102016719Y-103084812D01*
X102119622Y-103084812D01*
X102122448Y-103121266D01*
X102130708Y-103154682D01*
X102144306Y-103185608D01*
X102162881Y-103213802D01*
X102185026Y-103237286D01*
X102210984Y-103256499D01*
X102239923Y-103270645D01*
X102271556Y-103279241D01*
X102306513Y-103282191D01*
X102340809Y-103279268D01*
X102372310Y-103270699D01*
X102401585Y-103256499D01*
X102427823Y-103237236D01*
X102449955Y-103213749D01*
X102468263Y-103185608D01*
X102481548Y-103154712D01*
X102489630Y-103121292D01*
X102492397Y-103084812D01*
X102489596Y-103047640D01*
X102481482Y-103014251D01*
X102468263Y-102984016D01*
X102450017Y-102956542D01*
X102427893Y-102933386D01*
X102401585Y-102914178D01*
X102372307Y-102899952D01*
X102340807Y-102891368D01*
X102306513Y-102888441D01*
X102271558Y-102891396D01*
X102239926Y-102900006D01*
X102210984Y-102914178D01*
X102184956Y-102933337D01*
X102162818Y-102956490D01*
X102144306Y-102984016D01*
X102130775Y-103014282D01*
X102122483Y-103047667D01*
X102119622Y-103084812D01*
X102016719Y-103084812D01*
X102020786Y-103030387D01*
X102032596Y-102981139D01*
X102051890Y-102936205D01*
X102078432Y-102895190D01*
X102110336Y-102860755D01*
X102147969Y-102832295D01*
X102189991Y-102811130D01*
X102235548Y-102798338D01*
X102285539Y-102793965D01*
X102326203Y-102796897D01*
X102363999Y-102805504D01*
X102399433Y-102819702D01*
X102432493Y-102838941D01*
X102461980Y-102862139D01*
X102488184Y-102889494D01*
X102488184Y-102606020D01*
X102492005Y-102583829D01*
X102502885Y-102567139D01*
X102519568Y-102556258D01*
X102541719Y-102552439D01*
X102563086Y-102556199D01*
G37*
D11*
G36*
X135015706Y-81261736D02*
G01*
X135038982Y-81276919D01*
X135054602Y-81299836D01*
X135059987Y-81329370D01*
X135059987Y-82277215D01*
X135054688Y-82305665D01*
X135038982Y-82328995D01*
X135015653Y-82344700D01*
X134987203Y-82350000D01*
X134733801Y-82350000D01*
X134654308Y-82345375D01*
X134581577Y-82331941D01*
X134514715Y-82310127D01*
X134451400Y-82279567D01*
X134394423Y-82241846D01*
X134343196Y-82196737D01*
X134298597Y-82145033D01*
X134261334Y-82087376D01*
X134231210Y-82023142D01*
X134209734Y-81955358D01*
X134196539Y-81882113D01*
X134192009Y-81802590D01*
X134332021Y-81802590D01*
X134338037Y-81882462D01*
X134355449Y-81954119D01*
X134383801Y-82018928D01*
X134422880Y-82077746D01*
X134470035Y-82126918D01*
X134525889Y-82167306D01*
X134588079Y-82196879D01*
X134656903Y-82214976D01*
X134733801Y-82221222D01*
X134914419Y-82221222D01*
X134914419Y-81385423D01*
X134733801Y-81385423D01*
X134656865Y-81391592D01*
X134588036Y-81409452D01*
X134525889Y-81438607D01*
X134470018Y-81478529D01*
X134422868Y-81527235D01*
X134383801Y-81585580D01*
X134355517Y-81649938D01*
X134338073Y-81721783D01*
X134332021Y-81802590D01*
X134192009Y-81802590D01*
X134196550Y-81723069D01*
X134209754Y-81650100D01*
X134231210Y-81582833D01*
X134261301Y-81519033D01*
X134298559Y-81461590D01*
X134343196Y-81409909D01*
X134394429Y-81364768D01*
X134451406Y-81327049D01*
X134514715Y-81296519D01*
X134581580Y-81274671D01*
X134654311Y-81261216D01*
X134733801Y-81256585D01*
X134987203Y-81256585D01*
X135015706Y-81261736D01*
G37*
G36*
X133892445Y-82350000D02*
G01*
X133920838Y-82344840D01*
X133943553Y-82329727D01*
X133958666Y-82307012D01*
X133963825Y-82278620D01*
X133963825Y-81655617D01*
X133958579Y-81626086D01*
X133943553Y-81603777D01*
X133920892Y-81589185D01*
X133892445Y-81584176D01*
X133862911Y-81589268D01*
X133840666Y-81603777D01*
X133826160Y-81626030D01*
X133821065Y-81655617D01*
X133821065Y-82278620D01*
X133826075Y-82307066D01*
X133840666Y-82329727D01*
X133862967Y-82344756D01*
X133892445Y-82350000D01*
G37*
G36*
X133892445Y-81459612D02*
G01*
X133927528Y-81452826D01*
X133957536Y-81432318D01*
X133978044Y-81402310D01*
X133984830Y-81367227D01*
X133978041Y-81332092D01*
X133957536Y-81302076D01*
X133927528Y-81281568D01*
X133892445Y-81274781D01*
X133857310Y-81281571D01*
X133827294Y-81302076D01*
X133806789Y-81332092D01*
X133800000Y-81367227D01*
X133806786Y-81402310D01*
X133827294Y-81432318D01*
X133857310Y-81452823D01*
X133892445Y-81459612D01*
G37*
G36*
X133208565Y-82355617D02*
G01*
X133281861Y-82349719D01*
X133347947Y-82332582D01*
X133408112Y-82304509D01*
X133462427Y-82266241D01*
X133507924Y-82220259D01*
X133545315Y-82165901D01*
X133572603Y-82105838D01*
X133589241Y-82040212D01*
X133594958Y-81967821D01*
X133589277Y-81893470D01*
X133572819Y-81826688D01*
X133545987Y-81766198D01*
X133509015Y-81711387D01*
X133464421Y-81665696D01*
X133411592Y-81628323D01*
X133352850Y-81601066D01*
X133287951Y-81584378D01*
X133215587Y-81578620D01*
X133161215Y-81582237D01*
X133111035Y-81592807D01*
X133064401Y-81610127D01*
X133020829Y-81634191D01*
X132979842Y-81665460D01*
X132941181Y-81704588D01*
X132927704Y-81727960D01*
X132927198Y-81750811D01*
X132937230Y-81772571D01*
X132957972Y-81792821D01*
X132978599Y-81802081D01*
X133001386Y-81801919D01*
X133023791Y-81793509D01*
X133044801Y-81777372D01*
X133081429Y-81745359D01*
X133121540Y-81722888D01*
X133165893Y-81709272D01*
X133215587Y-81704588D01*
X133262249Y-81708402D01*
X133303964Y-81719449D01*
X133341617Y-81737500D01*
X133375244Y-81762206D01*
X133403601Y-81792574D01*
X133427041Y-81829213D01*
X133443743Y-81869492D01*
X133454166Y-81915349D01*
X133457815Y-81967821D01*
X133454152Y-82017417D01*
X133443553Y-82061939D01*
X133426308Y-82102215D01*
X133402448Y-82138868D01*
X133373414Y-82169736D01*
X133338808Y-82195333D01*
X133300183Y-82214093D01*
X133257092Y-82225603D01*
X133208565Y-82229588D01*
X133161302Y-82226432D01*
X133122531Y-82217681D01*
X133087063Y-82202508D01*
X133054570Y-82180617D01*
X133031266Y-82166208D01*
X133008408Y-82160345D01*
X132985990Y-82162592D01*
X132966399Y-82173595D01*
X132947456Y-82195071D01*
X132939776Y-82217742D01*
X132942440Y-82240662D01*
X132956568Y-82261828D01*
X133009607Y-82302540D01*
X133068463Y-82331604D01*
X133134274Y-82349438D01*
X133208565Y-82355617D01*
G37*
G36*
X132354815Y-82355617D02*
G01*
X132430988Y-82349847D01*
X132499391Y-82333139D01*
X132561322Y-82305914D01*
X132617452Y-82268352D01*
X132664319Y-82222834D01*
X132702739Y-82168710D01*
X132730731Y-82108531D01*
X132747870Y-82042017D01*
X132753785Y-81967821D01*
X132748143Y-81892541D01*
X132731874Y-81825566D01*
X132705486Y-81765526D01*
X132668985Y-81711165D01*
X132624649Y-81665687D01*
X132571824Y-81628323D01*
X132513082Y-81601066D01*
X132448183Y-81584378D01*
X132375819Y-81578620D01*
X132304390Y-81584328D01*
X132242414Y-81600640D01*
X132188241Y-81626919D01*
X132140137Y-81663126D01*
X132100443Y-81707169D01*
X132068562Y-81759909D01*
X132046052Y-81817715D01*
X132032082Y-81882402D01*
X132027224Y-81955181D01*
X132031835Y-81979679D01*
X132045420Y-81999328D01*
X132065760Y-82012306D01*
X132091643Y-82016791D01*
X132655783Y-82016791D01*
X132655783Y-81904806D01*
X132095795Y-81904806D01*
X132153192Y-81944007D01*
X132161133Y-81876635D01*
X132181219Y-81818710D01*
X132201685Y-81784074D01*
X132226787Y-81755101D01*
X132256812Y-81731210D01*
X132290804Y-81713684D01*
X132330083Y-81702793D01*
X132375819Y-81698970D01*
X132428043Y-81703126D01*
X132473139Y-81714975D01*
X132512351Y-81734019D01*
X132547110Y-81760235D01*
X132575657Y-81792009D01*
X132598447Y-81829945D01*
X132614506Y-81871455D01*
X132624399Y-81917165D01*
X132627817Y-81967821D01*
X132623779Y-82018197D01*
X132612047Y-82063638D01*
X132592829Y-82105024D01*
X132566562Y-82142314D01*
X132534541Y-82173903D01*
X132496231Y-82200218D01*
X132453913Y-82219386D01*
X132407084Y-82231144D01*
X132354815Y-82235205D01*
X132311457Y-82231294D01*
X132265910Y-82219146D01*
X132223240Y-82201019D01*
X132192393Y-82182021D01*
X132170340Y-82170205D01*
X132146903Y-82165901D01*
X132123919Y-82169238D01*
X132104221Y-82180617D01*
X132085637Y-82203369D01*
X132079003Y-82226840D01*
X132083644Y-82249746D01*
X132101413Y-82270193D01*
X132153276Y-82303691D01*
X132219748Y-82331803D01*
X132290068Y-82349879D01*
X132354815Y-82355617D01*
G37*
G36*
X131787793Y-81261736D02*
G01*
X131811069Y-81276919D01*
X131826689Y-81299836D01*
X131832074Y-81329370D01*
X131832074Y-82277215D01*
X131826775Y-82305665D01*
X131811069Y-82328995D01*
X131787740Y-82344700D01*
X131759289Y-82350000D01*
X131505887Y-82350000D01*
X131426395Y-82345375D01*
X131353663Y-82331941D01*
X131286802Y-82310127D01*
X131223487Y-82279567D01*
X131166509Y-82241846D01*
X131115282Y-82196737D01*
X131070684Y-82145033D01*
X131033420Y-82087376D01*
X131003297Y-82023142D01*
X130981820Y-81955358D01*
X130968626Y-81882113D01*
X130964096Y-81802590D01*
X131104108Y-81802590D01*
X131110124Y-81882462D01*
X131127536Y-81954119D01*
X131155887Y-82018928D01*
X131194967Y-82077746D01*
X131242122Y-82126918D01*
X131297976Y-82167306D01*
X131360166Y-82196879D01*
X131428990Y-82214976D01*
X131505887Y-82221222D01*
X131686505Y-82221222D01*
X131686505Y-81385423D01*
X131505887Y-81385423D01*
X131428951Y-81391592D01*
X131360123Y-81409452D01*
X131297976Y-81438607D01*
X131242104Y-81478529D01*
X131194955Y-81527235D01*
X131155887Y-81585580D01*
X131127604Y-81649938D01*
X131110159Y-81721783D01*
X131104108Y-81802590D01*
X130964096Y-81802590D01*
X130968636Y-81723069D01*
X130981840Y-81650100D01*
X131003297Y-81582833D01*
X131033388Y-81519033D01*
X131070646Y-81461590D01*
X131115282Y-81409909D01*
X131166515Y-81364768D01*
X131223493Y-81327049D01*
X131286802Y-81296519D01*
X131353666Y-81274671D01*
X131426397Y-81261216D01*
X131505887Y-81256585D01*
X131759289Y-81256585D01*
X131787793Y-81261736D01*
G37*
G36*
X130663128Y-82350000D02*
G01*
X130691578Y-82344700D01*
X130714907Y-82328995D01*
X130730613Y-82305665D01*
X130735912Y-82277215D01*
X130735912Y-81329370D01*
X130730527Y-81299836D01*
X130714907Y-81276919D01*
X130691631Y-81261736D01*
X130663128Y-81256585D01*
X130633539Y-81261820D01*
X130610676Y-81276919D01*
X130595578Y-81299781D01*
X130590343Y-81329370D01*
X130590343Y-82277215D01*
X130595494Y-82305718D01*
X130610676Y-82328995D01*
X130633594Y-82344615D01*
X130663128Y-82350000D01*
G37*
G36*
X130266629Y-81261790D02*
G01*
X130289924Y-81277163D01*
X130305574Y-81300215D01*
X130310929Y-81329370D01*
X130310929Y-82277215D01*
X130305630Y-82305665D01*
X130289924Y-82328995D01*
X130266502Y-82344671D01*
X130237473Y-82350000D01*
X130208561Y-82344649D01*
X130185694Y-82328995D01*
X130170511Y-82305718D01*
X130165361Y-82277215D01*
X130165361Y-81970629D01*
X129958121Y-81970629D01*
X129889108Y-81965412D01*
X129827415Y-81950332D01*
X129771824Y-81925811D01*
X129721510Y-81891906D01*
X129679559Y-81850675D01*
X129645245Y-81801491D01*
X129620305Y-81746830D01*
X129605027Y-81686471D01*
X129599755Y-81619225D01*
X129739767Y-81619225D01*
X129746952Y-81679205D01*
X129767794Y-81731027D01*
X129801033Y-81774906D01*
X129844792Y-81808208D01*
X129896678Y-81828950D01*
X129958121Y-81836174D01*
X130165361Y-81836174D01*
X130165361Y-81390980D01*
X129958121Y-81390980D01*
X129916033Y-81394387D01*
X129878419Y-81404248D01*
X129844487Y-81420350D01*
X129800620Y-81455025D01*
X129767489Y-81500645D01*
X129746964Y-81554656D01*
X129739767Y-81619225D01*
X129599755Y-81619225D01*
X129605071Y-81549016D01*
X129620393Y-81486638D01*
X129645245Y-81430792D01*
X129679616Y-81380309D01*
X129721584Y-81337932D01*
X129771824Y-81302991D01*
X129827544Y-81277566D01*
X129889230Y-81261972D01*
X129958121Y-81256585D01*
X130238145Y-81256585D01*
X130266629Y-81261790D01*
G37*
G36*
X134602215Y-84052409D02*
G01*
X134690407Y-84046583D01*
X134769201Y-84029800D01*
X134839986Y-84002705D01*
X134905077Y-83964602D01*
X134958603Y-83918808D01*
X135001857Y-83864952D01*
X135033916Y-83803964D01*
X135053329Y-83737202D01*
X135059987Y-83663208D01*
X135059987Y-83009370D01*
X135054632Y-82980215D01*
X135038982Y-82957163D01*
X135015594Y-82941819D01*
X134986531Y-82936585D01*
X134957584Y-82941841D01*
X134934752Y-82957163D01*
X134919624Y-82980161D01*
X134914419Y-83009370D01*
X134914419Y-83663208D01*
X134909844Y-83712597D01*
X134896529Y-83756885D01*
X134874546Y-83797114D01*
X134844987Y-83832445D01*
X134808394Y-83862649D01*
X134763843Y-83887911D01*
X134715601Y-83905854D01*
X134662026Y-83916968D01*
X134602215Y-83920823D01*
X134544508Y-83916976D01*
X134492909Y-83905888D01*
X134446510Y-83887972D01*
X134403772Y-83862838D01*
X134368487Y-83832654D01*
X134339837Y-83797175D01*
X134318556Y-83756983D01*
X134305631Y-83712666D01*
X134301186Y-83663208D01*
X134301186Y-83009370D01*
X134295830Y-82980215D01*
X134280181Y-82957163D01*
X134256911Y-82941782D01*
X134228585Y-82936585D01*
X134198974Y-82941905D01*
X134176622Y-82957163D01*
X134162062Y-82980102D01*
X134157021Y-83009370D01*
X134157021Y-83663208D01*
X134163533Y-83737277D01*
X134182497Y-83804048D01*
X134213747Y-83864952D01*
X134255993Y-83918946D01*
X134308054Y-83964718D01*
X134371100Y-84002705D01*
X134439846Y-84029810D01*
X134516419Y-84046586D01*
X134602215Y-84052409D01*
G37*
G36*
X133578107Y-83264445D02*
G01*
X133642726Y-83281469D01*
X133702363Y-83309544D01*
X133756211Y-83347677D01*
X133801821Y-83393899D01*
X133839811Y-83448946D01*
X133867871Y-83509681D01*
X133885273Y-83575598D01*
X133891835Y-83647821D01*
X133891835Y-84286210D01*
X133886674Y-84314593D01*
X133871563Y-84337257D01*
X133848885Y-84352413D01*
X133820455Y-84357590D01*
X133791172Y-84352347D01*
X133768797Y-84337257D01*
X133754113Y-84314637D01*
X133749075Y-84286210D01*
X133749075Y-83908183D01*
X133714138Y-83944661D01*
X133674821Y-83975613D01*
X133630739Y-84001301D01*
X133583494Y-84020232D01*
X133533100Y-84031708D01*
X133478881Y-84035617D01*
X133412218Y-84029808D01*
X133351559Y-84012826D01*
X133295699Y-83984754D01*
X133245646Y-83946921D01*
X133203101Y-83900996D01*
X133167594Y-83846146D01*
X133141709Y-83786069D01*
X133125892Y-83720459D01*
X133120455Y-83648187D01*
X133120504Y-83647576D01*
X133257658Y-83647576D01*
X133261432Y-83696094D01*
X133272451Y-83740440D01*
X133290570Y-83781360D01*
X133315304Y-83818604D01*
X133344827Y-83849743D01*
X133379474Y-83875333D01*
X133418062Y-83894189D01*
X133460278Y-83905652D01*
X133506969Y-83909588D01*
X133552834Y-83905720D01*
X133594896Y-83894389D01*
X133633914Y-83875638D01*
X133668903Y-83850148D01*
X133698345Y-83819073D01*
X133722636Y-83781849D01*
X133740264Y-83740893D01*
X133751008Y-83696421D01*
X133754692Y-83647698D01*
X133750970Y-83598170D01*
X133740178Y-83553542D01*
X133722575Y-83512998D01*
X133698301Y-83476128D01*
X133668803Y-83445032D01*
X133633670Y-83419209D01*
X133594580Y-83400056D01*
X133552639Y-83388517D01*
X133507091Y-83384588D01*
X133460724Y-83388516D01*
X133418558Y-83399985D01*
X133379780Y-83418904D01*
X133344934Y-83444506D01*
X133315315Y-83475610D01*
X133290570Y-83512754D01*
X133272501Y-83553535D01*
X133261458Y-83598206D01*
X133257658Y-83647576D01*
X133120504Y-83647576D01*
X133126339Y-83575172D01*
X133143464Y-83509094D01*
X133171563Y-83448702D01*
X133209770Y-83393982D01*
X133255543Y-83347889D01*
X133309499Y-83309727D01*
X133369184Y-83281644D01*
X133434701Y-83264513D01*
X133507336Y-83258620D01*
X133578107Y-83264445D01*
G37*
G36*
X132594297Y-83264445D02*
G01*
X132658916Y-83281469D01*
X132718553Y-83309544D01*
X132772400Y-83347677D01*
X132818011Y-83393899D01*
X132856001Y-83448946D01*
X132884060Y-83509681D01*
X132901463Y-83575598D01*
X132908025Y-83647821D01*
X132908025Y-84286210D01*
X132902863Y-84314593D01*
X132887752Y-84337257D01*
X132865075Y-84352413D01*
X132836645Y-84357590D01*
X132807361Y-84352347D01*
X132784987Y-84337257D01*
X132770303Y-84314637D01*
X132765265Y-84286210D01*
X132765265Y-83908183D01*
X132730327Y-83944661D01*
X132691011Y-83975613D01*
X132646929Y-84001301D01*
X132599684Y-84020232D01*
X132549289Y-84031708D01*
X132495071Y-84035617D01*
X132428408Y-84029808D01*
X132367748Y-84012826D01*
X132311889Y-83984754D01*
X132261835Y-83946921D01*
X132219291Y-83900996D01*
X132183784Y-83846146D01*
X132157899Y-83786069D01*
X132142082Y-83720459D01*
X132136645Y-83648187D01*
X132136694Y-83647576D01*
X132273848Y-83647576D01*
X132277622Y-83696094D01*
X132288641Y-83740440D01*
X132306760Y-83781360D01*
X132331494Y-83818604D01*
X132361017Y-83849743D01*
X132395664Y-83875333D01*
X132434252Y-83894189D01*
X132476468Y-83905652D01*
X132523159Y-83909588D01*
X132569023Y-83905720D01*
X132611086Y-83894389D01*
X132650104Y-83875638D01*
X132685092Y-83850148D01*
X132714535Y-83819073D01*
X132738825Y-83781849D01*
X132756454Y-83740893D01*
X132767198Y-83696421D01*
X132770882Y-83647698D01*
X132767160Y-83598170D01*
X132756368Y-83553542D01*
X132738764Y-83512998D01*
X132714491Y-83476128D01*
X132684993Y-83445032D01*
X132649860Y-83419209D01*
X132610770Y-83400056D01*
X132568829Y-83388517D01*
X132523281Y-83384588D01*
X132476914Y-83388516D01*
X132434748Y-83399985D01*
X132395969Y-83418904D01*
X132361123Y-83444506D01*
X132331504Y-83475610D01*
X132306760Y-83512754D01*
X132288691Y-83553535D01*
X132277648Y-83598206D01*
X132273848Y-83647576D01*
X132136694Y-83647576D01*
X132142529Y-83575172D01*
X132159653Y-83509094D01*
X132187752Y-83448702D01*
X132225959Y-83393982D01*
X132271733Y-83347889D01*
X132325689Y-83309727D01*
X132385374Y-83281644D01*
X132450891Y-83264513D01*
X132523525Y-83258620D01*
X132594297Y-83264445D01*
G37*
G36*
X131564445Y-84035617D02*
G01*
X131640619Y-84029847D01*
X131709021Y-84013139D01*
X131770952Y-83985914D01*
X131827082Y-83948352D01*
X131873949Y-83902834D01*
X131912369Y-83848710D01*
X131940361Y-83788531D01*
X131957500Y-83722017D01*
X131963415Y-83647821D01*
X131957774Y-83572541D01*
X131941504Y-83505566D01*
X131915116Y-83445526D01*
X131878615Y-83391165D01*
X131834279Y-83345687D01*
X131781454Y-83308323D01*
X131722712Y-83281066D01*
X131657813Y-83264378D01*
X131585450Y-83258620D01*
X131514020Y-83264328D01*
X131452044Y-83280640D01*
X131397871Y-83306919D01*
X131349767Y-83343126D01*
X131310074Y-83387169D01*
X131278192Y-83439909D01*
X131255682Y-83497715D01*
X131241713Y-83562402D01*
X131236854Y-83635181D01*
X131241465Y-83659679D01*
X131255050Y-83679328D01*
X131275390Y-83692306D01*
X131301273Y-83696791D01*
X131865413Y-83696791D01*
X131865413Y-83584806D01*
X131305425Y-83584806D01*
X131362822Y-83624007D01*
X131370763Y-83556635D01*
X131390849Y-83498710D01*
X131411315Y-83464074D01*
X131436417Y-83435101D01*
X131466442Y-83411210D01*
X131500435Y-83393684D01*
X131539713Y-83382793D01*
X131585450Y-83378970D01*
X131637674Y-83383126D01*
X131682769Y-83394975D01*
X131721981Y-83414019D01*
X131756740Y-83440235D01*
X131785287Y-83472009D01*
X131808077Y-83509945D01*
X131824136Y-83551455D01*
X131834030Y-83597165D01*
X131837447Y-83647821D01*
X131833409Y-83698197D01*
X131821677Y-83743638D01*
X131802459Y-83785024D01*
X131776192Y-83822314D01*
X131744171Y-83853903D01*
X131705861Y-83880218D01*
X131663543Y-83899386D01*
X131616715Y-83911144D01*
X131564445Y-83915205D01*
X131521087Y-83911294D01*
X131475540Y-83899146D01*
X131432870Y-83881019D01*
X131402023Y-83862021D01*
X131379971Y-83850205D01*
X131356533Y-83845901D01*
X131333549Y-83849238D01*
X131313852Y-83860617D01*
X131295267Y-83883369D01*
X131288633Y-83906840D01*
X131293274Y-83929746D01*
X131311043Y-83950193D01*
X131362906Y-83983691D01*
X131429378Y-84011803D01*
X131499698Y-84029879D01*
X131564445Y-84035617D01*
G37*
G36*
X130987116Y-83551222D02*
G01*
X130982395Y-83496400D01*
X130968606Y-83446555D01*
X130945839Y-83400708D01*
X130915154Y-83359474D01*
X130878244Y-83324379D01*
X130834525Y-83295012D01*
X130786537Y-83273321D01*
X130735470Y-83260252D01*
X130680530Y-83255811D01*
X130624785Y-83259462D01*
X130584192Y-83269063D01*
X130555233Y-83283105D01*
X130532383Y-83303738D01*
X130522717Y-83324858D01*
X130523726Y-83348196D01*
X130530105Y-83365969D01*
X130539846Y-83378299D01*
X130552606Y-83386884D01*
X130567140Y-83391610D01*
X130600724Y-83390205D01*
X130660624Y-83381627D01*
X130713966Y-83380976D01*
X130761741Y-83387397D01*
X130807597Y-83401255D01*
X130844690Y-83420478D01*
X130874459Y-83444794D01*
X130897211Y-83474969D01*
X130910955Y-83509970D01*
X130915736Y-83551222D01*
X130987116Y-83551222D01*
G37*
G36*
X130985711Y-84030000D02*
G01*
X131016415Y-84025300D01*
X131037491Y-84012536D01*
X131050737Y-83991771D01*
X131055687Y-83960024D01*
X131055687Y-83334213D01*
X131050814Y-83303576D01*
X131037491Y-83282433D01*
X131016342Y-83269063D01*
X130985711Y-83264176D01*
X130953910Y-83268969D01*
X130933260Y-83281700D01*
X130920526Y-83302401D01*
X130915736Y-83334213D01*
X130915736Y-83960024D01*
X130920450Y-83990722D01*
X130933260Y-84011803D01*
X130953975Y-84025047D01*
X130985711Y-84030000D01*
G37*
G36*
X130317431Y-82941790D02*
G01*
X130340727Y-82957163D01*
X130356376Y-82980215D01*
X130361732Y-83009370D01*
X130361732Y-83957215D01*
X130356433Y-83985665D01*
X130340727Y-84008995D01*
X130317304Y-84024671D01*
X130288276Y-84030000D01*
X130259363Y-84024649D01*
X130236496Y-84008995D01*
X130221314Y-83985718D01*
X130216163Y-83957215D01*
X130216163Y-83650629D01*
X130008923Y-83650629D01*
X129939911Y-83645412D01*
X129878218Y-83630332D01*
X129822627Y-83605811D01*
X129772312Y-83571906D01*
X129730361Y-83530675D01*
X129696048Y-83481491D01*
X129671108Y-83426830D01*
X129655830Y-83366471D01*
X129650558Y-83299225D01*
X129790570Y-83299225D01*
X129797755Y-83359205D01*
X129818597Y-83411027D01*
X129851836Y-83454906D01*
X129895594Y-83488208D01*
X129947481Y-83508950D01*
X130008923Y-83516174D01*
X130216163Y-83516174D01*
X130216163Y-83070980D01*
X130008923Y-83070980D01*
X129966836Y-83074387D01*
X129929222Y-83084248D01*
X129895289Y-83100350D01*
X129851422Y-83135025D01*
X129818292Y-83180645D01*
X129797767Y-83234656D01*
X129790570Y-83299225D01*
X129650558Y-83299225D01*
X129655873Y-83229016D01*
X129671196Y-83166638D01*
X129696048Y-83110792D01*
X129730419Y-83060309D01*
X129772386Y-83017932D01*
X129822627Y-82982991D01*
X129878346Y-82957566D01*
X129940032Y-82941972D01*
X130008923Y-82936585D01*
X130288948Y-82936585D01*
X130317431Y-82941790D01*
G37*
G36*
X129256045Y-83264476D02*
G01*
X129321287Y-83281572D01*
X129381341Y-83309727D01*
X129435604Y-83347919D01*
X129481532Y-83394015D01*
X129519766Y-83448702D01*
X129547830Y-83509091D01*
X129564934Y-83575169D01*
X129570812Y-83648187D01*
X129565382Y-83720462D01*
X129549585Y-83786073D01*
X129523735Y-83846146D01*
X129488195Y-83901002D01*
X129445649Y-83946927D01*
X129395629Y-83984754D01*
X129339770Y-84012826D01*
X129279110Y-84029808D01*
X129212447Y-84035617D01*
X129145556Y-84029772D01*
X129084845Y-84012703D01*
X129029082Y-83984509D01*
X128979135Y-83946505D01*
X128942254Y-83906531D01*
X128942254Y-83960024D01*
X128937094Y-83988417D01*
X128921981Y-84011132D01*
X128899233Y-84026234D01*
X128870629Y-84031404D01*
X128842068Y-84026226D01*
X128819521Y-84011132D01*
X128804551Y-83988431D01*
X128799433Y-83960024D01*
X128799433Y-83647821D01*
X128799453Y-83647576D01*
X128936636Y-83647576D01*
X128940338Y-83696126D01*
X128951139Y-83740476D01*
X128968876Y-83781360D01*
X128993180Y-83818578D01*
X129022451Y-83849716D01*
X129057048Y-83875333D01*
X129095633Y-83894194D01*
X129137811Y-83905654D01*
X129184420Y-83909588D01*
X129230228Y-83905688D01*
X129272247Y-83894259D01*
X129311243Y-83875333D01*
X129346285Y-83849714D01*
X129376000Y-83818628D01*
X129400758Y-83781543D01*
X129418857Y-83740735D01*
X129429886Y-83696315D01*
X129433670Y-83647515D01*
X129429861Y-83597902D01*
X129418810Y-83553178D01*
X129400758Y-83512510D01*
X129376007Y-83475545D01*
X129346274Y-83444516D01*
X129311182Y-83418904D01*
X129272145Y-83399939D01*
X129230124Y-83388492D01*
X129184359Y-83384588D01*
X129137754Y-83388529D01*
X129095598Y-83400010D01*
X129057048Y-83418904D01*
X129022443Y-83444514D01*
X128993173Y-83475614D01*
X128968876Y-83512754D01*
X128951188Y-83553498D01*
X128940363Y-83598173D01*
X128936636Y-83647576D01*
X128799453Y-83647576D01*
X128805295Y-83575453D01*
X128822398Y-83509582D01*
X128850540Y-83449007D01*
X128888756Y-83394082D01*
X128934473Y-83347895D01*
X128988293Y-83309727D01*
X129047879Y-83281593D01*
X129112847Y-83264488D01*
X129184420Y-83258620D01*
X129256045Y-83264476D01*
G37*
G36*
X128518309Y-83551222D02*
G01*
X128513588Y-83496400D01*
X128499800Y-83446555D01*
X128477032Y-83400708D01*
X128446347Y-83359474D01*
X128409438Y-83324379D01*
X128365718Y-83295012D01*
X128317731Y-83273321D01*
X128266663Y-83260252D01*
X128211723Y-83255811D01*
X128155978Y-83259462D01*
X128115385Y-83269063D01*
X128086427Y-83283105D01*
X128063577Y-83303738D01*
X128053910Y-83324858D01*
X128054919Y-83348196D01*
X128061299Y-83365969D01*
X128071039Y-83378299D01*
X128083800Y-83386884D01*
X128098333Y-83391610D01*
X128131917Y-83390205D01*
X128191817Y-83381627D01*
X128245160Y-83380976D01*
X128292934Y-83387397D01*
X128338791Y-83401255D01*
X128375883Y-83420478D01*
X128405652Y-83444794D01*
X128428404Y-83474969D01*
X128442148Y-83509970D01*
X128446929Y-83551222D01*
X128518309Y-83551222D01*
G37*
G36*
X128516905Y-84030000D02*
G01*
X128547608Y-84025300D01*
X128568684Y-84012536D01*
X128581930Y-83991771D01*
X128586880Y-83960024D01*
X128586880Y-83334213D01*
X128582008Y-83303576D01*
X128568684Y-83282433D01*
X128547536Y-83269063D01*
X128516905Y-83264176D01*
X128485103Y-83268969D01*
X128464453Y-83281700D01*
X128451719Y-83302401D01*
X128446929Y-83334213D01*
X128446929Y-83960024D01*
X128451643Y-83990722D01*
X128464453Y-84011803D01*
X128485168Y-84025047D01*
X128516905Y-84030000D01*
G37*
G36*
X127628349Y-84030000D02*
G01*
X127673952Y-84025945D01*
X127715669Y-84014059D01*
X127754317Y-83994340D01*
X127788844Y-83967800D01*
X127818150Y-83935558D01*
X127842550Y-83897009D01*
X127860216Y-83854880D01*
X127871017Y-83808931D01*
X127874729Y-83758401D01*
X127874729Y-83090580D01*
X127869695Y-83062259D01*
X127855129Y-83040205D01*
X127833075Y-83025638D01*
X127804754Y-83020605D01*
X127776380Y-83025641D01*
X127754317Y-83040205D01*
X127739750Y-83062259D01*
X127734717Y-83090580D01*
X127734717Y-83758401D01*
X127731104Y-83794633D01*
X127720776Y-83825530D01*
X127703942Y-83852191D01*
X127681304Y-83873566D01*
X127656436Y-83885852D01*
X127628349Y-83889987D01*
X127580722Y-83889987D01*
X127557596Y-83894831D01*
X127538040Y-83909588D01*
X127525078Y-83931481D01*
X127520516Y-83960024D01*
X127526324Y-83988053D01*
X127543658Y-84010399D01*
X127569367Y-84024865D01*
X127603131Y-84030000D01*
X127628349Y-84030000D01*
G37*
G36*
X127939148Y-83412615D02*
G01*
X127966248Y-83408230D01*
X127986714Y-83395823D01*
X128000345Y-83376933D01*
X128004911Y-83353813D01*
X128000213Y-83328233D01*
X127986714Y-83308995D01*
X127966248Y-83296588D01*
X127939148Y-83292203D01*
X127615710Y-83292203D01*
X127588610Y-83296588D01*
X127568143Y-83308995D01*
X127554645Y-83328233D01*
X127549947Y-83353813D01*
X127554513Y-83376933D01*
X127568143Y-83395823D01*
X127588610Y-83408230D01*
X127615710Y-83412615D01*
X127939148Y-83412615D01*
G37*
G36*
X126677817Y-84028595D02*
G01*
X126704047Y-84023677D01*
X126726046Y-84008970D01*
X126744984Y-83982372D01*
X127041800Y-83356622D01*
X127047914Y-83332813D01*
X127043876Y-83309727D01*
X127030795Y-83289613D01*
X127008217Y-83274007D01*
X126984112Y-83266669D01*
X126959918Y-83269855D01*
X126938487Y-83281986D01*
X126922793Y-83301973D01*
X126645577Y-83899818D01*
X126712805Y-83899818D01*
X126438398Y-83301973D01*
X126422522Y-83282092D01*
X126399930Y-83269855D01*
X126374077Y-83266660D01*
X126347418Y-83274007D01*
X126326219Y-83288543D01*
X126313834Y-83308995D01*
X126310301Y-83332684D01*
X126316582Y-83356622D01*
X126613398Y-83982372D01*
X126630701Y-84008914D01*
X126651756Y-84023626D01*
X126677817Y-84028595D01*
G37*
G36*
X126133461Y-84030000D02*
G01*
X126161847Y-84024675D01*
X126184630Y-84008995D01*
X126199826Y-83985918D01*
X126204902Y-83958620D01*
X126199866Y-83930246D01*
X126185301Y-83908183D01*
X125787674Y-83443389D01*
X125749233Y-83394150D01*
X125722583Y-83351004D01*
X125704946Y-83307457D01*
X125699502Y-83268389D01*
X125705051Y-83209512D01*
X125720507Y-83162021D01*
X125746318Y-83121991D01*
X125780713Y-83092718D01*
X125822741Y-83074570D01*
X125874502Y-83068171D01*
X125925355Y-83075090D01*
X125970429Y-83095526D01*
X126008480Y-83127282D01*
X126037595Y-83168311D01*
X126055876Y-83215737D01*
X126062081Y-83268389D01*
X126067109Y-83294528D01*
X126082414Y-83317421D01*
X126105137Y-83333103D01*
X126133461Y-83338426D01*
X126160755Y-83333187D01*
X126183897Y-83317421D01*
X126199729Y-83294476D01*
X126204902Y-83268389D01*
X126199900Y-83206111D01*
X126185351Y-83149783D01*
X126161488Y-83098335D01*
X126128960Y-83051779D01*
X126089726Y-83012527D01*
X126043213Y-82980000D01*
X125991745Y-82956086D01*
X125935845Y-82941561D01*
X125874502Y-82936585D01*
X125812125Y-82941369D01*
X125757503Y-82955078D01*
X125709333Y-82977191D01*
X125666242Y-83007912D01*
X125630248Y-83045915D01*
X125600828Y-83091985D01*
X125579968Y-83142802D01*
X125566893Y-83201138D01*
X125562299Y-83268389D01*
X125566906Y-83312953D01*
X125581228Y-83359431D01*
X125602496Y-83404449D01*
X125628794Y-83447602D01*
X125686863Y-83523196D01*
X126007493Y-83887178D01*
X125615483Y-83887178D01*
X125587091Y-83892638D01*
X125563703Y-83908916D01*
X125547850Y-83932418D01*
X125542698Y-83958620D01*
X125547934Y-83985862D01*
X125563703Y-84008995D01*
X125587033Y-84024700D01*
X125615483Y-84030000D01*
X126133461Y-84030000D01*
G37*
G36*
X125306699Y-84052409D02*
G01*
X125343122Y-84045298D01*
X125374598Y-84023710D01*
X125396186Y-83992234D01*
X125403297Y-83955811D01*
X125396121Y-83918180D01*
X125374598Y-83886507D01*
X125343122Y-83864919D01*
X125306699Y-83857808D01*
X125269195Y-83865008D01*
X125238128Y-83886507D01*
X125217129Y-83918128D01*
X125210101Y-83955811D01*
X125217066Y-83992286D01*
X125238128Y-84023710D01*
X125269195Y-84045210D01*
X125306699Y-84052409D01*
G37*
G36*
X124844456Y-82939426D02*
G01*
X124891502Y-82951756D01*
X124934276Y-82971954D01*
X124973490Y-83000333D01*
X125017728Y-83047797D01*
X125055899Y-83109405D01*
X125087613Y-83187911D01*
X125108510Y-83270474D01*
X125121994Y-83367944D01*
X125126814Y-83482590D01*
X125121995Y-83597235D01*
X125108511Y-83694727D01*
X125087613Y-83777330D01*
X125055899Y-83855837D01*
X125017728Y-83917444D01*
X124973490Y-83964909D01*
X124934279Y-83993259D01*
X124891507Y-84013438D01*
X124844460Y-84025758D01*
X124792201Y-84030000D01*
X124739984Y-84025677D01*
X124692959Y-84013116D01*
X124650175Y-83992511D01*
X124610912Y-83963504D01*
X124566608Y-83915198D01*
X124528441Y-83853076D01*
X124496789Y-83774521D01*
X124475837Y-83691922D01*
X124462380Y-83595300D01*
X124457588Y-83482590D01*
X124601814Y-83482590D01*
X124607351Y-83594202D01*
X124622819Y-83688426D01*
X124640227Y-83747857D01*
X124661392Y-83795011D01*
X124685772Y-83831919D01*
X124716765Y-83861407D01*
X124751738Y-83878540D01*
X124792201Y-83884370D01*
X124831815Y-83878658D01*
X124866577Y-83861777D01*
X124897897Y-83832590D01*
X124922634Y-83796082D01*
X124944046Y-83749196D01*
X124961584Y-83689830D01*
X124977034Y-83595449D01*
X124982588Y-83482590D01*
X124977033Y-83369739D01*
X124961584Y-83275411D01*
X124944134Y-83215938D01*
X124922949Y-83168788D01*
X124898569Y-83131919D01*
X124867573Y-83102389D01*
X124832619Y-83085240D01*
X124792201Y-83079406D01*
X124751791Y-83085301D01*
X124716819Y-83102651D01*
X124685772Y-83132590D01*
X124661363Y-83169914D01*
X124640202Y-83217335D01*
X124622819Y-83276816D01*
X124607351Y-83370985D01*
X124601814Y-83482590D01*
X124457588Y-83482590D01*
X124462381Y-83369880D01*
X124475838Y-83273280D01*
X124496789Y-83190720D01*
X124528444Y-83112125D01*
X124566611Y-83049984D01*
X124610912Y-83001676D01*
X124650175Y-82972669D01*
X124692959Y-82952065D01*
X124739984Y-82939503D01*
X124792201Y-82935181D01*
X124844456Y-82939426D01*
G37*
D12*
%TO.C,weee-symbol_mask_3mm*%
G36*
X106086456Y-106144494D02*
G01*
X106026938Y-106204027D01*
X105967405Y-106144494D01*
X106026938Y-106084982D01*
X106086456Y-106144494D01*
G37*
G36*
X106487810Y-105243828D02*
G01*
X106119433Y-105243828D01*
X106119433Y-105128011D01*
X106487810Y-105128011D01*
X106487810Y-105243828D01*
G37*
G36*
X107259976Y-107375001D02*
G01*
X105511397Y-107375001D01*
X105511397Y-106948325D01*
X107259976Y-106948325D01*
X107259976Y-107375001D01*
G37*
G36*
X106400197Y-105469776D02*
G01*
X107428663Y-104388962D01*
X107428663Y-104468763D01*
X106438835Y-105508980D01*
X107402870Y-106487238D01*
X107363019Y-106525133D01*
X106400899Y-105548836D01*
X105479081Y-106517593D01*
X105439211Y-106479678D01*
X106362262Y-105509647D01*
X105321338Y-104453353D01*
X105321338Y-104375000D01*
X106400197Y-105469776D01*
G37*
G36*
X106477723Y-104591905D02*
G01*
X106642244Y-104614425D01*
X106642244Y-104603576D01*
X106745212Y-104603576D01*
X106745212Y-104643722D01*
X106865861Y-104763139D01*
X106935306Y-104763139D01*
X106935306Y-104818285D01*
X106853328Y-104818285D01*
X106736027Y-106204869D01*
X106713758Y-106230247D01*
X106713758Y-106315613D01*
X106683192Y-106315613D01*
X106604273Y-106315613D01*
X106604273Y-106230893D01*
X106177908Y-106230893D01*
X106026938Y-106318430D01*
X105903950Y-106267483D01*
X105853002Y-106144494D01*
X105989910Y-105974534D01*
X105913553Y-105123213D01*
X105909502Y-105123213D01*
X105774339Y-105123213D01*
X105774339Y-105078093D01*
X105819458Y-105078093D01*
X105909502Y-105078093D01*
X105899415Y-104965570D01*
X105819458Y-104965570D01*
X105819458Y-105078093D01*
X105774339Y-105078093D01*
X105774339Y-104920451D01*
X105895360Y-104920451D01*
X105886606Y-104822827D01*
X105849989Y-104831640D01*
X105836634Y-104818285D01*
X105941341Y-104818285D01*
X105950506Y-104920451D01*
X105974695Y-104920451D01*
X105974695Y-105123213D01*
X105968679Y-105123213D01*
X106044780Y-105971476D01*
X106155689Y-106027590D01*
X106200859Y-106144494D01*
X106198057Y-106175747D01*
X106683192Y-106175747D01*
X106798007Y-104818285D01*
X106745212Y-104818285D01*
X106642244Y-104818285D01*
X105941341Y-104818285D01*
X105836634Y-104818285D01*
X105781488Y-104763139D01*
X105938363Y-104763139D01*
X106642244Y-104763139D01*
X106745212Y-104763139D01*
X106808795Y-104763139D01*
X106745212Y-104704468D01*
X106745212Y-104763139D01*
X106642244Y-104763139D01*
X106642244Y-104670784D01*
X106477723Y-104646931D01*
X106477723Y-104699139D01*
X106237892Y-104699139D01*
X106192773Y-104699139D01*
X106192773Y-104653884D01*
X106053298Y-104678008D01*
X105938363Y-104763139D01*
X105781488Y-104763139D01*
X105769541Y-104751192D01*
X105849989Y-104670764D01*
X105914946Y-104703781D01*
X106034774Y-104626311D01*
X106192773Y-104598718D01*
X106192773Y-104573787D01*
X106477723Y-104573787D01*
X106477723Y-104591905D01*
G37*
%TO.C,ce-symbol_mask_3mm*%
G36*
X111671974Y-104394632D02*
G01*
X111902784Y-104451470D01*
X112118005Y-104542425D01*
X112314549Y-104664409D01*
X112489328Y-104814335D01*
X112639254Y-104989114D01*
X112761238Y-105185658D01*
X112852193Y-105400879D01*
X112909031Y-105631689D01*
X112928663Y-105875000D01*
X112909031Y-106118311D01*
X112852193Y-106349121D01*
X112761238Y-106564342D01*
X112639254Y-106760886D01*
X112489328Y-106935665D01*
X112314549Y-107085590D01*
X112118005Y-107207575D01*
X111902784Y-107298530D01*
X111671974Y-107355368D01*
X111428663Y-107375000D01*
X111278663Y-107367500D01*
X111278663Y-106917500D01*
X111428663Y-106925000D01*
X111669425Y-106897270D01*
X111890436Y-106818280D01*
X112085393Y-106694333D01*
X112247996Y-106531730D01*
X112371944Y-106336772D01*
X112450933Y-106115762D01*
X112478663Y-105875000D01*
X112450933Y-105634238D01*
X112371944Y-105413227D01*
X112247996Y-105218270D01*
X112085393Y-105055667D01*
X111890436Y-104931719D01*
X111669425Y-104852730D01*
X111428663Y-104825000D01*
X111278663Y-104832500D01*
X111278663Y-104382500D01*
X111428663Y-104375000D01*
X111671974Y-104394632D01*
G37*
G36*
X109121974Y-104394632D02*
G01*
X109352784Y-104451470D01*
X109568005Y-104542425D01*
X109764549Y-104664409D01*
X109939328Y-104814335D01*
X110089254Y-104989114D01*
X110211238Y-105185658D01*
X110302193Y-105400879D01*
X110359031Y-105631689D01*
X110378663Y-105875000D01*
X110359031Y-106118311D01*
X110302193Y-106349121D01*
X110211238Y-106564342D01*
X110089254Y-106760886D01*
X109939328Y-106935665D01*
X109764549Y-107085590D01*
X109568005Y-107207575D01*
X109352784Y-107298530D01*
X109121974Y-107355368D01*
X108878663Y-107375000D01*
X108728663Y-107367500D01*
X108728663Y-106917500D01*
X108878663Y-106925000D01*
X109118551Y-106897375D01*
X109340297Y-106818213D01*
X109536826Y-106693205D01*
X109701063Y-106528040D01*
X109825934Y-106328408D01*
X109904363Y-106100000D01*
X109028663Y-106100000D01*
X109028663Y-105650000D01*
X109904363Y-105650000D01*
X109825934Y-105421592D01*
X109701063Y-105221960D01*
X109536826Y-105056795D01*
X109340297Y-104931787D01*
X109118551Y-104852625D01*
X108878663Y-104825000D01*
X108728663Y-104832500D01*
X108728663Y-104382500D01*
X108878663Y-104375000D01*
X109121974Y-104394632D01*
G37*
%TD*%
D13*
%TO.C,SW1*%
X116800000Y-107250000D03*
X123300000Y-107250000D03*
X116800000Y-111750000D03*
X123300000Y-111750000D03*
%TD*%
D14*
%TO.C,D5*%
X134725000Y-79000000D03*
D15*
X137265000Y-79000000D03*
%TD*%
D14*
%TO.C,D2*%
X102725000Y-95000000D03*
D15*
X105265000Y-95000000D03*
%TD*%
D14*
%TO.C,D3*%
X134725000Y-95000000D03*
D15*
X137265000Y-95000000D03*
%TD*%
D14*
%TO.C,D7*%
X134725000Y-111000000D03*
D15*
X137265000Y-111000000D03*
%TD*%
D14*
%TO.C,D8*%
X118725000Y-95000000D03*
D15*
X121265000Y-95000000D03*
%TD*%
D14*
%TO.C,D4*%
X102725000Y-111000000D03*
D15*
X105265000Y-111000000D03*
%TD*%
D14*
%TO.C,D6*%
X102725000Y-79000000D03*
D15*
X105265000Y-79000000D03*
%TD*%
D16*
%TO.C,J3*%
X130000000Y-106000000D03*
D17*
X130000000Y-108540000D03*
X130000000Y-111080000D03*
%TD*%
D13*
%TO.C,R7*%
X119630000Y-102500000D03*
X127250000Y-102500000D03*
%TD*%
D16*
%TO.C,J5*%
X110000000Y-78000000D03*
D17*
X112540000Y-78000000D03*
X115080000Y-78000000D03*
X117620000Y-78000000D03*
X120160000Y-78000000D03*
X122700000Y-78000000D03*
%TD*%
D14*
%TO.C,SW2*%
X114750000Y-95000000D03*
D15*
X112210000Y-95000000D03*
%TD*%
D13*
%TO.C,R8*%
X117500000Y-86500000D03*
X125120000Y-86500000D03*
%TD*%
%TO.C,R6*%
X117440000Y-89750000D03*
X125060000Y-89750000D03*
%TD*%
%TO.C,R9*%
X119870000Y-81500000D03*
X112250000Y-81500000D03*
%TD*%
M02*
