%TF.GenerationSoftware,KiCad,Pcbnew,9.0.7*%
%TF.CreationDate,2026-01-25T23:07:14+01:00*%
%TF.ProjectId,DiceDIP_UpperPart,44696365-4449-4505-9f55-707065725061,rev?*%
%TF.SameCoordinates,Original*%
%TF.FileFunction,Copper,L2,Bot*%
%TF.FilePolarity,Positive*%
%FSLAX46Y46*%
G04 Gerber Fmt 4.6, Leading zero omitted, Abs format (unit mm)*
G04 Created by KiCad (PCBNEW 9.0.7) date 2026-01-25 23:07:14*
%MOMM*%
%LPD*%
G01*
G04 APERTURE LIST*
%TA.AperFunction,ComponentPad*%
%ADD10C,2.000000*%
%TD*%
%TA.AperFunction,ComponentPad*%
%ADD11R,1.800000X1.800000*%
%TD*%
%TA.AperFunction,ComponentPad*%
%ADD12C,1.800000*%
%TD*%
%TA.AperFunction,ComponentPad*%
%ADD13R,1.700000X1.700000*%
%TD*%
%TA.AperFunction,ComponentPad*%
%ADD14C,1.700000*%
%TD*%
%TA.AperFunction,ViaPad*%
%ADD15C,0.600000*%
%TD*%
%TA.AperFunction,Conductor*%
%ADD16C,0.200000*%
%TD*%
G04 APERTURE END LIST*
D10*
%TO.P,SW1,1,1*%
%TO.N,Net-(J5-Pin_6)*%
X116800000Y-107250000D03*
X123300000Y-107250000D03*
%TO.P,SW1,2,2*%
%TO.N,Net-(J5-Pin_5)*%
X116800000Y-111750000D03*
X123300000Y-111750000D03*
%TD*%
D11*
%TO.P,D5,1,K*%
%TO.N,Net-(D5-K)*%
X134725000Y-79000000D03*
D12*
%TO.P,D5,2,A*%
%TO.N,Net-(D4-K)*%
X137265000Y-79000000D03*
%TD*%
D11*
%TO.P,D2,1,K*%
%TO.N,Net-(D2-K)*%
X102725000Y-95000000D03*
D12*
%TO.P,D2,2,A*%
%TO.N,Net-(D2-A)*%
X105265000Y-95000000D03*
%TD*%
D11*
%TO.P,D3,1,K*%
%TO.N,Net-(D3-K)*%
X134725000Y-95000000D03*
D12*
%TO.P,D3,2,A*%
%TO.N,Net-(D2-K)*%
X137265000Y-95000000D03*
%TD*%
D11*
%TO.P,D7,1,K*%
%TO.N,Net-(D5-K)*%
X134725000Y-111000000D03*
D12*
%TO.P,D7,2,A*%
%TO.N,Net-(D6-K)*%
X137265000Y-111000000D03*
%TD*%
D11*
%TO.P,D8,1,K*%
%TO.N,Net-(D5-K)*%
X118725000Y-95000000D03*
D12*
%TO.P,D8,2,A*%
%TO.N,Net-(D8-A)*%
X121265000Y-95000000D03*
%TD*%
D11*
%TO.P,D4,1,K*%
%TO.N,Net-(D4-K)*%
X102725000Y-111000000D03*
D12*
%TO.P,D4,2,A*%
%TO.N,Net-(D4-A)*%
X105265000Y-111000000D03*
%TD*%
D11*
%TO.P,D6,1,K*%
%TO.N,Net-(D6-K)*%
X102725000Y-79000000D03*
D12*
%TO.P,D6,2,A*%
%TO.N,Net-(D6-A)*%
X105265000Y-79000000D03*
%TD*%
D13*
%TO.P,J3,1,Pin_1*%
%TO.N,Net-(J3-Pin_1)*%
X130000000Y-106000000D03*
D14*
%TO.P,J3,2,Pin_2*%
%TO.N,Net-(J3-Pin_2)*%
X130000000Y-108540000D03*
%TO.P,J3,3,Pin_3*%
%TO.N,Net-(J3-Pin_3)*%
X130000000Y-111080000D03*
%TD*%
D10*
%TO.P,R7,1*%
%TO.N,Net-(D4-A)*%
X119630000Y-102500000D03*
%TO.P,R7,2*%
%TO.N,Net-(J3-Pin_2)*%
X127250000Y-102500000D03*
%TD*%
D13*
%TO.P,J5,1,Pin_1*%
%TO.N,Net-(J5-Pin_1)*%
X110000000Y-78000000D03*
D14*
%TO.P,J5,2,Pin_2*%
%TO.N,Net-(D3-K)*%
X112540000Y-78000000D03*
%TO.P,J5,3,Pin_3*%
%TO.N,Net-(D5-K)*%
X115080000Y-78000000D03*
%TO.P,J5,4,Pin_4*%
%TO.N,Net-(J5-Pin_4)*%
X117620000Y-78000000D03*
%TO.P,J5,5,Pin_5*%
%TO.N,Net-(J5-Pin_5)*%
X120160000Y-78000000D03*
%TO.P,J5,6,Pin_6*%
%TO.N,Net-(J5-Pin_6)*%
X122700000Y-78000000D03*
%TD*%
D11*
%TO.P,SW2,1,1*%
%TO.N,Net-(J5-Pin_5)*%
X114750000Y-95000000D03*
D12*
%TO.P,SW2,2,2*%
%TO.N,Net-(J5-Pin_4)*%
X112210000Y-95000000D03*
%TD*%
D10*
%TO.P,R8,1*%
%TO.N,Net-(D6-A)*%
X117500000Y-86500000D03*
%TO.P,R8,2*%
%TO.N,Net-(J3-Pin_3)*%
X125120000Y-86500000D03*
%TD*%
%TO.P,R6,1*%
%TO.N,Net-(D2-A)*%
X117440000Y-89750000D03*
%TO.P,R6,2*%
%TO.N,Net-(J3-Pin_1)*%
X125060000Y-89750000D03*
%TD*%
%TO.P,R9,1*%
%TO.N,Net-(D8-A)*%
X119870000Y-81500000D03*
%TO.P,R9,2*%
%TO.N,Net-(J5-Pin_1)*%
X112250000Y-81500000D03*
%TD*%
D15*
%TO.N,Net-(D4-K)*%
X137524306Y-93624224D03*
X135792185Y-93092185D03*
%TO.N,Net-(D6-K)*%
X103400000Y-77000000D03*
%TO.N,Net-(J5-Pin_4)*%
X119400000Y-92900000D03*
X120600000Y-92900000D03*
%TO.N,Net-(J5-Pin_5)*%
X121591398Y-93607075D03*
X118622471Y-96750000D03*
X118750000Y-93500000D03*
X119835500Y-96599000D03*
%TD*%
D16*
%TO.N,Net-(D2-K)*%
X123750000Y-103432900D02*
X122750000Y-104432900D01*
X114599000Y-106333900D02*
X114599000Y-112666100D01*
X136399000Y-113601000D02*
X138500000Y-111500000D01*
X138500000Y-96235000D02*
X137265000Y-95000000D01*
X114599000Y-112666100D02*
X115533900Y-113601000D01*
X123750000Y-98817100D02*
X123750000Y-103432900D01*
X122532900Y-97600000D02*
X123750000Y-98817100D01*
X102725000Y-95000000D02*
X105325000Y-97600000D01*
X138500000Y-111500000D02*
X138500000Y-96235000D01*
X122750000Y-104432900D02*
X116500000Y-104432900D01*
X105325000Y-97600000D02*
X122532900Y-97600000D01*
X116500000Y-104432900D02*
X114599000Y-106333900D01*
X115533900Y-113601000D02*
X136399000Y-113601000D01*
%TO.N,Net-(D2-A)*%
X111750000Y-89750000D02*
X117440000Y-89750000D01*
X109750000Y-91750000D02*
X109750000Y-93750000D01*
X111750000Y-89750000D02*
X109750000Y-91750000D01*
X108500000Y-95000000D02*
X105265000Y-95000000D01*
X109750000Y-93750000D02*
X108500000Y-95000000D01*
%TO.N,Net-(D3-K)*%
X114240000Y-76300000D02*
X112540000Y-78000000D01*
X136900000Y-76300000D02*
X114240000Y-76300000D01*
X135525000Y-94207900D02*
X138600000Y-91132900D01*
X138600000Y-91132900D02*
X138600000Y-78000000D01*
X134725000Y-95000000D02*
X134900000Y-95000000D01*
X135525000Y-94375000D02*
X135525000Y-94207900D01*
X134900000Y-95000000D02*
X135525000Y-94375000D01*
X138600000Y-78000000D02*
X136900000Y-76300000D01*
%TO.N,Net-(D4-K)*%
X137265000Y-79000000D02*
X137265000Y-91619370D01*
X138901000Y-94101000D02*
X138424224Y-93624224D01*
X137265000Y-91619370D02*
X135792185Y-93092185D01*
X104502000Y-114002000D02*
X136598000Y-114002000D01*
X102725000Y-112225000D02*
X104502000Y-114002000D01*
X102725000Y-111000000D02*
X102725000Y-112225000D01*
X136598000Y-114002000D02*
X138901000Y-111699000D01*
X138424224Y-93624224D02*
X137524306Y-93624224D01*
X138901000Y-111699000D02*
X138901000Y-94101000D01*
%TO.N,Net-(D4-A)*%
X116333900Y-104031900D02*
X114198000Y-106167800D01*
X114198000Y-109802000D02*
X113000000Y-111000000D01*
X114198000Y-106167800D02*
X114198000Y-109802000D01*
X119630000Y-102620000D02*
X118218100Y-104031900D01*
X119630000Y-102500000D02*
X119630000Y-102620000D01*
X105265000Y-111000000D02*
X104900000Y-111000000D01*
X118218100Y-104031900D02*
X116333900Y-104031900D01*
X113000000Y-111000000D02*
X105265000Y-111000000D01*
%TO.N,Net-(D5-K)*%
X120000000Y-93725000D02*
X118725000Y-95000000D01*
X124199000Y-103551000D02*
X124199000Y-98699000D01*
X119222471Y-96972471D02*
X119222471Y-95497471D01*
X134725000Y-111000000D02*
X132525000Y-113200000D01*
X132525000Y-113200000D02*
X115700000Y-113200000D01*
X115000000Y-106500000D02*
X116500000Y-105000000D01*
X122750000Y-105000000D02*
X124199000Y-103551000D01*
X116500000Y-105000000D02*
X122750000Y-105000000D01*
X122699000Y-97199000D02*
X119449000Y-97199000D01*
X115080000Y-79830000D02*
X120000000Y-84750000D01*
X120000000Y-84750000D02*
X120000000Y-93725000D01*
X134725000Y-77225000D02*
X134725000Y-79000000D01*
X115080000Y-78000000D02*
X116380000Y-76700000D01*
X118725000Y-95000000D02*
X119500000Y-94225000D01*
X124199000Y-98699000D02*
X122699000Y-97199000D01*
X134200000Y-76700000D02*
X134725000Y-77225000D01*
X119449000Y-97199000D02*
X119222471Y-96972471D01*
X115700000Y-113200000D02*
X115000000Y-112500000D01*
X119222471Y-95497471D02*
X118725000Y-95000000D01*
X115080000Y-78000000D02*
X115080000Y-79830000D01*
X115000000Y-112500000D02*
X115000000Y-106500000D01*
X116380000Y-76700000D02*
X134200000Y-76700000D01*
%TO.N,Net-(D6-A)*%
X112765000Y-86500000D02*
X105265000Y-79000000D01*
X117500000Y-86500000D02*
X112765000Y-86500000D01*
%TO.N,Net-(D6-K)*%
X137066100Y-75899000D02*
X139399000Y-78231900D01*
X104501000Y-75899000D02*
X137066100Y-75899000D01*
X135926000Y-94374000D02*
X135926000Y-109661000D01*
X139399000Y-90901000D02*
X135926000Y-94374000D01*
X135926000Y-109661000D02*
X137265000Y-111000000D01*
X139399000Y-78231900D02*
X139399000Y-90901000D01*
X103400000Y-77000000D02*
X104501000Y-75899000D01*
%TO.N,Net-(D8-A)*%
X121001000Y-91750000D02*
X121201000Y-91950000D01*
X120724943Y-93625000D02*
X120724943Y-94459943D01*
X121265000Y-95000000D02*
X121750000Y-94515000D01*
X121201000Y-93148943D02*
X120724943Y-93625000D01*
X121201000Y-91950000D02*
X121201000Y-93148943D01*
X121001000Y-82631000D02*
X121001000Y-91750000D01*
X119870000Y-81500000D02*
X121001000Y-82631000D01*
X120724943Y-94459943D02*
X121265000Y-95000000D01*
%TO.N,Net-(J3-Pin_1)*%
X125060000Y-89750000D02*
X127560000Y-89750000D01*
X129000000Y-105000000D02*
X129000000Y-91190000D01*
X130000000Y-106000000D02*
X129000000Y-105000000D01*
X129000000Y-91190000D02*
X127560000Y-89750000D01*
%TO.N,Net-(J3-Pin_3)*%
X125120000Y-86500000D02*
X129500000Y-90880000D01*
X132000000Y-109080000D02*
X130000000Y-111080000D01*
X132000000Y-104750000D02*
X132000000Y-109080000D01*
X129500000Y-102250000D02*
X132000000Y-104750000D01*
X129500000Y-90880000D02*
X129500000Y-102250000D01*
%TO.N,Net-(J3-Pin_2)*%
X127250000Y-105790000D02*
X130000000Y-108540000D01*
X127250000Y-102500000D02*
X127250000Y-105790000D01*
%TO.N,Net-(J5-Pin_6)*%
X125001000Y-98251000D02*
X123250000Y-96500000D01*
X123900000Y-107100000D02*
X123900000Y-105067100D01*
X123900000Y-105067100D02*
X125001000Y-103966100D01*
X122700000Y-87632900D02*
X122700000Y-78000000D01*
X123250000Y-107250000D02*
X116750000Y-107250000D01*
X125001000Y-103966100D02*
X125001000Y-98251000D01*
X123250000Y-88182900D02*
X122700000Y-87632900D01*
X123250000Y-96500000D02*
X123250000Y-88182900D01*
X123250000Y-107750000D02*
X123900000Y-107100000D01*
%TO.N,Net-(J5-Pin_1)*%
X110000000Y-80500000D02*
X110000000Y-78000000D01*
X112250000Y-81500000D02*
X111000000Y-81500000D01*
X111000000Y-81500000D02*
X110000000Y-80500000D01*
%TO.N,Net-(J5-Pin_4)*%
X120600000Y-84069892D02*
X117620000Y-81089892D01*
X114310000Y-92900000D02*
X112210000Y-95000000D01*
X120600000Y-92900000D02*
X120600000Y-84069892D01*
X117620000Y-81089892D02*
X117620000Y-78000000D01*
X119400000Y-92900000D02*
X114310000Y-92900000D01*
%TO.N,Net-(J5-Pin_5)*%
X122666100Y-96599000D02*
X119835500Y-96599000D01*
X118750000Y-93500000D02*
X116250000Y-93500000D01*
X124600000Y-103800000D02*
X124600000Y-98532900D01*
X122151000Y-93047473D02*
X122151000Y-79991000D01*
X123250000Y-111750000D02*
X116750000Y-111750000D01*
X114750000Y-95000000D02*
X116500000Y-96750000D01*
X116750000Y-111750000D02*
X115449000Y-110449000D01*
X122800000Y-105600000D02*
X124600000Y-103800000D01*
X115449000Y-106711108D02*
X116560108Y-105600000D01*
X122151000Y-79991000D02*
X120160000Y-78000000D01*
X117250000Y-96750000D02*
X118622471Y-96750000D01*
X116500000Y-96750000D02*
X117250000Y-96750000D01*
X121591398Y-93607075D02*
X122151000Y-93047473D01*
X115449000Y-110449000D02*
X115449000Y-106711108D01*
X124600000Y-98532900D02*
X122666100Y-96599000D01*
X116560108Y-105600000D02*
X122800000Y-105600000D01*
X116250000Y-93500000D02*
X114750000Y-95000000D01*
%TD*%
%TA.AperFunction,NonConductor*%
G36*
X112071891Y-76519185D02*
G01*
X112117646Y-76571989D01*
X112127590Y-76641147D01*
X112098565Y-76704703D01*
X112043171Y-76741430D01*
X112021588Y-76748443D01*
X112021585Y-76748444D01*
X111832179Y-76844951D01*
X111660215Y-76969889D01*
X111546673Y-77083431D01*
X111485350Y-77116915D01*
X111415658Y-77111931D01*
X111359725Y-77070059D01*
X111342810Y-77039082D01*
X111293797Y-76907671D01*
X111293793Y-76907664D01*
X111207547Y-76792455D01*
X111207544Y-76792452D01*
X111114456Y-76722766D01*
X111072585Y-76666832D01*
X111067601Y-76597141D01*
X111101087Y-76535818D01*
X111162410Y-76502334D01*
X111188767Y-76499500D01*
X112004852Y-76499500D01*
X112071891Y-76519185D01*
G37*
%TD.AperFunction*%
%TA.AperFunction,NonConductor*%
G36*
X137878482Y-75540977D02*
G01*
X138009535Y-75567045D01*
X138025202Y-75571243D01*
X138170035Y-75620407D01*
X138257481Y-75650091D01*
X138272458Y-75656294D01*
X138463033Y-75750275D01*
X138492460Y-75764787D01*
X138506508Y-75772897D01*
X138710464Y-75909177D01*
X138723328Y-75919048D01*
X138907749Y-76080781D01*
X138919218Y-76092250D01*
X139080951Y-76276671D01*
X139090825Y-76289539D01*
X139227102Y-76493492D01*
X139235212Y-76507539D01*
X139343702Y-76727534D01*
X139349909Y-76742520D01*
X139428756Y-76974797D01*
X139432954Y-76990464D01*
X139459022Y-77121517D01*
X139452795Y-77191108D01*
X139409932Y-77246286D01*
X139344042Y-77269530D01*
X139276045Y-77253462D01*
X139249724Y-77233389D01*
X137766610Y-75750275D01*
X137750376Y-75720546D01*
X137733615Y-75691111D01*
X137733676Y-75689962D01*
X137733125Y-75688952D01*
X137735541Y-75655159D01*
X137737354Y-75621341D01*
X137738026Y-75620407D01*
X137738109Y-75619260D01*
X137758410Y-75592141D01*
X137778221Y-75564669D01*
X137779291Y-75564247D01*
X137779981Y-75563327D01*
X137811725Y-75551486D01*
X137843239Y-75539088D01*
X137844750Y-75539169D01*
X137845445Y-75538910D01*
X137878482Y-75540977D01*
G37*
%TD.AperFunction*%
%TA.AperFunction,NonConductor*%
G36*
X136666942Y-76920185D02*
G01*
X136687584Y-76936819D01*
X137151452Y-77400687D01*
X137184937Y-77462010D01*
X137179953Y-77531702D01*
X137138081Y-77587635D01*
X137083169Y-77610841D01*
X136937047Y-77633984D01*
X136727396Y-77702103D01*
X136727393Y-77702104D01*
X136530974Y-77802187D01*
X136352641Y-77931752D01*
X136352636Y-77931756D01*
X136302463Y-77981929D01*
X136241140Y-78015413D01*
X136171448Y-78010428D01*
X136115515Y-77968557D01*
X136098601Y-77937580D01*
X136068797Y-77857671D01*
X136068793Y-77857664D01*
X135982547Y-77742455D01*
X135982544Y-77742452D01*
X135867335Y-77656206D01*
X135867328Y-77656202D01*
X135732482Y-77605908D01*
X135732483Y-77605908D01*
X135672883Y-77599501D01*
X135672881Y-77599500D01*
X135672873Y-77599500D01*
X135672865Y-77599500D01*
X135449500Y-77599500D01*
X135382461Y-77579815D01*
X135336706Y-77527011D01*
X135325500Y-77475500D01*
X135325500Y-77145945D01*
X135325500Y-77145943D01*
X135301559Y-77056593D01*
X135303222Y-76986743D01*
X135342385Y-76928881D01*
X135406614Y-76901377D01*
X135421334Y-76900500D01*
X136599903Y-76900500D01*
X136666942Y-76920185D01*
G37*
%TD.AperFunction*%
%TA.AperFunction,NonConductor*%
G36*
X116421444Y-78653999D02*
G01*
X116460486Y-78699056D01*
X116464951Y-78707820D01*
X116589890Y-78879786D01*
X116740213Y-79030109D01*
X116912184Y-79155051D01*
X116912184Y-79155052D01*
X116951793Y-79175233D01*
X117002590Y-79223206D01*
X117019500Y-79285718D01*
X117019500Y-80620902D01*
X116999815Y-80687941D01*
X116947011Y-80733696D01*
X116877853Y-80743640D01*
X116814297Y-80714615D01*
X116807819Y-80708583D01*
X115716819Y-79617583D01*
X115702115Y-79590655D01*
X115685523Y-79564837D01*
X115684631Y-79558636D01*
X115683334Y-79556260D01*
X115680500Y-79529902D01*
X115680500Y-79285718D01*
X115700185Y-79218679D01*
X115748207Y-79175233D01*
X115787815Y-79155052D01*
X115787815Y-79155051D01*
X115787816Y-79155051D01*
X115879193Y-79088661D01*
X115959786Y-79030109D01*
X115959788Y-79030106D01*
X115959792Y-79030104D01*
X116110104Y-78879792D01*
X116110106Y-78879788D01*
X116110109Y-78879786D01*
X116235048Y-78707820D01*
X116235047Y-78707820D01*
X116235051Y-78707816D01*
X116239514Y-78699054D01*
X116287488Y-78648259D01*
X116355308Y-78631463D01*
X116421444Y-78653999D01*
G37*
%TD.AperFunction*%
%TA.AperFunction,NonConductor*%
G36*
X118961444Y-78653999D02*
G01*
X119000486Y-78699056D01*
X119004951Y-78707820D01*
X119129890Y-78879786D01*
X119280213Y-79030109D01*
X119452179Y-79155048D01*
X119452181Y-79155049D01*
X119452184Y-79155051D01*
X119641588Y-79251557D01*
X119843757Y-79317246D01*
X120053713Y-79350500D01*
X120053714Y-79350500D01*
X120266286Y-79350500D01*
X120266287Y-79350500D01*
X120476243Y-79317246D01*
X120518523Y-79303507D01*
X120588362Y-79301511D01*
X120644522Y-79333757D01*
X121514181Y-80203416D01*
X121547666Y-80264739D01*
X121550500Y-80291097D01*
X121550500Y-81033420D01*
X121530815Y-81100459D01*
X121478011Y-81146214D01*
X121408853Y-81156158D01*
X121345297Y-81127133D01*
X121308569Y-81071739D01*
X121270452Y-80954428D01*
X121260568Y-80924008D01*
X121260566Y-80924005D01*
X121260566Y-80924003D01*
X121163599Y-80733696D01*
X121153343Y-80713567D01*
X121014517Y-80522490D01*
X120847510Y-80355483D01*
X120656433Y-80216657D01*
X120630446Y-80203416D01*
X120445996Y-80109433D01*
X120221368Y-80036446D01*
X119988097Y-79999500D01*
X119988092Y-79999500D01*
X119751908Y-79999500D01*
X119751903Y-79999500D01*
X119518631Y-80036446D01*
X119294003Y-80109433D01*
X119083566Y-80216657D01*
X118985946Y-80287583D01*
X118892490Y-80355483D01*
X118892488Y-80355485D01*
X118892487Y-80355485D01*
X118725485Y-80522487D01*
X118725485Y-80522488D01*
X118725483Y-80522490D01*
X118677111Y-80589068D01*
X118586657Y-80713566D01*
X118497480Y-80888585D01*
X118478163Y-80909037D01*
X118461305Y-80931557D01*
X118454495Y-80934096D01*
X118449505Y-80939381D01*
X118422198Y-80946143D01*
X118395841Y-80955974D01*
X118388738Y-80954428D01*
X118381684Y-80956176D01*
X118355057Y-80947102D01*
X118327568Y-80941122D01*
X118319260Y-80934902D01*
X118315549Y-80933638D01*
X118299314Y-80919971D01*
X118256819Y-80877476D01*
X118223334Y-80816153D01*
X118220500Y-80789795D01*
X118220500Y-79285718D01*
X118240185Y-79218679D01*
X118288207Y-79175233D01*
X118327815Y-79155052D01*
X118327815Y-79155051D01*
X118327816Y-79155051D01*
X118419193Y-79088661D01*
X118499786Y-79030109D01*
X118499788Y-79030106D01*
X118499792Y-79030104D01*
X118650104Y-78879792D01*
X118650106Y-78879788D01*
X118650109Y-78879786D01*
X118775048Y-78707820D01*
X118775047Y-78707820D01*
X118775051Y-78707816D01*
X118779514Y-78699054D01*
X118827488Y-78648259D01*
X118895308Y-78631463D01*
X118961444Y-78653999D01*
G37*
%TD.AperFunction*%
%TA.AperFunction,NonConductor*%
G36*
X126406665Y-88637346D02*
G01*
X126418626Y-88647861D01*
X126708584Y-88937819D01*
X126742069Y-88999142D01*
X126737085Y-89068834D01*
X126695213Y-89124767D01*
X126629749Y-89149184D01*
X126620903Y-89149500D01*
X126514068Y-89149500D01*
X126447029Y-89129815D01*
X126403583Y-89081795D01*
X126343342Y-88963566D01*
X126324636Y-88937819D01*
X126230626Y-88808426D01*
X126207147Y-88742621D01*
X126222972Y-88674568D01*
X126273078Y-88625873D01*
X126341556Y-88611997D01*
X126406665Y-88637346D01*
G37*
%TD.AperFunction*%
%TA.AperFunction,NonConductor*%
G36*
X139418833Y-91832915D02*
G01*
X139474767Y-91874787D01*
X139499184Y-91940251D01*
X139499500Y-91949097D01*
X139499500Y-93550901D01*
X139479815Y-93617940D01*
X139427011Y-93663695D01*
X139357853Y-93673639D01*
X139294297Y-93644614D01*
X139287819Y-93638582D01*
X139265397Y-93616160D01*
X139265374Y-93616139D01*
X138911814Y-93262579D01*
X138911812Y-93262576D01*
X138792941Y-93143705D01*
X138792940Y-93143704D01*
X138691834Y-93085331D01*
X138691833Y-93085330D01*
X138656007Y-93064646D01*
X138600105Y-93049667D01*
X138503281Y-93023723D01*
X138424875Y-93023723D01*
X138357836Y-93004038D01*
X138312081Y-92951234D01*
X138302137Y-92882076D01*
X138331162Y-92818520D01*
X138337194Y-92812042D01*
X139287819Y-91861416D01*
X139349142Y-91827931D01*
X139418833Y-91832915D01*
G37*
%TD.AperFunction*%
%TA.AperFunction,NonConductor*%
G36*
X122568834Y-93581388D02*
G01*
X122624767Y-93623260D01*
X122649184Y-93688724D01*
X122649500Y-93697570D01*
X122649500Y-94141294D01*
X122629815Y-94208333D01*
X122577011Y-94254088D01*
X122507853Y-94264032D01*
X122444297Y-94235007D01*
X122425182Y-94214179D01*
X122333246Y-94087639D01*
X122332471Y-94086732D01*
X122332284Y-94086315D01*
X122330379Y-94083693D01*
X122330929Y-94083293D01*
X122303892Y-94022975D01*
X122312190Y-93958737D01*
X122361133Y-93840576D01*
X122361135Y-93840572D01*
X122380652Y-93742454D01*
X122392036Y-93685226D01*
X122400800Y-93668469D01*
X122404821Y-93649990D01*
X122423565Y-93624951D01*
X122424421Y-93623315D01*
X122425972Y-93621736D01*
X122437819Y-93609889D01*
X122499142Y-93576404D01*
X122568834Y-93581388D01*
G37*
%TD.AperFunction*%
%TA.AperFunction,NonConductor*%
G36*
X117267539Y-94120185D02*
G01*
X117313294Y-94172989D01*
X117324500Y-94224500D01*
X117324500Y-95947870D01*
X117324501Y-95947876D01*
X117331421Y-96012247D01*
X117319014Y-96081006D01*
X117271403Y-96132143D01*
X117208131Y-96149500D01*
X116800098Y-96149500D01*
X116733059Y-96129815D01*
X116712417Y-96113181D01*
X116186818Y-95587582D01*
X116153333Y-95526259D01*
X116150499Y-95499901D01*
X116150499Y-94500097D01*
X116170184Y-94433058D01*
X116186818Y-94412416D01*
X116462416Y-94136819D01*
X116523739Y-94103334D01*
X116550097Y-94100500D01*
X117200500Y-94100500D01*
X117267539Y-94120185D01*
G37*
%TD.AperFunction*%
%TA.AperFunction,NonConductor*%
G36*
X127326942Y-90370185D02*
G01*
X127347584Y-90386819D01*
X128363181Y-91402416D01*
X128396666Y-91463739D01*
X128399500Y-91490097D01*
X128399500Y-101237077D01*
X128379815Y-101304116D01*
X128327011Y-101349871D01*
X128257853Y-101359815D01*
X128202614Y-101337395D01*
X128036433Y-101216657D01*
X127825996Y-101109433D01*
X127601368Y-101036446D01*
X127368097Y-100999500D01*
X127368092Y-100999500D01*
X127131908Y-100999500D01*
X127131903Y-100999500D01*
X126898631Y-101036446D01*
X126674003Y-101109433D01*
X126463566Y-101216657D01*
X126435461Y-101237077D01*
X126272490Y-101355483D01*
X126272488Y-101355485D01*
X126272487Y-101355485D01*
X126105485Y-101522487D01*
X126105485Y-101522488D01*
X126105483Y-101522490D01*
X126045862Y-101604550D01*
X125966657Y-101713566D01*
X125859433Y-101924003D01*
X125843431Y-101973255D01*
X125803993Y-102030930D01*
X125739634Y-102058128D01*
X125670788Y-102046213D01*
X125619312Y-101998969D01*
X125601500Y-101934936D01*
X125601500Y-98340059D01*
X125601501Y-98340046D01*
X125601501Y-98171945D01*
X125601501Y-98171943D01*
X125560577Y-98019215D01*
X125510454Y-97932400D01*
X125481520Y-97882284D01*
X125369716Y-97770480D01*
X125369715Y-97770479D01*
X125365385Y-97766149D01*
X125365374Y-97766139D01*
X123886819Y-96287584D01*
X123853334Y-96226261D01*
X123850500Y-96199903D01*
X123850500Y-90961889D01*
X123870185Y-90894850D01*
X123922989Y-90849095D01*
X123992147Y-90839151D01*
X124055703Y-90868176D01*
X124062181Y-90874208D01*
X124082490Y-90894517D01*
X124273567Y-91033343D01*
X124372991Y-91084002D01*
X124484003Y-91140566D01*
X124484005Y-91140566D01*
X124484008Y-91140568D01*
X124604412Y-91179689D01*
X124708631Y-91213553D01*
X124941903Y-91250500D01*
X124941908Y-91250500D01*
X125178097Y-91250500D01*
X125411368Y-91213553D01*
X125635992Y-91140568D01*
X125846433Y-91033343D01*
X126037510Y-90894517D01*
X126204517Y-90727510D01*
X126343343Y-90536433D01*
X126403583Y-90418204D01*
X126451558Y-90367409D01*
X126514068Y-90350500D01*
X127259903Y-90350500D01*
X127326942Y-90370185D01*
G37*
%TD.AperFunction*%
%TA.AperFunction,NonConductor*%
G36*
X129805703Y-103405384D02*
G01*
X129812181Y-103411416D01*
X130838584Y-104437819D01*
X130872069Y-104499142D01*
X130867085Y-104568834D01*
X130825213Y-104624767D01*
X130759749Y-104649184D01*
X130750903Y-104649500D01*
X129724500Y-104649500D01*
X129657461Y-104629815D01*
X129611706Y-104577011D01*
X129600500Y-104525500D01*
X129600500Y-103499097D01*
X129620185Y-103432058D01*
X129672989Y-103386303D01*
X129742147Y-103376359D01*
X129805703Y-103405384D01*
G37*
%TD.AperFunction*%
%TA.AperFunction,NonConductor*%
G36*
X128336474Y-103654949D02*
G01*
X128385169Y-103705055D01*
X128399500Y-103762922D01*
X128399500Y-104913330D01*
X128399499Y-104913348D01*
X128399499Y-105079054D01*
X128399498Y-105079054D01*
X128440423Y-105231785D01*
X128469358Y-105281900D01*
X128469359Y-105281904D01*
X128469360Y-105281904D01*
X128518602Y-105367196D01*
X128519479Y-105368714D01*
X128519481Y-105368717D01*
X128613181Y-105462417D01*
X128646666Y-105523740D01*
X128649500Y-105550098D01*
X128649500Y-106040903D01*
X128629815Y-106107942D01*
X128577011Y-106153697D01*
X128507853Y-106163641D01*
X128444297Y-106134616D01*
X128437819Y-106128584D01*
X127886819Y-105577584D01*
X127853334Y-105516261D01*
X127850500Y-105489903D01*
X127850500Y-103954067D01*
X127870185Y-103887028D01*
X127918205Y-103843582D01*
X128036433Y-103783343D01*
X128202616Y-103662602D01*
X128268420Y-103639124D01*
X128336474Y-103654949D01*
G37*
%TD.AperFunction*%
%TA.AperFunction,NonConductor*%
G36*
X121970795Y-106202371D02*
G01*
X121977329Y-106201173D01*
X122003904Y-106212093D01*
X122031462Y-106220185D01*
X122035810Y-106225203D01*
X122041956Y-106227729D01*
X122058409Y-106251283D01*
X122077217Y-106272989D01*
X122078162Y-106279562D01*
X122081966Y-106285008D01*
X122083072Y-106313715D01*
X122087161Y-106342147D01*
X122084428Y-106348878D01*
X122084658Y-106354826D01*
X122071243Y-106387471D01*
X122068226Y-106392587D01*
X122016657Y-106463567D01*
X121954690Y-106585183D01*
X121952752Y-106588471D01*
X121929925Y-106609844D01*
X121908442Y-106632591D01*
X121904621Y-106633537D01*
X121901750Y-106636226D01*
X121845932Y-106649500D01*
X118254068Y-106649500D01*
X118187029Y-106629815D01*
X118143583Y-106581795D01*
X118083342Y-106463566D01*
X118083340Y-106463563D01*
X118035258Y-106397384D01*
X118011779Y-106331580D01*
X118027604Y-106263526D01*
X118077710Y-106214831D01*
X118135577Y-106200500D01*
X121964423Y-106200500D01*
X121970795Y-106202371D01*
G37*
%TD.AperFunction*%
%TA.AperFunction,NonConductor*%
G36*
X131334926Y-107202738D02*
G01*
X131384332Y-107252143D01*
X131399500Y-107311571D01*
X131399500Y-107795444D01*
X131379815Y-107862483D01*
X131327011Y-107908238D01*
X131257853Y-107918182D01*
X131194297Y-107889157D01*
X131165016Y-107851740D01*
X131155050Y-107832182D01*
X131030109Y-107660213D01*
X130916569Y-107546673D01*
X130883084Y-107485350D01*
X130888068Y-107415658D01*
X130929940Y-107359725D01*
X130960915Y-107342810D01*
X131092331Y-107293796D01*
X131201189Y-107212305D01*
X131266653Y-107187887D01*
X131334926Y-107202738D01*
G37*
%TD.AperFunction*%
%TA.AperFunction,NonConductor*%
G36*
X136706796Y-96287400D02*
G01*
X136727389Y-96297893D01*
X136727396Y-96297896D01*
X136794525Y-96319707D01*
X136937049Y-96366015D01*
X137154778Y-96400500D01*
X137154779Y-96400500D01*
X137375221Y-96400500D01*
X137375222Y-96400500D01*
X137592951Y-96366015D01*
X137663205Y-96343187D01*
X137678417Y-96342753D01*
X137692676Y-96337435D01*
X137712628Y-96341775D01*
X137733044Y-96341192D01*
X137747132Y-96349281D01*
X137760949Y-96352287D01*
X137789203Y-96373438D01*
X137863181Y-96447416D01*
X137896666Y-96508739D01*
X137899500Y-96535097D01*
X137899500Y-109562916D01*
X137879815Y-109629955D01*
X137827011Y-109675710D01*
X137757853Y-109685654D01*
X137737183Y-109680847D01*
X137592953Y-109633985D01*
X137592954Y-109633985D01*
X137429654Y-109608121D01*
X137375222Y-109599500D01*
X137154778Y-109599500D01*
X137114320Y-109605908D01*
X136937045Y-109633985D01*
X136866794Y-109656811D01*
X136796953Y-109658806D01*
X136740796Y-109626561D01*
X136562819Y-109448584D01*
X136529334Y-109387261D01*
X136526500Y-109360903D01*
X136526500Y-96397884D01*
X136546185Y-96330845D01*
X136598989Y-96285090D01*
X136668147Y-96275146D01*
X136706796Y-96287400D01*
G37*
%TD.AperFunction*%
%TA.AperFunction,NonConductor*%
G36*
X133966942Y-77320185D02*
G01*
X133987584Y-77336819D01*
X134038584Y-77387819D01*
X134072069Y-77449142D01*
X134067085Y-77518834D01*
X134025213Y-77574767D01*
X133959749Y-77599184D01*
X133950904Y-77599500D01*
X133777130Y-77599500D01*
X133777123Y-77599501D01*
X133717516Y-77605908D01*
X133582671Y-77656202D01*
X133582664Y-77656206D01*
X133467455Y-77742452D01*
X133467452Y-77742455D01*
X133381206Y-77857664D01*
X133381202Y-77857671D01*
X133330908Y-77992517D01*
X133324501Y-78052116D01*
X133324500Y-78052135D01*
X133324500Y-79947870D01*
X133324501Y-79947876D01*
X133330908Y-80007483D01*
X133381202Y-80142328D01*
X133381206Y-80142335D01*
X133467452Y-80257544D01*
X133467455Y-80257547D01*
X133582664Y-80343793D01*
X133582671Y-80343797D01*
X133717517Y-80394091D01*
X133717516Y-80394091D01*
X133724444Y-80394835D01*
X133777127Y-80400500D01*
X135672872Y-80400499D01*
X135732483Y-80394091D01*
X135867331Y-80343796D01*
X135982546Y-80257546D01*
X136068796Y-80142331D01*
X136096428Y-80068247D01*
X136098601Y-80062420D01*
X136140471Y-80006486D01*
X136205936Y-79982068D01*
X136274209Y-79996919D01*
X136302464Y-80018071D01*
X136352635Y-80068242D01*
X136352641Y-80068247D01*
X136530976Y-80197814D01*
X136596794Y-80231350D01*
X136647591Y-80279324D01*
X136664500Y-80341835D01*
X136664500Y-91319273D01*
X136644815Y-91386312D01*
X136628181Y-91406954D01*
X135777524Y-92257610D01*
X135716201Y-92291095D01*
X135714035Y-92291546D01*
X135558693Y-92322446D01*
X135558683Y-92322449D01*
X135413012Y-92382787D01*
X135412999Y-92382794D01*
X135281896Y-92470395D01*
X135281892Y-92470398D01*
X135170398Y-92581892D01*
X135170395Y-92581896D01*
X135082794Y-92712999D01*
X135082787Y-92713012D01*
X135022449Y-92858683D01*
X135022446Y-92858695D01*
X134991685Y-93013338D01*
X134991685Y-93171031D01*
X135022446Y-93325674D01*
X135022449Y-93325686D01*
X135064848Y-93428048D01*
X135072317Y-93497518D01*
X135041041Y-93559997D01*
X134980952Y-93595649D01*
X134950287Y-93599500D01*
X133777129Y-93599500D01*
X133777123Y-93599501D01*
X133717516Y-93605908D01*
X133582671Y-93656202D01*
X133582664Y-93656206D01*
X133467455Y-93742452D01*
X133467452Y-93742455D01*
X133381206Y-93857664D01*
X133381202Y-93857671D01*
X133330908Y-93992517D01*
X133324501Y-94052116D01*
X133324500Y-94052135D01*
X133324500Y-95947870D01*
X133324501Y-95947876D01*
X133330908Y-96007483D01*
X133381202Y-96142328D01*
X133381206Y-96142335D01*
X133467452Y-96257544D01*
X133467455Y-96257547D01*
X133582664Y-96343793D01*
X133582671Y-96343797D01*
X133717517Y-96394091D01*
X133717516Y-96394091D01*
X133724444Y-96394835D01*
X133777127Y-96400500D01*
X135201500Y-96400499D01*
X135268539Y-96420184D01*
X135314294Y-96472987D01*
X135325500Y-96524499D01*
X135325500Y-109475500D01*
X135305815Y-109542539D01*
X135253011Y-109588294D01*
X135201500Y-109599500D01*
X133777129Y-109599500D01*
X133777123Y-109599501D01*
X133717516Y-109605908D01*
X133582671Y-109656202D01*
X133582664Y-109656206D01*
X133467455Y-109742452D01*
X133467452Y-109742455D01*
X133381206Y-109857664D01*
X133381202Y-109857671D01*
X133330908Y-109992517D01*
X133324501Y-110052116D01*
X133324500Y-110052135D01*
X133324500Y-111499902D01*
X133304815Y-111566941D01*
X133288181Y-111587583D01*
X132312584Y-112563181D01*
X132251261Y-112596666D01*
X132224903Y-112599500D01*
X130476673Y-112599500D01*
X130409634Y-112579815D01*
X130363879Y-112527011D01*
X130353935Y-112457853D01*
X130382960Y-112394297D01*
X130438354Y-112357569D01*
X130518412Y-112331557D01*
X130707816Y-112235051D01*
X130759067Y-112197815D01*
X130879786Y-112110109D01*
X130879788Y-112110106D01*
X130879792Y-112110104D01*
X131030104Y-111959792D01*
X131030106Y-111959788D01*
X131030109Y-111959786D01*
X131155048Y-111787820D01*
X131155047Y-111787820D01*
X131155051Y-111787816D01*
X131251557Y-111598412D01*
X131317246Y-111396243D01*
X131350500Y-111186287D01*
X131350500Y-110973713D01*
X131317246Y-110763757D01*
X131303506Y-110721473D01*
X131301512Y-110651635D01*
X131333755Y-110595478D01*
X132368713Y-109560521D01*
X132368716Y-109560520D01*
X132480520Y-109448716D01*
X132530639Y-109361904D01*
X132559577Y-109311785D01*
X132600500Y-109159057D01*
X132600500Y-109000943D01*
X132600500Y-104839059D01*
X132600501Y-104839046D01*
X132600501Y-104670945D01*
X132600501Y-104670943D01*
X132559577Y-104518215D01*
X132514664Y-104440424D01*
X132480520Y-104381284D01*
X132368716Y-104269480D01*
X132364385Y-104265149D01*
X132364374Y-104265139D01*
X130136819Y-102037584D01*
X130103334Y-101976261D01*
X130100500Y-101949903D01*
X130100500Y-90800944D01*
X130100500Y-90800943D01*
X130090650Y-90764184D01*
X130080824Y-90727510D01*
X130059577Y-90648216D01*
X129995040Y-90536433D01*
X129980524Y-90511290D01*
X129980521Y-90511286D01*
X129980520Y-90511284D01*
X129868716Y-90399480D01*
X129868715Y-90399479D01*
X129864385Y-90395149D01*
X129864374Y-90395139D01*
X126572798Y-87103563D01*
X126539313Y-87042240D01*
X126542547Y-86977566D01*
X126583553Y-86851368D01*
X126603705Y-86724126D01*
X126620500Y-86618097D01*
X126620500Y-86381902D01*
X126583553Y-86148631D01*
X126510566Y-85924003D01*
X126403342Y-85713566D01*
X126264517Y-85522490D01*
X126097510Y-85355483D01*
X125906433Y-85216657D01*
X125695996Y-85109433D01*
X125471368Y-85036446D01*
X125238097Y-84999500D01*
X125238092Y-84999500D01*
X125001908Y-84999500D01*
X125001903Y-84999500D01*
X124768631Y-85036446D01*
X124544003Y-85109433D01*
X124333566Y-85216657D01*
X124224550Y-85295862D01*
X124142490Y-85355483D01*
X124142488Y-85355485D01*
X124142487Y-85355485D01*
X123975485Y-85522487D01*
X123975485Y-85522488D01*
X123975483Y-85522490D01*
X123915862Y-85604550D01*
X123836657Y-85713566D01*
X123729433Y-85924003D01*
X123656446Y-86148631D01*
X123619500Y-86381902D01*
X123619500Y-86618097D01*
X123656446Y-86851368D01*
X123729433Y-87075996D01*
X123836657Y-87286433D01*
X123975483Y-87477510D01*
X124142490Y-87644517D01*
X124333567Y-87783343D01*
X124394096Y-87814184D01*
X124544003Y-87890566D01*
X124544005Y-87890566D01*
X124544008Y-87890568D01*
X124636292Y-87920553D01*
X124768631Y-87963553D01*
X125001903Y-88000500D01*
X125001908Y-88000500D01*
X125238097Y-88000500D01*
X125344126Y-87983705D01*
X125471368Y-87963553D01*
X125597566Y-87922547D01*
X125667404Y-87920553D01*
X125723563Y-87952798D01*
X126162138Y-88391373D01*
X126195623Y-88452696D01*
X126190639Y-88522388D01*
X126148767Y-88578321D01*
X126083303Y-88602738D01*
X126015030Y-88587886D01*
X126001571Y-88579372D01*
X126000124Y-88578321D01*
X125846433Y-88466657D01*
X125819033Y-88452696D01*
X125635996Y-88359433D01*
X125411368Y-88286446D01*
X125178097Y-88249500D01*
X125178092Y-88249500D01*
X124941908Y-88249500D01*
X124941903Y-88249500D01*
X124708631Y-88286446D01*
X124484003Y-88359433D01*
X124273566Y-88466657D01*
X124196860Y-88522388D01*
X124082490Y-88605483D01*
X124082488Y-88605485D01*
X124082487Y-88605485D01*
X124062181Y-88625792D01*
X124000858Y-88659277D01*
X123931166Y-88654293D01*
X123875233Y-88612421D01*
X123850816Y-88546957D01*
X123850500Y-88538111D01*
X123850500Y-88103845D01*
X123850500Y-88103843D01*
X123809577Y-87951116D01*
X123809573Y-87951109D01*
X123730524Y-87814190D01*
X123730521Y-87814186D01*
X123730520Y-87814184D01*
X123618716Y-87702380D01*
X123618715Y-87702379D01*
X123614385Y-87698049D01*
X123614374Y-87698039D01*
X123336819Y-87420484D01*
X123303334Y-87359161D01*
X123300500Y-87332803D01*
X123300500Y-79285718D01*
X123320185Y-79218679D01*
X123368207Y-79175233D01*
X123407815Y-79155052D01*
X123407815Y-79155051D01*
X123407816Y-79155051D01*
X123499193Y-79088661D01*
X123579786Y-79030109D01*
X123579788Y-79030106D01*
X123579792Y-79030104D01*
X123730104Y-78879792D01*
X123730106Y-78879788D01*
X123730109Y-78879786D01*
X123855048Y-78707820D01*
X123855047Y-78707820D01*
X123855051Y-78707816D01*
X123951557Y-78518412D01*
X124017246Y-78316243D01*
X124050500Y-78106287D01*
X124050500Y-77893713D01*
X124017246Y-77683757D01*
X123951557Y-77481588D01*
X123951555Y-77481585D01*
X123951555Y-77481583D01*
X123951154Y-77480796D01*
X123951091Y-77480463D01*
X123949690Y-77477079D01*
X123950400Y-77476784D01*
X123938257Y-77412127D01*
X123964532Y-77347387D01*
X124021638Y-77307129D01*
X124061638Y-77300500D01*
X133899903Y-77300500D01*
X133966942Y-77320185D01*
G37*
%TD.AperFunction*%
%TA.AperFunction,NonConductor*%
G36*
X125757784Y-102949009D02*
G01*
X125773769Y-102950844D01*
X125788909Y-102963223D01*
X125806703Y-102971350D01*
X125816004Y-102985378D01*
X125827859Y-102995072D01*
X125843429Y-103026742D01*
X125859432Y-103075992D01*
X125966657Y-103286433D01*
X126105483Y-103477510D01*
X126272490Y-103644517D01*
X126415797Y-103748636D01*
X126463568Y-103783344D01*
X126521213Y-103812715D01*
X126581794Y-103843582D01*
X126632590Y-103891556D01*
X126649500Y-103954067D01*
X126649500Y-105703330D01*
X126649499Y-105703348D01*
X126649499Y-105869054D01*
X126649498Y-105869054D01*
X126690423Y-106021785D01*
X126719358Y-106071900D01*
X126719359Y-106071904D01*
X126719360Y-106071904D01*
X126769479Y-106158714D01*
X126769481Y-106158717D01*
X126888349Y-106277585D01*
X126888355Y-106277590D01*
X128666241Y-108055476D01*
X128699726Y-108116799D01*
X128696492Y-108181473D01*
X128682753Y-108223757D01*
X128655708Y-108394517D01*
X128649500Y-108433713D01*
X128649500Y-108646287D01*
X128682754Y-108856243D01*
X128710321Y-108941086D01*
X128748444Y-109058414D01*
X128844951Y-109247820D01*
X128969890Y-109419786D01*
X129120213Y-109570109D01*
X129292182Y-109695050D01*
X129300946Y-109699516D01*
X129351742Y-109747491D01*
X129368536Y-109815312D01*
X129345998Y-109881447D01*
X129300946Y-109920484D01*
X129292182Y-109924949D01*
X129120213Y-110049890D01*
X128969890Y-110200213D01*
X128844951Y-110372179D01*
X128748444Y-110561585D01*
X128682753Y-110763760D01*
X128649500Y-110973713D01*
X128649500Y-111186286D01*
X128678393Y-111368713D01*
X128682754Y-111396243D01*
X128744924Y-111587583D01*
X128748444Y-111598414D01*
X128844951Y-111787820D01*
X128969890Y-111959786D01*
X129120213Y-112110109D01*
X129292179Y-112235048D01*
X129292181Y-112235049D01*
X129292184Y-112235051D01*
X129481588Y-112331557D01*
X129561645Y-112357569D01*
X129619321Y-112397007D01*
X129646519Y-112461365D01*
X129634604Y-112530212D01*
X129587360Y-112581687D01*
X129523327Y-112599500D01*
X124753559Y-112599500D01*
X124686520Y-112579815D01*
X124640765Y-112527011D01*
X124630821Y-112457853D01*
X124643074Y-112419205D01*
X124663783Y-112378560D01*
X124690568Y-112325992D01*
X124763553Y-112101368D01*
X124768799Y-112068247D01*
X124800500Y-111868097D01*
X124800500Y-111631902D01*
X124763553Y-111398631D01*
X124729689Y-111294412D01*
X124690568Y-111174008D01*
X124690566Y-111174005D01*
X124690566Y-111174003D01*
X124633709Y-111062415D01*
X124583343Y-110963567D01*
X124444517Y-110772490D01*
X124277510Y-110605483D01*
X124086433Y-110466657D01*
X123875996Y-110359433D01*
X123651368Y-110286446D01*
X123418097Y-110249500D01*
X123418092Y-110249500D01*
X123181908Y-110249500D01*
X123181903Y-110249500D01*
X122948631Y-110286446D01*
X122724003Y-110359433D01*
X122513566Y-110466657D01*
X122404550Y-110545862D01*
X122322490Y-110605483D01*
X122322488Y-110605485D01*
X122322487Y-110605485D01*
X122155485Y-110772487D01*
X122155485Y-110772488D01*
X122155483Y-110772490D01*
X122098635Y-110850735D01*
X122016657Y-110963566D01*
X122011487Y-110973713D01*
X121959479Y-111075786D01*
X121956417Y-111081795D01*
X121908442Y-111132591D01*
X121845932Y-111149500D01*
X118254068Y-111149500D01*
X118187029Y-111129815D01*
X118143583Y-111081795D01*
X118083343Y-110963567D01*
X117944517Y-110772490D01*
X117777510Y-110605483D01*
X117586433Y-110466657D01*
X117375996Y-110359433D01*
X117151368Y-110286446D01*
X116918097Y-110249500D01*
X116918092Y-110249500D01*
X116681908Y-110249500D01*
X116681903Y-110249500D01*
X116448630Y-110286447D01*
X116448627Y-110286447D01*
X116284696Y-110339712D01*
X116269483Y-110340146D01*
X116255224Y-110345465D01*
X116235268Y-110341123D01*
X116214855Y-110341707D01*
X116200768Y-110333618D01*
X116186951Y-110330613D01*
X116158697Y-110309462D01*
X116085819Y-110236584D01*
X116052334Y-110175261D01*
X116049500Y-110148903D01*
X116049500Y-108753862D01*
X116069185Y-108686823D01*
X116121989Y-108641068D01*
X116191147Y-108631124D01*
X116220968Y-108639307D01*
X116223988Y-108640557D01*
X116224008Y-108640568D01*
X116402998Y-108698725D01*
X116448631Y-108713553D01*
X116681903Y-108750500D01*
X116681908Y-108750500D01*
X116918097Y-108750500D01*
X117151368Y-108713553D01*
X117375992Y-108640568D01*
X117586433Y-108533343D01*
X117777510Y-108394517D01*
X117944517Y-108227510D01*
X118083343Y-108036433D01*
X118143583Y-107918204D01*
X118191558Y-107867409D01*
X118254068Y-107850500D01*
X121845932Y-107850500D01*
X121912971Y-107870185D01*
X121956416Y-107918203D01*
X122016657Y-108036433D01*
X122155483Y-108227510D01*
X122322490Y-108394517D01*
X122513567Y-108533343D01*
X122612991Y-108584002D01*
X122724003Y-108640566D01*
X122724005Y-108640566D01*
X122724008Y-108640568D01*
X122844412Y-108679689D01*
X122948631Y-108713553D01*
X123181903Y-108750500D01*
X123181908Y-108750500D01*
X123418097Y-108750500D01*
X123651368Y-108713553D01*
X123875992Y-108640568D01*
X124086433Y-108533343D01*
X124277510Y-108394517D01*
X124444517Y-108227510D01*
X124583343Y-108036433D01*
X124690568Y-107825992D01*
X124763553Y-107601368D01*
X124778041Y-107509896D01*
X124800500Y-107368097D01*
X124800500Y-107131902D01*
X124763553Y-106898631D01*
X124690566Y-106674003D01*
X124643583Y-106581795D01*
X124583343Y-106463567D01*
X124535260Y-106397386D01*
X124524182Y-106382138D01*
X124500702Y-106316332D01*
X124500500Y-106309253D01*
X124500500Y-105367196D01*
X124520185Y-105300157D01*
X124536815Y-105279519D01*
X125369713Y-104446621D01*
X125369716Y-104446620D01*
X125481520Y-104334816D01*
X125531639Y-104248004D01*
X125560577Y-104197885D01*
X125601500Y-104045157D01*
X125601500Y-103887043D01*
X125601500Y-103065063D01*
X125606033Y-103049623D01*
X125605574Y-103033540D01*
X125615674Y-103016789D01*
X125621185Y-102998024D01*
X125633343Y-102987488D01*
X125641654Y-102973707D01*
X125659209Y-102965075D01*
X125673989Y-102952269D01*
X125689913Y-102949979D01*
X125704355Y-102942879D01*
X125723786Y-102945108D01*
X125743147Y-102942325D01*
X125757784Y-102949009D01*
G37*
%TD.AperFunction*%
%TA.AperFunction,NonConductor*%
G36*
X121912971Y-112370185D02*
G01*
X121956440Y-112418251D01*
X121956949Y-112419251D01*
X121969817Y-112487926D01*
X121943513Y-112552655D01*
X121886390Y-112592889D01*
X121846441Y-112599500D01*
X118253559Y-112599500D01*
X118186520Y-112579815D01*
X118140765Y-112527011D01*
X118130821Y-112457853D01*
X118143051Y-112419251D01*
X118143560Y-112418251D01*
X118191513Y-112367435D01*
X118254068Y-112350500D01*
X121845932Y-112350500D01*
X121912971Y-112370185D01*
G37*
%TD.AperFunction*%
%TA.AperFunction,NonConductor*%
G36*
X136220788Y-111985298D02*
G01*
X136274209Y-111996919D01*
X136302464Y-112018071D01*
X136352636Y-112068243D01*
X136352641Y-112068247D01*
X136530978Y-112197815D01*
X136530979Y-112197816D01*
X136658446Y-112262765D01*
X136709242Y-112310739D01*
X136726037Y-112378560D01*
X136703499Y-112444695D01*
X136689833Y-112460930D01*
X136598109Y-112552655D01*
X136186582Y-112964182D01*
X136125261Y-112997666D01*
X136098903Y-113000500D01*
X133873097Y-113000500D01*
X133806058Y-112980815D01*
X133760303Y-112928011D01*
X133750359Y-112858853D01*
X133779384Y-112795297D01*
X133785416Y-112788819D01*
X134137416Y-112436818D01*
X134198739Y-112403333D01*
X134225097Y-112400499D01*
X135672871Y-112400499D01*
X135672872Y-112400499D01*
X135732483Y-112394091D01*
X135867331Y-112343796D01*
X135982546Y-112257546D01*
X136068796Y-112142331D01*
X136070273Y-112138372D01*
X136098601Y-112062420D01*
X136098601Y-112062419D01*
X136098602Y-112062416D01*
X136121408Y-112031951D01*
X136140471Y-112006486D01*
X136140472Y-112006485D01*
X136140473Y-112006485D01*
X136166993Y-111996593D01*
X136205936Y-111982068D01*
X136205937Y-111982068D01*
X136220788Y-111985298D01*
G37*
%TD.AperFunction*%
%TA.AperFunction,NonConductor*%
G36*
X113917834Y-111033914D02*
G01*
X113973767Y-111075786D01*
X113998184Y-111141250D01*
X113998500Y-111150096D01*
X113998500Y-112579430D01*
X113998499Y-112579448D01*
X113998499Y-112745154D01*
X113998498Y-112745154D01*
X114039422Y-112897883D01*
X114040934Y-112900501D01*
X114040937Y-112900507D01*
X114118477Y-113034812D01*
X114118481Y-113034817D01*
X114237349Y-113153685D01*
X114237355Y-113153690D01*
X114273484Y-113189819D01*
X114306969Y-113251142D01*
X114301985Y-113320834D01*
X114260113Y-113376767D01*
X114194649Y-113401184D01*
X114185803Y-113401500D01*
X104802098Y-113401500D01*
X104735059Y-113381815D01*
X104714417Y-113365181D01*
X104313417Y-112964181D01*
X103868839Y-112519604D01*
X103835355Y-112458282D01*
X103840339Y-112388591D01*
X103882209Y-112332658D01*
X103982546Y-112257546D01*
X104068796Y-112142331D01*
X104070273Y-112138372D01*
X104098601Y-112062420D01*
X104140471Y-112006486D01*
X104205936Y-111982068D01*
X104274209Y-111996919D01*
X104302464Y-112018071D01*
X104352636Y-112068243D01*
X104352641Y-112068247D01*
X104449161Y-112138372D01*
X104530978Y-112197815D01*
X104658448Y-112262765D01*
X104727393Y-112297895D01*
X104727396Y-112297896D01*
X104766924Y-112310739D01*
X104937049Y-112366015D01*
X105154778Y-112400500D01*
X105154779Y-112400500D01*
X105375221Y-112400500D01*
X105375222Y-112400500D01*
X105592951Y-112366015D01*
X105802606Y-112297895D01*
X105999022Y-112197815D01*
X106177365Y-112068242D01*
X106333242Y-111912365D01*
X106462815Y-111734022D01*
X106496352Y-111668204D01*
X106544326Y-111617409D01*
X106606836Y-111600500D01*
X112913331Y-111600500D01*
X112913347Y-111600501D01*
X112920943Y-111600501D01*
X113079054Y-111600501D01*
X113079057Y-111600501D01*
X113231785Y-111559577D01*
X113303424Y-111518216D01*
X113368716Y-111480520D01*
X113480520Y-111368716D01*
X113480520Y-111368714D01*
X113490724Y-111358511D01*
X113490727Y-111358506D01*
X113786820Y-111062414D01*
X113848142Y-111028930D01*
X113917834Y-111033914D01*
G37*
%TD.AperFunction*%
%TA.AperFunction,NonConductor*%
G36*
X139383005Y-112130353D02*
G01*
X139418834Y-112132916D01*
X139418837Y-112132918D01*
X139418840Y-112132919D01*
X139441807Y-112150114D01*
X139474767Y-112174788D01*
X139474768Y-112174790D01*
X139474771Y-112174793D01*
X139486990Y-112207559D01*
X139499184Y-112240252D01*
X139499184Y-112240255D01*
X139499185Y-112240258D01*
X139499184Y-112240261D01*
X139499500Y-112249098D01*
X139499500Y-112495933D01*
X139499235Y-112504043D01*
X139482925Y-112752883D01*
X139480807Y-112768964D01*
X139432954Y-113009535D01*
X139428756Y-113025202D01*
X139349909Y-113257479D01*
X139343702Y-113272465D01*
X139235212Y-113492460D01*
X139227102Y-113506507D01*
X139090825Y-113710460D01*
X139080951Y-113723328D01*
X138919218Y-113907749D01*
X138907749Y-113919218D01*
X138723328Y-114080951D01*
X138710460Y-114090825D01*
X138506507Y-114227102D01*
X138492460Y-114235212D01*
X138272465Y-114343702D01*
X138257479Y-114349909D01*
X138025202Y-114428756D01*
X138009535Y-114432954D01*
X137768964Y-114480807D01*
X137752883Y-114482925D01*
X137504043Y-114499235D01*
X137495933Y-114499500D01*
X137249096Y-114499500D01*
X137182057Y-114479815D01*
X137136302Y-114427011D01*
X137126358Y-114357853D01*
X137155383Y-114294297D01*
X137161415Y-114287819D01*
X138198092Y-113251142D01*
X139269713Y-112179521D01*
X139269716Y-112179520D01*
X139287825Y-112161410D01*
X139330021Y-112138372D01*
X139349142Y-112127932D01*
X139349144Y-112127932D01*
X139349148Y-112127930D01*
X139383005Y-112130353D01*
G37*
%TD.AperFunction*%
%TA.AperFunction,NonConductor*%
G36*
X103817941Y-75520185D02*
G01*
X103863696Y-75572989D01*
X103873640Y-75642147D01*
X103844615Y-75705703D01*
X103838583Y-75712181D01*
X103385339Y-76165425D01*
X103324016Y-76198910D01*
X103321850Y-76199361D01*
X103166508Y-76230261D01*
X103166498Y-76230264D01*
X103020827Y-76290602D01*
X103020814Y-76290609D01*
X102889711Y-76378210D01*
X102889707Y-76378213D01*
X102778213Y-76489707D01*
X102778210Y-76489711D01*
X102690609Y-76620814D01*
X102690602Y-76620827D01*
X102630264Y-76766498D01*
X102630261Y-76766510D01*
X102599500Y-76921153D01*
X102599500Y-77078846D01*
X102630261Y-77233489D01*
X102630264Y-77233501D01*
X102690602Y-77379172D01*
X102690608Y-77379183D01*
X102708934Y-77406610D01*
X102729811Y-77473288D01*
X102711326Y-77540668D01*
X102659346Y-77587357D01*
X102605831Y-77599500D01*
X101777129Y-77599500D01*
X101777123Y-77599501D01*
X101717516Y-77605908D01*
X101582671Y-77656202D01*
X101582664Y-77656206D01*
X101467455Y-77742452D01*
X101467452Y-77742455D01*
X101381206Y-77857664D01*
X101381202Y-77857671D01*
X101330908Y-77992517D01*
X101324501Y-78052116D01*
X101324500Y-78052135D01*
X101324500Y-79947870D01*
X101324501Y-79947876D01*
X101330908Y-80007483D01*
X101381202Y-80142328D01*
X101381206Y-80142335D01*
X101467452Y-80257544D01*
X101467455Y-80257547D01*
X101582664Y-80343793D01*
X101582671Y-80343797D01*
X101717517Y-80394091D01*
X101717516Y-80394091D01*
X101724444Y-80394835D01*
X101777127Y-80400500D01*
X103672872Y-80400499D01*
X103732483Y-80394091D01*
X103867331Y-80343796D01*
X103982546Y-80257546D01*
X104068796Y-80142331D01*
X104096428Y-80068247D01*
X104098601Y-80062420D01*
X104140471Y-80006486D01*
X104205936Y-79982068D01*
X104274209Y-79996919D01*
X104302464Y-80018071D01*
X104352635Y-80068242D01*
X104352641Y-80068247D01*
X104454603Y-80142326D01*
X104530978Y-80197815D01*
X104659375Y-80263237D01*
X104727393Y-80297895D01*
X104727396Y-80297896D01*
X104794525Y-80319707D01*
X104937049Y-80366015D01*
X105154778Y-80400500D01*
X105154779Y-80400500D01*
X105375221Y-80400500D01*
X105375222Y-80400500D01*
X105592951Y-80366015D01*
X105663205Y-80343187D01*
X105733044Y-80341192D01*
X105789202Y-80373437D01*
X112396284Y-86980520D01*
X112396286Y-86980521D01*
X112396290Y-86980524D01*
X112503187Y-87042240D01*
X112533216Y-87059577D01*
X112685943Y-87100501D01*
X112685945Y-87100501D01*
X112851654Y-87100501D01*
X112851670Y-87100500D01*
X116045932Y-87100500D01*
X116112971Y-87120185D01*
X116156416Y-87168203D01*
X116216657Y-87286433D01*
X116355483Y-87477510D01*
X116522490Y-87644517D01*
X116713567Y-87783343D01*
X116774096Y-87814184D01*
X116924003Y-87890566D01*
X116924005Y-87890566D01*
X116924008Y-87890568D01*
X117016292Y-87920553D01*
X117148631Y-87963553D01*
X117381903Y-88000500D01*
X117381908Y-88000500D01*
X117618097Y-88000500D01*
X117851368Y-87963553D01*
X117889645Y-87951116D01*
X118075992Y-87890568D01*
X118286433Y-87783343D01*
X118477510Y-87644517D01*
X118644517Y-87477510D01*
X118783343Y-87286433D01*
X118890568Y-87075992D01*
X118963553Y-86851368D01*
X118963554Y-86851362D01*
X119000500Y-86618097D01*
X119000500Y-86381902D01*
X118963553Y-86148631D01*
X118890566Y-85924003D01*
X118783342Y-85713566D01*
X118644517Y-85522490D01*
X118477510Y-85355483D01*
X118286433Y-85216657D01*
X118075996Y-85109433D01*
X117851368Y-85036446D01*
X117618097Y-84999500D01*
X117618092Y-84999500D01*
X117381908Y-84999500D01*
X117381903Y-84999500D01*
X117148631Y-85036446D01*
X116924003Y-85109433D01*
X116713566Y-85216657D01*
X116604550Y-85295862D01*
X116522490Y-85355483D01*
X116522488Y-85355485D01*
X116522487Y-85355485D01*
X116355485Y-85522487D01*
X116355485Y-85522488D01*
X116355483Y-85522490D01*
X116295862Y-85604550D01*
X116216657Y-85713566D01*
X116156417Y-85831795D01*
X116108442Y-85882591D01*
X116045932Y-85899500D01*
X113065098Y-85899500D01*
X112998059Y-85879815D01*
X112977417Y-85863181D01*
X106638438Y-79524203D01*
X106604953Y-79462880D01*
X106608187Y-79398205D01*
X106631015Y-79327951D01*
X106665500Y-79110222D01*
X106665500Y-78889778D01*
X106631015Y-78672049D01*
X106562895Y-78462394D01*
X106562895Y-78462393D01*
X106528237Y-78394375D01*
X106462815Y-78265978D01*
X106404501Y-78185715D01*
X106333247Y-78087641D01*
X106333243Y-78087636D01*
X106177363Y-77931756D01*
X106177358Y-77931752D01*
X105999025Y-77802187D01*
X105999024Y-77802186D01*
X105999022Y-77802185D01*
X105881791Y-77742452D01*
X105802606Y-77702104D01*
X105802603Y-77702103D01*
X105592952Y-77633985D01*
X105446826Y-77610841D01*
X105375222Y-77599500D01*
X105154778Y-77599500D01*
X105083174Y-77610841D01*
X104937047Y-77633985D01*
X104727396Y-77702103D01*
X104727393Y-77702104D01*
X104530974Y-77802187D01*
X104352641Y-77931752D01*
X104352636Y-77931756D01*
X104302463Y-77981929D01*
X104241140Y-78015413D01*
X104171448Y-78010428D01*
X104115515Y-77968557D01*
X104098601Y-77937580D01*
X104068797Y-77857671D01*
X104068793Y-77857664D01*
X103982547Y-77742455D01*
X103976275Y-77736183D01*
X103978241Y-77734216D01*
X103944909Y-77689699D01*
X103939917Y-77620008D01*
X103973396Y-77558682D01*
X104021786Y-77510292D01*
X104021789Y-77510289D01*
X104109394Y-77379179D01*
X104169737Y-77233497D01*
X104195868Y-77102128D01*
X104200638Y-77078150D01*
X104233023Y-77016239D01*
X104234518Y-77014716D01*
X104713416Y-76535819D01*
X104774739Y-76502334D01*
X104801097Y-76499500D01*
X108811233Y-76499500D01*
X108878272Y-76519185D01*
X108924027Y-76571989D01*
X108933971Y-76641147D01*
X108904946Y-76704703D01*
X108885544Y-76722766D01*
X108792455Y-76792452D01*
X108792452Y-76792455D01*
X108706206Y-76907664D01*
X108706202Y-76907671D01*
X108655908Y-77042517D01*
X108649501Y-77102116D01*
X108649500Y-77102135D01*
X108649500Y-78897870D01*
X108649501Y-78897876D01*
X108655908Y-78957483D01*
X108706202Y-79092328D01*
X108706206Y-79092335D01*
X108792452Y-79207544D01*
X108792455Y-79207547D01*
X108907664Y-79293793D01*
X108907671Y-79293797D01*
X108928354Y-79301511D01*
X109042517Y-79344091D01*
X109102127Y-79350500D01*
X109275500Y-79350499D01*
X109342539Y-79370183D01*
X109388294Y-79422987D01*
X109399500Y-79474499D01*
X109399500Y-80413330D01*
X109399499Y-80413348D01*
X109399499Y-80579054D01*
X109399498Y-80579054D01*
X109440423Y-80731785D01*
X109469358Y-80781900D01*
X109469359Y-80781904D01*
X109469360Y-80781904D01*
X109519479Y-80868714D01*
X109519481Y-80868717D01*
X109638349Y-80987585D01*
X109638354Y-80987589D01*
X110631284Y-81980520D01*
X110631286Y-81980521D01*
X110631290Y-81980524D01*
X110751337Y-82049832D01*
X110768216Y-82059577D01*
X110810840Y-82070998D01*
X110870499Y-82107361D01*
X110889231Y-82134477D01*
X110954352Y-82262284D01*
X110966657Y-82286433D01*
X111105483Y-82477510D01*
X111272490Y-82644517D01*
X111463567Y-82783343D01*
X111562991Y-82834002D01*
X111674003Y-82890566D01*
X111674005Y-82890566D01*
X111674008Y-82890568D01*
X111794412Y-82929689D01*
X111898631Y-82963553D01*
X112131903Y-83000500D01*
X112131908Y-83000500D01*
X112368097Y-83000500D01*
X112601368Y-82963553D01*
X112825992Y-82890568D01*
X113036433Y-82783343D01*
X113227510Y-82644517D01*
X113394517Y-82477510D01*
X113533343Y-82286433D01*
X113640568Y-82075992D01*
X113713553Y-81851368D01*
X113750500Y-81618097D01*
X113750500Y-81381902D01*
X113713553Y-81148631D01*
X113650452Y-80954428D01*
X113640568Y-80924008D01*
X113640566Y-80924005D01*
X113640566Y-80924003D01*
X113543599Y-80733696D01*
X113533343Y-80713567D01*
X113394517Y-80522490D01*
X113227510Y-80355483D01*
X113036433Y-80216657D01*
X113010446Y-80203416D01*
X112825996Y-80109433D01*
X112601368Y-80036446D01*
X112368097Y-79999500D01*
X112368092Y-79999500D01*
X112131908Y-79999500D01*
X112131903Y-79999500D01*
X111898631Y-80036446D01*
X111674003Y-80109433D01*
X111463566Y-80216657D01*
X111365946Y-80287583D01*
X111272490Y-80355483D01*
X111272488Y-80355485D01*
X111272487Y-80355485D01*
X111105485Y-80522487D01*
X111105480Y-80522493D01*
X111092451Y-80540426D01*
X111037120Y-80583090D01*
X110967507Y-80589068D01*
X110905712Y-80556460D01*
X110904454Y-80555219D01*
X110636819Y-80287583D01*
X110603334Y-80226260D01*
X110600500Y-80199902D01*
X110600500Y-79474499D01*
X110620185Y-79407460D01*
X110672989Y-79361705D01*
X110724500Y-79350499D01*
X110897871Y-79350499D01*
X110897872Y-79350499D01*
X110957483Y-79344091D01*
X111092331Y-79293796D01*
X111207546Y-79207546D01*
X111293796Y-79092331D01*
X111342810Y-78960916D01*
X111384681Y-78904984D01*
X111450145Y-78880566D01*
X111518418Y-78895417D01*
X111546673Y-78916569D01*
X111660213Y-79030109D01*
X111832179Y-79155048D01*
X111832181Y-79155049D01*
X111832184Y-79155051D01*
X112021588Y-79251557D01*
X112223757Y-79317246D01*
X112433713Y-79350500D01*
X112433714Y-79350500D01*
X112646286Y-79350500D01*
X112646287Y-79350500D01*
X112856243Y-79317246D01*
X113058412Y-79251557D01*
X113247816Y-79155051D01*
X113334138Y-79092335D01*
X113419786Y-79030109D01*
X113419788Y-79030106D01*
X113419792Y-79030104D01*
X113570104Y-78879792D01*
X113570106Y-78879788D01*
X113570109Y-78879786D01*
X113695048Y-78707820D01*
X113695047Y-78707820D01*
X113695051Y-78707816D01*
X113699514Y-78699054D01*
X113747488Y-78648259D01*
X113815308Y-78631463D01*
X113881444Y-78653999D01*
X113920486Y-78699056D01*
X113924951Y-78707820D01*
X114049890Y-78879786D01*
X114200213Y-79030109D01*
X114372184Y-79155051D01*
X114372184Y-79155052D01*
X114411793Y-79175233D01*
X114462590Y-79223206D01*
X114479500Y-79285718D01*
X114479500Y-79743330D01*
X114479499Y-79743348D01*
X114479499Y-79909054D01*
X114479498Y-79909054D01*
X114520423Y-80061787D01*
X114520424Y-80061788D01*
X114524149Y-80068239D01*
X114524151Y-80068242D01*
X114599477Y-80198712D01*
X114599481Y-80198717D01*
X114718349Y-80317585D01*
X114718355Y-80317590D01*
X119363181Y-84962416D01*
X119396666Y-85023739D01*
X119399500Y-85050097D01*
X119399500Y-91982152D01*
X119379815Y-92049191D01*
X119327011Y-92094946D01*
X119299692Y-92103769D01*
X119166508Y-92130261D01*
X119166498Y-92130264D01*
X119020827Y-92190602D01*
X119020814Y-92190609D01*
X118889125Y-92278602D01*
X118822447Y-92299480D01*
X118820234Y-92299500D01*
X114230941Y-92299500D01*
X114193334Y-92309576D01*
X114193335Y-92309577D01*
X114078214Y-92340423D01*
X114078209Y-92340426D01*
X113941290Y-92419475D01*
X113941282Y-92419481D01*
X113829478Y-92531286D01*
X112734202Y-93626561D01*
X112672879Y-93660046D01*
X112608203Y-93656811D01*
X112583584Y-93648812D01*
X112537952Y-93633985D01*
X112385815Y-93609889D01*
X112320222Y-93599500D01*
X112099778Y-93599500D01*
X112034185Y-93609889D01*
X111882047Y-93633985D01*
X111672396Y-93702103D01*
X111672393Y-93702104D01*
X111475974Y-93802187D01*
X111297641Y-93931752D01*
X111297636Y-93931756D01*
X111141756Y-94087636D01*
X111141752Y-94087641D01*
X111012187Y-94265974D01*
X110912104Y-94462393D01*
X110912103Y-94462396D01*
X110843985Y-94672047D01*
X110809500Y-94889778D01*
X110809500Y-95110221D01*
X110843985Y-95327952D01*
X110912103Y-95537603D01*
X110912104Y-95537606D01*
X111012187Y-95734025D01*
X111141752Y-95912358D01*
X111141756Y-95912363D01*
X111297636Y-96068243D01*
X111297641Y-96068247D01*
X111453192Y-96181260D01*
X111475978Y-96197815D01*
X111604375Y-96263237D01*
X111672393Y-96297895D01*
X111672396Y-96297896D01*
X111739525Y-96319707D01*
X111882049Y-96366015D01*
X112099778Y-96400500D01*
X112099779Y-96400500D01*
X112320221Y-96400500D01*
X112320222Y-96400500D01*
X112537951Y-96366015D01*
X112747606Y-96297895D01*
X112944022Y-96197815D01*
X113122365Y-96068242D01*
X113172536Y-96018070D01*
X113233857Y-95984586D01*
X113303548Y-95989570D01*
X113359482Y-96031441D01*
X113376398Y-96062419D01*
X113406202Y-96142328D01*
X113406206Y-96142335D01*
X113492452Y-96257544D01*
X113492455Y-96257547D01*
X113607664Y-96343793D01*
X113607671Y-96343797D01*
X113742517Y-96394091D01*
X113742516Y-96394091D01*
X113749444Y-96394835D01*
X113802127Y-96400500D01*
X115249901Y-96400499D01*
X115316940Y-96420184D01*
X115337582Y-96436818D01*
X115688583Y-96787819D01*
X115722068Y-96849142D01*
X115717084Y-96918834D01*
X115675212Y-96974767D01*
X115609748Y-96999184D01*
X115600902Y-96999500D01*
X105625097Y-96999500D01*
X105558058Y-96979815D01*
X105537416Y-96963181D01*
X105186416Y-96612181D01*
X105152931Y-96550858D01*
X105157915Y-96481166D01*
X105199787Y-96425233D01*
X105265251Y-96400816D01*
X105274097Y-96400500D01*
X105375221Y-96400500D01*
X105375222Y-96400500D01*
X105592951Y-96366015D01*
X105802606Y-96297895D01*
X105999022Y-96197815D01*
X106177365Y-96068242D01*
X106333242Y-95912365D01*
X106462815Y-95734022D01*
X106496352Y-95668204D01*
X106544326Y-95617409D01*
X106606836Y-95600500D01*
X108413331Y-95600500D01*
X108413347Y-95600501D01*
X108420943Y-95600501D01*
X108579054Y-95600501D01*
X108579057Y-95600501D01*
X108731785Y-95559577D01*
X108781904Y-95530639D01*
X108868716Y-95480520D01*
X108980520Y-95368716D01*
X108980520Y-95368714D01*
X108990728Y-95358507D01*
X108990730Y-95358504D01*
X110118713Y-94230521D01*
X110118716Y-94230520D01*
X110230520Y-94118716D01*
X110280639Y-94031904D01*
X110309577Y-93981785D01*
X110350501Y-93829057D01*
X110350501Y-93670943D01*
X110350501Y-93663348D01*
X110350500Y-93663330D01*
X110350500Y-92050097D01*
X110370185Y-91983058D01*
X110386819Y-91962416D01*
X111962416Y-90386819D01*
X112023739Y-90353334D01*
X112050097Y-90350500D01*
X115985932Y-90350500D01*
X116052971Y-90370185D01*
X116096416Y-90418203D01*
X116156657Y-90536433D01*
X116295483Y-90727510D01*
X116462490Y-90894517D01*
X116653567Y-91033343D01*
X116752991Y-91084002D01*
X116864003Y-91140566D01*
X116864005Y-91140566D01*
X116864008Y-91140568D01*
X116984412Y-91179689D01*
X117088631Y-91213553D01*
X117321903Y-91250500D01*
X117321908Y-91250500D01*
X117558097Y-91250500D01*
X117791368Y-91213553D01*
X118015992Y-91140568D01*
X118226433Y-91033343D01*
X118417510Y-90894517D01*
X118584517Y-90727510D01*
X118723343Y-90536433D01*
X118830568Y-90325992D01*
X118903553Y-90101368D01*
X118940500Y-89868097D01*
X118940500Y-89631902D01*
X118903553Y-89398631D01*
X118861589Y-89269480D01*
X118830568Y-89174008D01*
X118830566Y-89174005D01*
X118830566Y-89174003D01*
X118723342Y-88963566D01*
X118584517Y-88772490D01*
X118417510Y-88605483D01*
X118226433Y-88466657D01*
X118199033Y-88452696D01*
X118015996Y-88359433D01*
X117791368Y-88286446D01*
X117558097Y-88249500D01*
X117558092Y-88249500D01*
X117321908Y-88249500D01*
X117321903Y-88249500D01*
X117088631Y-88286446D01*
X116864003Y-88359433D01*
X116653566Y-88466657D01*
X116576860Y-88522388D01*
X116462490Y-88605483D01*
X116462488Y-88605485D01*
X116462487Y-88605485D01*
X116295485Y-88772487D01*
X116295485Y-88772488D01*
X116295483Y-88772490D01*
X116235862Y-88854550D01*
X116156657Y-88963566D01*
X116096417Y-89081795D01*
X116048442Y-89132591D01*
X115985932Y-89149500D01*
X111829057Y-89149500D01*
X111670943Y-89149500D01*
X111518215Y-89190423D01*
X111518214Y-89190423D01*
X111518212Y-89190424D01*
X111518209Y-89190425D01*
X111468096Y-89219359D01*
X111468095Y-89219360D01*
X111424689Y-89244420D01*
X111381285Y-89269479D01*
X111381282Y-89269481D01*
X109269481Y-91381282D01*
X109269475Y-91381290D01*
X109223701Y-91460575D01*
X109223701Y-91460576D01*
X109190423Y-91518214D01*
X109190423Y-91518215D01*
X109149499Y-91670943D01*
X109149499Y-91670945D01*
X109149499Y-91839046D01*
X109149500Y-91839059D01*
X109149500Y-93449903D01*
X109129815Y-93516942D01*
X109113181Y-93537584D01*
X108287584Y-94363181D01*
X108226261Y-94396666D01*
X108199903Y-94399500D01*
X106606836Y-94399500D01*
X106539797Y-94379815D01*
X106496352Y-94331796D01*
X106462814Y-94265976D01*
X106333247Y-94087641D01*
X106333243Y-94087636D01*
X106177363Y-93931756D01*
X106177358Y-93931752D01*
X105999025Y-93802187D01*
X105999024Y-93802186D01*
X105999022Y-93802185D01*
X105881791Y-93742452D01*
X105802606Y-93702104D01*
X105802603Y-93702103D01*
X105592952Y-93633985D01*
X105440815Y-93609889D01*
X105375222Y-93599500D01*
X105154778Y-93599500D01*
X105089185Y-93609889D01*
X104937047Y-93633985D01*
X104727396Y-93702103D01*
X104727393Y-93702104D01*
X104530974Y-93802187D01*
X104352641Y-93931752D01*
X104352636Y-93931756D01*
X104302463Y-93981929D01*
X104241140Y-94015413D01*
X104171448Y-94010428D01*
X104115515Y-93968557D01*
X104098601Y-93937580D01*
X104068797Y-93857671D01*
X104068793Y-93857664D01*
X103982547Y-93742455D01*
X103982544Y-93742452D01*
X103867335Y-93656206D01*
X103867328Y-93656202D01*
X103732482Y-93605908D01*
X103732483Y-93605908D01*
X103672883Y-93599501D01*
X103672881Y-93599500D01*
X103672873Y-93599500D01*
X103672864Y-93599500D01*
X101777129Y-93599500D01*
X101777123Y-93599501D01*
X101717516Y-93605908D01*
X101582671Y-93656202D01*
X101582664Y-93656206D01*
X101467455Y-93742452D01*
X101467452Y-93742455D01*
X101381206Y-93857664D01*
X101381202Y-93857671D01*
X101330908Y-93992517D01*
X101324501Y-94052116D01*
X101324500Y-94052135D01*
X101324500Y-95947870D01*
X101324501Y-95947876D01*
X101330908Y-96007483D01*
X101381202Y-96142328D01*
X101381206Y-96142335D01*
X101467452Y-96257544D01*
X101467455Y-96257547D01*
X101582664Y-96343793D01*
X101582671Y-96343797D01*
X101717517Y-96394091D01*
X101717516Y-96394091D01*
X101724444Y-96394835D01*
X101777127Y-96400500D01*
X103224902Y-96400499D01*
X103291941Y-96420184D01*
X103312583Y-96436818D01*
X104840139Y-97964374D01*
X104840149Y-97964385D01*
X104844479Y-97968715D01*
X104844480Y-97968716D01*
X104956284Y-98080520D01*
X105043095Y-98130639D01*
X105043097Y-98130641D01*
X105093213Y-98159576D01*
X105093215Y-98159577D01*
X105245942Y-98200500D01*
X105245943Y-98200500D01*
X122232803Y-98200500D01*
X122299842Y-98220185D01*
X122320484Y-98236819D01*
X123113181Y-99029516D01*
X123146666Y-99090839D01*
X123149500Y-99117197D01*
X123149500Y-103132802D01*
X123129815Y-103199841D01*
X123113181Y-103220483D01*
X122537584Y-103796081D01*
X122476261Y-103829566D01*
X122449903Y-103832400D01*
X120718989Y-103832400D01*
X120651950Y-103812715D01*
X120606195Y-103759911D01*
X120596251Y-103690753D01*
X120625276Y-103627197D01*
X120631308Y-103620719D01*
X120700652Y-103551375D01*
X120774517Y-103477510D01*
X120913343Y-103286433D01*
X121020568Y-103075992D01*
X121093553Y-102851368D01*
X121130500Y-102618097D01*
X121130500Y-102381902D01*
X121093553Y-102148631D01*
X121028982Y-101949903D01*
X121020568Y-101924008D01*
X121020566Y-101924005D01*
X121020566Y-101924003D01*
X120913342Y-101713566D01*
X120774517Y-101522490D01*
X120607510Y-101355483D01*
X120416433Y-101216657D01*
X120205996Y-101109433D01*
X119981368Y-101036446D01*
X119748097Y-100999500D01*
X119748092Y-100999500D01*
X119511908Y-100999500D01*
X119511903Y-100999500D01*
X119278631Y-101036446D01*
X119054003Y-101109433D01*
X118843566Y-101216657D01*
X118815461Y-101237077D01*
X118652490Y-101355483D01*
X118652488Y-101355485D01*
X118652487Y-101355485D01*
X118485485Y-101522487D01*
X118485485Y-101522488D01*
X118485483Y-101522490D01*
X118425862Y-101604550D01*
X118346657Y-101713566D01*
X118239433Y-101924003D01*
X118166446Y-102148631D01*
X118129500Y-102381902D01*
X118129500Y-102618097D01*
X118166447Y-102851369D01*
X118166447Y-102851372D01*
X118236879Y-103068135D01*
X118238874Y-103137976D01*
X118206629Y-103194134D01*
X118005682Y-103395082D01*
X117944362Y-103428566D01*
X117918003Y-103431400D01*
X116420570Y-103431400D01*
X116420554Y-103431399D01*
X116412958Y-103431399D01*
X116254843Y-103431399D01*
X116178479Y-103451861D01*
X116102114Y-103472323D01*
X116102109Y-103472326D01*
X115965190Y-103551375D01*
X115965182Y-103551381D01*
X113717481Y-105799082D01*
X113717480Y-105799084D01*
X113677082Y-105869057D01*
X113667361Y-105885894D01*
X113667359Y-105885896D01*
X113638425Y-105936009D01*
X113638424Y-105936010D01*
X113638423Y-105936015D01*
X113597499Y-106088743D01*
X113597499Y-106088745D01*
X113597499Y-106256846D01*
X113597500Y-106256859D01*
X113597500Y-109501903D01*
X113577815Y-109568942D01*
X113561181Y-109589584D01*
X112787584Y-110363181D01*
X112726261Y-110396666D01*
X112699903Y-110399500D01*
X106606836Y-110399500D01*
X106539797Y-110379815D01*
X106496352Y-110331796D01*
X106462814Y-110265976D01*
X106333247Y-110087641D01*
X106333243Y-110087636D01*
X106177363Y-109931756D01*
X106177358Y-109931752D01*
X105999025Y-109802187D01*
X105999024Y-109802186D01*
X105999022Y-109802185D01*
X105936096Y-109770122D01*
X105802606Y-109702104D01*
X105802603Y-109702103D01*
X105592952Y-109633985D01*
X105484086Y-109616742D01*
X105375222Y-109599500D01*
X105154778Y-109599500D01*
X105082201Y-109610995D01*
X104937047Y-109633985D01*
X104727396Y-109702103D01*
X104727393Y-109702104D01*
X104530974Y-109802187D01*
X104352641Y-109931752D01*
X104352636Y-109931756D01*
X104302463Y-109981929D01*
X104241140Y-110015413D01*
X104171448Y-110010428D01*
X104115515Y-109968557D01*
X104098601Y-109937580D01*
X104068797Y-109857671D01*
X104068793Y-109857664D01*
X103982547Y-109742455D01*
X103982544Y-109742452D01*
X103867335Y-109656206D01*
X103867328Y-109656202D01*
X103732482Y-109605908D01*
X103732483Y-109605908D01*
X103672883Y-109599501D01*
X103672881Y-109599500D01*
X103672873Y-109599500D01*
X103672864Y-109599500D01*
X101777129Y-109599500D01*
X101777123Y-109599501D01*
X101717516Y-109605908D01*
X101582671Y-109656202D01*
X101582664Y-109656206D01*
X101467455Y-109742452D01*
X101467452Y-109742455D01*
X101381206Y-109857664D01*
X101381202Y-109857671D01*
X101330908Y-109992517D01*
X101324501Y-110052116D01*
X101324500Y-110052135D01*
X101324500Y-111947870D01*
X101324501Y-111947876D01*
X101330908Y-112007483D01*
X101381202Y-112142328D01*
X101381206Y-112142335D01*
X101467452Y-112257544D01*
X101467455Y-112257547D01*
X101582664Y-112343793D01*
X101582671Y-112343797D01*
X101600643Y-112350500D01*
X101717517Y-112394091D01*
X101777127Y-112400500D01*
X102061335Y-112400499D01*
X102072850Y-112403880D01*
X102084800Y-112402739D01*
X102105753Y-112413541D01*
X102128374Y-112420183D01*
X102137787Y-112430055D01*
X102146903Y-112434755D01*
X102168721Y-112462497D01*
X102194358Y-112506900D01*
X102194359Y-112506904D01*
X102194360Y-112506904D01*
X102240627Y-112587043D01*
X102244479Y-112593714D01*
X102244481Y-112593717D01*
X102363349Y-112712585D01*
X102363355Y-112712590D01*
X103938583Y-114287819D01*
X103972068Y-114349142D01*
X103967084Y-114418834D01*
X103925212Y-114474767D01*
X103859748Y-114499184D01*
X103850902Y-114499500D01*
X102504067Y-114499500D01*
X102495957Y-114499235D01*
X102247116Y-114482925D01*
X102231035Y-114480807D01*
X101990464Y-114432954D01*
X101974797Y-114428756D01*
X101742520Y-114349909D01*
X101727534Y-114343702D01*
X101507539Y-114235212D01*
X101493492Y-114227102D01*
X101289539Y-114090825D01*
X101276671Y-114080951D01*
X101092250Y-113919218D01*
X101080781Y-113907749D01*
X100919048Y-113723328D01*
X100909174Y-113710460D01*
X100772897Y-113506507D01*
X100764787Y-113492460D01*
X100759529Y-113481799D01*
X100656294Y-113272458D01*
X100650090Y-113257479D01*
X100571243Y-113025202D01*
X100567045Y-113009535D01*
X100545357Y-112900501D01*
X100519190Y-112768953D01*
X100517075Y-112752895D01*
X100500765Y-112504043D01*
X100500500Y-112495933D01*
X100500500Y-77504066D01*
X100500765Y-77495956D01*
X100501759Y-77480796D01*
X100517075Y-77247102D01*
X100519190Y-77231048D01*
X100567045Y-76990462D01*
X100571243Y-76974797D01*
X100615320Y-76844949D01*
X100650093Y-76742512D01*
X100656291Y-76727547D01*
X100764790Y-76507533D01*
X100772893Y-76493498D01*
X100909182Y-76289527D01*
X100919039Y-76276681D01*
X101080786Y-76092244D01*
X101092244Y-76080786D01*
X101276681Y-75919039D01*
X101289527Y-75909182D01*
X101493498Y-75772893D01*
X101507533Y-75764790D01*
X101727547Y-75656291D01*
X101742512Y-75650093D01*
X101969653Y-75572989D01*
X101974797Y-75571243D01*
X101990464Y-75567045D01*
X102002409Y-75564669D01*
X102231048Y-75519190D01*
X102247102Y-75517075D01*
X102495957Y-75500765D01*
X102504067Y-75500500D01*
X102565892Y-75500500D01*
X103750902Y-75500500D01*
X103817941Y-75520185D01*
G37*
%TD.AperFunction*%
M02*
