%TF.GenerationSoftware,KiCad,Pcbnew,9.0.7*%
%TF.CreationDate,2026-01-25T23:07:14+01:00*%
%TF.ProjectId,DiceDIP_UpperPart,44696365-4449-4505-9f55-707065725061,rev?*%
%TF.SameCoordinates,Original*%
%TF.FileFunction,Legend,Top*%
%TF.FilePolarity,Positive*%
%FSLAX46Y46*%
G04 Gerber Fmt 4.6, Leading zero omitted, Abs format (unit mm)*
G04 Created by KiCad (PCBNEW 9.0.7) date 2026-01-25 23:07:14*
%MOMM*%
%LPD*%
G01*
G04 APERTURE LIST*
%ADD10C,0.150000*%
%ADD11C,0.120000*%
G04 APERTURE END LIST*
D10*
X118666667Y-109807200D02*
X118809524Y-109854819D01*
X118809524Y-109854819D02*
X119047619Y-109854819D01*
X119047619Y-109854819D02*
X119142857Y-109807200D01*
X119142857Y-109807200D02*
X119190476Y-109759580D01*
X119190476Y-109759580D02*
X119238095Y-109664342D01*
X119238095Y-109664342D02*
X119238095Y-109569104D01*
X119238095Y-109569104D02*
X119190476Y-109473866D01*
X119190476Y-109473866D02*
X119142857Y-109426247D01*
X119142857Y-109426247D02*
X119047619Y-109378628D01*
X119047619Y-109378628D02*
X118857143Y-109331009D01*
X118857143Y-109331009D02*
X118761905Y-109283390D01*
X118761905Y-109283390D02*
X118714286Y-109235771D01*
X118714286Y-109235771D02*
X118666667Y-109140533D01*
X118666667Y-109140533D02*
X118666667Y-109045295D01*
X118666667Y-109045295D02*
X118714286Y-108950057D01*
X118714286Y-108950057D02*
X118761905Y-108902438D01*
X118761905Y-108902438D02*
X118857143Y-108854819D01*
X118857143Y-108854819D02*
X119095238Y-108854819D01*
X119095238Y-108854819D02*
X119238095Y-108902438D01*
X119571429Y-108854819D02*
X119809524Y-109854819D01*
X119809524Y-109854819D02*
X120000000Y-109140533D01*
X120000000Y-109140533D02*
X120190476Y-109854819D01*
X120190476Y-109854819D02*
X120428572Y-108854819D01*
X121333333Y-109854819D02*
X120761905Y-109854819D01*
X121047619Y-109854819D02*
X121047619Y-108854819D01*
X121047619Y-108854819D02*
X120952381Y-108997676D01*
X120952381Y-108997676D02*
X120857143Y-109092914D01*
X120857143Y-109092914D02*
X120761905Y-109140533D01*
X135361905Y-81154819D02*
X135361905Y-80154819D01*
X135361905Y-80154819D02*
X135600000Y-80154819D01*
X135600000Y-80154819D02*
X135742857Y-80202438D01*
X135742857Y-80202438D02*
X135838095Y-80297676D01*
X135838095Y-80297676D02*
X135885714Y-80392914D01*
X135885714Y-80392914D02*
X135933333Y-80583390D01*
X135933333Y-80583390D02*
X135933333Y-80726247D01*
X135933333Y-80726247D02*
X135885714Y-80916723D01*
X135885714Y-80916723D02*
X135838095Y-81011961D01*
X135838095Y-81011961D02*
X135742857Y-81107200D01*
X135742857Y-81107200D02*
X135600000Y-81154819D01*
X135600000Y-81154819D02*
X135361905Y-81154819D01*
X136838095Y-80154819D02*
X136361905Y-80154819D01*
X136361905Y-80154819D02*
X136314286Y-80631009D01*
X136314286Y-80631009D02*
X136361905Y-80583390D01*
X136361905Y-80583390D02*
X136457143Y-80535771D01*
X136457143Y-80535771D02*
X136695238Y-80535771D01*
X136695238Y-80535771D02*
X136790476Y-80583390D01*
X136790476Y-80583390D02*
X136838095Y-80631009D01*
X136838095Y-80631009D02*
X136885714Y-80726247D01*
X136885714Y-80726247D02*
X136885714Y-80964342D01*
X136885714Y-80964342D02*
X136838095Y-81059580D01*
X136838095Y-81059580D02*
X136790476Y-81107200D01*
X136790476Y-81107200D02*
X136695238Y-81154819D01*
X136695238Y-81154819D02*
X136457143Y-81154819D01*
X136457143Y-81154819D02*
X136361905Y-81107200D01*
X136361905Y-81107200D02*
X136314286Y-81059580D01*
X103361905Y-93854819D02*
X103361905Y-92854819D01*
X103361905Y-92854819D02*
X103600000Y-92854819D01*
X103600000Y-92854819D02*
X103742857Y-92902438D01*
X103742857Y-92902438D02*
X103838095Y-92997676D01*
X103838095Y-92997676D02*
X103885714Y-93092914D01*
X103885714Y-93092914D02*
X103933333Y-93283390D01*
X103933333Y-93283390D02*
X103933333Y-93426247D01*
X103933333Y-93426247D02*
X103885714Y-93616723D01*
X103885714Y-93616723D02*
X103838095Y-93711961D01*
X103838095Y-93711961D02*
X103742857Y-93807200D01*
X103742857Y-93807200D02*
X103600000Y-93854819D01*
X103600000Y-93854819D02*
X103361905Y-93854819D01*
X104314286Y-92950057D02*
X104361905Y-92902438D01*
X104361905Y-92902438D02*
X104457143Y-92854819D01*
X104457143Y-92854819D02*
X104695238Y-92854819D01*
X104695238Y-92854819D02*
X104790476Y-92902438D01*
X104790476Y-92902438D02*
X104838095Y-92950057D01*
X104838095Y-92950057D02*
X104885714Y-93045295D01*
X104885714Y-93045295D02*
X104885714Y-93140533D01*
X104885714Y-93140533D02*
X104838095Y-93283390D01*
X104838095Y-93283390D02*
X104266667Y-93854819D01*
X104266667Y-93854819D02*
X104885714Y-93854819D01*
X135361905Y-97154819D02*
X135361905Y-96154819D01*
X135361905Y-96154819D02*
X135600000Y-96154819D01*
X135600000Y-96154819D02*
X135742857Y-96202438D01*
X135742857Y-96202438D02*
X135838095Y-96297676D01*
X135838095Y-96297676D02*
X135885714Y-96392914D01*
X135885714Y-96392914D02*
X135933333Y-96583390D01*
X135933333Y-96583390D02*
X135933333Y-96726247D01*
X135933333Y-96726247D02*
X135885714Y-96916723D01*
X135885714Y-96916723D02*
X135838095Y-97011961D01*
X135838095Y-97011961D02*
X135742857Y-97107200D01*
X135742857Y-97107200D02*
X135600000Y-97154819D01*
X135600000Y-97154819D02*
X135361905Y-97154819D01*
X136266667Y-96154819D02*
X136885714Y-96154819D01*
X136885714Y-96154819D02*
X136552381Y-96535771D01*
X136552381Y-96535771D02*
X136695238Y-96535771D01*
X136695238Y-96535771D02*
X136790476Y-96583390D01*
X136790476Y-96583390D02*
X136838095Y-96631009D01*
X136838095Y-96631009D02*
X136885714Y-96726247D01*
X136885714Y-96726247D02*
X136885714Y-96964342D01*
X136885714Y-96964342D02*
X136838095Y-97059580D01*
X136838095Y-97059580D02*
X136790476Y-97107200D01*
X136790476Y-97107200D02*
X136695238Y-97154819D01*
X136695238Y-97154819D02*
X136409524Y-97154819D01*
X136409524Y-97154819D02*
X136314286Y-97107200D01*
X136314286Y-97107200D02*
X136266667Y-97059580D01*
X135261905Y-109854819D02*
X135261905Y-108854819D01*
X135261905Y-108854819D02*
X135500000Y-108854819D01*
X135500000Y-108854819D02*
X135642857Y-108902438D01*
X135642857Y-108902438D02*
X135738095Y-108997676D01*
X135738095Y-108997676D02*
X135785714Y-109092914D01*
X135785714Y-109092914D02*
X135833333Y-109283390D01*
X135833333Y-109283390D02*
X135833333Y-109426247D01*
X135833333Y-109426247D02*
X135785714Y-109616723D01*
X135785714Y-109616723D02*
X135738095Y-109711961D01*
X135738095Y-109711961D02*
X135642857Y-109807200D01*
X135642857Y-109807200D02*
X135500000Y-109854819D01*
X135500000Y-109854819D02*
X135261905Y-109854819D01*
X136166667Y-108854819D02*
X136833333Y-108854819D01*
X136833333Y-108854819D02*
X136404762Y-109854819D01*
X119361905Y-97154819D02*
X119361905Y-96154819D01*
X119361905Y-96154819D02*
X119600000Y-96154819D01*
X119600000Y-96154819D02*
X119742857Y-96202438D01*
X119742857Y-96202438D02*
X119838095Y-96297676D01*
X119838095Y-96297676D02*
X119885714Y-96392914D01*
X119885714Y-96392914D02*
X119933333Y-96583390D01*
X119933333Y-96583390D02*
X119933333Y-96726247D01*
X119933333Y-96726247D02*
X119885714Y-96916723D01*
X119885714Y-96916723D02*
X119838095Y-97011961D01*
X119838095Y-97011961D02*
X119742857Y-97107200D01*
X119742857Y-97107200D02*
X119600000Y-97154819D01*
X119600000Y-97154819D02*
X119361905Y-97154819D01*
X120504762Y-96583390D02*
X120409524Y-96535771D01*
X120409524Y-96535771D02*
X120361905Y-96488152D01*
X120361905Y-96488152D02*
X120314286Y-96392914D01*
X120314286Y-96392914D02*
X120314286Y-96345295D01*
X120314286Y-96345295D02*
X120361905Y-96250057D01*
X120361905Y-96250057D02*
X120409524Y-96202438D01*
X120409524Y-96202438D02*
X120504762Y-96154819D01*
X120504762Y-96154819D02*
X120695238Y-96154819D01*
X120695238Y-96154819D02*
X120790476Y-96202438D01*
X120790476Y-96202438D02*
X120838095Y-96250057D01*
X120838095Y-96250057D02*
X120885714Y-96345295D01*
X120885714Y-96345295D02*
X120885714Y-96392914D01*
X120885714Y-96392914D02*
X120838095Y-96488152D01*
X120838095Y-96488152D02*
X120790476Y-96535771D01*
X120790476Y-96535771D02*
X120695238Y-96583390D01*
X120695238Y-96583390D02*
X120504762Y-96583390D01*
X120504762Y-96583390D02*
X120409524Y-96631009D01*
X120409524Y-96631009D02*
X120361905Y-96678628D01*
X120361905Y-96678628D02*
X120314286Y-96773866D01*
X120314286Y-96773866D02*
X120314286Y-96964342D01*
X120314286Y-96964342D02*
X120361905Y-97059580D01*
X120361905Y-97059580D02*
X120409524Y-97107200D01*
X120409524Y-97107200D02*
X120504762Y-97154819D01*
X120504762Y-97154819D02*
X120695238Y-97154819D01*
X120695238Y-97154819D02*
X120790476Y-97107200D01*
X120790476Y-97107200D02*
X120838095Y-97059580D01*
X120838095Y-97059580D02*
X120885714Y-96964342D01*
X120885714Y-96964342D02*
X120885714Y-96773866D01*
X120885714Y-96773866D02*
X120838095Y-96678628D01*
X120838095Y-96678628D02*
X120790476Y-96631009D01*
X120790476Y-96631009D02*
X120695238Y-96583390D01*
X103361905Y-109954819D02*
X103361905Y-108954819D01*
X103361905Y-108954819D02*
X103600000Y-108954819D01*
X103600000Y-108954819D02*
X103742857Y-109002438D01*
X103742857Y-109002438D02*
X103838095Y-109097676D01*
X103838095Y-109097676D02*
X103885714Y-109192914D01*
X103885714Y-109192914D02*
X103933333Y-109383390D01*
X103933333Y-109383390D02*
X103933333Y-109526247D01*
X103933333Y-109526247D02*
X103885714Y-109716723D01*
X103885714Y-109716723D02*
X103838095Y-109811961D01*
X103838095Y-109811961D02*
X103742857Y-109907200D01*
X103742857Y-109907200D02*
X103600000Y-109954819D01*
X103600000Y-109954819D02*
X103361905Y-109954819D01*
X104790476Y-109288152D02*
X104790476Y-109954819D01*
X104552381Y-108907200D02*
X104314286Y-109621485D01*
X104314286Y-109621485D02*
X104933333Y-109621485D01*
X103256905Y-81154819D02*
X103256905Y-80154819D01*
X103256905Y-80154819D02*
X103495000Y-80154819D01*
X103495000Y-80154819D02*
X103637857Y-80202438D01*
X103637857Y-80202438D02*
X103733095Y-80297676D01*
X103733095Y-80297676D02*
X103780714Y-80392914D01*
X103780714Y-80392914D02*
X103828333Y-80583390D01*
X103828333Y-80583390D02*
X103828333Y-80726247D01*
X103828333Y-80726247D02*
X103780714Y-80916723D01*
X103780714Y-80916723D02*
X103733095Y-81011961D01*
X103733095Y-81011961D02*
X103637857Y-81107200D01*
X103637857Y-81107200D02*
X103495000Y-81154819D01*
X103495000Y-81154819D02*
X103256905Y-81154819D01*
X104685476Y-80154819D02*
X104495000Y-80154819D01*
X104495000Y-80154819D02*
X104399762Y-80202438D01*
X104399762Y-80202438D02*
X104352143Y-80250057D01*
X104352143Y-80250057D02*
X104256905Y-80392914D01*
X104256905Y-80392914D02*
X104209286Y-80583390D01*
X104209286Y-80583390D02*
X104209286Y-80964342D01*
X104209286Y-80964342D02*
X104256905Y-81059580D01*
X104256905Y-81059580D02*
X104304524Y-81107200D01*
X104304524Y-81107200D02*
X104399762Y-81154819D01*
X104399762Y-81154819D02*
X104590238Y-81154819D01*
X104590238Y-81154819D02*
X104685476Y-81107200D01*
X104685476Y-81107200D02*
X104733095Y-81059580D01*
X104733095Y-81059580D02*
X104780714Y-80964342D01*
X104780714Y-80964342D02*
X104780714Y-80726247D01*
X104780714Y-80726247D02*
X104733095Y-80631009D01*
X104733095Y-80631009D02*
X104685476Y-80583390D01*
X104685476Y-80583390D02*
X104590238Y-80535771D01*
X104590238Y-80535771D02*
X104399762Y-80535771D01*
X104399762Y-80535771D02*
X104304524Y-80583390D01*
X104304524Y-80583390D02*
X104256905Y-80631009D01*
X104256905Y-80631009D02*
X104209286Y-80726247D01*
D11*
%TO.C,SW1*%
X116550000Y-108750000D02*
X116550000Y-110250000D01*
X117800000Y-112750000D02*
X122300000Y-112750000D01*
X122300000Y-106250000D02*
X117800000Y-106250000D01*
X123550000Y-110250000D02*
X123550000Y-108750000D01*
%TO.C,D5*%
X133435000Y-77455000D02*
X133435000Y-80545000D01*
X133435000Y-77455170D02*
G75*
G02*
X138985000Y-79000000I2560000J-1544830D01*
G01*
X138985000Y-79000000D02*
G75*
G02*
X133435000Y-80544830I-2990000J0D01*
G01*
X138495000Y-79000000D02*
G75*
G02*
X133495000Y-79000000I-2500000J0D01*
G01*
X133495000Y-79000000D02*
G75*
G02*
X138495000Y-79000000I2500000J0D01*
G01*
%TO.C,D2*%
X101435000Y-93455000D02*
X101435000Y-96545000D01*
X101435000Y-93455170D02*
G75*
G02*
X106985000Y-95000000I2560000J-1544830D01*
G01*
X106985000Y-95000000D02*
G75*
G02*
X101435000Y-96544830I-2990000J0D01*
G01*
X106495000Y-95000000D02*
G75*
G02*
X101495000Y-95000000I-2500000J0D01*
G01*
X101495000Y-95000000D02*
G75*
G02*
X106495000Y-95000000I2500000J0D01*
G01*
%TO.C,D3*%
X133435000Y-93455000D02*
X133435000Y-96545000D01*
X133435000Y-93455170D02*
G75*
G02*
X138985000Y-95000000I2560000J-1544830D01*
G01*
X138985000Y-95000000D02*
G75*
G02*
X133435000Y-96544830I-2990000J0D01*
G01*
X138495000Y-95000000D02*
G75*
G02*
X133495000Y-95000000I-2500000J0D01*
G01*
X133495000Y-95000000D02*
G75*
G02*
X138495000Y-95000000I2500000J0D01*
G01*
%TO.C,D7*%
X133435000Y-109455000D02*
X133435000Y-112545000D01*
X133435000Y-109455170D02*
G75*
G02*
X138985000Y-111000000I2560000J-1544830D01*
G01*
X138985000Y-111000000D02*
G75*
G02*
X133435000Y-112544830I-2990000J0D01*
G01*
X138495000Y-111000000D02*
G75*
G02*
X133495000Y-111000000I-2500000J0D01*
G01*
X133495000Y-111000000D02*
G75*
G02*
X138495000Y-111000000I2500000J0D01*
G01*
%TO.C,D8*%
X117435000Y-93455000D02*
X117435000Y-96545000D01*
X117435000Y-93455170D02*
G75*
G02*
X122985000Y-95000000I2560000J-1544830D01*
G01*
X122985000Y-95000000D02*
G75*
G02*
X117435000Y-96544830I-2990000J0D01*
G01*
X122495000Y-95000000D02*
G75*
G02*
X117495000Y-95000000I-2500000J0D01*
G01*
X117495000Y-95000000D02*
G75*
G02*
X122495000Y-95000000I2500000J0D01*
G01*
%TO.C,D4*%
X101435000Y-109455000D02*
X101435000Y-112545000D01*
X101435000Y-109455170D02*
G75*
G02*
X106985000Y-111000000I2560000J-1544830D01*
G01*
X106985000Y-111000000D02*
G75*
G02*
X101435000Y-112544830I-2990000J0D01*
G01*
X106495000Y-111000000D02*
G75*
G02*
X101495000Y-111000000I-2500000J0D01*
G01*
X101495000Y-111000000D02*
G75*
G02*
X106495000Y-111000000I2500000J0D01*
G01*
%TO.C,D6*%
X101435000Y-77455000D02*
X101435000Y-80545000D01*
X101435000Y-77455170D02*
G75*
G02*
X106985000Y-79000000I2560000J-1544830D01*
G01*
X106985000Y-79000000D02*
G75*
G02*
X101435000Y-80544830I-2990000J0D01*
G01*
X106495000Y-79000000D02*
G75*
G02*
X101495000Y-79000000I-2500000J0D01*
G01*
X101495000Y-79000000D02*
G75*
G02*
X106495000Y-79000000I2500000J0D01*
G01*
%TD*%
M02*
