%TF.GenerationSoftware,KiCad,Pcbnew,9.0.7*%
%TF.CreationDate,2026-01-25T23:07:14+01:00*%
%TF.ProjectId,DiceDIP_UpperPart,44696365-4449-4505-9f55-707065725061,rev?*%
%TF.SameCoordinates,Original*%
%TF.FileFunction,Soldermask,Top*%
%TF.FilePolarity,Negative*%
%FSLAX46Y46*%
G04 Gerber Fmt 4.6, Leading zero omitted, Abs format (unit mm)*
G04 Created by KiCad (PCBNEW 9.0.7) date 2026-01-25 23:07:14*
%MOMM*%
%LPD*%
G01*
G04 APERTURE LIST*
%ADD10C,0.000000*%
%ADD11C,0.083333*%
%ADD12C,2.000000*%
%ADD13R,1.800000X1.800000*%
%ADD14C,1.800000*%
%ADD15R,1.700000X1.700000*%
%ADD16C,1.700000*%
G04 APERTURE END LIST*
D10*
%TO.C,blinkyparts_logo_5mm*%
G36*
X134942589Y-105064756D02*
G01*
X134952707Y-105076869D01*
X134951940Y-105093233D01*
X134940055Y-105102803D01*
X134683132Y-105188850D01*
X134669797Y-105150313D01*
X134926772Y-105064256D01*
X134942589Y-105064756D01*
G37*
G36*
X134827167Y-105365922D02*
G01*
X134827155Y-105365923D01*
X134827157Y-105365921D01*
X134827167Y-105365922D01*
G37*
G36*
X134841608Y-105340156D02*
G01*
X134840338Y-105356283D01*
X134827157Y-105365921D01*
X134810491Y-105364422D01*
X134800847Y-105351232D01*
X134745136Y-105151129D01*
X134785526Y-105137965D01*
X134841608Y-105340156D01*
G37*
G36*
X135929848Y-105511616D02*
G01*
X135929838Y-105511619D01*
X135929846Y-105511615D01*
X135929848Y-105511616D01*
G37*
G36*
X135945402Y-105350222D02*
G01*
X135951718Y-105488249D01*
X135946012Y-105504992D01*
X135929846Y-105511615D01*
X135913132Y-105506496D01*
X135905918Y-105490346D01*
X135901312Y-105389910D01*
X135910345Y-105342999D01*
X135945402Y-105350222D01*
G37*
G36*
X134250134Y-101812152D02*
G01*
X134255754Y-101826368D01*
X134248902Y-101840408D01*
X134141392Y-101944910D01*
X134127163Y-101951361D01*
X134113112Y-101945340D01*
X134107492Y-101931124D01*
X134113933Y-101916662D01*
X134221444Y-101812161D01*
X134236082Y-101806131D01*
X134250134Y-101812152D01*
G37*
G36*
X136355257Y-105106918D02*
G01*
X136364900Y-105118774D01*
X136363267Y-105133978D01*
X136350673Y-105143231D01*
X136206956Y-105185849D01*
X136191363Y-105184982D01*
X136181719Y-105173126D01*
X136183353Y-105157926D01*
X136195766Y-105148109D01*
X136339500Y-105105451D01*
X136355257Y-105106918D01*
G37*
G36*
X137781933Y-102604743D02*
G01*
X137792450Y-102616571D01*
X137843363Y-102757592D01*
X137842863Y-102773414D01*
X137831580Y-102783736D01*
X137816313Y-102783002D01*
X137806346Y-102770974D01*
X137755396Y-102629953D01*
X137755383Y-102614331D01*
X137766666Y-102604009D01*
X137781933Y-102604743D01*
G37*
G36*
X134359675Y-104731700D02*
G01*
X134367931Y-104746720D01*
X134362594Y-104763583D01*
X134188963Y-104977809D01*
X134173201Y-104986986D01*
X134157162Y-104981556D01*
X134157172Y-104981550D01*
X134147626Y-104966246D01*
X134153794Y-104949300D01*
X134327425Y-104735073D01*
X134342356Y-104725986D01*
X134359675Y-104731700D01*
G37*
G36*
X134455307Y-104809175D02*
G01*
X134465270Y-104823121D01*
X134461947Y-104840495D01*
X134314321Y-105074101D01*
X134300057Y-105084565D01*
X134283499Y-105081055D01*
X134283474Y-105081048D01*
X134272207Y-105066971D01*
X134276039Y-105049914D01*
X134423665Y-104816308D01*
X134437437Y-104805531D01*
X134455307Y-104809175D01*
G37*
G36*
X134810369Y-104860740D02*
G01*
X134822325Y-104873020D01*
X134821911Y-104890157D01*
X134656074Y-105270058D01*
X134643561Y-105282558D01*
X134626661Y-105281591D01*
X134626614Y-105281580D01*
X134613882Y-105269607D01*
X134615118Y-105252164D01*
X134780957Y-104872270D01*
X134792694Y-104860073D01*
X134810369Y-104860740D01*
G37*
G36*
X134729243Y-101473097D02*
G01*
X134842278Y-101725265D01*
X134843111Y-101742933D01*
X134831028Y-101754792D01*
X134830991Y-101754792D01*
X134813028Y-101756402D01*
X134800928Y-101743785D01*
X134687894Y-101491617D01*
X134686561Y-101474189D01*
X134699478Y-101461313D01*
X134716609Y-101460719D01*
X134729243Y-101473097D01*
G37*
G36*
X135246624Y-105160775D02*
G01*
X135255936Y-105174861D01*
X135249871Y-105190405D01*
X134952734Y-105541478D01*
X134932647Y-105549855D01*
X134932641Y-105549843D01*
X134923095Y-105544703D01*
X134913902Y-105530192D01*
X134920018Y-105514507D01*
X135216587Y-105163275D01*
X135230897Y-105154797D01*
X135246624Y-105160775D01*
G37*
G36*
X134992905Y-105087869D02*
G01*
X135001184Y-105101816D01*
X135051249Y-105398230D01*
X135049609Y-105414874D01*
X135036230Y-105423310D01*
X135036209Y-105423303D01*
X135019885Y-105420536D01*
X135011205Y-105405863D01*
X134958876Y-105108809D01*
X134962213Y-105092646D01*
X134976734Y-105084526D01*
X134992905Y-105087869D01*
G37*
G36*
X136098741Y-101251685D02*
G01*
X136101475Y-101268952D01*
X136050175Y-101541089D01*
X136041341Y-101556177D01*
X136024075Y-101558904D01*
X136024076Y-101558906D01*
X136008993Y-101550078D01*
X136006259Y-101532811D01*
X136057558Y-101260673D01*
X136066391Y-101245584D01*
X136083658Y-101242857D01*
X136098741Y-101251685D01*
G37*
G36*
X136020524Y-105177289D02*
G01*
X136029314Y-105192399D01*
X136079946Y-105464662D01*
X136077179Y-105481922D01*
X136062076Y-105490712D01*
X136062076Y-105490713D01*
X136044816Y-105487946D01*
X136036026Y-105472836D01*
X135985394Y-105200573D01*
X135988161Y-105183313D01*
X136003264Y-105174523D01*
X136020524Y-105177289D01*
G37*
G36*
X136827521Y-101504138D02*
G01*
X136838171Y-101517571D01*
X136835704Y-101535088D01*
X136700201Y-101775254D01*
X136686184Y-101786926D01*
X136669471Y-101784246D01*
X136669474Y-101784245D01*
X136657508Y-101770745D01*
X136660774Y-101753006D01*
X136796277Y-101512840D01*
X136809494Y-101501391D01*
X136827521Y-101504138D01*
G37*
G36*
X137002009Y-101609380D02*
G01*
X137010593Y-101624220D01*
X137005609Y-101641192D01*
X136836226Y-101859537D01*
X136821026Y-101868581D01*
X136804876Y-101863496D01*
X136804874Y-101863495D01*
X136795008Y-101848398D01*
X136800458Y-101831787D01*
X136969843Y-101613442D01*
X136984576Y-101604038D01*
X137002009Y-101609380D01*
G37*
G36*
X137291177Y-104488822D02*
G01*
X137515329Y-104650445D01*
X137524896Y-104665318D01*
X137520379Y-104681635D01*
X137520391Y-104681635D01*
X137505644Y-104692025D01*
X137488851Y-104687165D01*
X137264701Y-104525542D01*
X137254794Y-104511146D01*
X137259511Y-104493532D01*
X137274041Y-104484439D01*
X137291177Y-104488822D01*
G37*
G36*
X133836631Y-102092494D02*
G01*
X133845640Y-102102070D01*
X133849961Y-102114033D01*
X133843433Y-102137718D01*
X133843433Y-102137719D01*
X133833975Y-102146815D01*
X133822367Y-102151398D01*
X133809924Y-102150429D01*
X133798209Y-102144521D01*
X133785476Y-102124153D01*
X133785732Y-102111187D01*
X133791407Y-102099297D01*
X133800840Y-102090731D01*
X133813070Y-102086789D01*
X133836631Y-102092494D01*
G37*
G36*
X133909633Y-101993646D02*
G01*
X133918642Y-102003222D01*
X133922963Y-102015185D01*
X133916435Y-102038871D01*
X133916435Y-102038870D01*
X133906977Y-102047966D01*
X133895369Y-102052549D01*
X133882926Y-102051582D01*
X133871211Y-102045672D01*
X133858478Y-102025304D01*
X133858734Y-102012338D01*
X133864409Y-102000448D01*
X133873842Y-101991882D01*
X133886072Y-101987940D01*
X133909633Y-101993646D01*
G37*
G36*
X134043856Y-102477401D02*
G01*
X134055251Y-102490514D01*
X134053851Y-102507385D01*
X133946804Y-102736428D01*
X133933974Y-102748605D01*
X133916321Y-102747488D01*
X133541861Y-102572485D01*
X133530217Y-102559903D01*
X133530801Y-102542001D01*
X133543914Y-102530606D01*
X133561283Y-102530939D01*
X133917101Y-102697234D01*
X134014438Y-102488963D01*
X134027020Y-102477320D01*
X134043856Y-102477401D01*
G37*
G36*
X134438545Y-104634404D02*
G01*
X134449888Y-104654954D01*
X134449509Y-104667325D01*
X134443212Y-104679060D01*
X134433520Y-104687286D01*
X134421465Y-104690950D01*
X134408912Y-104689868D01*
X134397727Y-104683820D01*
X134397726Y-104683820D01*
X134386296Y-104662444D01*
X134387417Y-104649893D01*
X134393431Y-104638707D01*
X134403495Y-104630024D01*
X134415177Y-104626817D01*
X134438545Y-104634404D01*
G37*
G36*
X136889051Y-101395064D02*
G01*
X136903668Y-101413435D01*
X136905360Y-101425696D01*
X136901101Y-101438318D01*
X136892911Y-101448043D01*
X136881641Y-101453666D01*
X136869085Y-101454683D01*
X136857048Y-101450593D01*
X136857048Y-101450591D01*
X136842215Y-101431419D01*
X136841198Y-101418862D01*
X136845281Y-101406825D01*
X136853755Y-101396587D01*
X136864745Y-101391477D01*
X136889051Y-101395064D01*
G37*
G36*
X136432303Y-103876075D02*
G01*
X136454848Y-103885618D01*
X136472025Y-103903063D01*
X136481219Y-103925754D01*
X136481029Y-103950236D01*
X136471486Y-103972781D01*
X136454041Y-103989959D01*
X136431350Y-103999152D01*
X136406868Y-103998963D01*
X136384323Y-103989419D01*
X136367145Y-103971974D01*
X136357952Y-103949283D01*
X136358141Y-103924801D01*
X136367685Y-103902256D01*
X136385130Y-103885079D01*
X136407821Y-103875885D01*
X136432303Y-103876075D01*
G37*
G36*
X136824352Y-105176261D02*
G01*
X136836182Y-105182403D01*
X136844598Y-105192728D01*
X136848478Y-105205168D01*
X136847265Y-105218688D01*
X136841387Y-105230381D01*
X136830798Y-105238934D01*
X136830785Y-105238951D01*
X136818083Y-105242959D01*
X136804825Y-105241584D01*
X136792995Y-105235443D01*
X136784578Y-105225118D01*
X136780352Y-105212031D01*
X136781645Y-105198638D01*
X136788043Y-105186665D01*
X136798112Y-105178394D01*
X136810883Y-105174511D01*
X136824352Y-105176261D01*
G37*
G36*
X135551104Y-101230611D02*
G01*
X135552777Y-101245233D01*
X135466923Y-101538876D01*
X135459629Y-101551575D01*
X135447115Y-101557330D01*
X135447083Y-101557330D01*
X135434304Y-101555395D01*
X135423870Y-101545378D01*
X135253426Y-101291061D01*
X135250559Y-101276033D01*
X135260427Y-101262649D01*
X135275944Y-101259114D01*
X135289144Y-101267822D01*
X135437547Y-101492953D01*
X135511224Y-101234260D01*
X135521274Y-101222038D01*
X135538221Y-101220071D01*
X135551104Y-101230611D01*
G37*
G36*
X134329299Y-104522160D02*
G01*
X134336500Y-104537717D01*
X134330409Y-104553737D01*
X134101821Y-104798821D01*
X134088008Y-104817293D01*
X134081058Y-104835736D01*
X134081643Y-104852563D01*
X134089573Y-104865393D01*
X134100323Y-104875419D01*
X134106228Y-104889773D01*
X134099267Y-104904993D01*
X134082449Y-104911816D01*
X134064678Y-104903283D01*
X134059093Y-104898070D01*
X134044959Y-104880465D01*
X134036957Y-104859737D01*
X134035551Y-104837320D01*
X134040345Y-104813858D01*
X134047242Y-104798318D01*
X134056837Y-104783146D01*
X134069129Y-104768343D01*
X134297716Y-104523260D01*
X134312850Y-104515660D01*
X134329299Y-104522160D01*
G37*
G36*
X136165891Y-105148471D02*
G01*
X136177576Y-105155866D01*
X136180954Y-105168398D01*
X136175007Y-105181461D01*
X136162137Y-105186248D01*
X136144581Y-105188315D01*
X136123676Y-105191672D01*
X136104838Y-105197568D01*
X136088065Y-105206001D01*
X136067869Y-105222018D01*
X136053555Y-105242321D01*
X136046716Y-105265870D01*
X136047805Y-105291831D01*
X136022381Y-105296554D01*
X136020922Y-105272970D01*
X136023113Y-105250435D01*
X136028954Y-105228950D01*
X136038347Y-105209062D01*
X136050425Y-105191466D01*
X136065186Y-105176162D01*
X136082654Y-105163610D01*
X136102075Y-105154417D01*
X136123450Y-105148582D01*
X136147355Y-105146083D01*
X136165891Y-105148471D01*
G37*
G36*
X136205061Y-101262153D02*
G01*
X136228251Y-101268469D01*
X136244668Y-101277397D01*
X136252893Y-101288521D01*
X136251501Y-101301422D01*
X136241234Y-101311453D01*
X136227501Y-101311260D01*
X136210384Y-101306837D01*
X136189680Y-101302402D01*
X136169984Y-101301083D01*
X136151298Y-101302878D01*
X136126676Y-101310503D01*
X136105984Y-101324253D01*
X136091094Y-101343733D01*
X136082718Y-101368331D01*
X136057313Y-101363538D01*
X136064480Y-101341023D01*
X136074673Y-101320807D01*
X136087889Y-101302889D01*
X136103840Y-101287747D01*
X136121466Y-101275712D01*
X136140766Y-101266786D01*
X136161591Y-101261404D01*
X136183023Y-101259860D01*
X136205061Y-101262153D01*
G37*
G36*
X134110283Y-101793120D02*
G01*
X134310681Y-101999287D01*
X134325200Y-102011413D01*
X134340891Y-102019120D01*
X134357754Y-102022408D01*
X134374268Y-102020933D01*
X134389460Y-102014912D01*
X134403331Y-102004344D01*
X134414715Y-101993280D01*
X134430185Y-101987262D01*
X134445875Y-101994969D01*
X134452290Y-102011692D01*
X134443740Y-102028202D01*
X134434886Y-102036807D01*
X134419366Y-102049615D01*
X134402600Y-102059079D01*
X134384588Y-102065199D01*
X134366210Y-102067756D01*
X134347786Y-102067078D01*
X134329316Y-102063165D01*
X134311127Y-102055700D01*
X134294094Y-102044925D01*
X134278216Y-102030840D01*
X134077818Y-101824675D01*
X134070560Y-101808772D01*
X134077856Y-101792660D01*
X134094170Y-101785823D01*
X134110283Y-101793120D01*
G37*
G36*
X136238918Y-105023040D02*
G01*
X136249798Y-105036983D01*
X136331602Y-105312615D01*
X136338832Y-105330094D01*
X136349152Y-105344204D01*
X136362562Y-105354944D01*
X136377876Y-105361303D01*
X136394128Y-105363022D01*
X136411319Y-105360100D01*
X136426529Y-105355584D01*
X136443029Y-105357417D01*
X136453345Y-105371527D01*
X136451279Y-105389317D01*
X136436035Y-105399970D01*
X136424261Y-105403480D01*
X136404569Y-105407620D01*
X136385326Y-105408220D01*
X136366531Y-105405280D01*
X136349066Y-105399018D01*
X136333061Y-105389868D01*
X136318517Y-105377830D01*
X136305871Y-105362774D01*
X136295785Y-105345324D01*
X136288260Y-105325478D01*
X136206458Y-105049847D01*
X136207358Y-105032393D01*
X136221295Y-105021507D01*
X136238918Y-105023040D01*
G37*
G36*
X137920288Y-102634803D02*
G01*
X137919788Y-102652484D01*
X137906505Y-102664157D01*
X137636076Y-102761791D01*
X137619045Y-102770024D01*
X137605557Y-102781145D01*
X137595611Y-102795153D01*
X137590152Y-102810808D01*
X137589374Y-102827132D01*
X137593278Y-102844125D01*
X137598661Y-102859058D01*
X137597828Y-102875633D01*
X137584345Y-102886753D01*
X137566461Y-102885703D01*
X137554945Y-102871111D01*
X137550721Y-102859500D01*
X137545445Y-102840081D01*
X137543729Y-102820905D01*
X137545571Y-102801971D01*
X137550811Y-102784172D01*
X137559020Y-102767665D01*
X137570198Y-102752447D01*
X137584496Y-102738951D01*
X137601333Y-102727871D01*
X137620708Y-102719209D01*
X137891138Y-102621575D01*
X137908621Y-102621514D01*
X137920288Y-102634803D01*
G37*
G36*
X137432527Y-104355148D02*
G01*
X137454663Y-104360638D01*
X137476720Y-104370261D01*
X137498698Y-104384015D01*
X137636050Y-104483051D01*
X137645616Y-104497925D01*
X137641100Y-104514238D01*
X137641091Y-104514238D01*
X137626698Y-104524154D01*
X137609561Y-104519771D01*
X137472209Y-104420735D01*
X137449811Y-104407564D01*
X137427765Y-104400609D01*
X137406071Y-104399868D01*
X137385658Y-104404719D01*
X137368092Y-104415007D01*
X137353371Y-104430731D01*
X137342171Y-104450845D01*
X137336998Y-104471760D01*
X137337851Y-104493475D01*
X137344253Y-104514198D01*
X137356360Y-104532593D01*
X137374172Y-104548659D01*
X137355258Y-104574889D01*
X137337081Y-104558882D01*
X137322327Y-104541478D01*
X137310995Y-104522678D01*
X137303181Y-104502465D01*
X137299152Y-104481919D01*
X137298909Y-104461040D01*
X137302495Y-104440429D01*
X137309965Y-104420687D01*
X137321319Y-104401812D01*
X137335792Y-104384866D01*
X137352164Y-104371542D01*
X137370435Y-104361841D01*
X137390300Y-104355626D01*
X137410997Y-104353395D01*
X137432527Y-104355148D01*
G37*
G36*
X137552528Y-104188704D02*
G01*
X137574664Y-104194194D01*
X137596721Y-104203816D01*
X137618700Y-104217570D01*
X137756052Y-104316607D01*
X137765622Y-104331480D01*
X137761105Y-104347797D01*
X137761104Y-104347794D01*
X137746710Y-104357710D01*
X137729574Y-104353327D01*
X137592222Y-104254290D01*
X137569824Y-104241120D01*
X137547777Y-104234164D01*
X137526083Y-104233424D01*
X137505671Y-104238275D01*
X137488105Y-104248563D01*
X137473385Y-104264287D01*
X137462237Y-104284439D01*
X137457219Y-104305468D01*
X137458332Y-104327375D01*
X137465438Y-104348125D01*
X137478569Y-104366775D01*
X137497726Y-104383325D01*
X137473999Y-104416231D01*
X137454805Y-104399734D01*
X137439371Y-104381598D01*
X137427696Y-104361823D01*
X137419920Y-104340996D01*
X137416189Y-104319699D01*
X137416503Y-104297934D01*
X137420811Y-104276317D01*
X137429083Y-104255462D01*
X137441319Y-104235368D01*
X137455793Y-104218422D01*
X137472166Y-104205098D01*
X137490437Y-104195397D01*
X137510301Y-104189182D01*
X137530998Y-104186951D01*
X137552528Y-104188704D01*
G37*
G36*
X134522056Y-104856151D02*
G01*
X134544643Y-104863701D01*
X134566531Y-104875292D01*
X134588181Y-104891292D01*
X134606081Y-104909559D01*
X134620230Y-104930093D01*
X134630410Y-104952138D01*
X134635984Y-104975600D01*
X134636951Y-105000479D01*
X134634686Y-105019956D01*
X134629388Y-105039690D01*
X134621058Y-105059682D01*
X134609694Y-105079932D01*
X134528028Y-105209161D01*
X134514085Y-105219128D01*
X134497209Y-105216128D01*
X134497199Y-105216110D01*
X134486744Y-105201847D01*
X134489764Y-105184970D01*
X134571431Y-105055741D01*
X134582320Y-105035574D01*
X134589022Y-105016162D01*
X134591539Y-104997505D01*
X134590602Y-104979910D01*
X134586280Y-104963269D01*
X134578573Y-104947581D01*
X134568205Y-104933297D01*
X134555222Y-104920456D01*
X134539625Y-104909057D01*
X134523223Y-104900160D01*
X134506488Y-104893990D01*
X134489421Y-104890547D01*
X134464958Y-104890740D01*
X134442272Y-104896920D01*
X134422626Y-104909022D01*
X134407282Y-104926974D01*
X134379946Y-104909700D01*
X134394969Y-104891063D01*
X134412329Y-104876067D01*
X134432025Y-104864712D01*
X134453489Y-104856793D01*
X134475738Y-104852770D01*
X134498771Y-104852642D01*
X134522056Y-104856151D01*
G37*
G36*
X134915382Y-101394441D02*
G01*
X134938014Y-101402767D01*
X134959281Y-101415713D01*
X134974257Y-101428370D01*
X134987771Y-101443696D01*
X134999824Y-101461690D01*
X135010416Y-101482354D01*
X135072946Y-101621851D01*
X135073613Y-101638982D01*
X135061779Y-101651378D01*
X135061698Y-101651378D01*
X135044029Y-101652211D01*
X135031629Y-101640371D01*
X134969104Y-101500872D01*
X134958318Y-101480649D01*
X134945849Y-101464331D01*
X134931698Y-101451919D01*
X134916519Y-101442972D01*
X134900263Y-101437372D01*
X134882929Y-101435119D01*
X134865294Y-101435865D01*
X134847417Y-101439583D01*
X134829296Y-101446274D01*
X134812814Y-101455022D01*
X134798420Y-101465555D01*
X134786114Y-101477872D01*
X134772750Y-101498361D01*
X134765356Y-101520682D01*
X134764581Y-101543743D01*
X134771056Y-101566453D01*
X134741548Y-101579681D01*
X134734322Y-101556859D01*
X134731422Y-101534103D01*
X134732848Y-101511413D01*
X134738119Y-101489148D01*
X134747068Y-101468384D01*
X134759694Y-101449121D01*
X134775492Y-101431659D01*
X134794271Y-101417013D01*
X134816029Y-101405183D01*
X134841332Y-101395989D01*
X134866451Y-101391173D01*
X134891384Y-101390735D01*
X134915382Y-101394441D01*
G37*
G36*
X137041086Y-101656825D02*
G01*
X137063926Y-101662554D01*
X137085683Y-101672239D01*
X137106356Y-101685878D01*
X137126371Y-101703885D01*
X137142434Y-101723787D01*
X137154544Y-101745585D01*
X137162561Y-101768505D01*
X137165855Y-101792394D01*
X137164428Y-101817252D01*
X137160299Y-101836421D01*
X137153128Y-101855555D01*
X137142917Y-101874655D01*
X137129664Y-101893719D01*
X137035963Y-102014506D01*
X137021113Y-102023085D01*
X137004613Y-102018464D01*
X137004639Y-102018464D01*
X136995589Y-102003262D01*
X137000206Y-101986755D01*
X137093908Y-101865968D01*
X137106684Y-101846941D01*
X137115220Y-101828262D01*
X137119518Y-101809933D01*
X137120275Y-101792330D01*
X137117569Y-101775351D01*
X137111401Y-101758994D01*
X137102453Y-101743782D01*
X137090763Y-101729753D01*
X137076333Y-101716908D01*
X137060861Y-101706476D01*
X137044796Y-101698727D01*
X137028139Y-101693660D01*
X137003770Y-101691499D01*
X136980596Y-101695473D01*
X136959879Y-101705632D01*
X136942883Y-101722026D01*
X136917329Y-101702205D01*
X136934073Y-101685098D01*
X136952792Y-101671839D01*
X136973488Y-101662427D01*
X136995615Y-101656607D01*
X137018148Y-101654739D01*
X137041086Y-101656825D01*
G37*
G36*
X135728669Y-103233867D02*
G01*
X135747333Y-103236634D01*
X135765636Y-103241216D01*
X135783402Y-103247569D01*
X135800460Y-103255632D01*
X135816647Y-103265327D01*
X135831805Y-103276561D01*
X135845790Y-103289226D01*
X135858468Y-103303201D01*
X135869715Y-103318350D01*
X135879424Y-103334528D01*
X135887501Y-103351579D01*
X135893870Y-103369340D01*
X135898467Y-103387639D01*
X135901250Y-103406301D01*
X135902192Y-103425145D01*
X135897076Y-103450701D01*
X135882578Y-103472358D01*
X135860900Y-103486827D01*
X135835338Y-103491907D01*
X135809775Y-103486827D01*
X135788098Y-103472358D01*
X135773599Y-103450701D01*
X135768484Y-103425145D01*
X135763992Y-103402725D01*
X135751270Y-103383726D01*
X135732251Y-103371034D01*
X135709824Y-103366577D01*
X135687397Y-103371034D01*
X135668378Y-103383726D01*
X135655656Y-103402725D01*
X135651164Y-103425145D01*
X135646075Y-103450729D01*
X135631583Y-103472418D01*
X135609894Y-103486910D01*
X135584310Y-103491999D01*
X135558726Y-103486910D01*
X135537037Y-103472418D01*
X135522545Y-103450729D01*
X135517456Y-103425145D01*
X135518397Y-103406301D01*
X135521180Y-103387639D01*
X135525778Y-103369340D01*
X135532146Y-103351579D01*
X135540224Y-103334528D01*
X135549933Y-103318350D01*
X135561180Y-103303201D01*
X135573857Y-103289226D01*
X135587843Y-103276561D01*
X135603001Y-103265327D01*
X135619188Y-103255632D01*
X135636246Y-103247569D01*
X135654012Y-103241216D01*
X135672315Y-103236634D01*
X135690979Y-103233867D01*
X135709824Y-103232941D01*
X135728669Y-103233867D01*
G37*
G36*
X136969101Y-104804267D02*
G01*
X136992124Y-104809537D01*
X137004574Y-104819577D01*
X137003808Y-104836380D01*
X136993594Y-104847527D01*
X136977448Y-104847777D01*
X136952903Y-104843859D01*
X136929244Y-104845195D01*
X136906471Y-104851786D01*
X136884585Y-104863630D01*
X136868080Y-104876896D01*
X136854957Y-104892136D01*
X136845216Y-104909351D01*
X136839195Y-104927758D01*
X136836585Y-104947016D01*
X136837386Y-104967123D01*
X136841977Y-104987354D01*
X136850081Y-105007421D01*
X136861700Y-105027323D01*
X136875734Y-105045199D01*
X136891526Y-105059841D01*
X136909077Y-105071249D01*
X136927858Y-105079224D01*
X136947343Y-105083572D01*
X136967532Y-105084292D01*
X136987791Y-105081264D01*
X137007484Y-105074359D01*
X137026610Y-105063575D01*
X137043942Y-105050105D01*
X137057923Y-105035349D01*
X137068513Y-105018450D01*
X137075337Y-105000189D01*
X137083903Y-104986606D01*
X137098227Y-104982613D01*
X137112790Y-104990523D01*
X137116303Y-105005179D01*
X137109303Y-105027012D01*
X137099136Y-105047180D01*
X137085803Y-105065683D01*
X137069304Y-105082521D01*
X137049639Y-105097693D01*
X137049687Y-105097690D01*
X137030214Y-105109236D01*
X137010297Y-105117889D01*
X136989935Y-105123651D01*
X136969129Y-105126520D01*
X136948407Y-105126231D01*
X136928139Y-105123329D01*
X136908324Y-105117814D01*
X136888964Y-105109687D01*
X136870812Y-105098884D01*
X136854134Y-105085667D01*
X136838931Y-105070037D01*
X136825203Y-105051993D01*
X136813431Y-105032317D01*
X136804430Y-105012280D01*
X136798200Y-104991880D01*
X136794740Y-104971117D01*
X136793982Y-104950483D01*
X136795857Y-104930465D01*
X136800364Y-104911064D01*
X136807503Y-104892280D01*
X136817104Y-104874318D01*
X136829323Y-104857871D01*
X136844160Y-104842937D01*
X136861615Y-104829517D01*
X136881770Y-104817807D01*
X136902596Y-104809427D01*
X136924093Y-104804377D01*
X136946424Y-104802547D01*
X136969101Y-104804267D01*
G37*
G36*
X136592218Y-105014384D02*
G01*
X136611227Y-105019489D01*
X136628772Y-105027480D01*
X136639322Y-105040240D01*
X136635965Y-105056370D01*
X136621968Y-105065530D01*
X136604448Y-105063397D01*
X136584081Y-105056101D01*
X136563393Y-105054053D01*
X136541771Y-105056559D01*
X136519059Y-105064007D01*
X136501139Y-105073280D01*
X136487042Y-105084190D01*
X136476767Y-105096737D01*
X136469145Y-105115964D01*
X136471834Y-105134634D01*
X136487554Y-105153501D01*
X136500574Y-105158177D01*
X136517727Y-105159811D01*
X136540505Y-105157768D01*
X136569314Y-105151878D01*
X136596587Y-105146215D01*
X136620628Y-105143636D01*
X136641437Y-105144141D01*
X136667543Y-105149153D01*
X136687653Y-105159591D01*
X136702853Y-105173883D01*
X136713607Y-105191988D01*
X136718871Y-105208991D01*
X136720204Y-105226107D01*
X136717603Y-105243335D01*
X136711541Y-105259768D01*
X136702067Y-105275526D01*
X136689180Y-105290607D01*
X136673533Y-105304379D01*
X136655058Y-105316516D01*
X136633756Y-105327020D01*
X136633755Y-105327041D01*
X136612028Y-105334884D01*
X136589397Y-105340270D01*
X136565862Y-105343201D01*
X136542684Y-105343144D01*
X136521125Y-105339552D01*
X136501185Y-105332424D01*
X136490092Y-105319897D01*
X136492225Y-105302374D01*
X136506059Y-105291361D01*
X136522579Y-105292627D01*
X136543294Y-105299615D01*
X136566568Y-105301357D01*
X136583394Y-105299501D01*
X136600412Y-105295442D01*
X136617623Y-105289181D01*
X136641201Y-105277353D01*
X136658570Y-105264622D01*
X136669730Y-105250986D01*
X136676682Y-105229806D01*
X136673830Y-105209613D01*
X136661683Y-105193860D01*
X136641837Y-105185543D01*
X136623525Y-105183903D01*
X136600490Y-105185840D01*
X136572729Y-105191356D01*
X136545050Y-105197084D01*
X136520330Y-105199633D01*
X136498569Y-105199003D01*
X136479768Y-105195193D01*
X136459112Y-105185889D01*
X136443337Y-105172374D01*
X136432441Y-105154648D01*
X136426657Y-105136589D01*
X136424989Y-105119189D01*
X136427438Y-105102449D01*
X136433464Y-105086600D01*
X136442524Y-105071872D01*
X136454618Y-105058263D01*
X136469207Y-105046007D01*
X136485749Y-105035333D01*
X136504243Y-105026240D01*
X136527849Y-105017809D01*
X136550350Y-105013117D01*
X136571746Y-105012163D01*
X136592218Y-105014384D01*
G37*
G36*
X134538336Y-101592695D02*
G01*
X134563177Y-101597892D01*
X134587291Y-101607932D01*
X134604536Y-101618447D01*
X134620647Y-101631300D01*
X134635624Y-101646491D01*
X134649466Y-101664019D01*
X134653516Y-101679888D01*
X134644116Y-101693052D01*
X134450842Y-101830277D01*
X134456145Y-101836688D01*
X134472554Y-101850998D01*
X134490674Y-101861848D01*
X134510224Y-101868959D01*
X134530286Y-101872502D01*
X134550859Y-101872477D01*
X134571413Y-101868701D01*
X134591416Y-101860989D01*
X134610868Y-101849341D01*
X134627105Y-101835649D01*
X134641301Y-101819081D01*
X134652308Y-101800811D01*
X134658694Y-101783657D01*
X134667611Y-101770833D01*
X134681494Y-101766019D01*
X134696578Y-101774059D01*
X134699478Y-101789309D01*
X134693988Y-101805948D01*
X134685897Y-101822990D01*
X134675204Y-101840434D01*
X134662521Y-101856650D01*
X134648903Y-101870645D01*
X134634349Y-101882421D01*
X134634354Y-101882421D01*
X134614732Y-101894775D01*
X134594700Y-101904266D01*
X134574257Y-101910893D01*
X134553404Y-101914657D01*
X134532620Y-101915217D01*
X134512245Y-101913053D01*
X134492280Y-101908164D01*
X134472723Y-101900552D01*
X134454277Y-101890123D01*
X134437163Y-101877126D01*
X134421380Y-101861561D01*
X134406929Y-101843429D01*
X134394388Y-101823670D01*
X134384675Y-101803706D01*
X134377790Y-101783536D01*
X134373735Y-101763160D01*
X134372486Y-101742549D01*
X134372739Y-101738928D01*
X134414297Y-101738928D01*
X134415713Y-101759315D01*
X134420782Y-101779432D01*
X134429360Y-101799301D01*
X134429394Y-101799356D01*
X134604804Y-101674816D01*
X134602495Y-101671889D01*
X134587339Y-101657652D01*
X134570641Y-101646433D01*
X134552915Y-101638508D01*
X134534678Y-101634150D01*
X134515930Y-101633359D01*
X134497377Y-101636116D01*
X134479085Y-101642853D01*
X134461056Y-101653571D01*
X134444605Y-101667414D01*
X134431688Y-101683075D01*
X134422305Y-101700554D01*
X134416494Y-101719341D01*
X134414297Y-101738928D01*
X134372739Y-101738928D01*
X134373885Y-101722493D01*
X134377931Y-101702990D01*
X134384623Y-101684042D01*
X134393944Y-101666067D01*
X134405875Y-101649484D01*
X134420417Y-101634292D01*
X134437570Y-101620491D01*
X134455933Y-101609031D01*
X134474587Y-101600519D01*
X134493531Y-101594956D01*
X134512766Y-101592341D01*
X134538336Y-101592695D01*
G37*
G36*
X135791371Y-101540657D02*
G01*
X135791291Y-101540657D01*
X135791344Y-101540654D01*
X135791371Y-101540657D01*
G37*
G36*
X135811959Y-101214846D02*
G01*
X135831999Y-101219185D01*
X135850507Y-101226060D01*
X135867485Y-101235473D01*
X135887762Y-101251053D01*
X135904559Y-101270079D01*
X135917876Y-101292551D01*
X135925404Y-101311294D01*
X135930624Y-101331232D01*
X135933537Y-101352364D01*
X135934143Y-101374690D01*
X135927893Y-101389832D01*
X135912476Y-101394757D01*
X135675444Y-101389085D01*
X135675865Y-101397397D01*
X135680454Y-101418679D01*
X135688469Y-101438214D01*
X135699884Y-101455609D01*
X135713840Y-101470450D01*
X135730337Y-101482738D01*
X135749067Y-101492008D01*
X135769709Y-101497795D01*
X135792264Y-101500099D01*
X135813467Y-101498842D01*
X135834754Y-101494058D01*
X135854502Y-101486002D01*
X135869884Y-101476078D01*
X135884701Y-101471139D01*
X135898701Y-101475591D01*
X135905985Y-101491057D01*
X135899185Y-101505009D01*
X135884828Y-101515056D01*
X135868149Y-101523871D01*
X135849148Y-101531455D01*
X135829284Y-101536861D01*
X135809998Y-101539928D01*
X135791344Y-101540654D01*
X135768257Y-101538818D01*
X135746528Y-101534439D01*
X135726182Y-101527519D01*
X135707221Y-101518059D01*
X135690232Y-101506074D01*
X135675200Y-101492150D01*
X135662126Y-101476289D01*
X135651009Y-101458489D01*
X135642467Y-101439097D01*
X135636529Y-101418444D01*
X135633194Y-101396530D01*
X135632462Y-101373355D01*
X135634130Y-101351478D01*
X135676743Y-101351478D01*
X135891780Y-101356622D01*
X135891676Y-101352896D01*
X135888049Y-101332421D01*
X135881411Y-101313441D01*
X135871950Y-101296486D01*
X135859943Y-101282084D01*
X135845392Y-101270234D01*
X135828875Y-101261344D01*
X135810187Y-101255800D01*
X135789329Y-101253602D01*
X135767865Y-101254852D01*
X135748146Y-101259674D01*
X135730170Y-101268066D01*
X135714275Y-101279644D01*
X135700796Y-101294025D01*
X135689734Y-101311208D01*
X135681760Y-101330361D01*
X135676749Y-101351414D01*
X135676743Y-101351478D01*
X135634130Y-101351478D01*
X135634241Y-101350019D01*
X135638404Y-101328211D01*
X135644952Y-101307930D01*
X135653884Y-101289176D01*
X135665215Y-101271914D01*
X135678335Y-101256679D01*
X135693244Y-101243472D01*
X135709943Y-101232292D01*
X135728165Y-101223465D01*
X135747647Y-101217315D01*
X135768388Y-101213841D01*
X135790388Y-101213044D01*
X135811959Y-101214846D01*
G37*
G36*
X137584877Y-102307775D02*
G01*
X137604633Y-102311507D01*
X137623529Y-102317806D01*
X137641565Y-102326670D01*
X137658327Y-102338029D01*
X137673402Y-102351817D01*
X137686790Y-102368035D01*
X137698491Y-102386683D01*
X137707727Y-102406260D01*
X137714000Y-102425781D01*
X137717310Y-102445246D01*
X137717658Y-102464654D01*
X137714303Y-102490007D01*
X137706237Y-102514071D01*
X137693461Y-102536846D01*
X137681003Y-102552744D01*
X137666355Y-102567242D01*
X137649518Y-102580341D01*
X137630491Y-102592039D01*
X137614258Y-102594212D01*
X137602275Y-102583337D01*
X137488580Y-102375340D01*
X137481590Y-102379860D01*
X137465461Y-102394483D01*
X137452566Y-102411211D01*
X137443219Y-102429796D01*
X137437354Y-102449306D01*
X137434973Y-102469741D01*
X137436303Y-102490595D01*
X137441625Y-102511363D01*
X137450940Y-102532043D01*
X137462639Y-102549770D01*
X137477436Y-102565805D01*
X137494295Y-102578870D01*
X137510583Y-102587220D01*
X137522283Y-102597580D01*
X137525416Y-102611937D01*
X137515666Y-102625975D01*
X137500183Y-102627075D01*
X137484300Y-102619675D01*
X137468321Y-102609648D01*
X137452246Y-102596992D01*
X137437624Y-102582500D01*
X137425316Y-102567339D01*
X137415323Y-102551508D01*
X137415358Y-102551500D01*
X137405382Y-102530569D01*
X137398298Y-102509565D01*
X137394105Y-102488488D01*
X137392805Y-102467338D01*
X137394707Y-102446630D01*
X137399247Y-102426648D01*
X137406425Y-102407391D01*
X137416241Y-102388859D01*
X137428755Y-102371758D01*
X137442342Y-102357651D01*
X137521797Y-102357651D01*
X137624982Y-102546422D01*
X137628158Y-102544472D01*
X137644069Y-102531084D01*
X137657164Y-102515811D01*
X137667107Y-102499134D01*
X137673567Y-102481531D01*
X137676544Y-102463004D01*
X137675974Y-102444255D01*
X137671418Y-102425302D01*
X137662878Y-102406143D01*
X137651056Y-102388187D01*
X137637012Y-102373528D01*
X137620746Y-102362166D01*
X137602767Y-102354199D01*
X137583571Y-102349727D01*
X137563158Y-102348749D01*
X137542587Y-102351429D01*
X137521852Y-102357626D01*
X137521797Y-102357651D01*
X137442342Y-102357651D01*
X137443663Y-102356280D01*
X137460966Y-102342425D01*
X137480663Y-102330192D01*
X137501752Y-102320047D01*
X137522715Y-102312734D01*
X137543551Y-102308255D01*
X137564261Y-102306609D01*
X137584877Y-102307775D01*
G37*
G36*
X134072721Y-102054884D02*
G01*
X134093675Y-102058801D01*
X134114164Y-102065573D01*
X134134190Y-102075200D01*
X134153752Y-102087683D01*
X134171360Y-102102377D01*
X134186348Y-102118517D01*
X134198715Y-102136101D01*
X134208462Y-102155131D01*
X134215685Y-102174856D01*
X134220134Y-102194998D01*
X134221807Y-102215558D01*
X134220705Y-102236535D01*
X134216933Y-102257230D01*
X134210247Y-102277418D01*
X134200646Y-102297098D01*
X134188132Y-102316270D01*
X134173467Y-102333900D01*
X134157417Y-102348954D01*
X134139980Y-102361430D01*
X134121157Y-102371330D01*
X134101432Y-102378553D01*
X134081290Y-102383002D01*
X134066223Y-102384228D01*
X134060730Y-102384675D01*
X134039753Y-102383573D01*
X134018851Y-102379648D01*
X133998515Y-102372853D01*
X133978747Y-102363187D01*
X133959545Y-102350651D01*
X133941708Y-102335833D01*
X133926506Y-102319673D01*
X133913941Y-102302171D01*
X133904012Y-102283326D01*
X133896789Y-102263601D01*
X133892340Y-102243459D01*
X133890870Y-102225392D01*
X133933885Y-102225392D01*
X133937210Y-102245633D01*
X133944216Y-102265507D01*
X133954673Y-102283788D01*
X133968515Y-102300345D01*
X133985741Y-102315179D01*
X134004986Y-102327280D01*
X134024882Y-102335639D01*
X134045430Y-102340256D01*
X134066223Y-102340912D01*
X134086389Y-102338020D01*
X134105928Y-102331578D01*
X134124199Y-102321682D01*
X134140565Y-102308430D01*
X134155024Y-102291820D01*
X134155025Y-102291820D01*
X134166646Y-102273115D01*
X134174498Y-102253575D01*
X134178581Y-102233201D01*
X134178952Y-102212684D01*
X134175669Y-102192717D01*
X134168731Y-102173299D01*
X134158274Y-102155018D01*
X134144432Y-102138461D01*
X134127206Y-102123628D01*
X134107961Y-102111527D01*
X134088065Y-102103168D01*
X134067517Y-102098551D01*
X134046655Y-102097438D01*
X134026448Y-102100057D01*
X134006895Y-102106407D01*
X133988624Y-102116303D01*
X133972258Y-102129555D01*
X133957799Y-102146165D01*
X133946177Y-102164870D01*
X133938325Y-102184409D01*
X133934242Y-102204784D01*
X133933885Y-102225392D01*
X133890870Y-102225392D01*
X133890667Y-102222899D01*
X133891769Y-102201922D01*
X133895693Y-102181020D01*
X133902489Y-102160685D01*
X133912154Y-102140916D01*
X133924691Y-102121714D01*
X133939334Y-102104113D01*
X133955319Y-102089149D01*
X133972647Y-102076820D01*
X133991317Y-102067128D01*
X134011042Y-102059904D01*
X134031184Y-102055456D01*
X134051744Y-102053782D01*
X134072721Y-102054884D01*
G37*
G36*
X134096275Y-104263799D02*
G01*
X134101562Y-104280106D01*
X134093142Y-104295659D01*
X133960915Y-104407003D01*
X133983274Y-104406877D01*
X134005501Y-104410452D01*
X134027596Y-104417730D01*
X134049233Y-104428719D01*
X134068982Y-104443348D01*
X134086842Y-104461616D01*
X134100004Y-104479357D01*
X134110328Y-104497951D01*
X134117815Y-104517396D01*
X134122465Y-104537694D01*
X134124546Y-104558136D01*
X134123879Y-104578395D01*
X134120463Y-104598471D01*
X134114297Y-104618363D01*
X134105645Y-104637755D01*
X134094389Y-104655880D01*
X134080529Y-104672739D01*
X134064067Y-104688332D01*
X134045679Y-104702038D01*
X134026495Y-104712859D01*
X134006515Y-104720796D01*
X133985740Y-104725848D01*
X133964848Y-104728307D01*
X133956376Y-104728189D01*
X133944140Y-104728018D01*
X133923615Y-104724981D01*
X133903273Y-104719195D01*
X133883857Y-104710515D01*
X133865661Y-104699175D01*
X133848683Y-104685175D01*
X133832925Y-104668515D01*
X133832914Y-104668512D01*
X133819511Y-104650542D01*
X133808842Y-104631710D01*
X133800907Y-104612017D01*
X133795705Y-104591464D01*
X133793383Y-104570792D01*
X133793477Y-104564790D01*
X133836099Y-104564790D01*
X133837532Y-104585452D01*
X133842863Y-104605474D01*
X133851818Y-104624324D01*
X133864397Y-104642001D01*
X133864397Y-104642002D01*
X133879885Y-104657657D01*
X133897061Y-104669840D01*
X133915927Y-104678550D01*
X133936044Y-104683475D01*
X133956376Y-104684801D01*
X133976925Y-104682527D01*
X133997347Y-104676860D01*
X134016797Y-104667400D01*
X134035274Y-104654147D01*
X134051228Y-104638407D01*
X134063711Y-104620978D01*
X134072722Y-104601859D01*
X134078655Y-104581828D01*
X134080807Y-104561566D01*
X134079178Y-104541074D01*
X134073805Y-104521001D01*
X134064724Y-104502001D01*
X134051934Y-104484075D01*
X134036656Y-104468670D01*
X134019606Y-104456637D01*
X134000784Y-104447976D01*
X133980866Y-104442884D01*
X133960533Y-104441558D01*
X133939784Y-104443999D01*
X133919622Y-104449873D01*
X133900449Y-104459356D01*
X133882265Y-104472449D01*
X133866018Y-104488350D01*
X133853259Y-104505756D01*
X133843988Y-104524666D01*
X133838251Y-104544528D01*
X133836099Y-104564790D01*
X133793477Y-104564790D01*
X133793704Y-104550295D01*
X133796671Y-104529973D01*
X133802282Y-104509825D01*
X133810883Y-104490429D01*
X133821984Y-104472290D01*
X133835584Y-104455408D01*
X133851685Y-104439785D01*
X134063964Y-104261029D01*
X134080352Y-104254922D01*
X134096275Y-104263799D01*
G37*
G36*
X135430581Y-105181295D02*
G01*
X135453137Y-105185445D01*
X135474120Y-105192141D01*
X135493531Y-105201383D01*
X135511369Y-105213172D01*
X135527349Y-105226805D01*
X135541118Y-105242165D01*
X135552675Y-105259251D01*
X135562019Y-105278063D01*
X135569122Y-105298229D01*
X135573374Y-105319303D01*
X135574775Y-105341284D01*
X135573324Y-105364172D01*
X135569241Y-105386477D01*
X135562676Y-105407291D01*
X135553631Y-105426614D01*
X135542103Y-105444446D01*
X135528793Y-105460504D01*
X135513821Y-105474432D01*
X135497187Y-105486230D01*
X135478890Y-105495897D01*
X135459376Y-105502823D01*
X135439018Y-105506979D01*
X135417816Y-105508365D01*
X135417555Y-105508349D01*
X135395771Y-105506980D01*
X135370708Y-105502048D01*
X135347649Y-105493677D01*
X135326592Y-105481867D01*
X135308481Y-105466997D01*
X135293380Y-105450128D01*
X135281290Y-105431260D01*
X135260145Y-105602823D01*
X135251707Y-105618373D01*
X135235162Y-105622850D01*
X135235166Y-105622843D01*
X135219035Y-105614340D01*
X135215214Y-105597283D01*
X135245433Y-105352093D01*
X135292177Y-105352093D01*
X135294672Y-105373530D01*
X135300713Y-105393955D01*
X135310031Y-105412349D01*
X135322262Y-105428470D01*
X135337408Y-105442316D01*
X135354937Y-105453364D01*
X135374325Y-105461085D01*
X135395570Y-105465480D01*
X135395554Y-105465480D01*
X135417555Y-105466415D01*
X135438433Y-105463657D01*
X135458186Y-105457206D01*
X135476238Y-105447452D01*
X135492017Y-105434784D01*
X135505523Y-105419202D01*
X135516665Y-105400894D01*
X135524482Y-105380728D01*
X135528973Y-105358705D01*
X135530000Y-105335990D01*
X135527315Y-105314529D01*
X135520921Y-105294323D01*
X135511604Y-105275929D01*
X135499373Y-105259808D01*
X135484228Y-105245962D01*
X135466673Y-105234583D01*
X135447114Y-105226643D01*
X135425552Y-105222142D01*
X135403868Y-105221312D01*
X135383161Y-105224289D01*
X135363433Y-105231072D01*
X135345381Y-105240826D01*
X135329601Y-105253494D01*
X135316096Y-105269076D01*
X135305309Y-105287164D01*
X135297687Y-105307354D01*
X135293228Y-105329646D01*
X135292177Y-105352093D01*
X135245433Y-105352093D01*
X135249160Y-105321849D01*
X135253464Y-105299867D01*
X135260175Y-105279367D01*
X135269295Y-105260349D01*
X135280822Y-105242813D01*
X135294673Y-105226859D01*
X135310105Y-105213099D01*
X135327119Y-105201533D01*
X135345713Y-105192162D01*
X135365774Y-105185304D01*
X135386606Y-105181207D01*
X135408208Y-105179871D01*
X135430581Y-105181295D01*
G37*
G36*
X135797261Y-105194150D02*
G01*
X135818775Y-105197247D01*
X135839166Y-105203120D01*
X135858434Y-105211769D01*
X135876474Y-105222530D01*
X135892622Y-105235365D01*
X135906879Y-105250272D01*
X135919245Y-105267253D01*
X135929665Y-105285941D01*
X135937499Y-105305999D01*
X135942747Y-105327426D01*
X135945408Y-105350222D01*
X135927848Y-105365152D01*
X135927518Y-105385840D01*
X135924663Y-105405614D01*
X135919282Y-105424475D01*
X135911375Y-105442421D01*
X135897776Y-105463906D01*
X135880776Y-105482538D01*
X135860375Y-105498318D01*
X135843436Y-105507590D01*
X135825212Y-105514495D01*
X135805702Y-105519030D01*
X135787724Y-105520904D01*
X135784907Y-105521198D01*
X135784908Y-105521196D01*
X135762821Y-105520881D01*
X135741789Y-105517871D01*
X135721810Y-105512165D01*
X135702885Y-105503763D01*
X135685347Y-105492721D01*
X135669558Y-105479686D01*
X135655516Y-105464658D01*
X135643223Y-105447637D01*
X135633354Y-105428960D01*
X135626002Y-105408991D01*
X135621166Y-105387729D01*
X135618845Y-105365175D01*
X135618869Y-105363157D01*
X135662900Y-105363157D01*
X135665661Y-105385461D01*
X135671907Y-105406168D01*
X135681638Y-105425276D01*
X135694231Y-105441834D01*
X135709187Y-105455668D01*
X135726505Y-105466777D01*
X135745637Y-105474730D01*
X135766045Y-105479092D01*
X135787727Y-105479863D01*
X135787724Y-105479866D01*
X135809506Y-105477115D01*
X135829430Y-105470905D01*
X135847496Y-105461236D01*
X135863658Y-105448593D01*
X135877091Y-105433460D01*
X135887794Y-105415836D01*
X135895714Y-105395919D01*
X135900038Y-105374728D01*
X135900766Y-105352264D01*
X135898003Y-105329698D01*
X135891758Y-105308991D01*
X135882031Y-105290144D01*
X135869764Y-105273571D01*
X135855004Y-105259729D01*
X135837751Y-105248617D01*
X135818864Y-105240327D01*
X135798448Y-105235770D01*
X135776501Y-105234944D01*
X135754983Y-105237760D01*
X135735069Y-105244164D01*
X135716758Y-105254157D01*
X135700530Y-105266803D01*
X135686902Y-105281945D01*
X135675873Y-105299584D01*
X135667947Y-105319240D01*
X135663623Y-105340431D01*
X135662900Y-105363157D01*
X135618869Y-105363157D01*
X135619120Y-105342245D01*
X135622095Y-105320442D01*
X135627769Y-105299765D01*
X135636143Y-105280216D01*
X135647160Y-105262164D01*
X135660178Y-105246008D01*
X135675196Y-105231746D01*
X135692214Y-105219379D01*
X135710868Y-105208997D01*
X135730820Y-105201278D01*
X135752072Y-105196222D01*
X135774622Y-105193829D01*
X135797261Y-105194150D01*
G37*
G36*
X136447561Y-101185473D02*
G01*
X136460111Y-101197156D01*
X136460278Y-101214843D01*
X136398903Y-101376441D01*
X136418378Y-101365459D01*
X136439537Y-101357772D01*
X136462379Y-101353379D01*
X136486629Y-101352456D01*
X136511000Y-101355633D01*
X136535491Y-101362908D01*
X136555620Y-101372007D01*
X136573685Y-101383232D01*
X136589684Y-101396580D01*
X136603619Y-101412054D01*
X136615381Y-101428903D01*
X136624651Y-101446929D01*
X136631431Y-101466131D01*
X136635719Y-101486511D01*
X136637591Y-101507662D01*
X136636573Y-101528974D01*
X136632666Y-101550445D01*
X136625869Y-101572077D01*
X136616470Y-101592996D01*
X136604972Y-101611782D01*
X136591375Y-101628435D01*
X136575679Y-101642953D01*
X136558621Y-101655264D01*
X136540386Y-101665085D01*
X136520975Y-101672414D01*
X136500388Y-101677252D01*
X136479202Y-101679111D01*
X136470996Y-101678706D01*
X136457787Y-101678053D01*
X136436144Y-101674079D01*
X136414273Y-101667187D01*
X136414299Y-101667187D01*
X136393848Y-101658004D01*
X136375366Y-101646739D01*
X136358854Y-101633393D01*
X136344313Y-101617964D01*
X136332229Y-101601032D01*
X136322542Y-101582965D01*
X136315251Y-101563765D01*
X136310356Y-101543431D01*
X136308437Y-101522300D01*
X136308735Y-101515082D01*
X136352914Y-101515082D01*
X136354013Y-101536114D01*
X136358663Y-101556258D01*
X136366635Y-101575010D01*
X136377929Y-101592368D01*
X136392325Y-101607270D01*
X136409318Y-101619384D01*
X136428908Y-101628711D01*
X136428916Y-101628711D01*
X136450063Y-101634856D01*
X136470996Y-101637146D01*
X136491716Y-101635581D01*
X136511688Y-101630099D01*
X136530099Y-101621368D01*
X136546948Y-101609388D01*
X136562036Y-101594503D01*
X136574429Y-101576777D01*
X136584126Y-101556211D01*
X136590409Y-101534698D01*
X136592837Y-101513398D01*
X136591409Y-101492311D01*
X136586856Y-101471923D01*
X136578883Y-101453171D01*
X136567493Y-101436057D01*
X136553035Y-101421132D01*
X136535859Y-101408948D01*
X136515965Y-101399505D01*
X136495124Y-101393476D01*
X136474374Y-101391256D01*
X136453715Y-101392843D01*
X136433834Y-101398082D01*
X136415423Y-101406813D01*
X136398481Y-101419037D01*
X136383722Y-101433977D01*
X136371582Y-101451589D01*
X136362063Y-101471873D01*
X136355598Y-101493668D01*
X136352914Y-101515082D01*
X136308735Y-101515082D01*
X136309314Y-101501053D01*
X136312987Y-101479688D01*
X136319456Y-101458205D01*
X136417991Y-101198768D01*
X136429324Y-101185465D01*
X136447561Y-101185473D01*
G37*
G36*
X137322977Y-101941708D02*
G01*
X137343128Y-101944564D01*
X137362946Y-101950105D01*
X137382163Y-101958123D01*
X137400060Y-101968795D01*
X137416637Y-101982118D01*
X137431894Y-101998094D01*
X137446834Y-102018739D01*
X137457781Y-102040530D01*
X137464737Y-102063466D01*
X137468167Y-102086473D01*
X137467945Y-102108984D01*
X137464071Y-102130998D01*
X137596194Y-102019533D01*
X137612947Y-102013861D01*
X137628514Y-102022274D01*
X137634181Y-102039027D01*
X137625764Y-102054587D01*
X137413647Y-102233538D01*
X137395334Y-102246536D01*
X137376205Y-102256857D01*
X137356259Y-102264501D01*
X137335497Y-102269469D01*
X137314832Y-102271758D01*
X137307704Y-102271598D01*
X137294347Y-102271299D01*
X137274044Y-102268091D01*
X137253921Y-102262134D01*
X137234711Y-102253724D01*
X137216765Y-102242710D01*
X137200082Y-102229091D01*
X137184664Y-102212867D01*
X137184606Y-102212866D01*
X137171020Y-102194711D01*
X137160215Y-102175749D01*
X137152191Y-102155979D01*
X137146948Y-102135402D01*
X137144668Y-102114347D01*
X137144772Y-102109091D01*
X137187649Y-102109091D01*
X137189135Y-102129802D01*
X137194481Y-102149820D01*
X137203453Y-102168661D01*
X137216051Y-102186326D01*
X137216063Y-102186326D01*
X137231524Y-102201917D01*
X137248585Y-102213934D01*
X137267248Y-102222378D01*
X137287370Y-102227283D01*
X137307704Y-102228591D01*
X137328250Y-102226300D01*
X137348666Y-102220614D01*
X137368107Y-102211136D01*
X137386571Y-102197866D01*
X137402511Y-102182111D01*
X137414977Y-102164670D01*
X137423971Y-102145544D01*
X137429890Y-102125508D01*
X137432023Y-102105244D01*
X137430371Y-102084752D01*
X137425188Y-102064934D01*
X137416216Y-102046093D01*
X137403455Y-102028228D01*
X137388163Y-102012837D01*
X137371102Y-102000820D01*
X137352272Y-101992176D01*
X137332306Y-101987053D01*
X137311846Y-101985596D01*
X137290890Y-101987805D01*
X137270523Y-101993449D01*
X137251232Y-102002801D01*
X137233017Y-102015860D01*
X137216828Y-102031826D01*
X137204211Y-102049393D01*
X137195168Y-102068561D01*
X137189661Y-102088678D01*
X137187649Y-102109091D01*
X137144772Y-102109091D01*
X137145081Y-102093519D01*
X137148185Y-102072920D01*
X137153981Y-102052549D01*
X137162644Y-102033126D01*
X137173968Y-102014919D01*
X137187952Y-101997929D01*
X137204596Y-101982155D01*
X137222727Y-101968541D01*
X137241619Y-101957652D01*
X137261270Y-101949487D01*
X137281681Y-101944047D01*
X137302495Y-101941535D01*
X137322977Y-101941708D01*
G37*
G36*
X137240068Y-104593355D02*
G01*
X137260478Y-104598319D01*
X137280345Y-104606046D01*
X137299228Y-104616493D01*
X137317126Y-104629661D01*
X137334039Y-104645549D01*
X137348623Y-104663248D01*
X137360365Y-104681883D01*
X137369264Y-104701453D01*
X137375321Y-104721958D01*
X137378771Y-104742679D01*
X137379416Y-104763297D01*
X137377254Y-104783811D01*
X137372287Y-104804221D01*
X137364754Y-104823861D01*
X137354449Y-104842462D01*
X137341370Y-104860025D01*
X137325520Y-104876550D01*
X137325519Y-104876551D01*
X137307845Y-104891161D01*
X137289285Y-104902984D01*
X137269840Y-104912017D01*
X137249511Y-104918263D01*
X137228790Y-104921711D01*
X137221504Y-104921938D01*
X137208172Y-104922354D01*
X137187657Y-104920194D01*
X137167246Y-104915229D01*
X137147432Y-104907504D01*
X137128705Y-104897063D01*
X137111067Y-104883905D01*
X137094518Y-104868030D01*
X137079732Y-104850167D01*
X137067785Y-104831473D01*
X137058676Y-104811948D01*
X137052406Y-104791591D01*
X137048960Y-104770870D01*
X137048643Y-104760690D01*
X137091998Y-104760690D01*
X137095209Y-104781518D01*
X137102103Y-104801418D01*
X137112640Y-104820251D01*
X137126823Y-104838017D01*
X137143494Y-104853470D01*
X137161500Y-104865367D01*
X137180839Y-104873708D01*
X137201151Y-104878202D01*
X137221504Y-104879091D01*
X137241898Y-104876375D01*
X137261685Y-104870033D01*
X137280220Y-104860039D01*
X137297504Y-104846392D01*
X137297509Y-104846394D01*
X137312392Y-104830164D01*
X137323726Y-104812415D01*
X137331509Y-104793148D01*
X137335671Y-104773053D01*
X137336137Y-104752823D01*
X137332909Y-104732458D01*
X137326016Y-104712558D01*
X137315477Y-104693725D01*
X137301293Y-104675959D01*
X137284621Y-104660506D01*
X137266616Y-104648609D01*
X137247278Y-104640268D01*
X137226981Y-104635313D01*
X137206638Y-104634146D01*
X137186249Y-104636768D01*
X137166461Y-104643109D01*
X137147926Y-104653104D01*
X137130643Y-104666751D01*
X137115760Y-104682981D01*
X137104427Y-104700730D01*
X137096643Y-104719998D01*
X137092476Y-104740183D01*
X137091998Y-104760690D01*
X137048643Y-104760690D01*
X137048317Y-104750252D01*
X137050477Y-104729738D01*
X137055439Y-104709327D01*
X137063164Y-104689513D01*
X137073605Y-104670786D01*
X137086763Y-104653148D01*
X137102637Y-104636598D01*
X137120285Y-104622012D01*
X137138764Y-104610265D01*
X137158074Y-104601356D01*
X137178215Y-104595286D01*
X137198936Y-104591838D01*
X137219554Y-104591194D01*
X137240068Y-104593355D01*
G37*
D11*
X135744942Y-101700123D02*
X135764880Y-101700490D01*
X135784813Y-101701102D01*
X135804736Y-101701958D01*
X135824647Y-101703059D01*
X135844543Y-101704404D01*
X135864422Y-101705993D01*
X135884279Y-101707826D01*
X135904112Y-101709902D01*
X135923918Y-101712222D01*
X135943695Y-101714784D01*
X135963438Y-101717589D01*
X135983145Y-101720636D01*
X136002814Y-101723925D01*
X136022441Y-101727454D01*
X136042023Y-101731225D01*
X136061557Y-101735235D01*
X136081041Y-101739485D01*
X136100470Y-101743973D01*
X136119844Y-101748700D01*
X136139158Y-101753664D01*
X136158409Y-101758865D01*
X136177596Y-101764301D01*
X136196714Y-101769973D01*
X136215761Y-101775879D01*
X136234734Y-101782018D01*
X136253630Y-101788389D01*
X136272447Y-101794992D01*
X136291181Y-101801825D01*
X136309830Y-101808888D01*
X136328391Y-101816178D01*
X136346862Y-101823697D01*
X136365238Y-101831441D01*
X136383518Y-101839410D01*
X136401699Y-101847603D01*
X136419778Y-101856018D01*
X136437752Y-101864655D01*
X136455619Y-101873511D01*
X136473376Y-101882586D01*
X136491021Y-101891879D01*
X136508550Y-101901387D01*
X136525961Y-101911109D01*
X136543251Y-101921045D01*
X136560418Y-101931192D01*
X136577459Y-101941549D01*
X136594372Y-101952114D01*
X136611154Y-101962886D01*
X136627803Y-101973863D01*
X136644315Y-101985043D01*
X136660689Y-101996426D01*
X136676923Y-102008008D01*
X136693012Y-102019789D01*
X136708957Y-102031766D01*
X136724752Y-102043938D01*
X136740398Y-102056303D01*
X136755890Y-102068859D01*
X136771227Y-102081604D01*
X136786407Y-102094536D01*
X136801427Y-102107654D01*
X136816284Y-102120955D01*
X136830978Y-102134438D01*
X136845504Y-102148099D01*
X136859862Y-102161938D01*
X136874050Y-102175952D01*
X136888064Y-102190139D01*
X136901903Y-102204497D01*
X136915564Y-102219024D01*
X136929047Y-102233718D01*
X136942348Y-102248575D01*
X136955465Y-102263595D01*
X136968398Y-102278775D01*
X136981143Y-102294112D01*
X136993699Y-102309604D01*
X137006064Y-102325250D01*
X137018236Y-102341045D01*
X137030213Y-102356990D01*
X137041994Y-102373079D01*
X137053576Y-102389313D01*
X137064959Y-102405687D01*
X137076139Y-102422199D01*
X137087116Y-102438848D01*
X137097888Y-102455630D01*
X137108453Y-102472543D01*
X137118810Y-102489584D01*
X137128957Y-102506751D01*
X137138892Y-102524041D01*
X137148615Y-102541452D01*
X137158123Y-102558981D01*
X137167415Y-102576625D01*
X137176491Y-102594382D01*
X137185347Y-102612250D01*
X137193984Y-102630224D01*
X137202399Y-102648303D01*
X137210592Y-102666484D01*
X137218561Y-102684764D01*
X137226305Y-102703140D01*
X137233823Y-102721610D01*
X137241114Y-102740171D01*
X137248177Y-102758821D01*
X137255010Y-102777555D01*
X137261613Y-102796372D01*
X137267984Y-102815268D01*
X137274123Y-102834241D01*
X137280029Y-102853288D01*
X137285701Y-102872406D01*
X137291137Y-102891593D01*
X137296338Y-102910844D01*
X137301302Y-102930158D01*
X137306029Y-102949532D01*
X137310517Y-102968961D01*
X137314767Y-102988445D01*
X137318777Y-103007979D01*
X137322548Y-103027561D01*
X137326077Y-103047188D01*
X137329366Y-103066856D01*
X137332413Y-103086564D01*
X137335218Y-103106307D01*
X137337780Y-103126084D01*
X137340100Y-103145890D01*
X137342176Y-103165723D01*
X137344009Y-103185580D01*
X137345598Y-103205459D01*
X137346943Y-103225355D01*
X137348044Y-103245266D01*
X137348900Y-103265189D01*
X137349512Y-103285121D01*
X137349879Y-103305060D01*
X137350001Y-103325001D01*
X137349879Y-103344942D01*
X137349512Y-103364880D01*
X137348900Y-103384813D01*
X137348044Y-103404736D01*
X137346943Y-103424647D01*
X137345598Y-103444543D01*
X137344009Y-103464422D01*
X137342176Y-103484279D01*
X137340100Y-103504112D01*
X137337780Y-103523918D01*
X137335218Y-103543695D01*
X137332413Y-103563438D01*
X137329366Y-103583145D01*
X137326077Y-103602814D01*
X137322548Y-103622441D01*
X137318777Y-103642023D01*
X137314767Y-103661557D01*
X137310517Y-103681041D01*
X137306029Y-103700470D01*
X137301302Y-103719844D01*
X137296338Y-103739158D01*
X137291137Y-103758409D01*
X137285701Y-103777596D01*
X137280029Y-103796714D01*
X137274123Y-103815761D01*
X137267984Y-103834734D01*
X137261613Y-103853630D01*
X137255010Y-103872447D01*
X137248177Y-103891181D01*
X137241114Y-103909830D01*
X137233823Y-103928391D01*
X137226305Y-103946862D01*
X137218561Y-103965238D01*
X137210592Y-103983518D01*
X137202399Y-104001699D01*
X137193984Y-104019778D01*
X137185347Y-104037752D01*
X137176491Y-104055619D01*
X137167415Y-104073376D01*
X137158123Y-104091021D01*
X137148615Y-104108550D01*
X137138892Y-104125961D01*
X137128957Y-104143251D01*
X137118810Y-104160418D01*
X137108453Y-104177459D01*
X137097888Y-104194372D01*
X137087116Y-104211154D01*
X137076139Y-104227803D01*
X137064959Y-104244315D01*
X137053576Y-104260689D01*
X137041994Y-104276923D01*
X137030213Y-104293012D01*
X137018236Y-104308957D01*
X137006064Y-104324752D01*
X136993699Y-104340398D01*
X136981143Y-104355890D01*
X136968398Y-104371227D01*
X136955465Y-104386407D01*
X136942348Y-104401427D01*
X136929047Y-104416284D01*
X136915564Y-104430978D01*
X136901903Y-104445504D01*
X136888064Y-104459862D01*
X136874050Y-104474050D01*
X136859862Y-104488064D01*
X136845504Y-104501903D01*
X136830978Y-104515564D01*
X136816284Y-104529047D01*
X136801427Y-104542348D01*
X136786407Y-104555465D01*
X136771227Y-104568398D01*
X136755890Y-104581143D01*
X136740398Y-104593699D01*
X136724752Y-104606064D01*
X136708957Y-104618236D01*
X136693012Y-104630213D01*
X136676923Y-104641994D01*
X136660689Y-104653576D01*
X136644315Y-104664959D01*
X136627803Y-104676139D01*
X136611154Y-104687116D01*
X136594372Y-104697888D01*
X136577459Y-104708453D01*
X136560418Y-104718810D01*
X136543251Y-104728957D01*
X136525961Y-104738892D01*
X136508550Y-104748615D01*
X136491021Y-104758123D01*
X136473376Y-104767415D01*
X136455619Y-104776491D01*
X136437752Y-104785347D01*
X136419778Y-104793984D01*
X136401699Y-104802399D01*
X136383518Y-104810592D01*
X136365238Y-104818561D01*
X136346862Y-104826305D01*
X136328391Y-104833823D01*
X136309830Y-104841114D01*
X136291181Y-104848177D01*
X136272447Y-104855010D01*
X136253630Y-104861613D01*
X136234734Y-104867984D01*
X136215761Y-104874123D01*
X136196714Y-104880029D01*
X136177596Y-104885701D01*
X136158409Y-104891137D01*
X136139158Y-104896338D01*
X136119844Y-104901302D01*
X136100470Y-104906029D01*
X136081041Y-104910517D01*
X136061557Y-104914767D01*
X136042023Y-104918777D01*
X136022441Y-104922548D01*
X136002814Y-104926077D01*
X135983145Y-104929366D01*
X135963438Y-104932413D01*
X135943695Y-104935218D01*
X135923918Y-104937780D01*
X135904112Y-104940100D01*
X135884279Y-104942176D01*
X135864422Y-104944009D01*
X135844543Y-104945598D01*
X135824647Y-104946943D01*
X135804736Y-104948044D01*
X135784813Y-104948900D01*
X135764880Y-104949512D01*
X135744942Y-104949879D01*
X135725001Y-104950001D01*
X135705060Y-104949879D01*
X135685121Y-104949512D01*
X135665189Y-104948900D01*
X135645266Y-104948044D01*
X135625355Y-104946943D01*
X135605459Y-104945598D01*
X135585580Y-104944009D01*
X135565723Y-104942176D01*
X135545890Y-104940100D01*
X135526084Y-104937780D01*
X135506307Y-104935218D01*
X135486564Y-104932413D01*
X135466856Y-104929366D01*
X135447188Y-104926077D01*
X135427561Y-104922548D01*
X135407979Y-104918777D01*
X135388445Y-104914767D01*
X135368961Y-104910517D01*
X135349532Y-104906029D01*
X135330158Y-104901302D01*
X135310844Y-104896338D01*
X135291593Y-104891137D01*
X135272406Y-104885701D01*
X135253288Y-104880029D01*
X135234241Y-104874123D01*
X135215268Y-104867984D01*
X135196372Y-104861613D01*
X135177555Y-104855010D01*
X135158821Y-104848177D01*
X135140171Y-104841114D01*
X135121610Y-104833823D01*
X135103140Y-104826305D01*
X135084764Y-104818561D01*
X135066484Y-104810592D01*
X135048303Y-104802399D01*
X135030224Y-104793984D01*
X135012250Y-104785347D01*
X134994382Y-104776491D01*
X134976625Y-104767415D01*
X134958981Y-104758123D01*
X134941452Y-104748615D01*
X134924041Y-104738892D01*
X134906751Y-104728957D01*
X134889584Y-104718810D01*
X134872543Y-104708453D01*
X134855630Y-104697888D01*
X134838848Y-104687116D01*
X134822199Y-104676139D01*
X134805687Y-104664959D01*
X134789313Y-104653576D01*
X134773079Y-104641994D01*
X134756990Y-104630213D01*
X134741045Y-104618236D01*
X134725250Y-104606064D01*
X134709604Y-104593699D01*
X134694112Y-104581143D01*
X134678775Y-104568398D01*
X134663595Y-104555465D01*
X134648575Y-104542348D01*
X134633718Y-104529047D01*
X134619024Y-104515564D01*
X134604497Y-104501903D01*
X134590139Y-104488064D01*
X134575952Y-104474050D01*
X134561938Y-104459862D01*
X134548099Y-104445504D01*
X134534438Y-104430978D01*
X134520955Y-104416284D01*
X134507654Y-104401427D01*
X134494536Y-104386407D01*
X134481604Y-104371227D01*
X134468859Y-104355890D01*
X134456303Y-104340398D01*
X134443938Y-104324752D01*
X134431766Y-104308957D01*
X134419789Y-104293012D01*
X134408008Y-104276923D01*
X134396426Y-104260689D01*
X134385043Y-104244315D01*
X134373863Y-104227803D01*
X134362886Y-104211154D01*
X134352114Y-104194372D01*
X134341549Y-104177459D01*
X134331192Y-104160418D01*
X134321045Y-104143251D01*
X134311109Y-104125961D01*
X134301387Y-104108550D01*
X134291879Y-104091021D01*
X134282586Y-104073376D01*
X134273511Y-104055619D01*
X134264655Y-104037752D01*
X134256018Y-104019778D01*
X134247603Y-104001699D01*
X134239410Y-103983518D01*
X134231441Y-103965238D01*
X134223697Y-103946862D01*
X134216178Y-103928391D01*
X134208888Y-103909830D01*
X134201825Y-103891181D01*
X134194992Y-103872447D01*
X134188389Y-103853630D01*
X134182018Y-103834734D01*
X134175879Y-103815761D01*
X134169973Y-103796714D01*
X134164301Y-103777596D01*
X134158865Y-103758409D01*
X134153664Y-103739158D01*
X134148700Y-103719844D01*
X134143973Y-103700470D01*
X134139485Y-103681041D01*
X134135235Y-103661557D01*
X134131225Y-103642023D01*
X134127454Y-103622441D01*
X134123925Y-103602814D01*
X134120636Y-103583145D01*
X134117589Y-103563438D01*
X134114784Y-103543695D01*
X134112222Y-103523918D01*
X134109902Y-103504112D01*
X134107826Y-103484279D01*
X134105993Y-103464422D01*
X134104404Y-103444543D01*
X134103059Y-103424647D01*
X134101958Y-103404736D01*
X134101102Y-103384813D01*
X134100490Y-103364880D01*
X134100123Y-103344942D01*
X134100001Y-103325001D01*
X134100123Y-103305060D01*
X134100490Y-103285121D01*
X134101102Y-103265189D01*
X134101958Y-103245266D01*
X134103059Y-103225355D01*
X134104404Y-103205459D01*
X134105993Y-103185580D01*
X134107826Y-103165723D01*
X134109902Y-103145890D01*
X134112222Y-103126084D01*
X134114784Y-103106307D01*
X134117589Y-103086564D01*
X134120636Y-103066856D01*
X134123925Y-103047188D01*
X134127454Y-103027561D01*
X134131225Y-103007979D01*
X134135235Y-102988445D01*
X134139485Y-102968961D01*
X134143973Y-102949532D01*
X134148700Y-102930158D01*
X134153664Y-102910844D01*
X134158865Y-102891593D01*
X134164301Y-102872406D01*
X134169973Y-102853288D01*
X134175879Y-102834241D01*
X134182018Y-102815268D01*
X134188389Y-102796372D01*
X134194992Y-102777555D01*
X134201825Y-102758821D01*
X134208888Y-102740171D01*
X134216178Y-102721610D01*
X134223697Y-102703140D01*
X134231441Y-102684764D01*
X134239410Y-102666484D01*
X134247603Y-102648303D01*
X134256018Y-102630224D01*
X134264655Y-102612250D01*
X134273511Y-102594382D01*
X134282586Y-102576625D01*
X134291879Y-102558981D01*
X134301387Y-102541452D01*
X134311109Y-102524041D01*
X134321045Y-102506751D01*
X134331192Y-102489584D01*
X134341549Y-102472543D01*
X134352114Y-102455630D01*
X134362886Y-102438848D01*
X134373863Y-102422199D01*
X134385043Y-102405687D01*
X134396426Y-102389313D01*
X134408008Y-102373079D01*
X134419789Y-102356990D01*
X134431766Y-102341045D01*
X134443938Y-102325250D01*
X134456303Y-102309604D01*
X134468859Y-102294112D01*
X134481604Y-102278775D01*
X134494536Y-102263595D01*
X134507654Y-102248575D01*
X134520955Y-102233718D01*
X134534438Y-102219024D01*
X134548099Y-102204497D01*
X134561938Y-102190139D01*
X134575952Y-102175952D01*
X134590139Y-102161938D01*
X134604497Y-102148099D01*
X134619024Y-102134438D01*
X134633718Y-102120955D01*
X134648575Y-102107654D01*
X134663595Y-102094536D01*
X134678775Y-102081604D01*
X134694112Y-102068859D01*
X134709604Y-102056303D01*
X134725250Y-102043938D01*
X134741045Y-102031766D01*
X134756990Y-102019789D01*
X134773079Y-102008008D01*
X134789313Y-101996426D01*
X134805687Y-101985043D01*
X134822199Y-101973863D01*
X134838848Y-101962886D01*
X134855630Y-101952114D01*
X134872543Y-101941549D01*
X134889584Y-101931192D01*
X134906751Y-101921045D01*
X134924041Y-101911109D01*
X134941452Y-101901387D01*
X134958981Y-101891879D01*
X134976625Y-101882586D01*
X134994382Y-101873511D01*
X135012250Y-101864655D01*
X135030224Y-101856018D01*
X135048303Y-101847603D01*
X135066484Y-101839410D01*
X135084764Y-101831441D01*
X135103140Y-101823697D01*
X135121610Y-101816178D01*
X135140171Y-101808888D01*
X135158821Y-101801825D01*
X135177555Y-101794992D01*
X135196372Y-101788389D01*
X135215268Y-101782018D01*
X135234241Y-101775879D01*
X135253288Y-101769973D01*
X135272406Y-101764301D01*
X135291593Y-101758865D01*
X135310844Y-101753664D01*
X135330158Y-101748700D01*
X135349532Y-101743973D01*
X135368961Y-101739485D01*
X135388445Y-101735235D01*
X135407979Y-101731225D01*
X135427561Y-101727454D01*
X135447188Y-101723925D01*
X135466856Y-101720636D01*
X135486564Y-101717589D01*
X135506307Y-101714784D01*
X135526084Y-101712222D01*
X135545890Y-101709902D01*
X135565723Y-101707826D01*
X135585580Y-101705993D01*
X135605459Y-101704404D01*
X135625355Y-101703059D01*
X135645266Y-101701958D01*
X135665189Y-101701102D01*
X135685121Y-101700490D01*
X135705060Y-101700123D01*
X135725001Y-101700001D01*
X135744942Y-101700123D01*
D10*
G36*
X136727439Y-102024809D02*
G01*
X136743176Y-102035609D01*
X136755168Y-102050232D01*
X136762733Y-102067564D01*
X136765191Y-102086492D01*
X136761859Y-102105900D01*
X136752057Y-102124677D01*
X136241795Y-102820876D01*
X136264089Y-102820302D01*
X136286193Y-102817715D01*
X136307972Y-102813135D01*
X136329290Y-102806586D01*
X136349971Y-102800985D01*
X136369548Y-102801908D01*
X136387236Y-102808364D01*
X136402248Y-102819363D01*
X136413799Y-102833916D01*
X136421103Y-102851033D01*
X136423376Y-102869724D01*
X136419830Y-102888999D01*
X136409682Y-102907870D01*
X136393122Y-102928052D01*
X136375926Y-102947643D01*
X136358110Y-102966627D01*
X136339691Y-102984991D01*
X136320686Y-103002722D01*
X136301111Y-103019806D01*
X136280983Y-103036229D01*
X136260318Y-103051978D01*
X136239135Y-103067039D01*
X136229927Y-103073135D01*
X136217448Y-103081398D01*
X136195275Y-103095042D01*
X136172632Y-103107958D01*
X136149537Y-103120130D01*
X136161950Y-103131812D01*
X136175222Y-103144300D01*
X136189310Y-103157557D01*
X136204173Y-103171540D01*
X136219766Y-103186211D01*
X136236049Y-103201529D01*
X136252979Y-103217455D01*
X136270513Y-103233949D01*
X136288608Y-103250969D01*
X136307224Y-103268478D01*
X136326316Y-103286434D01*
X136345843Y-103304797D01*
X136365763Y-103323528D01*
X136386032Y-103342587D01*
X136406609Y-103361934D01*
X136427452Y-103381528D01*
X136448517Y-103401329D01*
X136469762Y-103421299D01*
X136491146Y-103441396D01*
X136512625Y-103461581D01*
X136534157Y-103481813D01*
X136555701Y-103502054D01*
X136577212Y-103522262D01*
X136598650Y-103542398D01*
X136619972Y-103562422D01*
X136641135Y-103582294D01*
X136662096Y-103601973D01*
X136682815Y-103621421D01*
X136703247Y-103640596D01*
X136723351Y-103659460D01*
X136743084Y-103677971D01*
X136762405Y-103696091D01*
X136781270Y-103713778D01*
X136799637Y-103730994D01*
X136817464Y-103747697D01*
X136834708Y-103763849D01*
X136849989Y-103779483D01*
X136863786Y-103796336D01*
X136876095Y-103814313D01*
X136886908Y-103833319D01*
X136896218Y-103853258D01*
X136904019Y-103874037D01*
X136910303Y-103895561D01*
X136915064Y-103917734D01*
X136918295Y-103940462D01*
X136919989Y-103963651D01*
X136920140Y-103987205D01*
X136918740Y-104011030D01*
X136915783Y-104035031D01*
X136911262Y-104059113D01*
X136905170Y-104083181D01*
X136897501Y-104107141D01*
X136888247Y-104130898D01*
X136877401Y-104154357D01*
X136864958Y-104177423D01*
X136859546Y-104186423D01*
X136853077Y-104196478D01*
X136845509Y-104207454D01*
X136836804Y-104219214D01*
X136826921Y-104231625D01*
X136815819Y-104244549D01*
X136803458Y-104257852D01*
X136789799Y-104271398D01*
X136774801Y-104285052D01*
X136758424Y-104298678D01*
X136740628Y-104312141D01*
X136721372Y-104325305D01*
X136700616Y-104338035D01*
X136678321Y-104350196D01*
X136654446Y-104361651D01*
X136628951Y-104372266D01*
X136601795Y-104381906D01*
X136572939Y-104390434D01*
X136542343Y-104397715D01*
X136509965Y-104403614D01*
X136475766Y-104407995D01*
X136439707Y-104410723D01*
X136401745Y-104411662D01*
X136376428Y-104411295D01*
X136351153Y-104410277D01*
X136325933Y-104408611D01*
X136300782Y-104406299D01*
X136275710Y-104403343D01*
X136250730Y-104399746D01*
X136225856Y-104395510D01*
X136201097Y-104390637D01*
X136176469Y-104385129D01*
X136151981Y-104378989D01*
X136127648Y-104372219D01*
X136103480Y-104364821D01*
X136079491Y-104356798D01*
X136055693Y-104348151D01*
X136062087Y-104373197D01*
X136067802Y-104398361D01*
X136072839Y-104423630D01*
X136077197Y-104448990D01*
X136080877Y-104474429D01*
X136083878Y-104499931D01*
X136086202Y-104525485D01*
X136087848Y-104551075D01*
X136088817Y-104576689D01*
X136089108Y-104602314D01*
X136088722Y-104627935D01*
X136087660Y-104653539D01*
X136085920Y-104679112D01*
X136083504Y-104704642D01*
X136080412Y-104730114D01*
X136076644Y-104755514D01*
X136072200Y-104780830D01*
X136067081Y-104806048D01*
X136061285Y-104831154D01*
X136054815Y-104856135D01*
X136047670Y-104880976D01*
X136038747Y-104899544D01*
X136026585Y-104913126D01*
X136012065Y-104922014D01*
X135996069Y-104926500D01*
X135979478Y-104926876D01*
X135963173Y-104923433D01*
X135948037Y-104916464D01*
X135934950Y-104906261D01*
X135924795Y-104893115D01*
X135918452Y-104877319D01*
X135916804Y-104859164D01*
X135920731Y-104838942D01*
X135931159Y-104803926D01*
X135939453Y-104768761D01*
X135945768Y-104733606D01*
X135950260Y-104698619D01*
X135953084Y-104663959D01*
X135954396Y-104629785D01*
X135954350Y-104596256D01*
X135953103Y-104563529D01*
X135950809Y-104531764D01*
X135947625Y-104501119D01*
X135943706Y-104471754D01*
X135939207Y-104443826D01*
X135934284Y-104417494D01*
X135929091Y-104392917D01*
X135923786Y-104370253D01*
X135918522Y-104349662D01*
X135913456Y-104331301D01*
X135908743Y-104315330D01*
X135904538Y-104301907D01*
X135900997Y-104291191D01*
X135898275Y-104283340D01*
X135896528Y-104278513D01*
X135895911Y-104276869D01*
X135873144Y-104263830D01*
X135850879Y-104250013D01*
X135829138Y-104235430D01*
X135807938Y-104220099D01*
X135787298Y-104204034D01*
X135767238Y-104187251D01*
X135747777Y-104169765D01*
X135728934Y-104151591D01*
X135710727Y-104132746D01*
X135693177Y-104113244D01*
X135662178Y-104109235D01*
X135632392Y-104104330D01*
X135603822Y-104098532D01*
X135576472Y-104091842D01*
X135550345Y-104084262D01*
X135525447Y-104075794D01*
X135501779Y-104066440D01*
X135479347Y-104056203D01*
X135458153Y-104045083D01*
X135438203Y-104033085D01*
X135419499Y-104020208D01*
X135402046Y-104006456D01*
X135385847Y-103991831D01*
X135370906Y-103976333D01*
X135357227Y-103959967D01*
X135344814Y-103942732D01*
X135333670Y-103924633D01*
X135323688Y-103901364D01*
X135315264Y-103877655D01*
X135308398Y-103853578D01*
X135303090Y-103829210D01*
X135299339Y-103804626D01*
X135297145Y-103779901D01*
X135296508Y-103755109D01*
X135297426Y-103730326D01*
X135299900Y-103705627D01*
X135303930Y-103681087D01*
X135309514Y-103656781D01*
X135316652Y-103632784D01*
X135325345Y-103609171D01*
X135335590Y-103586018D01*
X135347082Y-103569471D01*
X135360945Y-103558115D01*
X135376389Y-103551563D01*
X135392620Y-103549426D01*
X135408846Y-103551318D01*
X135424273Y-103556850D01*
X135438109Y-103565634D01*
X135449561Y-103577283D01*
X135457837Y-103591408D01*
X135462143Y-103607622D01*
X135461687Y-103625537D01*
X135455676Y-103644766D01*
X135446045Y-103667632D01*
X135438664Y-103691119D01*
X135433537Y-103715066D01*
X135430668Y-103739311D01*
X135430060Y-103763693D01*
X135431718Y-103788050D01*
X135435646Y-103812223D01*
X135441848Y-103836048D01*
X135450328Y-103859366D01*
X135463191Y-103878356D01*
X135478677Y-103895377D01*
X135496477Y-103910537D01*
X135516284Y-103923940D01*
X135537790Y-103935691D01*
X135560689Y-103945896D01*
X135584672Y-103954660D01*
X135609432Y-103962088D01*
X135634662Y-103968286D01*
X135660053Y-103973359D01*
X135685299Y-103977412D01*
X135710091Y-103980550D01*
X135734122Y-103982879D01*
X135753866Y-103987636D01*
X135771094Y-103997961D01*
X135784597Y-104013130D01*
X135801429Y-104032811D01*
X135818977Y-104051759D01*
X135837215Y-104069959D01*
X135856119Y-104087395D01*
X135875662Y-104104050D01*
X135895821Y-104119908D01*
X135916570Y-104134954D01*
X135937883Y-104149172D01*
X135959737Y-104162545D01*
X135982105Y-104175058D01*
X136004963Y-104186693D01*
X136028286Y-104197437D01*
X136052048Y-104207271D01*
X136076224Y-104216181D01*
X136100790Y-104224150D01*
X136125719Y-104231162D01*
X136156988Y-104240359D01*
X136187769Y-104248519D01*
X136218041Y-104255646D01*
X136247784Y-104261745D01*
X136276978Y-104266820D01*
X136305601Y-104270875D01*
X136333633Y-104273913D01*
X136361054Y-104275940D01*
X136387842Y-104276959D01*
X136413977Y-104276975D01*
X136439439Y-104275990D01*
X136464206Y-104274011D01*
X136488259Y-104271040D01*
X136511576Y-104267082D01*
X136534136Y-104262141D01*
X136555920Y-104256221D01*
X136576906Y-104249327D01*
X136597075Y-104241461D01*
X136616404Y-104232629D01*
X136634874Y-104222835D01*
X136652464Y-104212082D01*
X136669153Y-104200375D01*
X136684920Y-104187717D01*
X136699746Y-104174114D01*
X136713609Y-104159569D01*
X136726488Y-104144086D01*
X136738364Y-104127670D01*
X136749215Y-104110324D01*
X136761053Y-104087438D01*
X136770625Y-104063609D01*
X136777879Y-104039006D01*
X136782765Y-104013796D01*
X136785232Y-103988149D01*
X136778045Y-103990315D01*
X136758002Y-103988992D01*
X136740021Y-103981741D01*
X136725225Y-103969494D01*
X136714739Y-103953183D01*
X136709687Y-103933740D01*
X136711319Y-103913326D01*
X136719251Y-103895000D01*
X136732596Y-103880146D01*
X136750468Y-103870146D01*
X136743282Y-103861456D01*
X136727430Y-103846612D01*
X136711082Y-103831298D01*
X136694272Y-103815546D01*
X136677031Y-103799385D01*
X136659393Y-103782848D01*
X136641391Y-103765965D01*
X136623058Y-103748767D01*
X136604427Y-103731286D01*
X136585530Y-103713552D01*
X136566400Y-103695596D01*
X136547071Y-103677450D01*
X136527575Y-103659145D01*
X136507946Y-103640711D01*
X136488216Y-103622180D01*
X136468418Y-103603582D01*
X136448584Y-103584950D01*
X136428749Y-103566313D01*
X136408945Y-103547703D01*
X136389205Y-103529150D01*
X136369562Y-103510687D01*
X136350048Y-103492344D01*
X136330697Y-103474152D01*
X136311541Y-103456141D01*
X136292614Y-103438344D01*
X136273948Y-103420792D01*
X136255577Y-103403514D01*
X136237533Y-103386543D01*
X136228916Y-103402986D01*
X136225916Y-103421307D01*
X136223285Y-103441734D01*
X136216012Y-103458448D01*
X136205024Y-103471447D01*
X136191251Y-103480732D01*
X136175621Y-103486304D01*
X136159062Y-103488161D01*
X136142503Y-103486304D01*
X136126873Y-103480732D01*
X136113100Y-103471447D01*
X136102113Y-103458448D01*
X136094839Y-103441734D01*
X136092208Y-103421307D01*
X136093716Y-103398214D01*
X136097940Y-103375629D01*
X136104795Y-103353779D01*
X136114191Y-103332897D01*
X136126042Y-103313211D01*
X136140259Y-103294953D01*
X136135914Y-103290888D01*
X136124141Y-103279877D01*
X136106839Y-103263693D01*
X136085905Y-103244110D01*
X136063236Y-103222901D01*
X136040730Y-103201841D01*
X136020284Y-103182704D01*
X136003794Y-103167262D01*
X135978949Y-103169781D01*
X135953988Y-103170605D01*
X135946467Y-103170512D01*
X135943468Y-103170475D01*
X135932269Y-103170052D01*
X135920417Y-103169286D01*
X135907938Y-103168126D01*
X135894860Y-103166522D01*
X135881208Y-103164423D01*
X135867010Y-103161779D01*
X135852292Y-103158540D01*
X135837080Y-103154655D01*
X135821402Y-103150073D01*
X135805284Y-103144745D01*
X135788752Y-103138620D01*
X135771834Y-103131648D01*
X135754555Y-103123778D01*
X135736943Y-103114959D01*
X135719023Y-103105142D01*
X135700824Y-103094276D01*
X135682370Y-103082311D01*
X135663690Y-103069196D01*
X135644809Y-103054880D01*
X135625755Y-103039314D01*
X135606553Y-103022447D01*
X135587230Y-103004229D01*
X135567814Y-102984609D01*
X135548330Y-102963537D01*
X135528805Y-102940962D01*
X135509267Y-102916834D01*
X135489741Y-102891103D01*
X135470254Y-102863718D01*
X135450833Y-102834629D01*
X135431504Y-102803785D01*
X135412294Y-102771136D01*
X135393230Y-102736632D01*
X135374338Y-102700223D01*
X135355645Y-102661857D01*
X135343256Y-102634772D01*
X135490357Y-102634772D01*
X135509851Y-102673754D01*
X135529558Y-102710173D01*
X135549432Y-102744112D01*
X135569428Y-102775658D01*
X135589499Y-102804895D01*
X135609599Y-102831910D01*
X135629681Y-102856787D01*
X135649699Y-102879611D01*
X135669608Y-102900470D01*
X135689361Y-102919446D01*
X135708911Y-102936627D01*
X135728213Y-102952097D01*
X135747220Y-102965943D01*
X135765886Y-102978248D01*
X135784165Y-102989099D01*
X135802011Y-102998581D01*
X135819377Y-103006780D01*
X135836218Y-103013780D01*
X135852486Y-103019668D01*
X135868136Y-103024528D01*
X135883122Y-103028446D01*
X135897397Y-103031508D01*
X135910915Y-103033799D01*
X135923631Y-103035403D01*
X135935497Y-103036408D01*
X135946467Y-103036897D01*
X135971448Y-103034611D01*
X135996151Y-103030820D01*
X136020512Y-103025551D01*
X136044466Y-103018827D01*
X136067948Y-103010673D01*
X136090894Y-103001114D01*
X136113239Y-102990175D01*
X136134919Y-102977879D01*
X136155870Y-102964252D01*
X136176026Y-102949319D01*
X136150542Y-102943824D01*
X136125461Y-102937126D01*
X136101651Y-102929516D01*
X136100820Y-102929250D01*
X136076657Y-102920219D01*
X136053009Y-102910059D01*
X136029916Y-102898793D01*
X136007414Y-102886446D01*
X135985541Y-102873042D01*
X135964335Y-102858607D01*
X135943834Y-102843163D01*
X135924076Y-102826736D01*
X135905098Y-102809350D01*
X135886938Y-102791030D01*
X135869634Y-102771800D01*
X135853224Y-102751684D01*
X135837746Y-102730707D01*
X135820686Y-102710994D01*
X135801994Y-102693810D01*
X135801826Y-102693686D01*
X135981649Y-102693686D01*
X135999289Y-102711941D01*
X136017942Y-102729093D01*
X136037558Y-102745101D01*
X136058083Y-102759925D01*
X136079465Y-102773526D01*
X136101651Y-102785861D01*
X136132321Y-102743910D01*
X136124214Y-102722400D01*
X136116738Y-102700673D01*
X136109895Y-102678743D01*
X136103690Y-102656624D01*
X136098127Y-102634329D01*
X136093211Y-102611874D01*
X135981649Y-102693686D01*
X135801826Y-102693686D01*
X135781889Y-102679007D01*
X135760585Y-102666433D01*
X135738300Y-102655938D01*
X135715250Y-102647373D01*
X135691651Y-102640587D01*
X135667720Y-102635430D01*
X135643673Y-102631751D01*
X135619728Y-102629401D01*
X135596099Y-102628230D01*
X135573005Y-102628086D01*
X135550670Y-102628816D01*
X135529314Y-102630268D01*
X135509142Y-102632301D01*
X135490357Y-102634772D01*
X135343256Y-102634772D01*
X135337178Y-102621484D01*
X135329615Y-102609689D01*
X135318998Y-102600819D01*
X135306091Y-102595523D01*
X135291662Y-102594448D01*
X135276473Y-102598242D01*
X135261292Y-102607551D01*
X135246883Y-102623024D01*
X135234012Y-102645308D01*
X135223443Y-102675051D01*
X135217070Y-102699399D01*
X135215682Y-102724042D01*
X135219108Y-102748270D01*
X135227174Y-102771371D01*
X135239707Y-102792634D01*
X135256536Y-102811349D01*
X135394589Y-102922912D01*
X135408282Y-102937752D01*
X135416473Y-102954783D01*
X135419437Y-102972888D01*
X135417450Y-102990952D01*
X135410787Y-103007860D01*
X135399726Y-103022496D01*
X135384540Y-103033744D01*
X135365507Y-103040491D01*
X135341086Y-103043698D01*
X135317464Y-103049216D01*
X135294763Y-103056928D01*
X135273107Y-103066718D01*
X135252616Y-103078472D01*
X135233413Y-103092073D01*
X135215620Y-103107405D01*
X135199359Y-103124354D01*
X135184752Y-103142803D01*
X135171921Y-103162636D01*
X135160987Y-103183739D01*
X135152074Y-103205995D01*
X135145302Y-103229288D01*
X135140795Y-103253504D01*
X135132638Y-103275475D01*
X135117895Y-103292850D01*
X135098181Y-103304277D01*
X135075111Y-103308408D01*
X135063077Y-103307321D01*
X135042871Y-103300194D01*
X135026497Y-103287565D01*
X135014843Y-103270718D01*
X135008801Y-103250941D01*
X135009260Y-103229520D01*
X135013398Y-103205331D01*
X135019107Y-103181653D01*
X135026339Y-103158550D01*
X135035049Y-103136087D01*
X135045189Y-103114327D01*
X135056711Y-103093336D01*
X135069568Y-103073176D01*
X135083714Y-103053913D01*
X135099100Y-103035611D01*
X135115680Y-103018333D01*
X135133407Y-103002145D01*
X135152233Y-102987110D01*
X135172111Y-102973293D01*
X135192995Y-102960758D01*
X135214836Y-102949570D01*
X135172467Y-102915307D01*
X135153615Y-102898233D01*
X135136710Y-102879449D01*
X135121854Y-102859124D01*
X135109144Y-102837428D01*
X135098680Y-102814530D01*
X135090562Y-102790599D01*
X135084889Y-102765805D01*
X135059846Y-102781875D01*
X135036252Y-102798306D01*
X135014072Y-102815089D01*
X134993272Y-102832213D01*
X134973816Y-102849670D01*
X134955671Y-102867449D01*
X134938802Y-102885543D01*
X134923174Y-102903941D01*
X134908752Y-102922634D01*
X134895503Y-102941613D01*
X134883390Y-102960868D01*
X134872381Y-102980391D01*
X134862439Y-103000171D01*
X134853532Y-103020199D01*
X134845623Y-103040466D01*
X134838678Y-103060962D01*
X134832663Y-103081679D01*
X134827543Y-103102606D01*
X134823284Y-103123735D01*
X134819851Y-103145056D01*
X134817209Y-103166560D01*
X134815324Y-103188237D01*
X134814161Y-103210078D01*
X134813685Y-103232073D01*
X134813863Y-103254214D01*
X134814658Y-103276491D01*
X134816038Y-103298894D01*
X134817966Y-103321414D01*
X134820409Y-103344043D01*
X134823332Y-103366769D01*
X134826700Y-103389585D01*
X134830479Y-103412480D01*
X134834634Y-103435446D01*
X134839131Y-103458473D01*
X134843934Y-103481551D01*
X134849010Y-103504671D01*
X134854323Y-103527825D01*
X134859840Y-103551002D01*
X134865525Y-103574193D01*
X134871344Y-103597388D01*
X134877262Y-103620580D01*
X134883245Y-103643757D01*
X134889258Y-103666911D01*
X134895659Y-103691580D01*
X134902041Y-103716395D01*
X134908344Y-103741323D01*
X134914508Y-103766331D01*
X134920473Y-103791389D01*
X134926178Y-103816463D01*
X134931564Y-103841522D01*
X134936570Y-103866534D01*
X134941137Y-103891466D01*
X134945204Y-103916286D01*
X134948711Y-103940962D01*
X134951598Y-103965463D01*
X134953806Y-103989755D01*
X134955274Y-104013807D01*
X134955941Y-104037586D01*
X134955749Y-104061062D01*
X134954636Y-104084200D01*
X134952543Y-104106970D01*
X134949410Y-104129339D01*
X134945176Y-104151275D01*
X134939782Y-104172746D01*
X134933167Y-104193720D01*
X134925271Y-104214165D01*
X134916035Y-104234048D01*
X134905398Y-104253337D01*
X134893300Y-104272001D01*
X134879682Y-104290007D01*
X134864482Y-104307323D01*
X134847641Y-104323917D01*
X134872729Y-104320010D01*
X134897154Y-104313751D01*
X134920763Y-104305224D01*
X134943404Y-104294509D01*
X134964922Y-104281688D01*
X134985165Y-104266843D01*
X135003979Y-104250056D01*
X135021210Y-104231408D01*
X135031811Y-104215420D01*
X135041025Y-104198256D01*
X135048921Y-104179974D01*
X135055565Y-104160636D01*
X135061022Y-104140302D01*
X135065361Y-104119032D01*
X135068646Y-104096886D01*
X135070946Y-104073925D01*
X135072327Y-104050207D01*
X135072854Y-104025795D01*
X135072596Y-104000747D01*
X135071618Y-103975124D01*
X135069987Y-103948986D01*
X135067770Y-103922394D01*
X135065033Y-103895407D01*
X135061844Y-103868085D01*
X135058267Y-103840490D01*
X135054371Y-103812680D01*
X135050222Y-103784717D01*
X135045886Y-103756660D01*
X135041430Y-103728569D01*
X135036921Y-103700506D01*
X135032993Y-103675990D01*
X135029073Y-103651320D01*
X135025206Y-103626552D01*
X135021438Y-103601739D01*
X135017814Y-103576935D01*
X135014379Y-103552194D01*
X135011179Y-103527571D01*
X135008257Y-103503120D01*
X135009104Y-103483028D01*
X135014720Y-103466036D01*
X135024233Y-103452240D01*
X135036769Y-103441740D01*
X135051455Y-103434633D01*
X135067418Y-103431018D01*
X135083786Y-103430993D01*
X135099684Y-103434657D01*
X135114241Y-103442107D01*
X135126583Y-103453443D01*
X135135836Y-103468761D01*
X135141129Y-103488161D01*
X135143887Y-103511497D01*
X135146941Y-103535137D01*
X135150245Y-103559007D01*
X135153752Y-103583035D01*
X135157415Y-103607149D01*
X135161187Y-103631276D01*
X135165022Y-103655343D01*
X135168873Y-103679279D01*
X135173194Y-103706165D01*
X135177473Y-103733089D01*
X135181657Y-103760022D01*
X135185692Y-103786932D01*
X135189526Y-103813789D01*
X135193104Y-103840561D01*
X135196373Y-103867217D01*
X135199280Y-103893727D01*
X135201771Y-103920060D01*
X135203794Y-103946185D01*
X135205295Y-103972070D01*
X135206220Y-103997685D01*
X135206516Y-104023000D01*
X135206130Y-104047982D01*
X135205008Y-104072602D01*
X135203096Y-104096828D01*
X135200343Y-104120629D01*
X135196694Y-104143975D01*
X135192095Y-104166834D01*
X135186494Y-104189176D01*
X135179837Y-104210970D01*
X135172071Y-104232184D01*
X135163142Y-104252788D01*
X135152997Y-104272751D01*
X135141582Y-104292042D01*
X135128845Y-104310630D01*
X135112210Y-104330048D01*
X135094485Y-104348278D01*
X135075734Y-104365287D01*
X135056022Y-104381040D01*
X135035416Y-104395502D01*
X135013981Y-104408638D01*
X134991782Y-104420413D01*
X134968885Y-104430793D01*
X134945355Y-104439743D01*
X134921259Y-104447229D01*
X134896660Y-104453215D01*
X134871626Y-104457667D01*
X134846220Y-104460550D01*
X134824136Y-104463440D01*
X134799240Y-104466164D01*
X134772154Y-104468642D01*
X134743499Y-104470794D01*
X134713897Y-104472538D01*
X134683969Y-104473796D01*
X134654336Y-104474486D01*
X134625620Y-104474527D01*
X134598443Y-104473841D01*
X134573425Y-104472345D01*
X134551187Y-104469961D01*
X134532352Y-104466607D01*
X134519512Y-104455646D01*
X134507669Y-104441934D01*
X134497979Y-104425903D01*
X134491601Y-104407985D01*
X134489691Y-104388612D01*
X134493407Y-104368215D01*
X134503907Y-104347227D01*
X134522346Y-104326079D01*
X134534296Y-104325129D01*
X134561430Y-104322460D01*
X134593499Y-104319180D01*
X134620256Y-104316399D01*
X134631452Y-104315226D01*
X134654615Y-104307668D01*
X134676088Y-104299382D01*
X134695915Y-104290366D01*
X134714142Y-104280617D01*
X134730816Y-104270133D01*
X134745981Y-104258911D01*
X134759682Y-104246950D01*
X134771967Y-104234246D01*
X134782879Y-104220798D01*
X134792465Y-104206603D01*
X134800769Y-104191659D01*
X134807839Y-104175962D01*
X134813718Y-104159512D01*
X134818453Y-104142305D01*
X134822090Y-104124339D01*
X134824673Y-104105612D01*
X134826248Y-104086122D01*
X134826860Y-104065865D01*
X134826557Y-104044840D01*
X134825381Y-104023044D01*
X134823381Y-104000475D01*
X134820600Y-103977130D01*
X134817084Y-103953008D01*
X134812879Y-103928105D01*
X134808031Y-103902419D01*
X134802584Y-103875948D01*
X134796585Y-103848690D01*
X134790079Y-103820642D01*
X134783112Y-103791802D01*
X134775728Y-103762167D01*
X134767974Y-103731736D01*
X134759895Y-103700505D01*
X134754819Y-103680967D01*
X134749723Y-103661274D01*
X134744632Y-103641434D01*
X134739567Y-103621456D01*
X134734552Y-103601350D01*
X134729610Y-103581123D01*
X134724763Y-103560786D01*
X134720035Y-103540346D01*
X134715449Y-103519814D01*
X134711027Y-103499197D01*
X134706792Y-103478504D01*
X134702767Y-103457745D01*
X134698976Y-103436928D01*
X134695440Y-103416063D01*
X134692184Y-103395157D01*
X134689229Y-103374221D01*
X134686599Y-103353263D01*
X134684317Y-103332291D01*
X134682406Y-103311316D01*
X134680888Y-103290344D01*
X134679786Y-103269387D01*
X134679124Y-103248452D01*
X134678924Y-103227548D01*
X134679209Y-103206685D01*
X134680002Y-103185870D01*
X134681327Y-103165114D01*
X134683205Y-103144424D01*
X134685660Y-103123811D01*
X134688715Y-103103282D01*
X134692393Y-103082847D01*
X134696716Y-103062514D01*
X134701708Y-103042293D01*
X134707391Y-103022192D01*
X134713788Y-103002220D01*
X134720923Y-102982387D01*
X134728818Y-102962700D01*
X134737496Y-102943170D01*
X134746980Y-102923804D01*
X134757293Y-102904612D01*
X134768458Y-102885602D01*
X134780497Y-102866784D01*
X134793435Y-102848167D01*
X134807292Y-102829759D01*
X134822094Y-102811569D01*
X134837861Y-102793606D01*
X134854618Y-102775879D01*
X134872387Y-102758397D01*
X134891192Y-102741169D01*
X134911054Y-102724203D01*
X134931998Y-102707509D01*
X134954045Y-102691096D01*
X134977219Y-102674972D01*
X135001543Y-102659146D01*
X135027040Y-102643628D01*
X135053732Y-102628426D01*
X135081642Y-102613548D01*
X135110794Y-102599005D01*
X135122327Y-102572681D01*
X135133180Y-102551556D01*
X135146181Y-102532530D01*
X135161094Y-102515651D01*
X135177680Y-102500964D01*
X135195702Y-102488519D01*
X135214921Y-102478363D01*
X135235102Y-102470542D01*
X135256005Y-102465104D01*
X135277394Y-102462098D01*
X135299030Y-102461569D01*
X135320677Y-102463566D01*
X135342096Y-102468137D01*
X135363050Y-102475327D01*
X135383301Y-102485186D01*
X135402612Y-102497760D01*
X135420745Y-102513098D01*
X135435948Y-102509821D01*
X135452900Y-102506544D01*
X135471456Y-102503395D01*
X135491470Y-102500503D01*
X135512796Y-102497997D01*
X135535290Y-102496006D01*
X135558805Y-102494658D01*
X135583196Y-102494082D01*
X135608318Y-102494406D01*
X135634024Y-102495760D01*
X135660170Y-102498272D01*
X135686609Y-102502072D01*
X135713197Y-102507286D01*
X135739787Y-102514045D01*
X135766234Y-102522478D01*
X135792392Y-102532712D01*
X135818116Y-102544877D01*
X135843261Y-102559101D01*
X135867680Y-102575513D01*
X135891229Y-102594241D01*
X135989065Y-102522457D01*
X136215052Y-102522457D01*
X136217427Y-102544752D01*
X136220701Y-102566924D01*
X136224869Y-102588945D01*
X136229927Y-102610788D01*
X136387284Y-102396103D01*
X136215052Y-102522457D01*
X135989065Y-102522457D01*
X136658545Y-102031249D01*
X136672280Y-102023471D01*
X136687458Y-102019132D01*
X136687459Y-102019132D01*
X136708640Y-102018945D01*
X136727439Y-102024809D01*
G37*
G36*
X136727445Y-102024797D02*
G01*
X136743184Y-102035595D01*
X136755178Y-102050215D01*
X136762746Y-102067544D01*
X136765206Y-102086469D01*
X136761876Y-102105877D01*
X136752074Y-102124653D01*
X136241791Y-102820838D01*
X136264091Y-102820272D01*
X136286210Y-102817701D01*
X136308003Y-102813138D01*
X136329328Y-102806596D01*
X136350009Y-102800996D01*
X136369586Y-102801919D01*
X136387272Y-102808376D01*
X136402282Y-102819377D01*
X136413831Y-102833932D01*
X136421134Y-102851050D01*
X136423405Y-102869742D01*
X136419859Y-102889019D01*
X136409710Y-102907889D01*
X136393150Y-102928072D01*
X136375952Y-102947662D01*
X136358133Y-102966644D01*
X136339711Y-102985007D01*
X136320702Y-103002736D01*
X136301123Y-103019818D01*
X136280991Y-103036239D01*
X136260323Y-103051986D01*
X136239135Y-103067045D01*
X136229906Y-103073154D01*
X136217445Y-103081403D01*
X136195270Y-103095045D01*
X136172625Y-103107960D01*
X136149529Y-103120132D01*
X136161943Y-103131814D01*
X136175215Y-103144302D01*
X136189303Y-103157558D01*
X136204165Y-103171541D01*
X136219758Y-103186211D01*
X136236041Y-103201528D01*
X136252970Y-103217453D01*
X136270503Y-103233945D01*
X136288598Y-103250965D01*
X136307213Y-103268472D01*
X136326305Y-103286426D01*
X136345831Y-103304788D01*
X136365750Y-103323518D01*
X136386019Y-103342575D01*
X136406596Y-103361920D01*
X136427437Y-103381512D01*
X136448502Y-103401312D01*
X136469747Y-103421280D01*
X136491129Y-103441375D01*
X136512608Y-103461558D01*
X136534139Y-103481789D01*
X136555682Y-103502028D01*
X136577193Y-103522234D01*
X136598630Y-103542369D01*
X136619951Y-103562391D01*
X136641113Y-103582261D01*
X136662074Y-103601940D01*
X136682792Y-103621386D01*
X136703224Y-103640560D01*
X136723327Y-103659423D01*
X136743060Y-103677933D01*
X136762380Y-103696052D01*
X136781245Y-103713739D01*
X136799611Y-103730954D01*
X136817438Y-103747657D01*
X136834682Y-103763809D01*
X136849963Y-103779443D01*
X136863762Y-103796296D01*
X136876072Y-103814273D01*
X136886887Y-103833279D01*
X136896199Y-103853218D01*
X136904002Y-103873998D01*
X136910289Y-103895522D01*
X136915053Y-103917695D01*
X136918287Y-103940424D01*
X136919985Y-103963613D01*
X136920138Y-103987167D01*
X136918742Y-104010993D01*
X136915787Y-104034994D01*
X136911269Y-104059076D01*
X136905179Y-104083145D01*
X136897512Y-104107105D01*
X136888259Y-104130862D01*
X136877415Y-104154321D01*
X136864972Y-104177387D01*
X136859560Y-104186387D01*
X136853090Y-104196443D01*
X136845521Y-104207419D01*
X136836815Y-104219181D01*
X136826930Y-104231592D01*
X136815826Y-104244517D01*
X136803463Y-104257822D01*
X136789802Y-104271369D01*
X136774802Y-104285025D01*
X136758422Y-104298653D01*
X136740623Y-104312117D01*
X136721365Y-104325283D01*
X136700607Y-104338015D01*
X136678309Y-104350178D01*
X136654432Y-104361635D01*
X136628934Y-104372252D01*
X136601777Y-104381892D01*
X136572919Y-104390422D01*
X136542320Y-104397704D01*
X136509941Y-104403604D01*
X136475742Y-104407986D01*
X136439681Y-104410714D01*
X136401720Y-104411654D01*
X136376402Y-104411286D01*
X136351128Y-104410269D01*
X136325908Y-104408603D01*
X136300757Y-104406292D01*
X136275685Y-104403337D01*
X136250706Y-104399742D01*
X136225831Y-104395507D01*
X136201073Y-104390635D01*
X136176445Y-104385129D01*
X136151958Y-104378990D01*
X136127624Y-104372221D01*
X136103457Y-104364824D01*
X136079468Y-104356801D01*
X136055670Y-104348154D01*
X136062064Y-104373200D01*
X136067780Y-104398363D01*
X136072818Y-104423631D01*
X136077177Y-104448991D01*
X136080858Y-104474427D01*
X136083862Y-104499928D01*
X136086188Y-104525480D01*
X136087836Y-104551069D01*
X136088807Y-104576681D01*
X136089100Y-104602303D01*
X136088717Y-104627922D01*
X136087657Y-104653524D01*
X136085920Y-104679096D01*
X136083506Y-104704623D01*
X136080416Y-104730093D01*
X136076649Y-104755493D01*
X136072207Y-104780807D01*
X136067089Y-104806024D01*
X136061295Y-104831129D01*
X136054825Y-104856109D01*
X136047680Y-104880950D01*
X136038757Y-104899518D01*
X136026596Y-104913100D01*
X136012077Y-104921989D01*
X135996081Y-104926475D01*
X135979491Y-104926851D01*
X135963188Y-104923409D01*
X135948053Y-104916440D01*
X135934967Y-104906237D01*
X135924813Y-104893092D01*
X135918471Y-104877296D01*
X135916823Y-104859141D01*
X135920751Y-104838919D01*
X135931179Y-104803903D01*
X135939472Y-104768738D01*
X135945786Y-104733584D01*
X135950277Y-104698598D01*
X135953098Y-104663939D01*
X135954408Y-104629767D01*
X135954359Y-104596239D01*
X135953109Y-104563514D01*
X135950813Y-104531751D01*
X135947626Y-104501108D01*
X135943703Y-104471744D01*
X135939201Y-104443818D01*
X135934274Y-104417487D01*
X135929079Y-104392912D01*
X135923770Y-104370250D01*
X135918503Y-104349661D01*
X135913434Y-104331302D01*
X135908719Y-104315332D01*
X135904512Y-104301910D01*
X135900969Y-104291195D01*
X135898246Y-104283344D01*
X135896498Y-104278518D01*
X135895881Y-104276874D01*
X135873114Y-104263836D01*
X135850850Y-104250019D01*
X135829110Y-104235439D01*
X135807911Y-104220109D01*
X135787272Y-104204046D01*
X135767214Y-104187265D01*
X135747754Y-104169781D01*
X135728911Y-104151609D01*
X135710706Y-104132765D01*
X135693156Y-104113263D01*
X135662158Y-104109254D01*
X135632373Y-104104349D01*
X135603805Y-104098550D01*
X135576458Y-104091859D01*
X135550334Y-104084278D01*
X135525439Y-104075810D01*
X135501776Y-104066455D01*
X135479348Y-104056217D01*
X135458159Y-104045097D01*
X135438212Y-104033097D01*
X135419512Y-104020220D01*
X135402063Y-104006467D01*
X135385867Y-103991841D01*
X135370929Y-103976343D01*
X135357252Y-103959975D01*
X135344840Y-103942741D01*
X135333697Y-103924641D01*
X135323714Y-103901373D01*
X135315288Y-103877663D01*
X135308419Y-103853586D01*
X135303107Y-103829218D01*
X135299352Y-103804634D01*
X135297153Y-103779908D01*
X135296511Y-103755116D01*
X135297424Y-103730333D01*
X135299894Y-103705634D01*
X135303919Y-103681094D01*
X135309500Y-103656788D01*
X135316635Y-103632791D01*
X135325326Y-103609178D01*
X135335571Y-103586025D01*
X135347063Y-103569477D01*
X135360928Y-103558119D01*
X135376375Y-103551563D01*
X135392610Y-103549422D01*
X135408839Y-103551309D01*
X135424271Y-103556836D01*
X135438111Y-103565615D01*
X135449567Y-103577258D01*
X135457846Y-103591379D01*
X135462155Y-103607590D01*
X135461701Y-103625503D01*
X135455691Y-103644730D01*
X135446060Y-103667597D01*
X135438679Y-103691085D01*
X135433552Y-103715032D01*
X135430682Y-103739277D01*
X135430074Y-103763660D01*
X135431732Y-103788018D01*
X135435660Y-103812191D01*
X135441862Y-103836018D01*
X135450342Y-103859336D01*
X135463205Y-103878325D01*
X135478691Y-103895347D01*
X135496491Y-103910508D01*
X135516299Y-103923912D01*
X135537806Y-103935665D01*
X135560706Y-103945871D01*
X135584690Y-103954636D01*
X135609451Y-103962066D01*
X135634681Y-103968265D01*
X135660073Y-103973339D01*
X135685319Y-103977393D01*
X135710112Y-103980531D01*
X135734143Y-103982860D01*
X135753878Y-103987627D01*
X135771088Y-103997971D01*
X135784581Y-104013150D01*
X135801414Y-104032831D01*
X135818961Y-104051778D01*
X135837199Y-104069977D01*
X135856102Y-104087412D01*
X135875645Y-104104065D01*
X135895804Y-104119922D01*
X135916552Y-104134967D01*
X135937865Y-104149183D01*
X135959718Y-104162554D01*
X135982086Y-104175064D01*
X136004944Y-104186698D01*
X136028266Y-104197440D01*
X136052028Y-104207272D01*
X136076204Y-104216181D01*
X136100769Y-104224148D01*
X136125699Y-104231160D01*
X136156967Y-104240356D01*
X136187748Y-104248515D01*
X136218021Y-104255642D01*
X136247765Y-104261740D01*
X136276960Y-104266813D01*
X136305584Y-104270866D01*
X136333618Y-104273903D01*
X136361040Y-104275928D01*
X136387829Y-104276945D01*
X136413966Y-104276958D01*
X136439430Y-104275972D01*
X136464199Y-104273990D01*
X136488253Y-104271017D01*
X136511572Y-104267056D01*
X136534134Y-104262113D01*
X136555920Y-104256190D01*
X136576908Y-104249293D01*
X136597078Y-104241425D01*
X136616409Y-104232591D01*
X136634880Y-104222795D01*
X136652471Y-104212040D01*
X136669162Y-104200331D01*
X136684930Y-104187672D01*
X136699757Y-104174068D01*
X136713621Y-104159522D01*
X136726501Y-104144038D01*
X136738377Y-104127621D01*
X136749228Y-104110275D01*
X136761063Y-104087393D01*
X136770627Y-104063574D01*
X136777873Y-104038983D01*
X136782752Y-104013783D01*
X136785215Y-103988140D01*
X136778059Y-103990306D01*
X136758015Y-103988985D01*
X136740033Y-103981740D01*
X136725236Y-103969500D01*
X136714749Y-103953195D01*
X136709697Y-103933755D01*
X136711328Y-103913333D01*
X136719260Y-103894992D01*
X136732605Y-103880123D01*
X136750478Y-103870116D01*
X136743251Y-103861433D01*
X136727399Y-103846589D01*
X136711052Y-103831275D01*
X136694243Y-103815522D01*
X136677003Y-103799362D01*
X136659367Y-103782824D01*
X136641367Y-103765941D01*
X136623035Y-103748743D01*
X136604406Y-103731261D01*
X136585511Y-103713526D01*
X136566384Y-103695570D01*
X136547057Y-103677424D01*
X136527564Y-103659117D01*
X136507938Y-103640683D01*
X136488210Y-103622151D01*
X136468415Y-103603553D01*
X136448584Y-103584920D01*
X136428752Y-103566282D01*
X136408950Y-103547671D01*
X136389212Y-103529119D01*
X136369571Y-103510655D01*
X136350059Y-103492311D01*
X136330709Y-103474119D01*
X136311555Y-103456108D01*
X136292629Y-103438311D01*
X136273964Y-103420758D01*
X136255594Y-103403480D01*
X136237550Y-103386509D01*
X136228939Y-103402974D01*
X136225946Y-103421315D01*
X136223315Y-103441743D01*
X136216040Y-103458456D01*
X136205050Y-103471456D01*
X136191274Y-103480741D01*
X136175640Y-103486312D01*
X136159078Y-103488169D01*
X136142515Y-103486312D01*
X136126882Y-103480741D01*
X136113105Y-103471456D01*
X136102115Y-103458456D01*
X136094840Y-103441743D01*
X136092209Y-103421315D01*
X136093718Y-103398221D01*
X136097946Y-103375632D01*
X136104806Y-103353778D01*
X136114209Y-103332891D01*
X136126064Y-103313202D01*
X136140285Y-103294942D01*
X136135937Y-103290877D01*
X136124159Y-103279866D01*
X136106849Y-103263681D01*
X136085905Y-103244097D01*
X136063227Y-103222888D01*
X136040713Y-103201828D01*
X136020260Y-103182690D01*
X136003769Y-103167249D01*
X135978920Y-103169763D01*
X135953956Y-103170584D01*
X135946452Y-103170491D01*
X135943436Y-103170454D01*
X135932237Y-103170031D01*
X135920385Y-103169265D01*
X135907907Y-103168105D01*
X135894829Y-103166500D01*
X135881177Y-103164402D01*
X135866980Y-103161758D01*
X135852262Y-103158518D01*
X135837051Y-103154633D01*
X135821373Y-103150052D01*
X135805256Y-103144723D01*
X135788725Y-103138598D01*
X135771807Y-103131626D01*
X135754529Y-103123756D01*
X135736918Y-103114937D01*
X135718999Y-103105120D01*
X135700800Y-103094254D01*
X135682348Y-103082289D01*
X135663668Y-103069173D01*
X135644788Y-103054858D01*
X135625735Y-103039292D01*
X135606534Y-103022425D01*
X135587212Y-103004206D01*
X135567796Y-102984586D01*
X135548313Y-102963514D01*
X135528789Y-102940939D01*
X135509251Y-102916811D01*
X135489726Y-102891080D01*
X135470239Y-102863695D01*
X135450819Y-102834606D01*
X135431490Y-102803762D01*
X135412281Y-102771113D01*
X135393217Y-102736609D01*
X135374326Y-102700199D01*
X135355633Y-102661834D01*
X135343267Y-102634800D01*
X135490356Y-102634800D01*
X135509849Y-102673783D01*
X135529556Y-102710201D01*
X135549430Y-102744140D01*
X135569426Y-102775686D01*
X135589496Y-102804923D01*
X135609596Y-102831937D01*
X135629677Y-102856813D01*
X135649695Y-102879638D01*
X135669603Y-102900495D01*
X135689355Y-102919472D01*
X135708905Y-102936652D01*
X135728206Y-102952122D01*
X135747212Y-102965966D01*
X135765878Y-102978271D01*
X135784156Y-102989121D01*
X135802001Y-102998603D01*
X135819366Y-103006801D01*
X135836206Y-103013801D01*
X135852474Y-103019688D01*
X135868123Y-103024548D01*
X135883109Y-103028466D01*
X135897383Y-103031527D01*
X135910901Y-103033817D01*
X135923616Y-103035422D01*
X135935482Y-103036426D01*
X135946452Y-103036916D01*
X135971433Y-103034628D01*
X135996135Y-103030836D01*
X136020494Y-103025563D01*
X136044445Y-103018835D01*
X136067924Y-103010677D01*
X136090868Y-103001114D01*
X136113211Y-102990171D01*
X136134889Y-102977872D01*
X136155838Y-102964243D01*
X136175994Y-102949309D01*
X136150511Y-102943814D01*
X136125429Y-102937116D01*
X136101657Y-102929516D01*
X136100789Y-102929238D01*
X136076627Y-102920206D01*
X136052980Y-102910044D01*
X136029888Y-102898776D01*
X136007387Y-102886427D01*
X135985515Y-102873021D01*
X135964310Y-102858583D01*
X135943810Y-102843138D01*
X135924053Y-102826709D01*
X135905076Y-102809321D01*
X135886917Y-102791000D01*
X135869613Y-102771768D01*
X135853204Y-102751652D01*
X135837726Y-102730674D01*
X135820666Y-102710961D01*
X135801977Y-102693778D01*
X135801890Y-102693714D01*
X135981676Y-102693714D01*
X135999314Y-102711965D01*
X136017964Y-102729107D01*
X136037575Y-102745103D01*
X136058095Y-102759914D01*
X136079473Y-102773505D01*
X136101657Y-102785837D01*
X136132295Y-102743944D01*
X136124188Y-102722431D01*
X136116711Y-102700697D01*
X136109867Y-102678759D01*
X136103661Y-102656632D01*
X136098098Y-102634332D01*
X136093181Y-102611874D01*
X135981676Y-102693714D01*
X135801890Y-102693714D01*
X135781875Y-102678975D01*
X135760576Y-102666402D01*
X135738297Y-102655908D01*
X135715252Y-102647344D01*
X135691659Y-102640559D01*
X135667733Y-102635402D01*
X135643691Y-102631725D01*
X135619749Y-102629375D01*
X135596123Y-102628204D01*
X135573030Y-102628061D01*
X135550691Y-102628799D01*
X135529326Y-102630270D01*
X135509145Y-102632321D01*
X135490356Y-102634800D01*
X135343267Y-102634800D01*
X135337165Y-102621461D01*
X135329603Y-102609666D01*
X135318986Y-102600796D01*
X135306081Y-102595500D01*
X135291652Y-102594424D01*
X135276464Y-102598217D01*
X135261284Y-102607526D01*
X135246876Y-102622999D01*
X135234005Y-102645283D01*
X135223437Y-102675026D01*
X135217062Y-102699374D01*
X135215670Y-102724020D01*
X135219090Y-102748250D01*
X135227150Y-102771353D01*
X135239679Y-102792618D01*
X135256506Y-102811334D01*
X135394621Y-102922909D01*
X135408313Y-102937748D01*
X135416501Y-102954776D01*
X135419460Y-102972876D01*
X135417468Y-102990935D01*
X135410800Y-103007837D01*
X135399734Y-103022468D01*
X135384545Y-103033714D01*
X135365511Y-103040459D01*
X135341089Y-103043667D01*
X135317465Y-103049187D01*
X135294763Y-103056903D01*
X135273103Y-103066699D01*
X135252609Y-103078458D01*
X135233403Y-103092066D01*
X135215606Y-103107405D01*
X135199341Y-103124361D01*
X135184730Y-103142816D01*
X135171895Y-103162655D01*
X135160959Y-103183763D01*
X135152043Y-103206023D01*
X135145271Y-103229319D01*
X135140763Y-103253535D01*
X135132611Y-103275504D01*
X135117878Y-103292871D01*
X135098174Y-103304292D01*
X135075109Y-103308418D01*
X135063090Y-103307308D01*
X135042882Y-103300181D01*
X135026501Y-103287548D01*
X135014840Y-103270699D01*
X135008792Y-103250919D01*
X135009248Y-103229497D01*
X135013386Y-103205309D01*
X135019095Y-103181633D01*
X135026328Y-103158532D01*
X135035037Y-103136072D01*
X135045177Y-103114315D01*
X135056698Y-103093327D01*
X135069555Y-103073171D01*
X135083701Y-103053912D01*
X135099087Y-103035614D01*
X135115667Y-103018340D01*
X135133393Y-103002155D01*
X135152219Y-102987123D01*
X135172098Y-102973309D01*
X135192981Y-102960775D01*
X135214822Y-102949587D01*
X135172443Y-102915336D01*
X135153592Y-102898262D01*
X135136694Y-102879477D01*
X135121846Y-102859151D01*
X135109145Y-102837453D01*
X135098689Y-102814554D01*
X135090577Y-102790622D01*
X135084906Y-102765828D01*
X135059863Y-102781898D01*
X135036269Y-102798329D01*
X135014089Y-102815111D01*
X134993288Y-102832235D01*
X134973833Y-102849691D01*
X134955688Y-102867471D01*
X134938818Y-102885564D01*
X134923190Y-102903962D01*
X134908768Y-102922654D01*
X134895519Y-102941632D01*
X134883406Y-102960887D01*
X134872396Y-102980408D01*
X134862455Y-103000187D01*
X134853547Y-103020215D01*
X134845638Y-103040481D01*
X134838693Y-103060976D01*
X134832678Y-103081692D01*
X134827558Y-103102618D01*
X134823298Y-103123746D01*
X134819865Y-103145066D01*
X134817222Y-103166569D01*
X134815337Y-103188245D01*
X134814173Y-103210085D01*
X134813698Y-103232080D01*
X134813875Y-103254220D01*
X134814670Y-103276495D01*
X134816049Y-103298898D01*
X134817977Y-103321417D01*
X134820420Y-103344044D01*
X134823343Y-103366770D01*
X134826711Y-103389585D01*
X134830490Y-103412480D01*
X134834644Y-103435445D01*
X134839141Y-103458471D01*
X134843944Y-103481548D01*
X134849020Y-103504668D01*
X134854333Y-103527821D01*
X134859849Y-103550997D01*
X134865534Y-103574188D01*
X134871353Y-103597384D01*
X134877271Y-103620575D01*
X134883254Y-103643752D01*
X134889267Y-103666906D01*
X134895668Y-103691575D01*
X134902050Y-103716390D01*
X134908353Y-103741318D01*
X134914517Y-103766327D01*
X134920482Y-103791385D01*
X134926187Y-103816459D01*
X134931573Y-103841519D01*
X134936579Y-103866530D01*
X134941146Y-103891463D01*
X134945213Y-103916283D01*
X134948721Y-103940960D01*
X134951608Y-103965461D01*
X134953816Y-103989754D01*
X134955284Y-104013806D01*
X134955951Y-104037586D01*
X134955759Y-104061062D01*
X134954646Y-104084201D01*
X134952553Y-104106971D01*
X134949420Y-104129341D01*
X134945186Y-104151277D01*
X134939792Y-104172749D01*
X134933177Y-104193723D01*
X134925282Y-104214168D01*
X134916046Y-104234051D01*
X134905409Y-104253341D01*
X134893311Y-104272005D01*
X134879692Y-104290011D01*
X134864493Y-104307327D01*
X134847652Y-104323921D01*
X134872738Y-104320012D01*
X134897161Y-104313750D01*
X134920767Y-104305218D01*
X134943403Y-104294497D01*
X134964917Y-104281671D01*
X134985156Y-104266821D01*
X135003967Y-104250031D01*
X135021198Y-104231382D01*
X135031798Y-104215394D01*
X135041013Y-104198230D01*
X135048908Y-104179950D01*
X135055551Y-104160614D01*
X135061008Y-104140283D01*
X135065346Y-104119015D01*
X135068632Y-104096872D01*
X135070931Y-104073914D01*
X135072311Y-104050200D01*
X135072838Y-104025791D01*
X135072579Y-104000746D01*
X135071600Y-103975127D01*
X135069969Y-103948993D01*
X135067751Y-103922403D01*
X135065014Y-103895420D01*
X135061823Y-103868101D01*
X135058247Y-103840508D01*
X135054350Y-103812701D01*
X135050201Y-103784740D01*
X135045864Y-103756684D01*
X135041408Y-103728594D01*
X135036899Y-103700531D01*
X135032973Y-103676013D01*
X135029057Y-103651337D01*
X135025197Y-103626559D01*
X135021437Y-103601735D01*
X135017820Y-103576920D01*
X135014391Y-103552170D01*
X135011195Y-103527540D01*
X135008276Y-103503086D01*
X135009122Y-103482995D01*
X135014736Y-103466004D01*
X135024246Y-103452210D01*
X135036777Y-103441712D01*
X135051459Y-103434608D01*
X135067418Y-103430995D01*
X135083780Y-103430973D01*
X135099674Y-103434639D01*
X135114227Y-103442092D01*
X135126566Y-103453429D01*
X135135818Y-103468749D01*
X135141110Y-103488149D01*
X135143870Y-103511486D01*
X135146929Y-103535125D01*
X135150240Y-103558996D01*
X135153755Y-103583025D01*
X135157426Y-103607140D01*
X135161206Y-103631267D01*
X135165046Y-103655336D01*
X135168899Y-103679272D01*
X135173220Y-103706158D01*
X135177498Y-103733082D01*
X135181681Y-103760016D01*
X135185715Y-103786927D01*
X135189546Y-103813784D01*
X135193122Y-103840557D01*
X135196388Y-103867215D01*
X135199293Y-103893726D01*
X135201781Y-103920061D01*
X135203801Y-103946187D01*
X135205298Y-103972074D01*
X135206220Y-103997691D01*
X135206513Y-104023007D01*
X135206123Y-104047991D01*
X135204998Y-104072612D01*
X135203084Y-104096840D01*
X135200327Y-104120643D01*
X135196675Y-104143990D01*
X135192074Y-104166850D01*
X135186470Y-104189193D01*
X135179811Y-104210988D01*
X135172043Y-104232203D01*
X135163112Y-104252808D01*
X135152966Y-104272771D01*
X135141551Y-104292063D01*
X135128813Y-104310651D01*
X135112179Y-104330068D01*
X135094453Y-104348299D01*
X135075702Y-104365309D01*
X135055991Y-104381062D01*
X135035386Y-104395524D01*
X135013951Y-104408661D01*
X134991753Y-104420437D01*
X134968856Y-104430817D01*
X134945327Y-104439768D01*
X134921231Y-104447254D01*
X134896633Y-104453241D01*
X134871598Y-104457693D01*
X134846193Y-104460576D01*
X134824110Y-104463465D01*
X134799217Y-104466189D01*
X134772135Y-104468666D01*
X134743486Y-104470816D01*
X134713890Y-104472559D01*
X134683969Y-104473815D01*
X134654343Y-104474503D01*
X134625633Y-104474544D01*
X134598461Y-104473856D01*
X134573447Y-104472359D01*
X134551213Y-104469974D01*
X134532379Y-104466619D01*
X134519539Y-104455658D01*
X134507695Y-104441944D01*
X134498006Y-104425910D01*
X134491628Y-104407989D01*
X134489719Y-104388612D01*
X134493435Y-104368213D01*
X134503935Y-104347222D01*
X134522375Y-104326074D01*
X134534321Y-104325126D01*
X134561447Y-104322461D01*
X134593507Y-104319186D01*
X134620256Y-104316409D01*
X134631449Y-104315237D01*
X134654612Y-104307679D01*
X134676084Y-104299393D01*
X134695912Y-104290377D01*
X134714139Y-104280629D01*
X134730813Y-104270145D01*
X134745978Y-104258924D01*
X134759681Y-104246963D01*
X134771965Y-104234260D01*
X134782878Y-104220812D01*
X134792465Y-104206618D01*
X134800770Y-104191674D01*
X134807840Y-104175978D01*
X134813720Y-104159529D01*
X134818456Y-104142322D01*
X134822093Y-104124357D01*
X134824676Y-104105631D01*
X134826252Y-104086141D01*
X134826866Y-104065885D01*
X134826562Y-104044861D01*
X134825388Y-104023065D01*
X134823388Y-104000497D01*
X134820607Y-103977153D01*
X134817092Y-103953031D01*
X134812888Y-103928129D01*
X134808040Y-103902444D01*
X134802594Y-103875973D01*
X134796595Y-103848716D01*
X134790090Y-103820668D01*
X134783122Y-103791828D01*
X134775739Y-103762194D01*
X134767985Y-103731762D01*
X134759906Y-103700531D01*
X134754830Y-103680993D01*
X134749734Y-103661300D01*
X134744643Y-103641460D01*
X134739578Y-103621482D01*
X134734563Y-103601376D01*
X134729621Y-103581149D01*
X134724775Y-103560812D01*
X134720047Y-103540372D01*
X134715461Y-103519839D01*
X134711039Y-103499222D01*
X134706804Y-103478529D01*
X134702780Y-103457770D01*
X134698989Y-103436953D01*
X134695453Y-103416088D01*
X134692197Y-103395182D01*
X134689243Y-103374246D01*
X134686613Y-103353287D01*
X134684331Y-103332315D01*
X134682420Y-103311339D01*
X134680903Y-103290368D01*
X134679801Y-103269410D01*
X134679139Y-103248475D01*
X134678940Y-103227571D01*
X134679225Y-103206707D01*
X134680019Y-103185892D01*
X134681344Y-103165136D01*
X134683223Y-103144446D01*
X134685678Y-103123832D01*
X134688733Y-103103303D01*
X134692411Y-103082868D01*
X134696735Y-103062535D01*
X134701727Y-103042313D01*
X134707411Y-103022212D01*
X134713808Y-103002240D01*
X134720944Y-102982406D01*
X134728839Y-102962720D01*
X134737517Y-102943189D01*
X134747002Y-102923823D01*
X134757315Y-102904631D01*
X134768480Y-102885621D01*
X134780520Y-102866803D01*
X134793457Y-102848185D01*
X134807315Y-102829777D01*
X134822117Y-102811586D01*
X134837885Y-102793623D01*
X134854642Y-102775896D01*
X134872411Y-102758414D01*
X134891216Y-102741186D01*
X134911079Y-102724220D01*
X134932022Y-102707526D01*
X134954070Y-102691113D01*
X134977244Y-102674989D01*
X135001568Y-102659163D01*
X135027065Y-102643644D01*
X135053757Y-102628442D01*
X135081667Y-102613565D01*
X135110819Y-102599021D01*
X135122352Y-102572690D01*
X135133205Y-102551566D01*
X135146205Y-102532539D01*
X135161117Y-102515658D01*
X135177701Y-102500970D01*
X135195720Y-102488523D01*
X135214938Y-102478364D01*
X135235116Y-102470541D01*
X135256016Y-102465101D01*
X135277402Y-102462092D01*
X135299036Y-102461561D01*
X135320681Y-102463556D01*
X135342097Y-102468125D01*
X135363050Y-102475314D01*
X135383300Y-102485172D01*
X135402610Y-102497745D01*
X135420743Y-102513082D01*
X135435945Y-102509805D01*
X135452897Y-102506528D01*
X135471453Y-102503379D01*
X135491467Y-102500488D01*
X135512793Y-102497982D01*
X135535286Y-102495990D01*
X135558801Y-102494642D01*
X135583192Y-102494066D01*
X135608313Y-102494391D01*
X135634019Y-102495745D01*
X135660164Y-102498258D01*
X135686603Y-102502057D01*
X135713190Y-102507272D01*
X135739779Y-102514031D01*
X135766226Y-102522463D01*
X135792384Y-102532698D01*
X135818108Y-102544862D01*
X135843253Y-102559086D01*
X135867672Y-102575499D01*
X135891220Y-102594227D01*
X135989043Y-102522461D01*
X136215040Y-102522461D01*
X136217412Y-102544751D01*
X136220683Y-102566913D01*
X136224849Y-102588924D01*
X136229906Y-102610762D01*
X136387265Y-102396088D01*
X136215040Y-102522461D01*
X135989043Y-102522461D01*
X136658562Y-102031280D01*
X136672291Y-102023482D01*
X136687462Y-102019122D01*
X136687463Y-102019122D01*
X136708644Y-102018935D01*
X136727445Y-102024797D01*
G37*
D11*
X135740085Y-100866714D02*
X135755168Y-100866853D01*
X135770251Y-100867084D01*
X135785331Y-100867408D01*
X135800410Y-100867825D01*
X135815485Y-100868333D01*
X135830558Y-100868935D01*
X135845626Y-100869629D01*
X135860689Y-100870415D01*
X135875748Y-100871294D01*
X135890801Y-100872265D01*
X135905847Y-100873329D01*
X135920887Y-100874484D01*
X135935919Y-100875732D01*
X135950944Y-100877073D01*
X135965960Y-100878505D01*
X135980967Y-100880030D01*
X135995964Y-100881646D01*
X136010951Y-100883355D01*
X136025927Y-100885155D01*
X136040892Y-100887048D01*
X136055845Y-100889032D01*
X136070786Y-100891108D01*
X136085713Y-100893275D01*
X136100627Y-100895534D01*
X136115527Y-100897885D01*
X136130412Y-100900327D01*
X136145282Y-100902860D01*
X136160136Y-100905485D01*
X136174974Y-100908200D01*
X136189795Y-100911006D01*
X136204598Y-100913904D01*
X136219383Y-100916892D01*
X136234150Y-100919971D01*
X136248897Y-100923140D01*
X136263625Y-100926400D01*
X136278332Y-100929750D01*
X136293019Y-100933190D01*
X136307684Y-100936721D01*
X136322327Y-100940341D01*
X136336948Y-100944051D01*
X136351546Y-100947851D01*
X136366120Y-100951740D01*
X136380670Y-100955718D01*
X136395195Y-100959786D01*
X136409695Y-100963943D01*
X136424169Y-100968188D01*
X136438617Y-100972523D01*
X136453039Y-100976946D01*
X136467432Y-100981457D01*
X136481798Y-100986057D01*
X136496135Y-100990744D01*
X136510443Y-100995520D01*
X136524722Y-101000383D01*
X136538971Y-101005334D01*
X136553189Y-101010372D01*
X136567375Y-101015497D01*
X136581530Y-101020709D01*
X136595653Y-101026008D01*
X136609743Y-101031394D01*
X136623800Y-101036866D01*
X136637822Y-101042424D01*
X136651811Y-101048067D01*
X136665764Y-101053797D01*
X136679683Y-101059612D01*
X136693565Y-101065513D01*
X136707410Y-101071498D01*
X136721219Y-101077569D01*
X136734990Y-101083724D01*
X136748724Y-101089963D01*
X136762418Y-101096287D01*
X136776074Y-101102694D01*
X136789690Y-101109185D01*
X136803266Y-101115760D01*
X136816801Y-101122417D01*
X136830295Y-101129158D01*
X136843748Y-101135981D01*
X136857159Y-101142887D01*
X136870527Y-101149875D01*
X136883851Y-101156945D01*
X136897132Y-101164096D01*
X136910369Y-101171329D01*
X136923562Y-101178643D01*
X136936709Y-101186037D01*
X136949811Y-101193512D01*
X136962866Y-101201068D01*
X136975875Y-101208703D01*
X136988837Y-101216418D01*
X137001751Y-101224213D01*
X137014617Y-101232086D01*
X137027435Y-101240038D01*
X137040203Y-101248069D01*
X137052922Y-101256178D01*
X137065592Y-101264365D01*
X137078210Y-101272630D01*
X137090778Y-101280972D01*
X137103294Y-101289390D01*
X137115758Y-101297886D01*
X137128170Y-101306457D01*
X137140529Y-101315105D01*
X137152835Y-101323828D01*
X137165087Y-101332627D01*
X137177285Y-101341501D01*
X137189428Y-101350449D01*
X137201516Y-101359472D01*
X137213549Y-101368569D01*
X137225525Y-101377739D01*
X137237445Y-101386983D01*
X137249308Y-101396299D01*
X137261114Y-101405689D01*
X137272862Y-101415150D01*
X137284551Y-101424684D01*
X137296182Y-101434289D01*
X137307753Y-101443965D01*
X137319266Y-101453712D01*
X137330718Y-101463529D01*
X137342109Y-101473417D01*
X137353440Y-101483374D01*
X137364709Y-101493401D01*
X137375917Y-101503496D01*
X137387062Y-101513660D01*
X137398145Y-101523893D01*
X137409165Y-101534193D01*
X137420121Y-101544560D01*
X137431014Y-101554995D01*
X137441843Y-101565496D01*
X137452606Y-101576064D01*
X137463305Y-101586697D01*
X137473938Y-101597396D01*
X137484506Y-101608159D01*
X137495007Y-101618988D01*
X137505442Y-101629880D01*
X137515809Y-101640837D01*
X137526109Y-101651857D01*
X137536342Y-101662940D01*
X137546506Y-101674085D01*
X137556601Y-101685293D01*
X137566628Y-101696562D01*
X137576585Y-101707893D01*
X137586473Y-101719284D01*
X137596290Y-101730736D01*
X137606037Y-101742248D01*
X137615713Y-101753820D01*
X137625318Y-101765451D01*
X137634852Y-101777140D01*
X137644313Y-101788888D01*
X137653703Y-101800694D01*
X137663019Y-101812557D01*
X137672263Y-101824477D01*
X137681433Y-101836453D01*
X137690530Y-101848485D01*
X137699553Y-101860574D01*
X137708501Y-101872717D01*
X137717375Y-101884915D01*
X137726174Y-101897167D01*
X137734897Y-101909473D01*
X137743545Y-101921832D01*
X137752116Y-101934244D01*
X137760612Y-101946708D01*
X137769030Y-101959224D01*
X137777372Y-101971792D01*
X137785637Y-101984410D01*
X137793824Y-101997079D01*
X137801933Y-102009798D01*
X137809963Y-102022567D01*
X137817916Y-102035385D01*
X137825789Y-102048251D01*
X137833584Y-102061165D01*
X137841299Y-102074127D01*
X137848934Y-102087136D01*
X137856490Y-102100191D01*
X137863965Y-102113293D01*
X137871359Y-102126440D01*
X137878673Y-102139633D01*
X137885906Y-102152870D01*
X137893057Y-102166151D01*
X137900127Y-102179475D01*
X137907115Y-102192843D01*
X137914021Y-102206254D01*
X137920844Y-102219706D01*
X137927585Y-102233201D01*
X137934242Y-102246736D01*
X137940817Y-102260312D01*
X137947308Y-102273928D01*
X137953715Y-102287584D01*
X137960039Y-102301278D01*
X137966278Y-102315012D01*
X137972433Y-102328783D01*
X137978504Y-102342591D01*
X137984489Y-102356437D01*
X137990390Y-102370319D01*
X137996205Y-102384238D01*
X138001934Y-102398191D01*
X138007578Y-102412180D01*
X138013136Y-102426202D01*
X138018608Y-102440259D01*
X138023994Y-102454349D01*
X138029293Y-102468472D01*
X138034505Y-102482627D01*
X138039630Y-102496813D01*
X138044668Y-102511031D01*
X138049619Y-102525280D01*
X138054482Y-102539558D01*
X138059258Y-102553867D01*
X138063945Y-102568204D01*
X138068545Y-102582570D01*
X138073056Y-102596963D01*
X138077479Y-102611384D01*
X138081814Y-102625832D01*
X138086059Y-102640307D01*
X138090216Y-102654807D01*
X138094284Y-102669332D01*
X138098262Y-102683882D01*
X138102151Y-102698456D01*
X138105951Y-102713054D01*
X138109661Y-102727675D01*
X138113281Y-102742318D01*
X138116812Y-102756983D01*
X138120252Y-102771670D01*
X138123602Y-102786377D01*
X138126862Y-102801105D01*
X138130031Y-102815852D01*
X138133110Y-102830619D01*
X138136098Y-102845404D01*
X138138995Y-102860207D01*
X138141802Y-102875028D01*
X138144517Y-102889866D01*
X138147142Y-102904720D01*
X138149675Y-102919590D01*
X138152117Y-102934475D01*
X138154467Y-102949375D01*
X138156727Y-102964289D01*
X138158894Y-102979216D01*
X138160970Y-102994157D01*
X138162954Y-103009110D01*
X138164846Y-103024075D01*
X138166647Y-103039051D01*
X138168356Y-103054038D01*
X138169972Y-103069035D01*
X138171497Y-103084042D01*
X138172929Y-103099058D01*
X138174269Y-103114083D01*
X138175518Y-103129115D01*
X138176673Y-103144155D01*
X138177737Y-103159201D01*
X138178708Y-103174254D01*
X138179587Y-103189313D01*
X138180373Y-103204376D01*
X138181067Y-103219444D01*
X138181668Y-103234517D01*
X138182177Y-103249592D01*
X138182594Y-103264670D01*
X138182918Y-103279751D01*
X138183149Y-103294833D01*
X138183288Y-103309917D01*
X138183334Y-103325001D01*
X138183288Y-103340085D01*
X138183149Y-103355168D01*
X138182918Y-103370251D01*
X138182594Y-103385331D01*
X138182177Y-103400410D01*
X138181668Y-103415485D01*
X138181067Y-103430558D01*
X138180373Y-103445626D01*
X138179587Y-103460689D01*
X138178708Y-103475748D01*
X138177737Y-103490801D01*
X138176673Y-103505847D01*
X138175518Y-103520887D01*
X138174269Y-103535919D01*
X138172929Y-103550944D01*
X138171497Y-103565960D01*
X138169972Y-103580967D01*
X138168356Y-103595964D01*
X138166647Y-103610951D01*
X138164846Y-103625927D01*
X138162954Y-103640892D01*
X138160970Y-103655845D01*
X138158894Y-103670786D01*
X138156727Y-103685713D01*
X138154467Y-103700627D01*
X138152117Y-103715527D01*
X138149675Y-103730412D01*
X138147142Y-103745282D01*
X138144517Y-103760136D01*
X138141802Y-103774974D01*
X138138995Y-103789795D01*
X138136098Y-103804598D01*
X138133110Y-103819383D01*
X138130031Y-103834150D01*
X138126862Y-103848897D01*
X138123602Y-103863625D01*
X138120252Y-103878332D01*
X138116812Y-103893019D01*
X138113281Y-103907684D01*
X138109661Y-103922327D01*
X138105951Y-103936948D01*
X138102151Y-103951546D01*
X138098262Y-103966120D01*
X138094284Y-103980670D01*
X138090216Y-103995195D01*
X138086059Y-104009695D01*
X138081814Y-104024169D01*
X138077479Y-104038617D01*
X138073056Y-104053039D01*
X138068545Y-104067432D01*
X138063945Y-104081798D01*
X138059258Y-104096135D01*
X138054482Y-104110443D01*
X138049619Y-104124722D01*
X138044668Y-104138971D01*
X138039630Y-104153189D01*
X138034505Y-104167375D01*
X138029293Y-104181530D01*
X138023994Y-104195653D01*
X138018608Y-104209743D01*
X138013136Y-104223800D01*
X138007578Y-104237822D01*
X138001934Y-104251811D01*
X137996205Y-104265764D01*
X137990390Y-104279683D01*
X137984489Y-104293565D01*
X137978504Y-104307410D01*
X137972433Y-104321219D01*
X137966278Y-104334990D01*
X137960039Y-104348724D01*
X137953715Y-104362418D01*
X137947308Y-104376074D01*
X137940817Y-104389690D01*
X137934242Y-104403266D01*
X137927585Y-104416801D01*
X137920844Y-104430295D01*
X137914021Y-104443748D01*
X137907115Y-104457159D01*
X137900127Y-104470527D01*
X137893057Y-104483851D01*
X137885906Y-104497132D01*
X137878673Y-104510369D01*
X137871359Y-104523562D01*
X137863965Y-104536709D01*
X137856490Y-104549811D01*
X137848934Y-104562866D01*
X137841299Y-104575875D01*
X137833584Y-104588837D01*
X137825789Y-104601751D01*
X137817916Y-104614617D01*
X137809963Y-104627435D01*
X137801933Y-104640203D01*
X137793824Y-104652922D01*
X137785637Y-104665592D01*
X137777372Y-104678210D01*
X137769030Y-104690778D01*
X137760612Y-104703294D01*
X137752116Y-104715758D01*
X137743545Y-104728170D01*
X137734897Y-104740529D01*
X137726174Y-104752835D01*
X137717375Y-104765087D01*
X137708501Y-104777285D01*
X137699553Y-104789428D01*
X137690530Y-104801516D01*
X137681433Y-104813549D01*
X137672263Y-104825525D01*
X137663019Y-104837445D01*
X137653703Y-104849308D01*
X137644313Y-104861114D01*
X137634852Y-104872862D01*
X137625318Y-104884551D01*
X137615713Y-104896182D01*
X137606037Y-104907753D01*
X137596290Y-104919266D01*
X137586473Y-104930718D01*
X137576585Y-104942109D01*
X137566628Y-104953440D01*
X137556601Y-104964709D01*
X137546506Y-104975917D01*
X137536342Y-104987062D01*
X137526109Y-104998145D01*
X137515809Y-105009165D01*
X137505442Y-105020121D01*
X137495007Y-105031014D01*
X137484506Y-105041843D01*
X137473938Y-105052606D01*
X137463305Y-105063305D01*
X137452606Y-105073938D01*
X137441843Y-105084506D01*
X137431014Y-105095007D01*
X137420121Y-105105442D01*
X137409165Y-105115809D01*
X137398145Y-105126109D01*
X137387062Y-105136342D01*
X137375917Y-105146506D01*
X137364709Y-105156601D01*
X137353440Y-105166628D01*
X137342109Y-105176585D01*
X137330718Y-105186473D01*
X137319266Y-105196290D01*
X137307753Y-105206037D01*
X137296182Y-105215713D01*
X137284551Y-105225318D01*
X137272862Y-105234852D01*
X137261114Y-105244313D01*
X137249308Y-105253703D01*
X137237445Y-105263019D01*
X137225525Y-105272263D01*
X137213549Y-105281433D01*
X137201516Y-105290530D01*
X137189428Y-105299553D01*
X137177285Y-105308501D01*
X137165087Y-105317375D01*
X137152835Y-105326174D01*
X137140529Y-105334897D01*
X137128170Y-105343545D01*
X137115758Y-105352116D01*
X137103294Y-105360612D01*
X137090778Y-105369030D01*
X137078210Y-105377372D01*
X137065592Y-105385637D01*
X137052922Y-105393824D01*
X137040203Y-105401933D01*
X137027435Y-105409963D01*
X137014617Y-105417916D01*
X137001751Y-105425789D01*
X136988837Y-105433584D01*
X136975875Y-105441299D01*
X136962866Y-105448934D01*
X136949811Y-105456490D01*
X136936709Y-105463965D01*
X136923562Y-105471359D01*
X136910369Y-105478673D01*
X136897132Y-105485906D01*
X136883851Y-105493057D01*
X136870527Y-105500127D01*
X136857159Y-105507115D01*
X136843748Y-105514021D01*
X136830295Y-105520844D01*
X136816801Y-105527585D01*
X136803266Y-105534242D01*
X136789690Y-105540817D01*
X136776074Y-105547308D01*
X136762418Y-105553715D01*
X136748724Y-105560039D01*
X136734990Y-105566278D01*
X136721219Y-105572433D01*
X136707410Y-105578504D01*
X136693565Y-105584489D01*
X136679683Y-105590390D01*
X136665764Y-105596205D01*
X136651811Y-105601934D01*
X136637822Y-105607578D01*
X136623800Y-105613136D01*
X136609743Y-105618608D01*
X136595653Y-105623994D01*
X136581530Y-105629293D01*
X136567375Y-105634505D01*
X136553189Y-105639630D01*
X136538971Y-105644668D01*
X136524722Y-105649619D01*
X136510443Y-105654482D01*
X136496135Y-105659258D01*
X136481798Y-105663945D01*
X136467432Y-105668545D01*
X136453039Y-105673056D01*
X136438617Y-105677479D01*
X136424169Y-105681814D01*
X136409695Y-105686059D01*
X136395195Y-105690216D01*
X136380670Y-105694284D01*
X136366120Y-105698262D01*
X136351546Y-105702151D01*
X136336948Y-105705951D01*
X136322327Y-105709661D01*
X136307684Y-105713281D01*
X136293019Y-105716812D01*
X136278332Y-105720252D01*
X136263625Y-105723602D01*
X136248897Y-105726862D01*
X136234150Y-105730031D01*
X136219383Y-105733110D01*
X136204598Y-105736098D01*
X136189795Y-105738995D01*
X136174974Y-105741802D01*
X136160136Y-105744517D01*
X136145282Y-105747142D01*
X136130412Y-105749675D01*
X136115527Y-105752117D01*
X136100627Y-105754467D01*
X136085713Y-105756727D01*
X136070786Y-105758894D01*
X136055845Y-105760970D01*
X136040892Y-105762954D01*
X136025927Y-105764846D01*
X136010951Y-105766647D01*
X135995964Y-105768356D01*
X135980967Y-105769972D01*
X135965960Y-105771497D01*
X135950944Y-105772929D01*
X135935919Y-105774269D01*
X135920887Y-105775518D01*
X135905847Y-105776673D01*
X135890801Y-105777737D01*
X135875748Y-105778708D01*
X135860689Y-105779587D01*
X135845626Y-105780373D01*
X135830558Y-105781067D01*
X135815485Y-105781668D01*
X135800410Y-105782177D01*
X135785331Y-105782594D01*
X135770251Y-105782918D01*
X135755168Y-105783149D01*
X135740085Y-105783288D01*
X135725001Y-105783334D01*
X135709917Y-105783288D01*
X135694833Y-105783149D01*
X135679751Y-105782918D01*
X135664670Y-105782594D01*
X135649592Y-105782177D01*
X135634517Y-105781668D01*
X135619444Y-105781067D01*
X135604376Y-105780373D01*
X135589313Y-105779587D01*
X135574254Y-105778708D01*
X135559201Y-105777737D01*
X135544155Y-105776673D01*
X135529115Y-105775518D01*
X135514083Y-105774269D01*
X135499058Y-105772929D01*
X135484042Y-105771497D01*
X135469035Y-105769972D01*
X135454038Y-105768356D01*
X135439051Y-105766647D01*
X135424075Y-105764846D01*
X135409110Y-105762954D01*
X135394157Y-105760970D01*
X135379216Y-105758894D01*
X135364289Y-105756727D01*
X135349375Y-105754467D01*
X135334475Y-105752117D01*
X135319590Y-105749675D01*
X135304720Y-105747142D01*
X135289866Y-105744517D01*
X135275028Y-105741802D01*
X135260207Y-105738995D01*
X135245404Y-105736098D01*
X135230619Y-105733110D01*
X135215852Y-105730031D01*
X135201105Y-105726862D01*
X135186377Y-105723602D01*
X135171670Y-105720252D01*
X135156983Y-105716812D01*
X135142318Y-105713281D01*
X135127675Y-105709661D01*
X135113054Y-105705951D01*
X135098456Y-105702151D01*
X135083882Y-105698262D01*
X135069332Y-105694284D01*
X135054807Y-105690216D01*
X135040307Y-105686059D01*
X135025832Y-105681814D01*
X135011384Y-105677479D01*
X134996963Y-105673056D01*
X134982570Y-105668545D01*
X134968204Y-105663945D01*
X134953867Y-105659258D01*
X134939558Y-105654482D01*
X134925280Y-105649619D01*
X134911031Y-105644668D01*
X134896813Y-105639630D01*
X134882627Y-105634505D01*
X134868472Y-105629293D01*
X134854349Y-105623994D01*
X134840259Y-105618608D01*
X134826202Y-105613136D01*
X134812180Y-105607578D01*
X134798191Y-105601934D01*
X134784238Y-105596205D01*
X134770319Y-105590390D01*
X134756437Y-105584489D01*
X134742591Y-105578504D01*
X134728783Y-105572433D01*
X134715012Y-105566278D01*
X134701278Y-105560039D01*
X134687584Y-105553715D01*
X134673928Y-105547308D01*
X134660312Y-105540817D01*
X134646736Y-105534242D01*
X134633201Y-105527585D01*
X134619706Y-105520844D01*
X134606254Y-105514021D01*
X134592843Y-105507115D01*
X134579475Y-105500127D01*
X134566151Y-105493057D01*
X134552870Y-105485906D01*
X134539633Y-105478673D01*
X134526440Y-105471359D01*
X134513293Y-105463965D01*
X134500191Y-105456490D01*
X134487136Y-105448934D01*
X134474127Y-105441299D01*
X134461165Y-105433584D01*
X134448251Y-105425789D01*
X134435385Y-105417916D01*
X134422567Y-105409963D01*
X134409798Y-105401933D01*
X134397079Y-105393824D01*
X134384410Y-105385637D01*
X134371792Y-105377372D01*
X134359224Y-105369030D01*
X134346708Y-105360612D01*
X134334244Y-105352116D01*
X134321832Y-105343545D01*
X134309473Y-105334897D01*
X134297167Y-105326174D01*
X134284915Y-105317375D01*
X134272717Y-105308501D01*
X134260574Y-105299553D01*
X134248485Y-105290530D01*
X134236453Y-105281433D01*
X134224477Y-105272263D01*
X134212557Y-105263019D01*
X134200694Y-105253703D01*
X134188888Y-105244313D01*
X134177140Y-105234852D01*
X134165451Y-105225318D01*
X134153820Y-105215713D01*
X134142248Y-105206037D01*
X134130736Y-105196290D01*
X134119284Y-105186473D01*
X134107893Y-105176585D01*
X134096562Y-105166628D01*
X134085293Y-105156601D01*
X134074085Y-105146506D01*
X134062940Y-105136342D01*
X134051857Y-105126109D01*
X134040837Y-105115809D01*
X134029880Y-105105442D01*
X134018988Y-105095007D01*
X134008159Y-105084506D01*
X133997396Y-105073938D01*
X133986697Y-105063305D01*
X133976064Y-105052606D01*
X133965496Y-105041843D01*
X133954995Y-105031014D01*
X133944560Y-105020121D01*
X133934193Y-105009165D01*
X133923893Y-104998145D01*
X133913660Y-104987062D01*
X133903496Y-104975917D01*
X133893401Y-104964709D01*
X133883374Y-104953440D01*
X133873417Y-104942109D01*
X133863529Y-104930718D01*
X133853712Y-104919266D01*
X133843965Y-104907753D01*
X133834289Y-104896182D01*
X133824684Y-104884551D01*
X133815150Y-104872862D01*
X133805689Y-104861114D01*
X133796299Y-104849308D01*
X133786983Y-104837445D01*
X133777739Y-104825525D01*
X133768569Y-104813549D01*
X133759472Y-104801516D01*
X133750449Y-104789428D01*
X133741501Y-104777285D01*
X133732627Y-104765087D01*
X133723828Y-104752835D01*
X133715105Y-104740529D01*
X133706457Y-104728170D01*
X133697886Y-104715758D01*
X133689390Y-104703294D01*
X133680972Y-104690778D01*
X133672630Y-104678210D01*
X133664365Y-104665592D01*
X133656178Y-104652922D01*
X133648069Y-104640203D01*
X133640038Y-104627435D01*
X133632086Y-104614617D01*
X133624213Y-104601751D01*
X133616418Y-104588837D01*
X133608703Y-104575875D01*
X133601068Y-104562866D01*
X133593512Y-104549811D01*
X133586037Y-104536709D01*
X133578643Y-104523562D01*
X133571329Y-104510369D01*
X133564096Y-104497132D01*
X133556945Y-104483851D01*
X133549875Y-104470527D01*
X133542887Y-104457159D01*
X133535981Y-104443748D01*
X133529158Y-104430295D01*
X133522417Y-104416801D01*
X133515760Y-104403266D01*
X133509185Y-104389690D01*
X133502694Y-104376074D01*
X133496287Y-104362418D01*
X133489963Y-104348724D01*
X133483724Y-104334990D01*
X133477569Y-104321219D01*
X133471498Y-104307410D01*
X133465513Y-104293565D01*
X133459612Y-104279683D01*
X133453797Y-104265764D01*
X133448067Y-104251811D01*
X133442424Y-104237822D01*
X133436866Y-104223800D01*
X133431394Y-104209743D01*
X133426008Y-104195653D01*
X133420709Y-104181530D01*
X133415497Y-104167375D01*
X133410372Y-104153189D01*
X133405334Y-104138971D01*
X133400383Y-104124722D01*
X133395520Y-104110443D01*
X133390744Y-104096135D01*
X133386057Y-104081798D01*
X133381457Y-104067432D01*
X133376946Y-104053039D01*
X133372523Y-104038617D01*
X133368188Y-104024169D01*
X133363943Y-104009695D01*
X133359786Y-103995195D01*
X133355718Y-103980670D01*
X133351740Y-103966120D01*
X133347851Y-103951546D01*
X133344051Y-103936948D01*
X133340341Y-103922327D01*
X133336721Y-103907684D01*
X133333190Y-103893019D01*
X133329750Y-103878332D01*
X133326400Y-103863625D01*
X133323140Y-103848897D01*
X133319971Y-103834150D01*
X133316892Y-103819383D01*
X133313904Y-103804598D01*
X133311006Y-103789795D01*
X133308200Y-103774974D01*
X133305485Y-103760136D01*
X133302860Y-103745282D01*
X133300327Y-103730412D01*
X133297885Y-103715527D01*
X133295534Y-103700627D01*
X133293275Y-103685713D01*
X133291108Y-103670786D01*
X133289032Y-103655845D01*
X133287048Y-103640892D01*
X133285155Y-103625927D01*
X133283355Y-103610951D01*
X133281646Y-103595964D01*
X133280030Y-103580967D01*
X133278505Y-103565960D01*
X133277073Y-103550944D01*
X133275732Y-103535919D01*
X133274484Y-103520887D01*
X133273329Y-103505847D01*
X133272265Y-103490801D01*
X133271294Y-103475748D01*
X133270415Y-103460689D01*
X133269629Y-103445626D01*
X133268935Y-103430558D01*
X133268333Y-103415485D01*
X133267825Y-103400410D01*
X133267408Y-103385331D01*
X133267084Y-103370251D01*
X133266853Y-103355168D01*
X133266714Y-103340085D01*
X133266668Y-103325001D01*
X133266714Y-103309917D01*
X133266853Y-103294833D01*
X133267084Y-103279751D01*
X133267408Y-103264670D01*
X133267825Y-103249592D01*
X133268333Y-103234517D01*
X133268935Y-103219444D01*
X133269629Y-103204376D01*
X133270415Y-103189313D01*
X133271294Y-103174254D01*
X133272265Y-103159201D01*
X133273329Y-103144155D01*
X133274484Y-103129115D01*
X133275732Y-103114083D01*
X133277073Y-103099058D01*
X133278505Y-103084042D01*
X133280030Y-103069035D01*
X133281646Y-103054038D01*
X133283355Y-103039051D01*
X133285155Y-103024075D01*
X133287048Y-103009110D01*
X133289032Y-102994157D01*
X133291108Y-102979216D01*
X133293275Y-102964289D01*
X133295534Y-102949375D01*
X133297885Y-102934475D01*
X133300327Y-102919590D01*
X133302860Y-102904720D01*
X133305485Y-102889866D01*
X133308200Y-102875028D01*
X133311006Y-102860207D01*
X133313904Y-102845404D01*
X133316892Y-102830619D01*
X133319971Y-102815852D01*
X133323140Y-102801105D01*
X133326400Y-102786377D01*
X133329750Y-102771670D01*
X133333190Y-102756983D01*
X133336721Y-102742318D01*
X133340341Y-102727675D01*
X133344051Y-102713054D01*
X133347851Y-102698456D01*
X133351740Y-102683882D01*
X133355718Y-102669332D01*
X133359786Y-102654807D01*
X133363943Y-102640307D01*
X133368188Y-102625832D01*
X133372523Y-102611384D01*
X133376946Y-102596963D01*
X133381457Y-102582570D01*
X133386057Y-102568204D01*
X133390744Y-102553867D01*
X133395520Y-102539558D01*
X133400383Y-102525280D01*
X133405334Y-102511031D01*
X133410372Y-102496813D01*
X133415497Y-102482627D01*
X133420709Y-102468472D01*
X133426008Y-102454349D01*
X133431394Y-102440259D01*
X133436866Y-102426202D01*
X133442424Y-102412180D01*
X133448067Y-102398191D01*
X133453797Y-102384238D01*
X133459612Y-102370319D01*
X133465513Y-102356437D01*
X133471498Y-102342591D01*
X133477569Y-102328783D01*
X133483724Y-102315012D01*
X133489963Y-102301278D01*
X133496287Y-102287584D01*
X133502694Y-102273928D01*
X133509185Y-102260312D01*
X133515760Y-102246736D01*
X133522417Y-102233201D01*
X133529158Y-102219706D01*
X133535981Y-102206254D01*
X133542887Y-102192843D01*
X133549875Y-102179475D01*
X133556945Y-102166151D01*
X133564096Y-102152870D01*
X133571329Y-102139633D01*
X133578643Y-102126440D01*
X133586037Y-102113293D01*
X133593512Y-102100191D01*
X133601068Y-102087136D01*
X133608703Y-102074127D01*
X133616418Y-102061165D01*
X133624213Y-102048251D01*
X133632086Y-102035385D01*
X133640038Y-102022567D01*
X133648069Y-102009798D01*
X133656178Y-101997079D01*
X133664365Y-101984410D01*
X133672630Y-101971792D01*
X133680972Y-101959224D01*
X133689390Y-101946708D01*
X133697886Y-101934244D01*
X133706457Y-101921832D01*
X133715105Y-101909473D01*
X133723828Y-101897167D01*
X133732627Y-101884915D01*
X133741501Y-101872717D01*
X133750449Y-101860574D01*
X133759472Y-101848485D01*
X133768569Y-101836453D01*
X133777739Y-101824477D01*
X133786983Y-101812557D01*
X133796299Y-101800694D01*
X133805689Y-101788888D01*
X133815150Y-101777140D01*
X133824684Y-101765451D01*
X133834289Y-101753820D01*
X133843965Y-101742248D01*
X133853712Y-101730736D01*
X133863529Y-101719284D01*
X133873417Y-101707893D01*
X133883374Y-101696562D01*
X133893401Y-101685293D01*
X133903496Y-101674085D01*
X133913660Y-101662940D01*
X133923893Y-101651857D01*
X133934193Y-101640837D01*
X133944560Y-101629880D01*
X133954995Y-101618988D01*
X133965496Y-101608159D01*
X133976064Y-101597396D01*
X133986697Y-101586697D01*
X133997396Y-101576064D01*
X134008159Y-101565496D01*
X134018988Y-101554995D01*
X134029880Y-101544560D01*
X134040837Y-101534193D01*
X134051857Y-101523893D01*
X134062940Y-101513660D01*
X134074085Y-101503496D01*
X134085293Y-101493401D01*
X134096562Y-101483374D01*
X134107893Y-101473417D01*
X134119284Y-101463529D01*
X134130736Y-101453712D01*
X134142248Y-101443965D01*
X134153820Y-101434289D01*
X134165451Y-101424684D01*
X134177140Y-101415150D01*
X134188888Y-101405689D01*
X134200694Y-101396299D01*
X134212557Y-101386983D01*
X134224477Y-101377739D01*
X134236453Y-101368569D01*
X134248485Y-101359472D01*
X134260574Y-101350449D01*
X134272717Y-101341501D01*
X134284915Y-101332627D01*
X134297167Y-101323828D01*
X134309473Y-101315105D01*
X134321832Y-101306457D01*
X134334244Y-101297886D01*
X134346708Y-101289390D01*
X134359224Y-101280972D01*
X134371792Y-101272630D01*
X134384410Y-101264365D01*
X134397079Y-101256178D01*
X134409798Y-101248069D01*
X134422567Y-101240038D01*
X134435385Y-101232086D01*
X134448251Y-101224213D01*
X134461165Y-101216418D01*
X134474127Y-101208703D01*
X134487136Y-101201068D01*
X134500191Y-101193512D01*
X134513293Y-101186037D01*
X134526440Y-101178643D01*
X134539633Y-101171329D01*
X134552870Y-101164096D01*
X134566151Y-101156945D01*
X134579475Y-101149875D01*
X134592843Y-101142887D01*
X134606254Y-101135981D01*
X134619706Y-101129158D01*
X134633201Y-101122417D01*
X134646736Y-101115760D01*
X134660312Y-101109185D01*
X134673928Y-101102694D01*
X134687584Y-101096287D01*
X134701278Y-101089963D01*
X134715012Y-101083724D01*
X134728783Y-101077569D01*
X134742591Y-101071498D01*
X134756437Y-101065513D01*
X134770319Y-101059612D01*
X134784238Y-101053797D01*
X134798191Y-101048067D01*
X134812180Y-101042424D01*
X134826202Y-101036866D01*
X134840259Y-101031394D01*
X134854349Y-101026008D01*
X134868472Y-101020709D01*
X134882627Y-101015497D01*
X134896813Y-101010372D01*
X134911031Y-101005334D01*
X134925280Y-101000383D01*
X134939558Y-100995520D01*
X134953867Y-100990744D01*
X134968204Y-100986057D01*
X134982570Y-100981457D01*
X134996963Y-100976946D01*
X135011384Y-100972523D01*
X135025832Y-100968188D01*
X135040307Y-100963943D01*
X135054807Y-100959786D01*
X135069332Y-100955718D01*
X135083882Y-100951740D01*
X135098456Y-100947851D01*
X135113054Y-100944051D01*
X135127675Y-100940341D01*
X135142318Y-100936721D01*
X135156983Y-100933190D01*
X135171670Y-100929750D01*
X135186377Y-100926400D01*
X135201105Y-100923140D01*
X135215852Y-100919971D01*
X135230619Y-100916892D01*
X135245404Y-100913904D01*
X135260207Y-100911006D01*
X135275028Y-100908200D01*
X135289866Y-100905485D01*
X135304720Y-100902860D01*
X135319590Y-100900327D01*
X135334475Y-100897885D01*
X135349375Y-100895534D01*
X135364289Y-100893275D01*
X135379216Y-100891108D01*
X135394157Y-100889032D01*
X135409110Y-100887048D01*
X135424075Y-100885155D01*
X135439051Y-100883355D01*
X135454038Y-100881646D01*
X135469035Y-100880030D01*
X135484042Y-100878505D01*
X135499058Y-100877073D01*
X135514083Y-100875732D01*
X135529115Y-100874484D01*
X135544155Y-100873329D01*
X135559201Y-100872265D01*
X135574254Y-100871294D01*
X135589313Y-100870415D01*
X135604376Y-100869629D01*
X135619444Y-100868935D01*
X135634517Y-100868333D01*
X135649592Y-100867825D01*
X135664670Y-100867408D01*
X135679751Y-100867084D01*
X135694833Y-100866853D01*
X135709917Y-100866714D01*
X135725001Y-100866668D01*
X135740085Y-100866714D01*
%TD*%
D12*
%TO.C,SW1*%
X116800000Y-107250000D03*
X123300000Y-107250000D03*
X116800000Y-111750000D03*
X123300000Y-111750000D03*
%TD*%
D13*
%TO.C,D5*%
X134725000Y-79000000D03*
D14*
X137265000Y-79000000D03*
%TD*%
D13*
%TO.C,D2*%
X102725000Y-95000000D03*
D14*
X105265000Y-95000000D03*
%TD*%
D13*
%TO.C,D3*%
X134725000Y-95000000D03*
D14*
X137265000Y-95000000D03*
%TD*%
D13*
%TO.C,D7*%
X134725000Y-111000000D03*
D14*
X137265000Y-111000000D03*
%TD*%
D13*
%TO.C,D8*%
X118725000Y-95000000D03*
D14*
X121265000Y-95000000D03*
%TD*%
D13*
%TO.C,D4*%
X102725000Y-111000000D03*
D14*
X105265000Y-111000000D03*
%TD*%
D13*
%TO.C,D6*%
X102725000Y-79000000D03*
D14*
X105265000Y-79000000D03*
%TD*%
D15*
%TO.C,J3*%
X130000000Y-106000000D03*
D16*
X130000000Y-108540000D03*
X130000000Y-111080000D03*
%TD*%
D12*
%TO.C,R7*%
X119630000Y-102500000D03*
X127250000Y-102500000D03*
%TD*%
D15*
%TO.C,J5*%
X110000000Y-78000000D03*
D16*
X112540000Y-78000000D03*
X115080000Y-78000000D03*
X117620000Y-78000000D03*
X120160000Y-78000000D03*
X122700000Y-78000000D03*
%TD*%
D13*
%TO.C,SW2*%
X114750000Y-95000000D03*
D14*
X112210000Y-95000000D03*
%TD*%
D12*
%TO.C,R8*%
X117500000Y-86500000D03*
X125120000Y-86500000D03*
%TD*%
%TO.C,R6*%
X117440000Y-89750000D03*
X125060000Y-89750000D03*
%TD*%
%TO.C,R9*%
X119870000Y-81500000D03*
X112250000Y-81500000D03*
%TD*%
M02*
