%TF.GenerationSoftware,KiCad,Pcbnew,9.0.7*%
%TF.CreationDate,2026-01-25T23:07:14+01:00*%
%TF.ProjectId,DiceDIP_UpperPart,44696365-4449-4505-9f55-707065725061,rev?*%
%TF.SameCoordinates,Original*%
%TF.FileFunction,Legend,Bot*%
%TF.FilePolarity,Positive*%
%FSLAX46Y46*%
G04 Gerber Fmt 4.6, Leading zero omitted, Abs format (unit mm)*
G04 Created by KiCad (PCBNEW 9.0.7) date 2026-01-25 23:07:14*
%MOMM*%
%LPD*%
G01*
G04 APERTURE LIST*
%ADD10C,0.150000*%
%ADD11C,0.120000*%
G04 APERTURE END LIST*
D10*
X130333333Y-103074819D02*
X130333333Y-103789104D01*
X130333333Y-103789104D02*
X130380952Y-103931961D01*
X130380952Y-103931961D02*
X130476190Y-104027200D01*
X130476190Y-104027200D02*
X130619047Y-104074819D01*
X130619047Y-104074819D02*
X130714285Y-104074819D01*
X129952380Y-103074819D02*
X129333333Y-103074819D01*
X129333333Y-103074819D02*
X129666666Y-103455771D01*
X129666666Y-103455771D02*
X129523809Y-103455771D01*
X129523809Y-103455771D02*
X129428571Y-103503390D01*
X129428571Y-103503390D02*
X129380952Y-103551009D01*
X129380952Y-103551009D02*
X129333333Y-103646247D01*
X129333333Y-103646247D02*
X129333333Y-103884342D01*
X129333333Y-103884342D02*
X129380952Y-103979580D01*
X129380952Y-103979580D02*
X129428571Y-104027200D01*
X129428571Y-104027200D02*
X129523809Y-104074819D01*
X129523809Y-104074819D02*
X129809523Y-104074819D01*
X129809523Y-104074819D02*
X129904761Y-104027200D01*
X129904761Y-104027200D02*
X129952380Y-103979580D01*
X125366666Y-102954819D02*
X125699999Y-102478628D01*
X125938094Y-102954819D02*
X125938094Y-101954819D01*
X125938094Y-101954819D02*
X125557142Y-101954819D01*
X125557142Y-101954819D02*
X125461904Y-102002438D01*
X125461904Y-102002438D02*
X125414285Y-102050057D01*
X125414285Y-102050057D02*
X125366666Y-102145295D01*
X125366666Y-102145295D02*
X125366666Y-102288152D01*
X125366666Y-102288152D02*
X125414285Y-102383390D01*
X125414285Y-102383390D02*
X125461904Y-102431009D01*
X125461904Y-102431009D02*
X125557142Y-102478628D01*
X125557142Y-102478628D02*
X125938094Y-102478628D01*
X125033332Y-101954819D02*
X124366666Y-101954819D01*
X124366666Y-101954819D02*
X124795237Y-102954819D01*
X122795238Y-102954819D02*
X123366666Y-102954819D01*
X123080952Y-102954819D02*
X123080952Y-101954819D01*
X123080952Y-101954819D02*
X123176190Y-102097676D01*
X123176190Y-102097676D02*
X123271428Y-102192914D01*
X123271428Y-102192914D02*
X123366666Y-102240533D01*
X122366666Y-102954819D02*
X122366666Y-101954819D01*
X122271428Y-102573866D02*
X121985714Y-102954819D01*
X121985714Y-102288152D02*
X122366666Y-102669104D01*
X121414285Y-102383390D02*
X121509523Y-102335771D01*
X121509523Y-102335771D02*
X121557142Y-102288152D01*
X121557142Y-102288152D02*
X121604761Y-102192914D01*
X121604761Y-102192914D02*
X121604761Y-102145295D01*
X121604761Y-102145295D02*
X121557142Y-102050057D01*
X121557142Y-102050057D02*
X121509523Y-102002438D01*
X121509523Y-102002438D02*
X121414285Y-101954819D01*
X121414285Y-101954819D02*
X121223809Y-101954819D01*
X121223809Y-101954819D02*
X121128571Y-102002438D01*
X121128571Y-102002438D02*
X121080952Y-102050057D01*
X121080952Y-102050057D02*
X121033333Y-102145295D01*
X121033333Y-102145295D02*
X121033333Y-102192914D01*
X121033333Y-102192914D02*
X121080952Y-102288152D01*
X121080952Y-102288152D02*
X121128571Y-102335771D01*
X121128571Y-102335771D02*
X121223809Y-102383390D01*
X121223809Y-102383390D02*
X121414285Y-102383390D01*
X121414285Y-102383390D02*
X121509523Y-102431009D01*
X121509523Y-102431009D02*
X121557142Y-102478628D01*
X121557142Y-102478628D02*
X121604761Y-102573866D01*
X121604761Y-102573866D02*
X121604761Y-102764342D01*
X121604761Y-102764342D02*
X121557142Y-102859580D01*
X121557142Y-102859580D02*
X121509523Y-102907200D01*
X121509523Y-102907200D02*
X121414285Y-102954819D01*
X121414285Y-102954819D02*
X121223809Y-102954819D01*
X121223809Y-102954819D02*
X121128571Y-102907200D01*
X121128571Y-102907200D02*
X121080952Y-102859580D01*
X121080952Y-102859580D02*
X121033333Y-102764342D01*
X121033333Y-102764342D02*
X121033333Y-102573866D01*
X121033333Y-102573866D02*
X121080952Y-102478628D01*
X121080952Y-102478628D02*
X121128571Y-102431009D01*
X121128571Y-102431009D02*
X121223809Y-102383390D01*
X107074819Y-77666666D02*
X107789104Y-77666666D01*
X107789104Y-77666666D02*
X107931961Y-77619047D01*
X107931961Y-77619047D02*
X108027200Y-77523809D01*
X108027200Y-77523809D02*
X108074819Y-77380952D01*
X108074819Y-77380952D02*
X108074819Y-77285714D01*
X107074819Y-78619047D02*
X107074819Y-78142857D01*
X107074819Y-78142857D02*
X107551009Y-78095238D01*
X107551009Y-78095238D02*
X107503390Y-78142857D01*
X107503390Y-78142857D02*
X107455771Y-78238095D01*
X107455771Y-78238095D02*
X107455771Y-78476190D01*
X107455771Y-78476190D02*
X107503390Y-78571428D01*
X107503390Y-78571428D02*
X107551009Y-78619047D01*
X107551009Y-78619047D02*
X107646247Y-78666666D01*
X107646247Y-78666666D02*
X107884342Y-78666666D01*
X107884342Y-78666666D02*
X107979580Y-78619047D01*
X107979580Y-78619047D02*
X108027200Y-78571428D01*
X108027200Y-78571428D02*
X108074819Y-78476190D01*
X108074819Y-78476190D02*
X108074819Y-78238095D01*
X108074819Y-78238095D02*
X108027200Y-78142857D01*
X108027200Y-78142857D02*
X107979580Y-78095238D01*
X114813332Y-91447200D02*
X114670475Y-91494819D01*
X114670475Y-91494819D02*
X114432380Y-91494819D01*
X114432380Y-91494819D02*
X114337142Y-91447200D01*
X114337142Y-91447200D02*
X114289523Y-91399580D01*
X114289523Y-91399580D02*
X114241904Y-91304342D01*
X114241904Y-91304342D02*
X114241904Y-91209104D01*
X114241904Y-91209104D02*
X114289523Y-91113866D01*
X114289523Y-91113866D02*
X114337142Y-91066247D01*
X114337142Y-91066247D02*
X114432380Y-91018628D01*
X114432380Y-91018628D02*
X114622856Y-90971009D01*
X114622856Y-90971009D02*
X114718094Y-90923390D01*
X114718094Y-90923390D02*
X114765713Y-90875771D01*
X114765713Y-90875771D02*
X114813332Y-90780533D01*
X114813332Y-90780533D02*
X114813332Y-90685295D01*
X114813332Y-90685295D02*
X114765713Y-90590057D01*
X114765713Y-90590057D02*
X114718094Y-90542438D01*
X114718094Y-90542438D02*
X114622856Y-90494819D01*
X114622856Y-90494819D02*
X114384761Y-90494819D01*
X114384761Y-90494819D02*
X114241904Y-90542438D01*
X113908570Y-90494819D02*
X113670475Y-91494819D01*
X113670475Y-91494819D02*
X113479999Y-90780533D01*
X113479999Y-90780533D02*
X113289523Y-91494819D01*
X113289523Y-91494819D02*
X113051428Y-90494819D01*
X112718094Y-90590057D02*
X112670475Y-90542438D01*
X112670475Y-90542438D02*
X112575237Y-90494819D01*
X112575237Y-90494819D02*
X112337142Y-90494819D01*
X112337142Y-90494819D02*
X112241904Y-90542438D01*
X112241904Y-90542438D02*
X112194285Y-90590057D01*
X112194285Y-90590057D02*
X112146666Y-90685295D01*
X112146666Y-90685295D02*
X112146666Y-90780533D01*
X112146666Y-90780533D02*
X112194285Y-90923390D01*
X112194285Y-90923390D02*
X112765713Y-91494819D01*
X112765713Y-91494819D02*
X112146666Y-91494819D01*
X123166666Y-87054819D02*
X123499999Y-86578628D01*
X123738094Y-87054819D02*
X123738094Y-86054819D01*
X123738094Y-86054819D02*
X123357142Y-86054819D01*
X123357142Y-86054819D02*
X123261904Y-86102438D01*
X123261904Y-86102438D02*
X123214285Y-86150057D01*
X123214285Y-86150057D02*
X123166666Y-86245295D01*
X123166666Y-86245295D02*
X123166666Y-86388152D01*
X123166666Y-86388152D02*
X123214285Y-86483390D01*
X123214285Y-86483390D02*
X123261904Y-86531009D01*
X123261904Y-86531009D02*
X123357142Y-86578628D01*
X123357142Y-86578628D02*
X123738094Y-86578628D01*
X122595237Y-86483390D02*
X122690475Y-86435771D01*
X122690475Y-86435771D02*
X122738094Y-86388152D01*
X122738094Y-86388152D02*
X122785713Y-86292914D01*
X122785713Y-86292914D02*
X122785713Y-86245295D01*
X122785713Y-86245295D02*
X122738094Y-86150057D01*
X122738094Y-86150057D02*
X122690475Y-86102438D01*
X122690475Y-86102438D02*
X122595237Y-86054819D01*
X122595237Y-86054819D02*
X122404761Y-86054819D01*
X122404761Y-86054819D02*
X122309523Y-86102438D01*
X122309523Y-86102438D02*
X122261904Y-86150057D01*
X122261904Y-86150057D02*
X122214285Y-86245295D01*
X122214285Y-86245295D02*
X122214285Y-86292914D01*
X122214285Y-86292914D02*
X122261904Y-86388152D01*
X122261904Y-86388152D02*
X122309523Y-86435771D01*
X122309523Y-86435771D02*
X122404761Y-86483390D01*
X122404761Y-86483390D02*
X122595237Y-86483390D01*
X122595237Y-86483390D02*
X122690475Y-86531009D01*
X122690475Y-86531009D02*
X122738094Y-86578628D01*
X122738094Y-86578628D02*
X122785713Y-86673866D01*
X122785713Y-86673866D02*
X122785713Y-86864342D01*
X122785713Y-86864342D02*
X122738094Y-86959580D01*
X122738094Y-86959580D02*
X122690475Y-87007200D01*
X122690475Y-87007200D02*
X122595237Y-87054819D01*
X122595237Y-87054819D02*
X122404761Y-87054819D01*
X122404761Y-87054819D02*
X122309523Y-87007200D01*
X122309523Y-87007200D02*
X122261904Y-86959580D01*
X122261904Y-86959580D02*
X122214285Y-86864342D01*
X122214285Y-86864342D02*
X122214285Y-86673866D01*
X122214285Y-86673866D02*
X122261904Y-86578628D01*
X122261904Y-86578628D02*
X122309523Y-86531009D01*
X122309523Y-86531009D02*
X122404761Y-86483390D01*
X120595238Y-87054819D02*
X121166666Y-87054819D01*
X120880952Y-87054819D02*
X120880952Y-86054819D01*
X120880952Y-86054819D02*
X120976190Y-86197676D01*
X120976190Y-86197676D02*
X121071428Y-86292914D01*
X121071428Y-86292914D02*
X121166666Y-86340533D01*
X120166666Y-87054819D02*
X120166666Y-86054819D01*
X120071428Y-86673866D02*
X119785714Y-87054819D01*
X119785714Y-86388152D02*
X120166666Y-86769104D01*
X118880952Y-86054819D02*
X119357142Y-86054819D01*
X119357142Y-86054819D02*
X119404761Y-86531009D01*
X119404761Y-86531009D02*
X119357142Y-86483390D01*
X119357142Y-86483390D02*
X119261904Y-86435771D01*
X119261904Y-86435771D02*
X119023809Y-86435771D01*
X119023809Y-86435771D02*
X118928571Y-86483390D01*
X118928571Y-86483390D02*
X118880952Y-86531009D01*
X118880952Y-86531009D02*
X118833333Y-86626247D01*
X118833333Y-86626247D02*
X118833333Y-86864342D01*
X118833333Y-86864342D02*
X118880952Y-86959580D01*
X118880952Y-86959580D02*
X118928571Y-87007200D01*
X118928571Y-87007200D02*
X119023809Y-87054819D01*
X119023809Y-87054819D02*
X119261904Y-87054819D01*
X119261904Y-87054819D02*
X119357142Y-87007200D01*
X119357142Y-87007200D02*
X119404761Y-86959580D01*
X123166666Y-90204819D02*
X123499999Y-89728628D01*
X123738094Y-90204819D02*
X123738094Y-89204819D01*
X123738094Y-89204819D02*
X123357142Y-89204819D01*
X123357142Y-89204819D02*
X123261904Y-89252438D01*
X123261904Y-89252438D02*
X123214285Y-89300057D01*
X123214285Y-89300057D02*
X123166666Y-89395295D01*
X123166666Y-89395295D02*
X123166666Y-89538152D01*
X123166666Y-89538152D02*
X123214285Y-89633390D01*
X123214285Y-89633390D02*
X123261904Y-89681009D01*
X123261904Y-89681009D02*
X123357142Y-89728628D01*
X123357142Y-89728628D02*
X123738094Y-89728628D01*
X122309523Y-89204819D02*
X122499999Y-89204819D01*
X122499999Y-89204819D02*
X122595237Y-89252438D01*
X122595237Y-89252438D02*
X122642856Y-89300057D01*
X122642856Y-89300057D02*
X122738094Y-89442914D01*
X122738094Y-89442914D02*
X122785713Y-89633390D01*
X122785713Y-89633390D02*
X122785713Y-90014342D01*
X122785713Y-90014342D02*
X122738094Y-90109580D01*
X122738094Y-90109580D02*
X122690475Y-90157200D01*
X122690475Y-90157200D02*
X122595237Y-90204819D01*
X122595237Y-90204819D02*
X122404761Y-90204819D01*
X122404761Y-90204819D02*
X122309523Y-90157200D01*
X122309523Y-90157200D02*
X122261904Y-90109580D01*
X122261904Y-90109580D02*
X122214285Y-90014342D01*
X122214285Y-90014342D02*
X122214285Y-89776247D01*
X122214285Y-89776247D02*
X122261904Y-89681009D01*
X122261904Y-89681009D02*
X122309523Y-89633390D01*
X122309523Y-89633390D02*
X122404761Y-89585771D01*
X122404761Y-89585771D02*
X122595237Y-89585771D01*
X122595237Y-89585771D02*
X122690475Y-89633390D01*
X122690475Y-89633390D02*
X122738094Y-89681009D01*
X122738094Y-89681009D02*
X122785713Y-89776247D01*
X120595238Y-90204819D02*
X121166666Y-90204819D01*
X120880952Y-90204819D02*
X120880952Y-89204819D01*
X120880952Y-89204819D02*
X120976190Y-89347676D01*
X120976190Y-89347676D02*
X121071428Y-89442914D01*
X121071428Y-89442914D02*
X121166666Y-89490533D01*
X120166666Y-90204819D02*
X120166666Y-89204819D01*
X120071428Y-89823866D02*
X119785714Y-90204819D01*
X119785714Y-89538152D02*
X120166666Y-89919104D01*
X118880952Y-89204819D02*
X119357142Y-89204819D01*
X119357142Y-89204819D02*
X119404761Y-89681009D01*
X119404761Y-89681009D02*
X119357142Y-89633390D01*
X119357142Y-89633390D02*
X119261904Y-89585771D01*
X119261904Y-89585771D02*
X119023809Y-89585771D01*
X119023809Y-89585771D02*
X118928571Y-89633390D01*
X118928571Y-89633390D02*
X118880952Y-89681009D01*
X118880952Y-89681009D02*
X118833333Y-89776247D01*
X118833333Y-89776247D02*
X118833333Y-90014342D01*
X118833333Y-90014342D02*
X118880952Y-90109580D01*
X118880952Y-90109580D02*
X118928571Y-90157200D01*
X118928571Y-90157200D02*
X119023809Y-90204819D01*
X119023809Y-90204819D02*
X119261904Y-90204819D01*
X119261904Y-90204819D02*
X119357142Y-90157200D01*
X119357142Y-90157200D02*
X119404761Y-90109580D01*
X117766666Y-81954819D02*
X118099999Y-81478628D01*
X118338094Y-81954819D02*
X118338094Y-80954819D01*
X118338094Y-80954819D02*
X117957142Y-80954819D01*
X117957142Y-80954819D02*
X117861904Y-81002438D01*
X117861904Y-81002438D02*
X117814285Y-81050057D01*
X117814285Y-81050057D02*
X117766666Y-81145295D01*
X117766666Y-81145295D02*
X117766666Y-81288152D01*
X117766666Y-81288152D02*
X117814285Y-81383390D01*
X117814285Y-81383390D02*
X117861904Y-81431009D01*
X117861904Y-81431009D02*
X117957142Y-81478628D01*
X117957142Y-81478628D02*
X118338094Y-81478628D01*
X117290475Y-81954819D02*
X117099999Y-81954819D01*
X117099999Y-81954819D02*
X117004761Y-81907200D01*
X117004761Y-81907200D02*
X116957142Y-81859580D01*
X116957142Y-81859580D02*
X116861904Y-81716723D01*
X116861904Y-81716723D02*
X116814285Y-81526247D01*
X116814285Y-81526247D02*
X116814285Y-81145295D01*
X116814285Y-81145295D02*
X116861904Y-81050057D01*
X116861904Y-81050057D02*
X116909523Y-81002438D01*
X116909523Y-81002438D02*
X117004761Y-80954819D01*
X117004761Y-80954819D02*
X117195237Y-80954819D01*
X117195237Y-80954819D02*
X117290475Y-81002438D01*
X117290475Y-81002438D02*
X117338094Y-81050057D01*
X117338094Y-81050057D02*
X117385713Y-81145295D01*
X117385713Y-81145295D02*
X117385713Y-81383390D01*
X117385713Y-81383390D02*
X117338094Y-81478628D01*
X117338094Y-81478628D02*
X117290475Y-81526247D01*
X117290475Y-81526247D02*
X117195237Y-81573866D01*
X117195237Y-81573866D02*
X117004761Y-81573866D01*
X117004761Y-81573866D02*
X116909523Y-81526247D01*
X116909523Y-81526247D02*
X116861904Y-81478628D01*
X116861904Y-81478628D02*
X116814285Y-81383390D01*
X116084285Y-80954819D02*
X115465238Y-80954819D01*
X115465238Y-80954819D02*
X115798571Y-81335771D01*
X115798571Y-81335771D02*
X115655714Y-81335771D01*
X115655714Y-81335771D02*
X115560476Y-81383390D01*
X115560476Y-81383390D02*
X115512857Y-81431009D01*
X115512857Y-81431009D02*
X115465238Y-81526247D01*
X115465238Y-81526247D02*
X115465238Y-81764342D01*
X115465238Y-81764342D02*
X115512857Y-81859580D01*
X115512857Y-81859580D02*
X115560476Y-81907200D01*
X115560476Y-81907200D02*
X115655714Y-81954819D01*
X115655714Y-81954819D02*
X115941428Y-81954819D01*
X115941428Y-81954819D02*
X116036666Y-81907200D01*
X116036666Y-81907200D02*
X116084285Y-81859580D01*
X115036666Y-81954819D02*
X115036666Y-80954819D01*
X114941428Y-81573866D02*
X114655714Y-81954819D01*
X114655714Y-81288152D02*
X115036666Y-81669104D01*
X114322380Y-80954819D02*
X113703333Y-80954819D01*
X113703333Y-80954819D02*
X114036666Y-81335771D01*
X114036666Y-81335771D02*
X113893809Y-81335771D01*
X113893809Y-81335771D02*
X113798571Y-81383390D01*
X113798571Y-81383390D02*
X113750952Y-81431009D01*
X113750952Y-81431009D02*
X113703333Y-81526247D01*
X113703333Y-81526247D02*
X113703333Y-81764342D01*
X113703333Y-81764342D02*
X113750952Y-81859580D01*
X113750952Y-81859580D02*
X113798571Y-81907200D01*
X113798571Y-81907200D02*
X113893809Y-81954819D01*
X113893809Y-81954819D02*
X114179523Y-81954819D01*
X114179523Y-81954819D02*
X114274761Y-81907200D01*
X114274761Y-81907200D02*
X114322380Y-81859580D01*
D11*
%TO.C,J3*%
X128620000Y-107270000D02*
X128620000Y-112460000D01*
X131380000Y-104620000D02*
X130000000Y-104620000D01*
X131380000Y-106000000D02*
X131380000Y-104620000D01*
X131380000Y-107270000D02*
X128620000Y-107270000D01*
X131380000Y-107270000D02*
X131380000Y-112460000D01*
X131380000Y-112460000D02*
X128620000Y-112460000D01*
%TO.C,R7*%
X120170000Y-101130000D02*
X126710000Y-101130000D01*
X120170000Y-101460000D02*
X120170000Y-101130000D01*
X120170000Y-103540000D02*
X120170000Y-103870000D01*
X120170000Y-103870000D02*
X126710000Y-103870000D01*
X126710000Y-101130000D02*
X126710000Y-101460000D01*
X126710000Y-103870000D02*
X126710000Y-103540000D01*
%TO.C,J5*%
X108620000Y-76620000D02*
X108620000Y-78000000D01*
X110000000Y-76620000D02*
X108620000Y-76620000D01*
X111270000Y-76620000D02*
X111270000Y-79380000D01*
X111270000Y-76620000D02*
X124080000Y-76620000D01*
X111270000Y-79380000D02*
X124080000Y-79380000D01*
X124080000Y-76620000D02*
X124080000Y-79380000D01*
%TO.C,SW2*%
X116040000Y-93455000D02*
X116040000Y-96545000D01*
X110490000Y-95000000D02*
G75*
G02*
X116040000Y-93455170I2990000J0D01*
G01*
X116040000Y-96544830D02*
G75*
G02*
X110490000Y-95000000I-2560000J1544830D01*
G01*
X115980000Y-95000000D02*
G75*
G02*
X110980000Y-95000000I-2500000J0D01*
G01*
X110980000Y-95000000D02*
G75*
G02*
X115980000Y-95000000I2500000J0D01*
G01*
%TO.C,R8*%
X118040000Y-85130000D02*
X124580000Y-85130000D01*
X118040000Y-85460000D02*
X118040000Y-85130000D01*
X118040000Y-87540000D02*
X118040000Y-87870000D01*
X118040000Y-87870000D02*
X124580000Y-87870000D01*
X124580000Y-85130000D02*
X124580000Y-85460000D01*
X124580000Y-87870000D02*
X124580000Y-87540000D01*
%TO.C,R6*%
X117980000Y-88380000D02*
X124520000Y-88380000D01*
X117980000Y-88710000D02*
X117980000Y-88380000D01*
X117980000Y-90790000D02*
X117980000Y-91120000D01*
X117980000Y-91120000D02*
X124520000Y-91120000D01*
X124520000Y-88380000D02*
X124520000Y-88710000D01*
X124520000Y-91120000D02*
X124520000Y-90790000D01*
%TO.C,R9*%
X112790000Y-80130000D02*
X112790000Y-80460000D01*
X112790000Y-82870000D02*
X112790000Y-82540000D01*
X119330000Y-80130000D02*
X112790000Y-80130000D01*
X119330000Y-80460000D02*
X119330000Y-80130000D01*
X119330000Y-82540000D02*
X119330000Y-82870000D01*
X119330000Y-82870000D02*
X112790000Y-82870000D01*
%TD*%
M02*
