%TF.GenerationSoftware,KiCad,Pcbnew,9.0.7*%
%TF.CreationDate,2026-01-25T22:41:22+01:00*%
%TF.ProjectId,DiceDIP_LowerPart,44696365-4449-4505-9f4c-6f7765725061,rev?*%
%TF.SameCoordinates,Original*%
%TF.FileFunction,Copper,L1,Top*%
%TF.FilePolarity,Positive*%
%FSLAX46Y46*%
G04 Gerber Fmt 4.6, Leading zero omitted, Abs format (unit mm)*
G04 Created by KiCad (PCBNEW 9.0.7) date 2026-01-25 22:41:22*
%MOMM*%
%LPD*%
G01*
G04 APERTURE LIST*
G04 Aperture macros list*
%AMRoundRect*
0 Rectangle with rounded corners*
0 $1 Rounding radius*
0 $2 $3 $4 $5 $6 $7 $8 $9 X,Y pos of 4 corners*
0 Add a 4 corners polygon primitive as box body*
4,1,4,$2,$3,$4,$5,$6,$7,$8,$9,$2,$3,0*
0 Add four circle primitives for the rounded corners*
1,1,$1+$1,$2,$3*
1,1,$1+$1,$4,$5*
1,1,$1+$1,$6,$7*
1,1,$1+$1,$8,$9*
0 Add four rect primitives between the rounded corners*
20,1,$1+$1,$2,$3,$4,$5,0*
20,1,$1+$1,$4,$5,$6,$7,0*
20,1,$1+$1,$6,$7,$8,$9,0*
20,1,$1+$1,$8,$9,$2,$3,0*%
G04 Aperture macros list end*
%TA.AperFunction,ComponentPad*%
%ADD10C,2.000000*%
%TD*%
%TA.AperFunction,ComponentPad*%
%ADD11R,1.100000X1.800000*%
%TD*%
%TA.AperFunction,ComponentPad*%
%ADD12RoundRect,0.275000X-0.275000X-0.625000X0.275000X-0.625000X0.275000X0.625000X-0.275000X0.625000X0*%
%TD*%
%TA.AperFunction,ComponentPad*%
%ADD13R,1.700000X1.700000*%
%TD*%
%TA.AperFunction,ComponentPad*%
%ADD14C,1.700000*%
%TD*%
%TA.AperFunction,ComponentPad*%
%ADD15RoundRect,0.250000X0.550000X-0.950000X0.550000X0.950000X-0.550000X0.950000X-0.550000X-0.950000X0*%
%TD*%
%TA.AperFunction,ComponentPad*%
%ADD16O,1.600000X2.400000*%
%TD*%
%TA.AperFunction,ComponentPad*%
%ADD17RoundRect,0.249999X-0.850001X-0.850001X0.850001X-0.850001X0.850001X0.850001X-0.850001X0.850001X0*%
%TD*%
%TA.AperFunction,ComponentPad*%
%ADD18C,2.200000*%
%TD*%
%TA.AperFunction,ComponentPad*%
%ADD19RoundRect,0.250000X-0.550000X0.550000X-0.550000X-0.550000X0.550000X-0.550000X0.550000X0.550000X0*%
%TD*%
%TA.AperFunction,ComponentPad*%
%ADD20C,1.600000*%
%TD*%
%TA.AperFunction,ComponentPad*%
%ADD21RoundRect,0.250000X-0.550000X-0.550000X0.550000X-0.550000X0.550000X0.550000X-0.550000X0.550000X0*%
%TD*%
%TA.AperFunction,ComponentPad*%
%ADD22RoundRect,0.250000X0.550000X-0.550000X0.550000X0.550000X-0.550000X0.550000X-0.550000X-0.550000X0*%
%TD*%
%TA.AperFunction,ComponentPad*%
%ADD23R,3.000000X3.000000*%
%TD*%
%TA.AperFunction,ComponentPad*%
%ADD24C,3.000000*%
%TD*%
%TA.AperFunction,ViaPad*%
%ADD25C,0.600000*%
%TD*%
%TA.AperFunction,Conductor*%
%ADD26C,0.250000*%
%TD*%
G04 APERTURE END LIST*
D10*
%TO.P,R4,1*%
%TO.N,Net-(C1-Pad2)*%
X109190000Y-81750000D03*
%TO.P,R4,2*%
%TO.N,Net-(D1-K)*%
X116810000Y-81750000D03*
%TD*%
D11*
%TO.P,Q1,1,C*%
%TO.N,Net-(J4-Pin_3)*%
X134230000Y-79670000D03*
D12*
%TO.P,Q1,2,B*%
%TO.N,Net-(Q1-B)*%
X135500000Y-77600000D03*
%TO.P,Q1,3,E*%
%TO.N,SW_V1*%
X136770000Y-79670000D03*
%TD*%
D13*
%TO.P,J4,1,Pin_1*%
%TO.N,Net-(J4-Pin_1)*%
X110000000Y-78000000D03*
D14*
%TO.P,J4,2,Pin_2*%
%TO.N,Net-(J4-Pin_2)*%
X112540000Y-78000000D03*
%TO.P,J4,3,Pin_3*%
%TO.N,Net-(J4-Pin_3)*%
X115080000Y-78000000D03*
%TO.P,J4,4,Pin_4*%
%TO.N,SW_V1*%
X117620000Y-78000000D03*
%TO.P,J4,5,Pin_5*%
%TO.N,SW_V2*%
X120160000Y-78000000D03*
%TO.P,J4,6,Pin_6*%
%TO.N,VCC*%
X122700000Y-78000000D03*
%TD*%
D13*
%TO.P,J1,1,Pin_1*%
%TO.N,Net-(D10-A)*%
X130000000Y-106000000D03*
D14*
%TO.P,J1,2,Pin_2*%
%TO.N,Net-(D9-A)*%
X130000000Y-108540000D03*
%TO.P,J1,3,Pin_3*%
%TO.N,Net-(D10-K)*%
X130000000Y-111080000D03*
%TD*%
D10*
%TO.P,C1,1*%
%TO.N,SW_V1*%
X117000000Y-85000000D03*
%TO.P,C1,2*%
%TO.N,Net-(C1-Pad2)*%
X112000000Y-85000000D03*
%TD*%
D15*
%TO.P,U1,1,PE*%
%TO.N,Net-(U1-PE)*%
X119750000Y-91370000D03*
D16*
%TO.P,U1,2,Q4*%
%TO.N,unconnected-(U1-Q4-Pad2)*%
X122290000Y-91370000D03*
%TO.P,U1,3,J4*%
%TO.N,VCC*%
X124830000Y-91370000D03*
%TO.P,U1,4,J1*%
X127370000Y-91370000D03*
%TO.P,U1,5,Cin*%
%TO.N,SW_V1*%
X129910000Y-91370000D03*
%TO.P,U1,6,Q1*%
%TO.N,Net-(J4-Pin_1)*%
X132450000Y-91370000D03*
%TO.P,U1,7,Cout*%
%TO.N,Net-(U1-Cout)*%
X134990000Y-91370000D03*
%TO.P,U1,8,VSS*%
%TO.N,SW_V1*%
X137530000Y-91370000D03*
%TO.P,U1,9,B/D*%
%TO.N,VCC*%
X137530000Y-83750000D03*
%TO.P,U1,10,U/D*%
X134990000Y-83750000D03*
%TO.P,U1,11,Q2*%
%TO.N,Net-(D10-A)*%
X132450000Y-83750000D03*
%TO.P,U1,12,J2*%
%TO.N,SW_V1*%
X129910000Y-83750000D03*
%TO.P,U1,13,J3*%
X127370000Y-83750000D03*
%TO.P,U1,14,Q3*%
%TO.N,Net-(D9-A)*%
X124830000Y-83750000D03*
%TO.P,U1,15,CK*%
%TO.N,Net-(D1-K)*%
X122290000Y-83750000D03*
%TO.P,U1,16,VDD*%
%TO.N,VCC*%
X119750000Y-83750000D03*
%TD*%
D17*
%TO.P,D11,1,K*%
%TO.N,Net-(BT1--)*%
X114420000Y-113250000D03*
D18*
%TO.P,D11,2,A*%
%TO.N,SW_V1*%
X124580000Y-113250000D03*
%TD*%
D19*
%TO.P,C3,1*%
%TO.N,VCC*%
X124750000Y-101044887D03*
D20*
%TO.P,C3,2*%
%TO.N,Net-(C3-Pad2)*%
X124750000Y-103544887D03*
%TD*%
D10*
%TO.P,R2,1*%
%TO.N,Net-(D1-K)*%
X101750000Y-92310000D03*
%TO.P,R2,2*%
%TO.N,Net-(C3-Pad2)*%
X101750000Y-84690000D03*
%TD*%
%TO.P,R3,1*%
%TO.N,SW_V1*%
X117060000Y-88250000D03*
%TO.P,R3,2*%
%TO.N,SW_V2*%
X109440000Y-88250000D03*
%TD*%
%TO.P,R1,1*%
%TO.N,Net-(D1-A)*%
X105000000Y-92310000D03*
%TO.P,R1,2*%
%TO.N,Net-(C3-Pad2)*%
X105000000Y-84690000D03*
%TD*%
D21*
%TO.P,D1,1,K*%
%TO.N,Net-(D1-K)*%
X101380000Y-110000000D03*
D20*
%TO.P,D1,2,A*%
%TO.N,Net-(D1-A)*%
X109000000Y-110000000D03*
%TD*%
D22*
%TO.P,D9,1,K*%
%TO.N,Net-(D10-K)*%
X134000000Y-111810000D03*
D20*
%TO.P,D9,2,A*%
%TO.N,Net-(D9-A)*%
X134000000Y-104190000D03*
%TD*%
D10*
%TO.P,C2,1*%
%TO.N,SW_V1*%
X137500000Y-95000000D03*
%TO.P,C2,2*%
%TO.N,VCC*%
X137500000Y-100000000D03*
%TD*%
D22*
%TO.P,D10,1,K*%
%TO.N,Net-(D10-K)*%
X136750000Y-111810000D03*
D20*
%TO.P,D10,2,A*%
%TO.N,Net-(D10-A)*%
X136750000Y-104190000D03*
%TD*%
D10*
%TO.P,C4,1*%
%TO.N,SW_V1*%
X134250000Y-94750000D03*
%TO.P,C4,2*%
%TO.N,SW_V2*%
X134250000Y-99750000D03*
%TD*%
%TO.P,R5,1*%
%TO.N,Net-(R5-Pad1)*%
X114190000Y-110000000D03*
%TO.P,R5,2*%
%TO.N,Net-(Q1-B)*%
X121810000Y-110000000D03*
%TD*%
D15*
%TO.P,U2,1*%
%TO.N,SW_V2*%
X104960000Y-107000000D03*
D16*
%TO.P,U2,2*%
%TO.N,Net-(C1-Pad2)*%
X107500000Y-107000000D03*
%TO.P,U2,3*%
%TO.N,Net-(D1-K)*%
X110040000Y-107000000D03*
%TO.P,U2,4*%
%TO.N,Net-(R5-Pad1)*%
X112580000Y-107000000D03*
%TO.P,U2,5*%
%TO.N,Net-(C3-Pad2)*%
X115120000Y-107000000D03*
%TO.P,U2,6*%
X117660000Y-107000000D03*
%TO.P,U2,7,Vss*%
%TO.N,SW_V1*%
X120200000Y-107000000D03*
%TO.P,U2,8*%
%TO.N,Net-(U1-Cout)*%
X120200000Y-99380000D03*
%TO.P,U2,9*%
%TO.N,VCC*%
X117660000Y-99380000D03*
%TO.P,U2,10*%
%TO.N,Net-(U1-PE)*%
X115120000Y-99380000D03*
%TO.P,U2,11*%
%TO.N,Net-(J4-Pin_2)*%
X112580000Y-99380000D03*
%TO.P,U2,12*%
%TO.N,Net-(D9-A)*%
X110040000Y-99380000D03*
%TO.P,U2,13*%
%TO.N,Net-(R5-Pad1)*%
X107500000Y-99380000D03*
%TO.P,U2,14,Vdd*%
%TO.N,VCC*%
X104960000Y-99380000D03*
%TD*%
D10*
%TO.P,R10,1*%
%TO.N,SW_V2*%
X101750000Y-107060000D03*
%TO.P,R10,2*%
%TO.N,VCC*%
X101750000Y-99440000D03*
%TD*%
D23*
%TO.P,BT2,1,+*%
%TO.N,VCC*%
X128600000Y-77100000D03*
D24*
%TO.P,BT2,2,-*%
%TO.N,Net-(BT1-+)*%
X128599999Y-97100001D03*
%TD*%
D23*
%TO.P,BT1,1,+*%
%TO.N,Net-(BT1-+)*%
X111400000Y-92200000D03*
D24*
%TO.P,BT1,2,-*%
%TO.N,Net-(BT1--)*%
X111400000Y-112200000D03*
%TD*%
D25*
%TO.N,VCC*%
X135000000Y-101500000D03*
X109251000Y-97500000D03*
X128500000Y-80125000D03*
%TO.N,Net-(C3-Pad2)*%
X103500000Y-95000000D03*
X103500000Y-100065000D03*
X113536942Y-108463058D03*
X103536942Y-93213058D03*
X103500000Y-98815000D03*
X106750000Y-102500000D03*
X105461000Y-102500000D03*
X112653058Y-109346942D03*
%TO.N,SW_V2*%
X112608774Y-110606615D03*
X135250000Y-105000000D03*
%TO.N,Net-(D1-K)*%
X111250000Y-82250000D03*
X114125000Y-82750000D03*
X104161942Y-90000000D03*
%TO.N,Net-(D1-A)*%
X111250000Y-103500000D03*
%TO.N,Net-(D9-A)*%
X121000000Y-104750000D03*
X120000000Y-103750000D03*
%TO.N,Net-(J4-Pin_1)*%
X118995558Y-79620558D03*
X121166942Y-80416942D03*
%TO.N,Net-(U1-Cout)*%
X125500000Y-99250000D03*
X132316942Y-96933058D03*
X131433058Y-97816942D03*
X124205000Y-99250000D03*
%TO.N,Net-(U1-PE)*%
X116888884Y-97725001D03*
%TO.N,Net-(J4-Pin_2)*%
X113250000Y-80308058D03*
X112250000Y-96750000D03*
%TO.N,Net-(J4-Pin_3)*%
X125625000Y-79500000D03*
X126875000Y-79500000D03*
X118243058Y-76493058D03*
X120001942Y-76501942D03*
%TD*%
D26*
%TO.N,Net-(BT1--)*%
X112450000Y-113250000D02*
X114420000Y-113250000D01*
X111400000Y-112200000D02*
X112450000Y-113250000D01*
%TO.N,VCC*%
X122700000Y-78000000D02*
X119750000Y-80950000D01*
X117660000Y-99380000D02*
X115780000Y-97500000D01*
X101750000Y-99440000D02*
X104900000Y-99440000D01*
X132990000Y-81750000D02*
X129250000Y-81750000D01*
X128500000Y-81000000D02*
X128500000Y-80125000D01*
X124750000Y-101044887D02*
X119324887Y-101044887D01*
X135000000Y-101500000D02*
X127750000Y-101500000D01*
X115780000Y-97500000D02*
X109251000Y-97500000D01*
X119324887Y-101044887D02*
X117660000Y-99380000D01*
X124750000Y-101000000D02*
X124830000Y-100920000D01*
X127750000Y-101500000D02*
X127250000Y-101000000D01*
X127250000Y-101000000D02*
X127205113Y-101044887D01*
X129250000Y-81750000D02*
X128500000Y-81000000D01*
X119750000Y-80950000D02*
X119750000Y-83750000D01*
X127205113Y-101044887D02*
X124750000Y-101044887D01*
X124750000Y-101044887D02*
X124750000Y-101000000D01*
X104900000Y-99440000D02*
X104960000Y-99380000D01*
X124830000Y-100920000D02*
X124830000Y-91370000D01*
X134990000Y-83750000D02*
X132990000Y-81750000D01*
%TO.N,Net-(C1-Pad2)*%
X112000000Y-84560000D02*
X112000000Y-85000000D01*
%TO.N,SW_V1*%
X125250000Y-75750000D02*
X126250000Y-76750000D01*
X138656000Y-90244000D02*
X137530000Y-91370000D01*
X136770000Y-79270000D02*
X138656000Y-81156000D01*
X134250000Y-94750000D02*
X134375248Y-94750000D01*
X127370000Y-83750000D02*
X129910000Y-83750000D01*
X119870000Y-75750000D02*
X125250000Y-75750000D01*
X126250000Y-76750000D02*
X126250000Y-82630000D01*
X117000000Y-88190000D02*
X117060000Y-88250000D01*
X137530000Y-94720000D02*
X137500000Y-94750000D01*
X117620000Y-78000000D02*
X119870000Y-75750000D01*
X138656000Y-81156000D02*
X138656000Y-90244000D01*
X126250000Y-82630000D02*
X127370000Y-83750000D01*
%TO.N,Net-(C3-Pad2)*%
X112653058Y-109346942D02*
X111166000Y-107859884D01*
X110282404Y-105250000D02*
X110000000Y-105250000D01*
X117660000Y-107000000D02*
X115120000Y-107000000D01*
X115120000Y-107000000D02*
X115000000Y-107000000D01*
X103500000Y-100539000D02*
X103500000Y-100065000D01*
X121115113Y-103544887D02*
X124750000Y-103544887D01*
X117660000Y-107000000D02*
X121115113Y-103544887D01*
X106750000Y-102637810D02*
X106750000Y-102500000D01*
X105461000Y-102500000D02*
X103500000Y-100539000D01*
X109362190Y-105250000D02*
X106750000Y-102637810D01*
X103536942Y-93213058D02*
X103536942Y-86476942D01*
X111166000Y-106133596D02*
X110282404Y-105250000D01*
X115000000Y-107000000D02*
X113536942Y-108463058D01*
X103536942Y-86476942D02*
X101750000Y-84690000D01*
X101750000Y-84690000D02*
X105000000Y-84690000D01*
X111166000Y-107859884D02*
X111166000Y-106133596D01*
X110000000Y-105250000D02*
X109362190Y-105250000D01*
X103500000Y-98815000D02*
X103500000Y-95000000D01*
%TO.N,SW_V2*%
X112608774Y-110606615D02*
X113328159Y-111326000D01*
X114250000Y-80250000D02*
X119250000Y-80250000D01*
X104900000Y-107060000D02*
X104960000Y-107000000D01*
X121260752Y-108674000D02*
X128470884Y-108674000D01*
X118608752Y-111326000D02*
X121260752Y-108674000D01*
X113326000Y-89576000D02*
X112000000Y-88250000D01*
X120160000Y-79340000D02*
X120160000Y-78000000D01*
X130534000Y-109716000D02*
X135250000Y-105000000D01*
X128784000Y-94284000D02*
X128784000Y-90118000D01*
X112000000Y-88250000D02*
X113500000Y-86750000D01*
X128784000Y-90118000D02*
X128242000Y-89576000D01*
X128470884Y-108674000D02*
X129512884Y-109716000D01*
X109440000Y-88250000D02*
X112000000Y-88250000D01*
X128242000Y-89576000D02*
X113326000Y-89576000D01*
X113500000Y-81000000D02*
X114250000Y-80250000D01*
X113500000Y-86750000D02*
X113500000Y-81000000D01*
X101750000Y-107060000D02*
X104900000Y-107060000D01*
X129512884Y-109716000D02*
X130534000Y-109716000D01*
X134250000Y-99750000D02*
X128784000Y-94284000D01*
X119250000Y-80250000D02*
X120160000Y-79340000D01*
X113328159Y-111326000D02*
X118608752Y-111326000D01*
%TO.N,Net-(D1-K)*%
X115810000Y-82750000D02*
X116810000Y-81750000D01*
X111250000Y-82862190D02*
X111250000Y-82250000D01*
X101380000Y-110000000D02*
X107040000Y-110000000D01*
X120764000Y-85276000D02*
X122290000Y-83750000D01*
X118250000Y-84242404D02*
X118250000Y-83250000D01*
X119283596Y-85276000D02*
X120764000Y-85276000D01*
X106086000Y-103046000D02*
X110040000Y-107000000D01*
X101750000Y-92310000D02*
X106086000Y-96646000D01*
X107040000Y-110000000D02*
X110040000Y-107000000D01*
X116810000Y-81750000D02*
X116810000Y-81810000D01*
X104161942Y-89950248D02*
X111250000Y-82862190D01*
X114125000Y-82750000D02*
X115810000Y-82750000D01*
X106086000Y-96646000D02*
X106086000Y-103046000D01*
X104161942Y-90000000D02*
X104161942Y-89950248D01*
X119283596Y-85276000D02*
X118250000Y-84242404D01*
X116810000Y-81810000D02*
X118250000Y-83250000D01*
%TO.N,Net-(D1-A)*%
X105000000Y-92310000D02*
X108626000Y-95936000D01*
X108626000Y-102876000D02*
X109250000Y-103500000D01*
X108626000Y-95936000D02*
X108626000Y-102876000D01*
X109250000Y-103500000D02*
X111250000Y-103500000D01*
%TO.N,Net-(D10-K)*%
X134000000Y-111810000D02*
X136750000Y-111810000D01*
X133270000Y-111080000D02*
X134000000Y-111810000D01*
X130000000Y-111080000D02*
X133270000Y-111080000D01*
%TO.N,Net-(D9-A)*%
X123750000Y-106250000D02*
X122500000Y-106250000D01*
X130000000Y-108540000D02*
X134000000Y-104540000D01*
X110040000Y-101540000D02*
X110040000Y-99380000D01*
X111000000Y-102500000D02*
X110040000Y-101540000D01*
X120000000Y-103750000D02*
X118750000Y-102500000D01*
X127710000Y-106250000D02*
X123750000Y-106250000D01*
X130000000Y-108540000D02*
X127710000Y-106250000D01*
X122500000Y-106250000D02*
X121000000Y-104750000D01*
X118750000Y-102500000D02*
X111000000Y-102500000D01*
X134000000Y-104540000D02*
X134000000Y-104190000D01*
%TO.N,Net-(D10-A)*%
X135250000Y-96750000D02*
X135750000Y-97250000D01*
X132450000Y-83750000D02*
X136250000Y-87550000D01*
X130000000Y-106000000D02*
X133500000Y-102500000D01*
X132924000Y-94200752D02*
X132924000Y-95424000D01*
X136250000Y-87550000D02*
X136250000Y-92500000D01*
X135326000Y-93424000D02*
X133700752Y-93424000D01*
X135750000Y-102500000D02*
X135750000Y-103190000D01*
X135750000Y-103190000D02*
X136750000Y-104190000D01*
X135750000Y-97250000D02*
X135750000Y-102500000D01*
X134250000Y-96750000D02*
X135250000Y-96750000D01*
X132924000Y-95424000D02*
X134250000Y-96750000D01*
X133700752Y-93424000D02*
X132924000Y-94200752D01*
X133500000Y-102500000D02*
X135750000Y-102500000D01*
X136250000Y-92500000D02*
X135326000Y-93424000D01*
%TO.N,Net-(J4-Pin_1)*%
X118995558Y-79620558D02*
X118933058Y-79683058D01*
X123416000Y-82666000D02*
X121166942Y-80416942D01*
X132450000Y-91370000D02*
X132450000Y-87665000D01*
X130535000Y-85750000D02*
X124837596Y-85750000D01*
X118933058Y-79683058D02*
X111683058Y-79683058D01*
X132450000Y-87665000D02*
X130535000Y-85750000D01*
X111683058Y-79683058D02*
X110000000Y-78000000D01*
X123416000Y-84328404D02*
X123416000Y-82666000D01*
X124837596Y-85750000D02*
X123416000Y-84328404D01*
%TO.N,Net-(Q1-B)*%
X139374000Y-80516438D02*
X139374000Y-112336488D01*
X126250000Y-110000000D02*
X121810000Y-110000000D01*
X139364235Y-112635765D02*
X138750000Y-113250000D01*
X126750000Y-111750000D02*
X126750000Y-110500000D01*
X139374000Y-112336488D02*
X139364235Y-112635765D01*
X136857562Y-78000000D02*
X139374000Y-80516438D01*
X128250000Y-113250000D02*
X126750000Y-111750000D01*
X135500000Y-78000000D02*
X136857562Y-78000000D01*
X138750000Y-113250000D02*
X128250000Y-113250000D01*
X126750000Y-110500000D02*
X126250000Y-110000000D01*
%TO.N,Net-(R5-Pad1)*%
X107500000Y-102750000D02*
X107500000Y-99380000D01*
X111750000Y-104250000D02*
X109000000Y-104250000D01*
X112580000Y-108390000D02*
X112580000Y-107000000D01*
X114190000Y-110000000D02*
X112580000Y-108390000D01*
X112580000Y-105080000D02*
X111750000Y-104250000D01*
X112580000Y-107000000D02*
X112580000Y-105080000D01*
X109000000Y-104250000D02*
X107500000Y-102750000D01*
%TO.N,Net-(U1-Cout)*%
X134990000Y-91370000D02*
X132316942Y-94043058D01*
X132316942Y-94043058D02*
X132316942Y-96933058D01*
X131433058Y-97816942D02*
X130000000Y-99250000D01*
X130000000Y-99250000D02*
X125500000Y-99250000D01*
X123620000Y-99380000D02*
X120200000Y-99380000D01*
X123750000Y-99250000D02*
X123620000Y-99380000D01*
X124205000Y-99250000D02*
X123750000Y-99250000D01*
%TO.N,Net-(U1-PE)*%
X116888884Y-97725001D02*
X119750000Y-94863885D01*
X119750000Y-94863885D02*
X119750000Y-91370000D01*
%TO.N,Net-(J4-Pin_2)*%
X110250000Y-96750000D02*
X108114000Y-94614000D01*
X112000000Y-82750000D02*
X112000000Y-81558058D01*
X112250000Y-96750000D02*
X110250000Y-96750000D01*
X108114000Y-94614000D02*
X108114000Y-86636000D01*
X108114000Y-86636000D02*
X112000000Y-82750000D01*
X112000000Y-81558058D02*
X113250000Y-80308058D01*
%TO.N,Net-(J4-Pin_3)*%
X118243058Y-76493058D02*
X116586942Y-76493058D01*
X133000000Y-79500000D02*
X126875000Y-79500000D01*
X134000000Y-79500000D02*
X133000000Y-79500000D01*
X125625000Y-79500000D02*
X125625000Y-79261884D01*
X125625000Y-79261884D02*
X122863116Y-76500000D01*
X134230000Y-79270000D02*
X134000000Y-79500000D01*
X122863116Y-76500000D02*
X120000000Y-76500000D01*
X120000000Y-76500000D02*
X120001942Y-76501942D01*
X116586942Y-76493058D02*
X115080000Y-78000000D01*
%TD*%
M02*
