%TF.GenerationSoftware,KiCad,Pcbnew,9.0.7*%
%TF.CreationDate,2026-01-25T22:41:23+01:00*%
%TF.ProjectId,DiceDIP_LowerPart,44696365-4449-4505-9f4c-6f7765725061,rev?*%
%TF.SameCoordinates,Original*%
%TF.FileFunction,Copper,L2,Bot*%
%TF.FilePolarity,Positive*%
%FSLAX46Y46*%
G04 Gerber Fmt 4.6, Leading zero omitted, Abs format (unit mm)*
G04 Created by KiCad (PCBNEW 9.0.7) date 2026-01-25 22:41:23*
%MOMM*%
%LPD*%
G01*
G04 APERTURE LIST*
G04 Aperture macros list*
%AMRoundRect*
0 Rectangle with rounded corners*
0 $1 Rounding radius*
0 $2 $3 $4 $5 $6 $7 $8 $9 X,Y pos of 4 corners*
0 Add a 4 corners polygon primitive as box body*
4,1,4,$2,$3,$4,$5,$6,$7,$8,$9,$2,$3,0*
0 Add four circle primitives for the rounded corners*
1,1,$1+$1,$2,$3*
1,1,$1+$1,$4,$5*
1,1,$1+$1,$6,$7*
1,1,$1+$1,$8,$9*
0 Add four rect primitives between the rounded corners*
20,1,$1+$1,$2,$3,$4,$5,0*
20,1,$1+$1,$4,$5,$6,$7,0*
20,1,$1+$1,$6,$7,$8,$9,0*
20,1,$1+$1,$8,$9,$2,$3,0*%
G04 Aperture macros list end*
%TA.AperFunction,ComponentPad*%
%ADD10C,2.000000*%
%TD*%
%TA.AperFunction,ComponentPad*%
%ADD11R,1.100000X1.800000*%
%TD*%
%TA.AperFunction,ComponentPad*%
%ADD12RoundRect,0.275000X-0.275000X-0.625000X0.275000X-0.625000X0.275000X0.625000X-0.275000X0.625000X0*%
%TD*%
%TA.AperFunction,ComponentPad*%
%ADD13R,1.700000X1.700000*%
%TD*%
%TA.AperFunction,ComponentPad*%
%ADD14C,1.700000*%
%TD*%
%TA.AperFunction,ComponentPad*%
%ADD15RoundRect,0.250000X0.550000X-0.950000X0.550000X0.950000X-0.550000X0.950000X-0.550000X-0.950000X0*%
%TD*%
%TA.AperFunction,ComponentPad*%
%ADD16O,1.600000X2.400000*%
%TD*%
%TA.AperFunction,ComponentPad*%
%ADD17RoundRect,0.249999X-0.850001X-0.850001X0.850001X-0.850001X0.850001X0.850001X-0.850001X0.850001X0*%
%TD*%
%TA.AperFunction,ComponentPad*%
%ADD18C,2.200000*%
%TD*%
%TA.AperFunction,ComponentPad*%
%ADD19RoundRect,0.250000X-0.550000X0.550000X-0.550000X-0.550000X0.550000X-0.550000X0.550000X0.550000X0*%
%TD*%
%TA.AperFunction,ComponentPad*%
%ADD20C,1.600000*%
%TD*%
%TA.AperFunction,ComponentPad*%
%ADD21RoundRect,0.250000X-0.550000X-0.550000X0.550000X-0.550000X0.550000X0.550000X-0.550000X0.550000X0*%
%TD*%
%TA.AperFunction,ComponentPad*%
%ADD22RoundRect,0.250000X0.550000X-0.550000X0.550000X0.550000X-0.550000X0.550000X-0.550000X-0.550000X0*%
%TD*%
%TA.AperFunction,ComponentPad*%
%ADD23R,3.000000X3.000000*%
%TD*%
%TA.AperFunction,ComponentPad*%
%ADD24C,3.000000*%
%TD*%
%TA.AperFunction,ViaPad*%
%ADD25C,0.600000*%
%TD*%
%TA.AperFunction,Conductor*%
%ADD26C,0.250000*%
%TD*%
G04 APERTURE END LIST*
D10*
%TO.P,R4,1*%
%TO.N,Net-(C1-Pad2)*%
X109190000Y-81750000D03*
%TO.P,R4,2*%
%TO.N,Net-(D1-K)*%
X116810000Y-81750000D03*
%TD*%
D11*
%TO.P,Q1,1,C*%
%TO.N,Net-(J4-Pin_3)*%
X134230000Y-79670000D03*
D12*
%TO.P,Q1,2,B*%
%TO.N,Net-(Q1-B)*%
X135500000Y-77600000D03*
%TO.P,Q1,3,E*%
%TO.N,SW_V1*%
X136770000Y-79670000D03*
%TD*%
D13*
%TO.P,J4,1,Pin_1*%
%TO.N,Net-(J4-Pin_1)*%
X110000000Y-78000000D03*
D14*
%TO.P,J4,2,Pin_2*%
%TO.N,Net-(J4-Pin_2)*%
X112540000Y-78000000D03*
%TO.P,J4,3,Pin_3*%
%TO.N,Net-(J4-Pin_3)*%
X115080000Y-78000000D03*
%TO.P,J4,4,Pin_4*%
%TO.N,SW_V1*%
X117620000Y-78000000D03*
%TO.P,J4,5,Pin_5*%
%TO.N,SW_V2*%
X120160000Y-78000000D03*
%TO.P,J4,6,Pin_6*%
%TO.N,VCC*%
X122700000Y-78000000D03*
%TD*%
D13*
%TO.P,J1,1,Pin_1*%
%TO.N,Net-(D10-A)*%
X130000000Y-106000000D03*
D14*
%TO.P,J1,2,Pin_2*%
%TO.N,Net-(D9-A)*%
X130000000Y-108540000D03*
%TO.P,J1,3,Pin_3*%
%TO.N,Net-(D10-K)*%
X130000000Y-111080000D03*
%TD*%
D10*
%TO.P,C1,1*%
%TO.N,SW_V1*%
X117000000Y-85000000D03*
%TO.P,C1,2*%
%TO.N,Net-(C1-Pad2)*%
X112000000Y-85000000D03*
%TD*%
D15*
%TO.P,U1,1,PE*%
%TO.N,Net-(U1-PE)*%
X119750000Y-91370000D03*
D16*
%TO.P,U1,2,Q4*%
%TO.N,unconnected-(U1-Q4-Pad2)*%
X122290000Y-91370000D03*
%TO.P,U1,3,J4*%
%TO.N,VCC*%
X124830000Y-91370000D03*
%TO.P,U1,4,J1*%
X127370000Y-91370000D03*
%TO.P,U1,5,Cin*%
%TO.N,SW_V1*%
X129910000Y-91370000D03*
%TO.P,U1,6,Q1*%
%TO.N,Net-(J4-Pin_1)*%
X132450000Y-91370000D03*
%TO.P,U1,7,Cout*%
%TO.N,Net-(U1-Cout)*%
X134990000Y-91370000D03*
%TO.P,U1,8,VSS*%
%TO.N,SW_V1*%
X137530000Y-91370000D03*
%TO.P,U1,9,B/D*%
%TO.N,VCC*%
X137530000Y-83750000D03*
%TO.P,U1,10,U/D*%
X134990000Y-83750000D03*
%TO.P,U1,11,Q2*%
%TO.N,Net-(D10-A)*%
X132450000Y-83750000D03*
%TO.P,U1,12,J2*%
%TO.N,SW_V1*%
X129910000Y-83750000D03*
%TO.P,U1,13,J3*%
X127370000Y-83750000D03*
%TO.P,U1,14,Q3*%
%TO.N,Net-(D9-A)*%
X124830000Y-83750000D03*
%TO.P,U1,15,CK*%
%TO.N,Net-(D1-K)*%
X122290000Y-83750000D03*
%TO.P,U1,16,VDD*%
%TO.N,VCC*%
X119750000Y-83750000D03*
%TD*%
D17*
%TO.P,D11,1,K*%
%TO.N,Net-(BT1--)*%
X114420000Y-113250000D03*
D18*
%TO.P,D11,2,A*%
%TO.N,SW_V1*%
X124580000Y-113250000D03*
%TD*%
D19*
%TO.P,C3,1*%
%TO.N,VCC*%
X124750000Y-101044887D03*
D20*
%TO.P,C3,2*%
%TO.N,Net-(C3-Pad2)*%
X124750000Y-103544887D03*
%TD*%
D10*
%TO.P,R2,1*%
%TO.N,Net-(D1-K)*%
X101750000Y-92310000D03*
%TO.P,R2,2*%
%TO.N,Net-(C3-Pad2)*%
X101750000Y-84690000D03*
%TD*%
%TO.P,R3,1*%
%TO.N,SW_V1*%
X117060000Y-88250000D03*
%TO.P,R3,2*%
%TO.N,SW_V2*%
X109440000Y-88250000D03*
%TD*%
%TO.P,R1,1*%
%TO.N,Net-(D1-A)*%
X105000000Y-92310000D03*
%TO.P,R1,2*%
%TO.N,Net-(C3-Pad2)*%
X105000000Y-84690000D03*
%TD*%
D21*
%TO.P,D1,1,K*%
%TO.N,Net-(D1-K)*%
X101380000Y-110000000D03*
D20*
%TO.P,D1,2,A*%
%TO.N,Net-(D1-A)*%
X109000000Y-110000000D03*
%TD*%
D22*
%TO.P,D9,1,K*%
%TO.N,Net-(D10-K)*%
X134000000Y-111810000D03*
D20*
%TO.P,D9,2,A*%
%TO.N,Net-(D9-A)*%
X134000000Y-104190000D03*
%TD*%
D10*
%TO.P,C2,1*%
%TO.N,SW_V1*%
X137500000Y-95000000D03*
%TO.P,C2,2*%
%TO.N,VCC*%
X137500000Y-100000000D03*
%TD*%
D22*
%TO.P,D10,1,K*%
%TO.N,Net-(D10-K)*%
X136750000Y-111810000D03*
D20*
%TO.P,D10,2,A*%
%TO.N,Net-(D10-A)*%
X136750000Y-104190000D03*
%TD*%
D10*
%TO.P,C4,1*%
%TO.N,SW_V1*%
X134250000Y-94750000D03*
%TO.P,C4,2*%
%TO.N,SW_V2*%
X134250000Y-99750000D03*
%TD*%
%TO.P,R5,1*%
%TO.N,Net-(R5-Pad1)*%
X114190000Y-110000000D03*
%TO.P,R5,2*%
%TO.N,Net-(Q1-B)*%
X121810000Y-110000000D03*
%TD*%
D15*
%TO.P,U2,1*%
%TO.N,SW_V2*%
X104960000Y-107000000D03*
D16*
%TO.P,U2,2*%
%TO.N,Net-(C1-Pad2)*%
X107500000Y-107000000D03*
%TO.P,U2,3*%
%TO.N,Net-(D1-K)*%
X110040000Y-107000000D03*
%TO.P,U2,4*%
%TO.N,Net-(R5-Pad1)*%
X112580000Y-107000000D03*
%TO.P,U2,5*%
%TO.N,Net-(C3-Pad2)*%
X115120000Y-107000000D03*
%TO.P,U2,6*%
X117660000Y-107000000D03*
%TO.P,U2,7,Vss*%
%TO.N,SW_V1*%
X120200000Y-107000000D03*
%TO.P,U2,8*%
%TO.N,Net-(U1-Cout)*%
X120200000Y-99380000D03*
%TO.P,U2,9*%
%TO.N,VCC*%
X117660000Y-99380000D03*
%TO.P,U2,10*%
%TO.N,Net-(U1-PE)*%
X115120000Y-99380000D03*
%TO.P,U2,11*%
%TO.N,Net-(J4-Pin_2)*%
X112580000Y-99380000D03*
%TO.P,U2,12*%
%TO.N,Net-(D9-A)*%
X110040000Y-99380000D03*
%TO.P,U2,13*%
%TO.N,Net-(R5-Pad1)*%
X107500000Y-99380000D03*
%TO.P,U2,14,Vdd*%
%TO.N,VCC*%
X104960000Y-99380000D03*
%TD*%
D10*
%TO.P,R10,1*%
%TO.N,SW_V2*%
X101750000Y-107060000D03*
%TO.P,R10,2*%
%TO.N,VCC*%
X101750000Y-99440000D03*
%TD*%
D23*
%TO.P,BT2,1,+*%
%TO.N,VCC*%
X128600000Y-77100000D03*
D24*
%TO.P,BT2,2,-*%
%TO.N,Net-(BT1-+)*%
X128599999Y-97100001D03*
%TD*%
D23*
%TO.P,BT1,1,+*%
%TO.N,Net-(BT1-+)*%
X111400000Y-92200000D03*
D24*
%TO.P,BT1,2,-*%
%TO.N,Net-(BT1--)*%
X111400000Y-112200000D03*
%TD*%
D25*
%TO.N,VCC*%
X135000000Y-101500000D03*
X109251000Y-97500000D03*
X128500000Y-80125000D03*
%TO.N,Net-(C3-Pad2)*%
X103500000Y-95000000D03*
X103500000Y-100065000D03*
X113536942Y-108463058D03*
X103536942Y-93213058D03*
X103500000Y-98815000D03*
X106750000Y-102500000D03*
X105461000Y-102500000D03*
X112653058Y-109346942D03*
%TO.N,SW_V2*%
X112608774Y-110606615D03*
X135250000Y-105000000D03*
%TO.N,Net-(D1-K)*%
X111250000Y-82250000D03*
X114125000Y-82750000D03*
X104161942Y-90000000D03*
%TO.N,Net-(D1-A)*%
X111250000Y-103500000D03*
%TO.N,Net-(D9-A)*%
X121000000Y-104750000D03*
X120000000Y-103750000D03*
%TO.N,Net-(J4-Pin_1)*%
X118995558Y-79620558D03*
X121166942Y-80416942D03*
%TO.N,Net-(U1-Cout)*%
X125500000Y-99250000D03*
X132316942Y-96933058D03*
X131433058Y-97816942D03*
X124205000Y-99250000D03*
%TO.N,Net-(U1-PE)*%
X116888884Y-97725001D03*
%TO.N,Net-(J4-Pin_2)*%
X113250000Y-80308058D03*
X112250000Y-96750000D03*
%TO.N,Net-(J4-Pin_3)*%
X125625000Y-79500000D03*
X126875000Y-79500000D03*
X118243058Y-76493058D03*
X120001942Y-76501942D03*
%TD*%
D26*
%TO.N,Net-(BT1-+)*%
X113850001Y-97100001D02*
X111400000Y-94650000D01*
X111400000Y-94650000D02*
X111400000Y-92200000D01*
X128599999Y-97100001D02*
X113850001Y-97100001D01*
%TO.N,VCC*%
X135000000Y-101500000D02*
X136000000Y-101500000D01*
X124250000Y-86000000D02*
X124250000Y-86887810D01*
X109251000Y-97500000D02*
X106840000Y-97500000D01*
X134990000Y-83750000D02*
X137530000Y-83750000D01*
X124830000Y-91370000D02*
X127370000Y-91370000D01*
X136000000Y-101500000D02*
X137500000Y-100000000D01*
X121500000Y-85500000D02*
X123750000Y-85500000D01*
X128500000Y-77200000D02*
X128600000Y-77100000D01*
X106840000Y-97500000D02*
X104960000Y-99380000D01*
X123750000Y-85500000D02*
X124250000Y-86000000D01*
X119750000Y-83750000D02*
X121500000Y-85500000D01*
X128500000Y-80125000D02*
X128500000Y-77200000D01*
X127370000Y-90007810D02*
X127370000Y-91370000D01*
X128600000Y-77100000D02*
X123600000Y-77100000D01*
X124250000Y-86887810D02*
X127370000Y-90007810D01*
X123600000Y-77100000D02*
X122700000Y-78000000D01*
X134990000Y-83490000D02*
X134990000Y-83750000D01*
%TO.N,Net-(C1-Pad2)*%
X112000000Y-87565248D02*
X112000000Y-85000000D01*
X107500000Y-107000000D02*
X107500000Y-103912404D01*
X110750000Y-83310000D02*
X110750000Y-83750000D01*
X112000000Y-85000000D02*
X110750000Y-83750000D01*
X109190000Y-81750000D02*
X110750000Y-83310000D01*
X111250000Y-100162404D02*
X111250000Y-95702000D01*
X111250000Y-95702000D02*
X109574000Y-94026000D01*
X109574000Y-94026000D02*
X109574000Y-89991248D01*
X109574000Y-89991248D02*
X112000000Y-87565248D01*
X107500000Y-103912404D02*
X111250000Y-100162404D01*
%TO.N,Net-(C3-Pad2)*%
X103500000Y-100065000D02*
X103500000Y-98815000D01*
X113536942Y-108463058D02*
X112653058Y-109346942D01*
X106750000Y-102500000D02*
X105461000Y-102500000D01*
X103500000Y-95000000D02*
X103500000Y-93250000D01*
X103500000Y-93250000D02*
X103536942Y-93213058D01*
%TO.N,SW_V2*%
X134250000Y-102847595D02*
X134250000Y-99750000D01*
X106133646Y-111443646D02*
X109574000Y-111443646D01*
X135250000Y-103847595D02*
X134250000Y-102847595D01*
X110643646Y-110374000D02*
X112376159Y-110374000D01*
X101750000Y-107060000D02*
X106133646Y-111443646D01*
X109574000Y-111443646D02*
X110643646Y-110374000D01*
X112376159Y-110374000D02*
X112608774Y-110606615D01*
X135250000Y-105000000D02*
X135250000Y-103847595D01*
%TO.N,Net-(D1-K)*%
X111750000Y-82750000D02*
X111250000Y-82250000D01*
X104060000Y-90000000D02*
X104161942Y-90000000D01*
X103155000Y-90905000D02*
X104060000Y-90000000D01*
X103155000Y-90905000D02*
X101750000Y-92310000D01*
X114125000Y-82750000D02*
X111750000Y-82750000D01*
%TO.N,Net-(D1-A)*%
X111250000Y-108881370D02*
X110131370Y-110000000D01*
X111250000Y-103500000D02*
X111250000Y-108881370D01*
X110131370Y-110000000D02*
X109000000Y-110000000D01*
%TO.N,Net-(D9-A)*%
X132750000Y-102940000D02*
X134000000Y-104190000D01*
X132730818Y-100000000D02*
X132750000Y-100000000D01*
X124830000Y-83750000D02*
X124830000Y-86830000D01*
X132750000Y-100000000D02*
X132750000Y-102940000D01*
X124830000Y-86830000D02*
X128496000Y-90496000D01*
X128496000Y-90496000D02*
X128496000Y-94413648D01*
X121000000Y-104750000D02*
X120000000Y-103750000D01*
X130791176Y-96708824D02*
X130791176Y-98060358D01*
X130791176Y-98060358D02*
X132730818Y-100000000D01*
X128496000Y-94413648D02*
X130791176Y-96708824D01*
%TO.N,Net-(J4-Pin_1)*%
X120433058Y-79683058D02*
X121166942Y-80416942D01*
X118995558Y-79620558D02*
X119058058Y-79683058D01*
X119058058Y-79683058D02*
X120433058Y-79683058D01*
%TO.N,Net-(U1-Cout)*%
X125500000Y-99250000D02*
X124205000Y-99250000D01*
X132316942Y-96933058D02*
X131433058Y-97816942D01*
%TO.N,Net-(U1-PE)*%
X115233885Y-99380000D02*
X116888884Y-97725001D01*
X115120000Y-99380000D02*
X115233885Y-99380000D01*
%TO.N,Net-(J4-Pin_2)*%
X112250000Y-96750000D02*
X112580000Y-97080000D01*
X113250000Y-80308058D02*
X112540000Y-79598058D01*
X112540000Y-79598058D02*
X112540000Y-78000000D01*
X112580000Y-97080000D02*
X112580000Y-99380000D01*
%TO.N,Net-(J4-Pin_3)*%
X120001942Y-76501942D02*
X118251942Y-76501942D01*
X126875000Y-79500000D02*
X125625000Y-79500000D01*
X118251942Y-76501942D02*
X118243058Y-76493058D01*
%TD*%
%TA.AperFunction,Conductor*%
%TO.N,SW_V1*%
G36*
X117991147Y-75520185D02*
G01*
X118036902Y-75572989D01*
X118046846Y-75642147D01*
X118017821Y-75705703D01*
X117971560Y-75739061D01*
X117863885Y-75783660D01*
X117863872Y-75783667D01*
X117732769Y-75871268D01*
X117732765Y-75871271D01*
X117621271Y-75982765D01*
X117621268Y-75982769D01*
X117533667Y-76113872D01*
X117533660Y-76113885D01*
X117473322Y-76259556D01*
X117473319Y-76259568D01*
X117442558Y-76414211D01*
X117442558Y-76555370D01*
X117422873Y-76622409D01*
X117370069Y-76668164D01*
X117337958Y-76677843D01*
X117303869Y-76683242D01*
X117101782Y-76748904D01*
X116912439Y-76845380D01*
X116858282Y-76884727D01*
X116858282Y-76884728D01*
X117490591Y-77517037D01*
X117427007Y-77534075D01*
X117312993Y-77599901D01*
X117219901Y-77692993D01*
X117154075Y-77807007D01*
X117137037Y-77870591D01*
X116504728Y-77238282D01*
X116504727Y-77238282D01*
X116465380Y-77292440D01*
X116465376Y-77292446D01*
X116460760Y-77301505D01*
X116412781Y-77352297D01*
X116344959Y-77369087D01*
X116278826Y-77346543D01*
X116239794Y-77301493D01*
X116235051Y-77292184D01*
X116235049Y-77292181D01*
X116235048Y-77292179D01*
X116110109Y-77120213D01*
X115959786Y-76969890D01*
X115787820Y-76844951D01*
X115598414Y-76748444D01*
X115598413Y-76748443D01*
X115598412Y-76748443D01*
X115396243Y-76682754D01*
X115396241Y-76682753D01*
X115396240Y-76682753D01*
X115234957Y-76657208D01*
X115186287Y-76649500D01*
X114973713Y-76649500D01*
X114925042Y-76657208D01*
X114763760Y-76682753D01*
X114561585Y-76748444D01*
X114372179Y-76844951D01*
X114200213Y-76969890D01*
X114049890Y-77120213D01*
X113924949Y-77292182D01*
X113920484Y-77300946D01*
X113872509Y-77351742D01*
X113804688Y-77368536D01*
X113738553Y-77345998D01*
X113699516Y-77300946D01*
X113695050Y-77292182D01*
X113570109Y-77120213D01*
X113419786Y-76969890D01*
X113247820Y-76844951D01*
X113058414Y-76748444D01*
X113058413Y-76748443D01*
X113058412Y-76748443D01*
X112856243Y-76682754D01*
X112856241Y-76682753D01*
X112856240Y-76682753D01*
X112694957Y-76657208D01*
X112646287Y-76649500D01*
X112433713Y-76649500D01*
X112385042Y-76657208D01*
X112223760Y-76682753D01*
X112021585Y-76748444D01*
X111832179Y-76844951D01*
X111660215Y-76969889D01*
X111546673Y-77083431D01*
X111485350Y-77116915D01*
X111415658Y-77111931D01*
X111359725Y-77070059D01*
X111342810Y-77039082D01*
X111293797Y-76907671D01*
X111293793Y-76907664D01*
X111207547Y-76792455D01*
X111207544Y-76792452D01*
X111092335Y-76706206D01*
X111092328Y-76706202D01*
X110957482Y-76655908D01*
X110957483Y-76655908D01*
X110897883Y-76649501D01*
X110897881Y-76649500D01*
X110897873Y-76649500D01*
X110897864Y-76649500D01*
X109102129Y-76649500D01*
X109102123Y-76649501D01*
X109042516Y-76655908D01*
X108907671Y-76706202D01*
X108907664Y-76706206D01*
X108792455Y-76792452D01*
X108792452Y-76792455D01*
X108706206Y-76907664D01*
X108706202Y-76907671D01*
X108655908Y-77042517D01*
X108649501Y-77102116D01*
X108649500Y-77102135D01*
X108649500Y-78897870D01*
X108649501Y-78897876D01*
X108655908Y-78957483D01*
X108706202Y-79092328D01*
X108706206Y-79092335D01*
X108792452Y-79207544D01*
X108792455Y-79207547D01*
X108907664Y-79293793D01*
X108907671Y-79293797D01*
X109042517Y-79344091D01*
X109042516Y-79344091D01*
X109049444Y-79344835D01*
X109102127Y-79350500D01*
X110897872Y-79350499D01*
X110957483Y-79344091D01*
X111092331Y-79293796D01*
X111207546Y-79207546D01*
X111293796Y-79092331D01*
X111342810Y-78960916D01*
X111384681Y-78904984D01*
X111450145Y-78880566D01*
X111518418Y-78895417D01*
X111546673Y-78916569D01*
X111660213Y-79030109D01*
X111832181Y-79155050D01*
X111846792Y-79162494D01*
X111897589Y-79210467D01*
X111914500Y-79272980D01*
X111914500Y-79659665D01*
X111919465Y-79684628D01*
X111919464Y-79684628D01*
X111938535Y-79780503D01*
X111938540Y-79780521D01*
X111948933Y-79805609D01*
X111950877Y-79810302D01*
X111985688Y-79894344D01*
X112019915Y-79945567D01*
X112023864Y-79951477D01*
X112054140Y-79996789D01*
X112054141Y-79996790D01*
X112054142Y-79996791D01*
X112141267Y-80083916D01*
X112141268Y-80083916D01*
X112148335Y-80090983D01*
X112148334Y-80090983D01*
X112148338Y-80090986D01*
X112424205Y-80366853D01*
X112457690Y-80428176D01*
X112458141Y-80430343D01*
X112480261Y-80541547D01*
X112480264Y-80541559D01*
X112540602Y-80687230D01*
X112540609Y-80687243D01*
X112628210Y-80818346D01*
X112628213Y-80818350D01*
X112739707Y-80929844D01*
X112739711Y-80929847D01*
X112870814Y-81017448D01*
X112870827Y-81017455D01*
X112998891Y-81070500D01*
X113016503Y-81077795D01*
X113171153Y-81108557D01*
X113171156Y-81108558D01*
X113171158Y-81108558D01*
X113328844Y-81108558D01*
X113328845Y-81108557D01*
X113483497Y-81077795D01*
X113629179Y-81017452D01*
X113760289Y-80929847D01*
X113871789Y-80818347D01*
X113959394Y-80687237D01*
X114019737Y-80541555D01*
X114050500Y-80386900D01*
X114050500Y-80229216D01*
X114050500Y-80229213D01*
X114050499Y-80229211D01*
X114046556Y-80209390D01*
X114019737Y-80074561D01*
X114007970Y-80046153D01*
X113959397Y-79928885D01*
X113959390Y-79928872D01*
X113871789Y-79797769D01*
X113871786Y-79797765D01*
X113760292Y-79686271D01*
X113760288Y-79686268D01*
X113629185Y-79598667D01*
X113629172Y-79598660D01*
X113483501Y-79538322D01*
X113483489Y-79538319D01*
X113372285Y-79516199D01*
X113355529Y-79507434D01*
X113337049Y-79503414D01*
X113312007Y-79484668D01*
X113310374Y-79483814D01*
X113308856Y-79482324D01*
X113201817Y-79375284D01*
X113168334Y-79313963D01*
X113165500Y-79287605D01*
X113165500Y-79272980D01*
X113173120Y-79247026D01*
X113173318Y-79244271D01*
X113174324Y-79242925D01*
X113185185Y-79205941D01*
X113233208Y-79162494D01*
X113238969Y-79159559D01*
X113247816Y-79155051D01*
X113247815Y-79155051D01*
X113247818Y-79155050D01*
X113419786Y-79030109D01*
X113419788Y-79030106D01*
X113419792Y-79030104D01*
X113570104Y-78879792D01*
X113570106Y-78879788D01*
X113570109Y-78879786D01*
X113684648Y-78722135D01*
X113695051Y-78707816D01*
X113699514Y-78699054D01*
X113747488Y-78648259D01*
X113815308Y-78631463D01*
X113881444Y-78653999D01*
X113920484Y-78699054D01*
X113924336Y-78706613D01*
X113924951Y-78707820D01*
X114049890Y-78879786D01*
X114200213Y-79030109D01*
X114372179Y-79155048D01*
X114372181Y-79155049D01*
X114372184Y-79155051D01*
X114561588Y-79251557D01*
X114763757Y-79317246D01*
X114973713Y-79350500D01*
X114973714Y-79350500D01*
X115186286Y-79350500D01*
X115186287Y-79350500D01*
X115396243Y-79317246D01*
X115598412Y-79251557D01*
X115787816Y-79155051D01*
X115858550Y-79103660D01*
X115959786Y-79030109D01*
X115959788Y-79030106D01*
X115959792Y-79030104D01*
X116110104Y-78879792D01*
X116110106Y-78879788D01*
X116110109Y-78879786D01*
X116189316Y-78770765D01*
X116235051Y-78707816D01*
X116239793Y-78698508D01*
X116287763Y-78647711D01*
X116355583Y-78630911D01*
X116421719Y-78653445D01*
X116460763Y-78698500D01*
X116465373Y-78707547D01*
X116504728Y-78761716D01*
X117137037Y-78129408D01*
X117154075Y-78192993D01*
X117219901Y-78307007D01*
X117312993Y-78400099D01*
X117427007Y-78465925D01*
X117490589Y-78482962D01*
X116858282Y-79115269D01*
X116858282Y-79115270D01*
X116912449Y-79154624D01*
X117101782Y-79251095D01*
X117303870Y-79316757D01*
X117513754Y-79350000D01*
X117726246Y-79350000D01*
X117936126Y-79316758D01*
X118059577Y-79276646D01*
X118129419Y-79274651D01*
X118189252Y-79310731D01*
X118220080Y-79373432D01*
X118219513Y-79418768D01*
X118195058Y-79541711D01*
X118195058Y-79699404D01*
X118225819Y-79854047D01*
X118225822Y-79854059D01*
X118286160Y-79999730D01*
X118286167Y-79999743D01*
X118373768Y-80130846D01*
X118373771Y-80130850D01*
X118485265Y-80242344D01*
X118485269Y-80242347D01*
X118616372Y-80329948D01*
X118616385Y-80329955D01*
X118753874Y-80386904D01*
X118762061Y-80390295D01*
X118916711Y-80421057D01*
X118916714Y-80421058D01*
X118916716Y-80421058D01*
X119074402Y-80421058D01*
X119074403Y-80421057D01*
X119229055Y-80390295D01*
X119374737Y-80329952D01*
X119375481Y-80329455D01*
X119375929Y-80329314D01*
X119380104Y-80327083D01*
X119380527Y-80327874D01*
X119442158Y-80308578D01*
X119444370Y-80308558D01*
X120122606Y-80308558D01*
X120152046Y-80317202D01*
X120182033Y-80323726D01*
X120187048Y-80327480D01*
X120189645Y-80328243D01*
X120210287Y-80344877D01*
X120341147Y-80475737D01*
X120374632Y-80537060D01*
X120375083Y-80539227D01*
X120397203Y-80650431D01*
X120397206Y-80650443D01*
X120457544Y-80796114D01*
X120457551Y-80796127D01*
X120545152Y-80927230D01*
X120545155Y-80927234D01*
X120656649Y-81038728D01*
X120656653Y-81038731D01*
X120787756Y-81126332D01*
X120787769Y-81126339D01*
X120902842Y-81174003D01*
X120933445Y-81186679D01*
X121088095Y-81217441D01*
X121088098Y-81217442D01*
X121088100Y-81217442D01*
X121245786Y-81217442D01*
X121245787Y-81217441D01*
X121400439Y-81186679D01*
X121546121Y-81126336D01*
X121677231Y-81038731D01*
X121788731Y-80927231D01*
X121876336Y-80796121D01*
X121936679Y-80650439D01*
X121967442Y-80495784D01*
X121967442Y-80338100D01*
X121967442Y-80338097D01*
X121967441Y-80338095D01*
X121959963Y-80300499D01*
X121936679Y-80183445D01*
X121914894Y-80130850D01*
X121876339Y-80037769D01*
X121876332Y-80037756D01*
X121788731Y-79906653D01*
X121788728Y-79906649D01*
X121677234Y-79795155D01*
X121677230Y-79795152D01*
X121546127Y-79707551D01*
X121546114Y-79707544D01*
X121400443Y-79647206D01*
X121400431Y-79647203D01*
X121289227Y-79625083D01*
X121227316Y-79592698D01*
X121225737Y-79591147D01*
X120925986Y-79291396D01*
X120925143Y-79290553D01*
X120914017Y-79270148D01*
X120914016Y-79270144D01*
X120908117Y-79259325D01*
X120891714Y-79229285D01*
X120891716Y-79229244D01*
X120891697Y-79229208D01*
X120894196Y-79194573D01*
X120896698Y-79159593D01*
X120896723Y-79159559D01*
X120896726Y-79159520D01*
X120917230Y-79132165D01*
X120938570Y-79103660D01*
X120938632Y-79103614D01*
X120938634Y-79103612D01*
X120939851Y-79102714D01*
X121039792Y-79030104D01*
X121190104Y-78879792D01*
X121190106Y-78879788D01*
X121190109Y-78879786D01*
X121304648Y-78722135D01*
X121315051Y-78707816D01*
X121319514Y-78699054D01*
X121367488Y-78648259D01*
X121435308Y-78631463D01*
X121501444Y-78653999D01*
X121540484Y-78699054D01*
X121544336Y-78706613D01*
X121544951Y-78707820D01*
X121669890Y-78879786D01*
X121820213Y-79030109D01*
X121992179Y-79155048D01*
X121992181Y-79155049D01*
X121992184Y-79155051D01*
X122181588Y-79251557D01*
X122383757Y-79317246D01*
X122593713Y-79350500D01*
X122593714Y-79350500D01*
X122806286Y-79350500D01*
X122806287Y-79350500D01*
X123016243Y-79317246D01*
X123218412Y-79251557D01*
X123407816Y-79155051D01*
X123478550Y-79103660D01*
X123579786Y-79030109D01*
X123579788Y-79030106D01*
X123579792Y-79030104D01*
X123730104Y-78879792D01*
X123730106Y-78879788D01*
X123730109Y-78879786D01*
X123844648Y-78722135D01*
X123855051Y-78707816D01*
X123951557Y-78518412D01*
X124017246Y-78316243D01*
X124050500Y-78106287D01*
X124050500Y-77893713D01*
X124046569Y-77868896D01*
X124055523Y-77799606D01*
X124100518Y-77746154D01*
X124167269Y-77725513D01*
X124169042Y-77725500D01*
X126475501Y-77725500D01*
X126542540Y-77745185D01*
X126588295Y-77797989D01*
X126599501Y-77849500D01*
X126599501Y-78647870D01*
X126599502Y-78647891D01*
X126599849Y-78651120D01*
X126587439Y-78719879D01*
X126540241Y-78770765D01*
X126532419Y-78775446D01*
X126495821Y-78790606D01*
X126398981Y-78855312D01*
X126396332Y-78856898D01*
X126365382Y-78864924D01*
X126334864Y-78874480D01*
X126332650Y-78874500D01*
X126167350Y-78874500D01*
X126100311Y-78854815D01*
X126098459Y-78853602D01*
X126004184Y-78790609D01*
X126004172Y-78790602D01*
X125858501Y-78730264D01*
X125858489Y-78730261D01*
X125703845Y-78699500D01*
X125703842Y-78699500D01*
X125546158Y-78699500D01*
X125546155Y-78699500D01*
X125391510Y-78730261D01*
X125391498Y-78730264D01*
X125245827Y-78790602D01*
X125245814Y-78790609D01*
X125114711Y-78878210D01*
X125114707Y-78878213D01*
X125003213Y-78989707D01*
X125003210Y-78989711D01*
X124915609Y-79120814D01*
X124915602Y-79120827D01*
X124855264Y-79266498D01*
X124855261Y-79266510D01*
X124824500Y-79421153D01*
X124824500Y-79578846D01*
X124855261Y-79733489D01*
X124855264Y-79733501D01*
X124915602Y-79879172D01*
X124915609Y-79879185D01*
X125003210Y-80010288D01*
X125003213Y-80010292D01*
X125114707Y-80121786D01*
X125114711Y-80121789D01*
X125245814Y-80209390D01*
X125245827Y-80209397D01*
X125325377Y-80242347D01*
X125391503Y-80269737D01*
X125546153Y-80300499D01*
X125546156Y-80300500D01*
X125546158Y-80300500D01*
X125703844Y-80300500D01*
X125703845Y-80300499D01*
X125858497Y-80269737D01*
X126004179Y-80209394D01*
X126098459Y-80146398D01*
X126116505Y-80140747D01*
X126132415Y-80130523D01*
X126163374Y-80126071D01*
X126165136Y-80125520D01*
X126167350Y-80125500D01*
X126332650Y-80125500D01*
X126399689Y-80145185D01*
X126401541Y-80146398D01*
X126495821Y-80209394D01*
X126495823Y-80209395D01*
X126495827Y-80209397D01*
X126575377Y-80242347D01*
X126641503Y-80269737D01*
X126796153Y-80300499D01*
X126796156Y-80300500D01*
X126796158Y-80300500D01*
X126953844Y-80300500D01*
X126953845Y-80300499D01*
X127108497Y-80269737D01*
X127254179Y-80209394D01*
X127385289Y-80121789D01*
X127432522Y-80074556D01*
X127487819Y-80019260D01*
X127549142Y-79985775D01*
X127618834Y-79990759D01*
X127674767Y-80032631D01*
X127699184Y-80098095D01*
X127699500Y-80106941D01*
X127699500Y-80203846D01*
X127730261Y-80358489D01*
X127730264Y-80358501D01*
X127790602Y-80504172D01*
X127790609Y-80504185D01*
X127878210Y-80635288D01*
X127878213Y-80635292D01*
X127989707Y-80746786D01*
X127989711Y-80746789D01*
X128120814Y-80834390D01*
X128120827Y-80834397D01*
X128266498Y-80894735D01*
X128266503Y-80894737D01*
X128421153Y-80925499D01*
X128421156Y-80925500D01*
X128421158Y-80925500D01*
X128578844Y-80925500D01*
X128578845Y-80925499D01*
X128733497Y-80894737D01*
X128879179Y-80834394D01*
X129010289Y-80746789D01*
X129121789Y-80635289D01*
X129209394Y-80504179D01*
X129212871Y-80495786D01*
X129240875Y-80428176D01*
X129269737Y-80358497D01*
X129300500Y-80203842D01*
X129300500Y-80046158D01*
X129300500Y-80046155D01*
X129300499Y-80046153D01*
X129288489Y-79985775D01*
X129269737Y-79891503D01*
X129229828Y-79795153D01*
X129209397Y-79745828D01*
X129209396Y-79745827D01*
X129209394Y-79745821D01*
X129146397Y-79651539D01*
X129125520Y-79584863D01*
X129125500Y-79582650D01*
X129125500Y-79224499D01*
X129145185Y-79157460D01*
X129197989Y-79111705D01*
X129249500Y-79100499D01*
X130147871Y-79100499D01*
X130147872Y-79100499D01*
X130207483Y-79094091D01*
X130342331Y-79043796D01*
X130457546Y-78957546D01*
X130543796Y-78842331D01*
X130588626Y-78722135D01*
X133179500Y-78722135D01*
X133179500Y-80617870D01*
X133179501Y-80617876D01*
X133185908Y-80677483D01*
X133236202Y-80812328D01*
X133236206Y-80812335D01*
X133322452Y-80927544D01*
X133322455Y-80927547D01*
X133437664Y-81013793D01*
X133437671Y-81013797D01*
X133572517Y-81064091D01*
X133572516Y-81064091D01*
X133579444Y-81064835D01*
X133632127Y-81070500D01*
X134827872Y-81070499D01*
X134887483Y-81064091D01*
X135022331Y-81013796D01*
X135137546Y-80927546D01*
X135223796Y-80812331D01*
X135274091Y-80677483D01*
X135280500Y-80617873D01*
X135280500Y-80338530D01*
X135720000Y-80338530D01*
X135734648Y-80468539D01*
X135792330Y-80633386D01*
X135885246Y-80781262D01*
X136008737Y-80904753D01*
X136156613Y-80997669D01*
X136321460Y-81055351D01*
X136451469Y-81069999D01*
X136451473Y-81070000D01*
X136520000Y-81070000D01*
X137020000Y-81070000D01*
X137088527Y-81070000D01*
X137088530Y-81069999D01*
X137218539Y-81055351D01*
X137383386Y-80997669D01*
X137531262Y-80904753D01*
X137654753Y-80781262D01*
X137747669Y-80633386D01*
X137805351Y-80468539D01*
X137819999Y-80338530D01*
X137820000Y-80338526D01*
X137820000Y-79920000D01*
X137020000Y-79920000D01*
X137020000Y-81070000D01*
X136520000Y-81070000D01*
X136520000Y-79920000D01*
X135720000Y-79920000D01*
X135720000Y-80338530D01*
X135280500Y-80338530D01*
X135280499Y-79124499D01*
X135300184Y-79057461D01*
X135352988Y-79011706D01*
X135404499Y-79000500D01*
X135596000Y-79000500D01*
X135663039Y-79020185D01*
X135708794Y-79072989D01*
X135720000Y-79124500D01*
X135720000Y-79420000D01*
X136423590Y-79420000D01*
X136469925Y-79500255D01*
X136539745Y-79570075D01*
X136625255Y-79619444D01*
X136720630Y-79645000D01*
X136819370Y-79645000D01*
X136914745Y-79619444D01*
X137000255Y-79570075D01*
X137070075Y-79500255D01*
X137116410Y-79420000D01*
X137820000Y-79420000D01*
X137820000Y-79001473D01*
X137819999Y-79001469D01*
X137805351Y-78871460D01*
X137747669Y-78706613D01*
X137654753Y-78558737D01*
X137531262Y-78435246D01*
X137383386Y-78342330D01*
X137218539Y-78284648D01*
X137088530Y-78270000D01*
X137020000Y-78270000D01*
X137020000Y-78989670D01*
X137000255Y-78969925D01*
X136914745Y-78920556D01*
X136819370Y-78895000D01*
X136720630Y-78895000D01*
X136625255Y-78920556D01*
X136539745Y-78969925D01*
X136520000Y-78989670D01*
X136520000Y-78464994D01*
X136520940Y-78449759D01*
X136522571Y-78436577D01*
X136535841Y-78398657D01*
X136550500Y-78268552D01*
X136550500Y-76931448D01*
X136540506Y-76842750D01*
X136535842Y-76801351D01*
X136535841Y-76801349D01*
X136535841Y-76801343D01*
X136478122Y-76636394D01*
X136385147Y-76488424D01*
X136261576Y-76364853D01*
X136113606Y-76271878D01*
X136113605Y-76271877D01*
X136113604Y-76271877D01*
X135948658Y-76214159D01*
X135948648Y-76214157D01*
X135818558Y-76199500D01*
X135818552Y-76199500D01*
X135181448Y-76199500D01*
X135181441Y-76199500D01*
X135051351Y-76214157D01*
X135051341Y-76214159D01*
X134886395Y-76271877D01*
X134738423Y-76364853D01*
X134614853Y-76488423D01*
X134521877Y-76636395D01*
X134464159Y-76801341D01*
X134464157Y-76801351D01*
X134449500Y-76931441D01*
X134449500Y-78145500D01*
X134429815Y-78212539D01*
X134377011Y-78258294D01*
X134325500Y-78269500D01*
X133632129Y-78269500D01*
X133632123Y-78269501D01*
X133572516Y-78275908D01*
X133437671Y-78326202D01*
X133437664Y-78326206D01*
X133322455Y-78412452D01*
X133322452Y-78412455D01*
X133236206Y-78527664D01*
X133236202Y-78527671D01*
X133185908Y-78662517D01*
X133179501Y-78722116D01*
X133179500Y-78722135D01*
X130588626Y-78722135D01*
X130594091Y-78707483D01*
X130600500Y-78647873D01*
X130600499Y-75624499D01*
X130620184Y-75557461D01*
X130672988Y-75511706D01*
X130724499Y-75500500D01*
X137434108Y-75500500D01*
X137495933Y-75500500D01*
X137504043Y-75500765D01*
X137752895Y-75517075D01*
X137768953Y-75519190D01*
X137961353Y-75557461D01*
X138009535Y-75567045D01*
X138025202Y-75571243D01*
X138182093Y-75624500D01*
X138257481Y-75650091D01*
X138272458Y-75656294D01*
X138440293Y-75739061D01*
X138492460Y-75764787D01*
X138506507Y-75772897D01*
X138535911Y-75792544D01*
X138710464Y-75909177D01*
X138723325Y-75919045D01*
X138806118Y-75991653D01*
X138907749Y-76080781D01*
X138919218Y-76092250D01*
X138957526Y-76135932D01*
X139076747Y-76271878D01*
X139080951Y-76276671D01*
X139090825Y-76289539D01*
X139227102Y-76493492D01*
X139235212Y-76507539D01*
X139343702Y-76727534D01*
X139349909Y-76742520D01*
X139428756Y-76974797D01*
X139432954Y-76990463D01*
X139432954Y-76990464D01*
X139480807Y-77231035D01*
X139482925Y-77247116D01*
X139499235Y-77495956D01*
X139499500Y-77504066D01*
X139499500Y-112495933D01*
X139499235Y-112504043D01*
X139482925Y-112752883D01*
X139480807Y-112768964D01*
X139432954Y-113009535D01*
X139428756Y-113025202D01*
X139349909Y-113257479D01*
X139343702Y-113272465D01*
X139235212Y-113492460D01*
X139227102Y-113506507D01*
X139090825Y-113710460D01*
X139080951Y-113723328D01*
X138919218Y-113907749D01*
X138907749Y-113919218D01*
X138723328Y-114080951D01*
X138710460Y-114090825D01*
X138506507Y-114227102D01*
X138492460Y-114235212D01*
X138272465Y-114343702D01*
X138257479Y-114349909D01*
X138025202Y-114428756D01*
X138009535Y-114432954D01*
X137768964Y-114480807D01*
X137752883Y-114482925D01*
X137504043Y-114499235D01*
X137495933Y-114499500D01*
X125527309Y-114499500D01*
X125460270Y-114479815D01*
X125439628Y-114463181D01*
X124750234Y-113773787D01*
X124792292Y-113762518D01*
X124917708Y-113690110D01*
X125020110Y-113587708D01*
X125092518Y-113462292D01*
X125103787Y-113420234D01*
X125874250Y-114190698D01*
X125874250Y-114190697D01*
X125948442Y-114088581D01*
X125948446Y-114088575D01*
X126062780Y-113864184D01*
X126140602Y-113624669D01*
X126180000Y-113375928D01*
X126180000Y-113124071D01*
X126140602Y-112875330D01*
X126062780Y-112635815D01*
X125948442Y-112411416D01*
X125874250Y-112309301D01*
X125874250Y-112309300D01*
X125103787Y-113079764D01*
X125092518Y-113037708D01*
X125020110Y-112912292D01*
X124917708Y-112809890D01*
X124792292Y-112737482D01*
X124750232Y-112726212D01*
X125520698Y-111955748D01*
X125418583Y-111881557D01*
X125194184Y-111767219D01*
X124954669Y-111689397D01*
X124705928Y-111650000D01*
X124454072Y-111650000D01*
X124205330Y-111689397D01*
X123965815Y-111767219D01*
X123741413Y-111881559D01*
X123639301Y-111955747D01*
X123639300Y-111955748D01*
X124409765Y-112726212D01*
X124367708Y-112737482D01*
X124242292Y-112809890D01*
X124139890Y-112912292D01*
X124067482Y-113037708D01*
X124056212Y-113079765D01*
X123285748Y-112309300D01*
X123285747Y-112309301D01*
X123211559Y-112411413D01*
X123097219Y-112635815D01*
X123019397Y-112875330D01*
X122980000Y-113124071D01*
X122980000Y-113375928D01*
X123019397Y-113624669D01*
X123097219Y-113864184D01*
X123211557Y-114088583D01*
X123285748Y-114190697D01*
X123285748Y-114190698D01*
X124056212Y-113420234D01*
X124067482Y-113462292D01*
X124139890Y-113587708D01*
X124242292Y-113690110D01*
X124367708Y-113762518D01*
X124409765Y-113773787D01*
X123720372Y-114463181D01*
X123659049Y-114496666D01*
X123632691Y-114499500D01*
X116099970Y-114499500D01*
X116032931Y-114479815D01*
X115987176Y-114427011D01*
X115977232Y-114357853D01*
X115982264Y-114336496D01*
X116009999Y-114252798D01*
X116020500Y-114150010D01*
X116020500Y-112349990D01*
X116009999Y-112247202D01*
X115954814Y-112080665D01*
X115862712Y-111931344D01*
X115738656Y-111807288D01*
X115589335Y-111715186D01*
X115422798Y-111660001D01*
X115422796Y-111660000D01*
X115320017Y-111649500D01*
X115320010Y-111649500D01*
X114751986Y-111649500D01*
X114684947Y-111629815D01*
X114639192Y-111577011D01*
X114629248Y-111507853D01*
X114658273Y-111444297D01*
X114713665Y-111407569D01*
X114765992Y-111390568D01*
X114976433Y-111283343D01*
X115167510Y-111144517D01*
X115334517Y-110977510D01*
X115473343Y-110786433D01*
X115580568Y-110575992D01*
X115653553Y-110351368D01*
X115660971Y-110304534D01*
X115690500Y-110118097D01*
X115690500Y-109881902D01*
X120309500Y-109881902D01*
X120309500Y-110118097D01*
X120346446Y-110351368D01*
X120419433Y-110575996D01*
X120518926Y-110771260D01*
X120526657Y-110786433D01*
X120665483Y-110977510D01*
X120832490Y-111144517D01*
X121023567Y-111283343D01*
X121122991Y-111334002D01*
X121234003Y-111390566D01*
X121234005Y-111390566D01*
X121234008Y-111390568D01*
X121319158Y-111418235D01*
X121458631Y-111463553D01*
X121691903Y-111500500D01*
X121691908Y-111500500D01*
X121928097Y-111500500D01*
X122161368Y-111463553D01*
X122212291Y-111447007D01*
X122385992Y-111390568D01*
X122596433Y-111283343D01*
X122787510Y-111144517D01*
X122954517Y-110977510D01*
X123093343Y-110786433D01*
X123200568Y-110575992D01*
X123273553Y-110351368D01*
X123280971Y-110304534D01*
X123310500Y-110118097D01*
X123310500Y-109881902D01*
X123273553Y-109648631D01*
X123225513Y-109500781D01*
X123200568Y-109424008D01*
X123200566Y-109424005D01*
X123200566Y-109424003D01*
X123121129Y-109268100D01*
X123093343Y-109213567D01*
X122954517Y-109022490D01*
X122787510Y-108855483D01*
X122596433Y-108716657D01*
X122583368Y-108710000D01*
X122385996Y-108609433D01*
X122161368Y-108536446D01*
X121928097Y-108499500D01*
X121928092Y-108499500D01*
X121691908Y-108499500D01*
X121691903Y-108499500D01*
X121458631Y-108536446D01*
X121234003Y-108609433D01*
X121023566Y-108716657D01*
X120916040Y-108794780D01*
X120832490Y-108855483D01*
X120832488Y-108855485D01*
X120832487Y-108855485D01*
X120665485Y-109022487D01*
X120665485Y-109022488D01*
X120665483Y-109022490D01*
X120625875Y-109077006D01*
X120526657Y-109213566D01*
X120419433Y-109424003D01*
X120346446Y-109648631D01*
X120309500Y-109881902D01*
X115690500Y-109881902D01*
X115653553Y-109648631D01*
X115605513Y-109500781D01*
X115580568Y-109424008D01*
X115580566Y-109424005D01*
X115580566Y-109424003D01*
X115501129Y-109268100D01*
X115473343Y-109213567D01*
X115334517Y-109022490D01*
X115213299Y-108901272D01*
X115179814Y-108839949D01*
X115184798Y-108770257D01*
X115226670Y-108714324D01*
X115281580Y-108691118D01*
X115424534Y-108668477D01*
X115619219Y-108605220D01*
X115801610Y-108512287D01*
X115930482Y-108418657D01*
X115967213Y-108391971D01*
X115967215Y-108391968D01*
X115967219Y-108391966D01*
X116111966Y-108247219D01*
X116111968Y-108247215D01*
X116111971Y-108247213D01*
X116232284Y-108081614D01*
X116232283Y-108081614D01*
X116232287Y-108081610D01*
X116279516Y-107988917D01*
X116327489Y-107938123D01*
X116395310Y-107921328D01*
X116461445Y-107943865D01*
X116500483Y-107988917D01*
X116525243Y-108037510D01*
X116547715Y-108081614D01*
X116668028Y-108247213D01*
X116812786Y-108391971D01*
X116955499Y-108495656D01*
X116978390Y-108512287D01*
X117074707Y-108561363D01*
X117160776Y-108605218D01*
X117160778Y-108605218D01*
X117160781Y-108605220D01*
X117251856Y-108634812D01*
X117355465Y-108668477D01*
X117438863Y-108681686D01*
X117557648Y-108700500D01*
X117557649Y-108700500D01*
X117762351Y-108700500D01*
X117762352Y-108700500D01*
X117964534Y-108668477D01*
X118159219Y-108605220D01*
X118341610Y-108512287D01*
X118470482Y-108418657D01*
X118507213Y-108391971D01*
X118507215Y-108391968D01*
X118507219Y-108391966D01*
X118651966Y-108247219D01*
X118651968Y-108247215D01*
X118651971Y-108247213D01*
X118772284Y-108081614D01*
X118772283Y-108081614D01*
X118772287Y-108081610D01*
X118819795Y-107988369D01*
X118867770Y-107937574D01*
X118935591Y-107920779D01*
X119001725Y-107943316D01*
X119040765Y-107988370D01*
X119088140Y-108081349D01*
X119208417Y-108246894D01*
X119208417Y-108246895D01*
X119353104Y-108391582D01*
X119518650Y-108511859D01*
X119700968Y-108604754D01*
X119895578Y-108667988D01*
X119950000Y-108676607D01*
X119950000Y-107315686D01*
X119954394Y-107320080D01*
X120045606Y-107372741D01*
X120147339Y-107400000D01*
X120252661Y-107400000D01*
X120354394Y-107372741D01*
X120445606Y-107320080D01*
X120450000Y-107315686D01*
X120450000Y-108676606D01*
X120504421Y-108667988D01*
X120699031Y-108604754D01*
X120881349Y-108511859D01*
X121046894Y-108391582D01*
X121046895Y-108391582D01*
X121191582Y-108246895D01*
X121191582Y-108246894D01*
X121311859Y-108081349D01*
X121404755Y-107899031D01*
X121467990Y-107704417D01*
X121500000Y-107502317D01*
X121500000Y-107250000D01*
X120515686Y-107250000D01*
X120520080Y-107245606D01*
X120572741Y-107154394D01*
X120600000Y-107052661D01*
X120600000Y-106947339D01*
X120572741Y-106845606D01*
X120520080Y-106754394D01*
X120515686Y-106750000D01*
X121500000Y-106750000D01*
X121500000Y-106497682D01*
X121467990Y-106295582D01*
X121404755Y-106100968D01*
X121311859Y-105918650D01*
X121191582Y-105753105D01*
X121191582Y-105753104D01*
X121167927Y-105729449D01*
X121134442Y-105668126D01*
X121139426Y-105598434D01*
X121181298Y-105542501D01*
X121227750Y-105521786D01*
X121227665Y-105521506D01*
X121229898Y-105520828D01*
X121231419Y-105520150D01*
X121233497Y-105519737D01*
X121379179Y-105459394D01*
X121510289Y-105371789D01*
X121621789Y-105260289D01*
X121709394Y-105129179D01*
X121709395Y-105129176D01*
X121709397Y-105129173D01*
X121720596Y-105102135D01*
X128649500Y-105102135D01*
X128649500Y-106897870D01*
X128649501Y-106897876D01*
X128655908Y-106957483D01*
X128706202Y-107092328D01*
X128706206Y-107092335D01*
X128792452Y-107207544D01*
X128792455Y-107207547D01*
X128907664Y-107293793D01*
X128907671Y-107293797D01*
X129039082Y-107342810D01*
X129095016Y-107384681D01*
X129119433Y-107450145D01*
X129104582Y-107518418D01*
X129083431Y-107546673D01*
X128969889Y-107660215D01*
X128844951Y-107832179D01*
X128748444Y-108021585D01*
X128682753Y-108223760D01*
X128649500Y-108433713D01*
X128649500Y-108646286D01*
X128682633Y-108855483D01*
X128682754Y-108856243D01*
X128736771Y-109022490D01*
X128748444Y-109058414D01*
X128844951Y-109247820D01*
X128969890Y-109419786D01*
X129120213Y-109570109D01*
X129292182Y-109695050D01*
X129300946Y-109699516D01*
X129351742Y-109747491D01*
X129368536Y-109815312D01*
X129345998Y-109881447D01*
X129300946Y-109920484D01*
X129292182Y-109924949D01*
X129120213Y-110049890D01*
X128969890Y-110200213D01*
X128844951Y-110372179D01*
X128748444Y-110561585D01*
X128682753Y-110763760D01*
X128666032Y-110869334D01*
X128649500Y-110973713D01*
X128649500Y-111186287D01*
X128656193Y-111228543D01*
X128681854Y-111390566D01*
X128682754Y-111396243D01*
X128745712Y-111590008D01*
X128748444Y-111598414D01*
X128844951Y-111787820D01*
X128969890Y-111959786D01*
X129120213Y-112110109D01*
X129292179Y-112235048D01*
X129292181Y-112235049D01*
X129292184Y-112235051D01*
X129481588Y-112331557D01*
X129683757Y-112397246D01*
X129893713Y-112430500D01*
X129893714Y-112430500D01*
X130106286Y-112430500D01*
X130106287Y-112430500D01*
X130316243Y-112397246D01*
X130518412Y-112331557D01*
X130707816Y-112235051D01*
X130765494Y-112193146D01*
X130879786Y-112110109D01*
X130879788Y-112110106D01*
X130879792Y-112110104D01*
X131030104Y-111959792D01*
X131030106Y-111959788D01*
X131030109Y-111959786D01*
X131155048Y-111787820D01*
X131155047Y-111787820D01*
X131155051Y-111787816D01*
X131251557Y-111598412D01*
X131317246Y-111396243D01*
X131346747Y-111209983D01*
X132699500Y-111209983D01*
X132699500Y-112410001D01*
X132699501Y-112410018D01*
X132710000Y-112512796D01*
X132710001Y-112512799D01*
X132735953Y-112591116D01*
X132765186Y-112679334D01*
X132857288Y-112828656D01*
X132981344Y-112952712D01*
X133130666Y-113044814D01*
X133297203Y-113099999D01*
X133399991Y-113110500D01*
X134600008Y-113110499D01*
X134702797Y-113099999D01*
X134869334Y-113044814D01*
X135018656Y-112952712D01*
X135142712Y-112828656D01*
X135234814Y-112679334D01*
X135257294Y-112611491D01*
X135297065Y-112554049D01*
X135361580Y-112527225D01*
X135430356Y-112539539D01*
X135481557Y-112587082D01*
X135492704Y-112611491D01*
X135500765Y-112635815D01*
X135515186Y-112679334D01*
X135607288Y-112828656D01*
X135731344Y-112952712D01*
X135880666Y-113044814D01*
X136047203Y-113099999D01*
X136149991Y-113110500D01*
X137350008Y-113110499D01*
X137452797Y-113099999D01*
X137619334Y-113044814D01*
X137768656Y-112952712D01*
X137892712Y-112828656D01*
X137984814Y-112679334D01*
X138039999Y-112512797D01*
X138050500Y-112410009D01*
X138050499Y-111209992D01*
X138048202Y-111187510D01*
X138039999Y-111107203D01*
X138039998Y-111107200D01*
X138015382Y-111032915D01*
X137984814Y-110940666D01*
X137892712Y-110791344D01*
X137768656Y-110667288D01*
X137659579Y-110600009D01*
X137619336Y-110575187D01*
X137619331Y-110575185D01*
X137578298Y-110561588D01*
X137452797Y-110520001D01*
X137452795Y-110520000D01*
X137350010Y-110509500D01*
X136149998Y-110509500D01*
X136149981Y-110509501D01*
X136047203Y-110520000D01*
X136047200Y-110520001D01*
X135880668Y-110575185D01*
X135880663Y-110575187D01*
X135731342Y-110667289D01*
X135607289Y-110791342D01*
X135515187Y-110940663D01*
X135515186Y-110940666D01*
X135502977Y-110977512D01*
X135492706Y-111008507D01*
X135452933Y-111065951D01*
X135388417Y-111092774D01*
X135319641Y-111080459D01*
X135268441Y-111032915D01*
X135257294Y-111008507D01*
X135234814Y-110940666D01*
X135142712Y-110791344D01*
X135018656Y-110667288D01*
X134909579Y-110600009D01*
X134869336Y-110575187D01*
X134869331Y-110575185D01*
X134828298Y-110561588D01*
X134702797Y-110520001D01*
X134702795Y-110520000D01*
X134600010Y-110509500D01*
X133399998Y-110509500D01*
X133399981Y-110509501D01*
X133297203Y-110520000D01*
X133297200Y-110520001D01*
X133130668Y-110575185D01*
X133130663Y-110575187D01*
X132981342Y-110667289D01*
X132857289Y-110791342D01*
X132765187Y-110940663D01*
X132765186Y-110940666D01*
X132710001Y-111107203D01*
X132710001Y-111107204D01*
X132710000Y-111107204D01*
X132699500Y-111209983D01*
X131346747Y-111209983D01*
X131350500Y-111186287D01*
X131350500Y-110973713D01*
X131317246Y-110763757D01*
X131251557Y-110561588D01*
X131155051Y-110372184D01*
X131155049Y-110372181D01*
X131155048Y-110372179D01*
X131030109Y-110200213D01*
X130879786Y-110049890D01*
X130707820Y-109924951D01*
X130707115Y-109924591D01*
X130699054Y-109920485D01*
X130648259Y-109872512D01*
X130631463Y-109804692D01*
X130653999Y-109738556D01*
X130699054Y-109699515D01*
X130707816Y-109695051D01*
X130771708Y-109648631D01*
X130879786Y-109570109D01*
X130879788Y-109570106D01*
X130879792Y-109570104D01*
X131030104Y-109419792D01*
X131030106Y-109419788D01*
X131030109Y-109419786D01*
X131155048Y-109247820D01*
X131155047Y-109247820D01*
X131155051Y-109247816D01*
X131251557Y-109058412D01*
X131317246Y-108856243D01*
X131350500Y-108646287D01*
X131350500Y-108433713D01*
X131317246Y-108223757D01*
X131251557Y-108021588D01*
X131155051Y-107832184D01*
X131155049Y-107832181D01*
X131155048Y-107832179D01*
X131030109Y-107660213D01*
X130916569Y-107546673D01*
X130883084Y-107485350D01*
X130888068Y-107415658D01*
X130929940Y-107359725D01*
X130960915Y-107342810D01*
X131092331Y-107293796D01*
X131207546Y-107207546D01*
X131293796Y-107092331D01*
X131344091Y-106957483D01*
X131350500Y-106897873D01*
X131350499Y-105102128D01*
X131344091Y-105042517D01*
X131322079Y-104983501D01*
X131293797Y-104907671D01*
X131293793Y-104907664D01*
X131207547Y-104792455D01*
X131207544Y-104792452D01*
X131092335Y-104706206D01*
X131092328Y-104706202D01*
X130957482Y-104655908D01*
X130957483Y-104655908D01*
X130897883Y-104649501D01*
X130897881Y-104649500D01*
X130897873Y-104649500D01*
X130897864Y-104649500D01*
X129102129Y-104649500D01*
X129102123Y-104649501D01*
X129042516Y-104655908D01*
X128907671Y-104706202D01*
X128907664Y-104706206D01*
X128792455Y-104792452D01*
X128792452Y-104792455D01*
X128706206Y-104907664D01*
X128706202Y-104907671D01*
X128655908Y-105042517D01*
X128649501Y-105102116D01*
X128649501Y-105102123D01*
X128649500Y-105102135D01*
X121720596Y-105102135D01*
X121741630Y-105051354D01*
X121741630Y-105051353D01*
X121745290Y-105042517D01*
X121769737Y-104983497D01*
X121800500Y-104828842D01*
X121800500Y-104671158D01*
X121800500Y-104671155D01*
X121800499Y-104671153D01*
X121796192Y-104649500D01*
X121769737Y-104516503D01*
X121746080Y-104459390D01*
X121709397Y-104370827D01*
X121709390Y-104370814D01*
X121621789Y-104239711D01*
X121621786Y-104239707D01*
X121510292Y-104128213D01*
X121510288Y-104128210D01*
X121379185Y-104040609D01*
X121379172Y-104040602D01*
X121233501Y-103980264D01*
X121233489Y-103980261D01*
X121122285Y-103958141D01*
X121060374Y-103925756D01*
X121058795Y-103924205D01*
X120825793Y-103691203D01*
X120792308Y-103629880D01*
X120791887Y-103627864D01*
X120769737Y-103516503D01*
X120732191Y-103425858D01*
X120709397Y-103370827D01*
X120709390Y-103370814D01*
X120621789Y-103239711D01*
X120621786Y-103239707D01*
X120510292Y-103128213D01*
X120510288Y-103128210D01*
X120379185Y-103040609D01*
X120379172Y-103040602D01*
X120233501Y-102980264D01*
X120233489Y-102980261D01*
X120078845Y-102949500D01*
X120078842Y-102949500D01*
X119921158Y-102949500D01*
X119921155Y-102949500D01*
X119766510Y-102980261D01*
X119766498Y-102980264D01*
X119620827Y-103040602D01*
X119620814Y-103040609D01*
X119489711Y-103128210D01*
X119489707Y-103128213D01*
X119378213Y-103239707D01*
X119378210Y-103239711D01*
X119290609Y-103370814D01*
X119290602Y-103370827D01*
X119230264Y-103516498D01*
X119230261Y-103516510D01*
X119199500Y-103671153D01*
X119199500Y-103828846D01*
X119230261Y-103983489D01*
X119230264Y-103983501D01*
X119290602Y-104129172D01*
X119290609Y-104129185D01*
X119378210Y-104260288D01*
X119378213Y-104260292D01*
X119489707Y-104371786D01*
X119489711Y-104371789D01*
X119620814Y-104459390D01*
X119620827Y-104459397D01*
X119705657Y-104494534D01*
X119766503Y-104519737D01*
X119877716Y-104541858D01*
X119939623Y-104574241D01*
X119941203Y-104575793D01*
X120174205Y-104808795D01*
X120207690Y-104870118D01*
X120208141Y-104872285D01*
X120230261Y-104983489D01*
X120230264Y-104983501D01*
X120290602Y-105129172D01*
X120290609Y-105129185D01*
X120378210Y-105260288D01*
X120378213Y-105260292D01*
X120413680Y-105295758D01*
X120447166Y-105357080D01*
X120450000Y-105383440D01*
X120450000Y-106684314D01*
X120445606Y-106679920D01*
X120354394Y-106627259D01*
X120252661Y-106600000D01*
X120147339Y-106600000D01*
X120045606Y-106627259D01*
X119954394Y-106679920D01*
X119950000Y-106684314D01*
X119950000Y-105323390D01*
X119895586Y-105332009D01*
X119700970Y-105395244D01*
X119518650Y-105488140D01*
X119353105Y-105608417D01*
X119353104Y-105608417D01*
X119208417Y-105753104D01*
X119208417Y-105753105D01*
X119088140Y-105918650D01*
X119040765Y-106011629D01*
X118992790Y-106062425D01*
X118924969Y-106079220D01*
X118858834Y-106056682D01*
X118819795Y-106011629D01*
X118772419Y-105918650D01*
X118772287Y-105918390D01*
X118720021Y-105846451D01*
X118651971Y-105752786D01*
X118507213Y-105608028D01*
X118341613Y-105487715D01*
X118341612Y-105487714D01*
X118341610Y-105487713D01*
X118256602Y-105444399D01*
X118159223Y-105394781D01*
X117964534Y-105331522D01*
X117779929Y-105302284D01*
X117762352Y-105299500D01*
X117557648Y-105299500D01*
X117540071Y-105302284D01*
X117355465Y-105331522D01*
X117160776Y-105394781D01*
X116978386Y-105487715D01*
X116812786Y-105608028D01*
X116668028Y-105752786D01*
X116547715Y-105918386D01*
X116500485Y-106011080D01*
X116452510Y-106061876D01*
X116384689Y-106078671D01*
X116318554Y-106056134D01*
X116279515Y-106011080D01*
X116273861Y-105999983D01*
X116232287Y-105918390D01*
X116180021Y-105846451D01*
X116111971Y-105752786D01*
X115967213Y-105608028D01*
X115801613Y-105487715D01*
X115801612Y-105487714D01*
X115801610Y-105487713D01*
X115716602Y-105444399D01*
X115619223Y-105394781D01*
X115424534Y-105331522D01*
X115239929Y-105302284D01*
X115222352Y-105299500D01*
X115017648Y-105299500D01*
X115000071Y-105302284D01*
X114815465Y-105331522D01*
X114620776Y-105394781D01*
X114438386Y-105487715D01*
X114272786Y-105608028D01*
X114128028Y-105752786D01*
X114007715Y-105918386D01*
X113960485Y-106011080D01*
X113912510Y-106061876D01*
X113844689Y-106078671D01*
X113778554Y-106056134D01*
X113739515Y-106011080D01*
X113733861Y-105999983D01*
X113692287Y-105918390D01*
X113640021Y-105846451D01*
X113571971Y-105752786D01*
X113427213Y-105608028D01*
X113261613Y-105487715D01*
X113261612Y-105487714D01*
X113261610Y-105487713D01*
X113176602Y-105444399D01*
X113079223Y-105394781D01*
X112884534Y-105331522D01*
X112699929Y-105302284D01*
X112682352Y-105299500D01*
X112477648Y-105299500D01*
X112460071Y-105302284D01*
X112275465Y-105331522D01*
X112140651Y-105375327D01*
X112080781Y-105394780D01*
X112080778Y-105394781D01*
X112080773Y-105394783D01*
X112055792Y-105407511D01*
X111987123Y-105420406D01*
X111922383Y-105394128D01*
X111882127Y-105337020D01*
X111875500Y-105297025D01*
X111875500Y-104042350D01*
X111895185Y-103975311D01*
X111896398Y-103973459D01*
X111928272Y-103925756D01*
X111959394Y-103879179D01*
X112019737Y-103733497D01*
X112043085Y-103616118D01*
X112050500Y-103578844D01*
X112050500Y-103421155D01*
X112050499Y-103421153D01*
X112040486Y-103370814D01*
X112019737Y-103266503D01*
X112019735Y-103266498D01*
X111959397Y-103120827D01*
X111959390Y-103120814D01*
X111871789Y-102989711D01*
X111871786Y-102989707D01*
X111760292Y-102878213D01*
X111760288Y-102878210D01*
X111629185Y-102790609D01*
X111629172Y-102790602D01*
X111483501Y-102730264D01*
X111483489Y-102730261D01*
X111328845Y-102699500D01*
X111328842Y-102699500D01*
X111171158Y-102699500D01*
X111171155Y-102699500D01*
X111016510Y-102730261D01*
X111016498Y-102730264D01*
X110870827Y-102790602D01*
X110870814Y-102790609D01*
X110739711Y-102878210D01*
X110739707Y-102878213D01*
X110628213Y-102989707D01*
X110628210Y-102989711D01*
X110540609Y-103120814D01*
X110540602Y-103120827D01*
X110480264Y-103266498D01*
X110480261Y-103266510D01*
X110449500Y-103421153D01*
X110449500Y-103578846D01*
X110480261Y-103733489D01*
X110480264Y-103733501D01*
X110540602Y-103879172D01*
X110540609Y-103879184D01*
X110603602Y-103973459D01*
X110624480Y-104040136D01*
X110624500Y-104042350D01*
X110624500Y-105251817D01*
X110604815Y-105318856D01*
X110552011Y-105364611D01*
X110482853Y-105374555D01*
X110462182Y-105369748D01*
X110344537Y-105331523D01*
X110192897Y-105307505D01*
X110142352Y-105299500D01*
X109937648Y-105299500D01*
X109920071Y-105302284D01*
X109735465Y-105331522D01*
X109540776Y-105394781D01*
X109358386Y-105487715D01*
X109192786Y-105608028D01*
X109048028Y-105752786D01*
X108927715Y-105918386D01*
X108880485Y-106011080D01*
X108832510Y-106061876D01*
X108764689Y-106078671D01*
X108698554Y-106056134D01*
X108659515Y-106011080D01*
X108653861Y-105999983D01*
X108612287Y-105918390D01*
X108560021Y-105846451D01*
X108491971Y-105752786D01*
X108347213Y-105608028D01*
X108177669Y-105484849D01*
X108178884Y-105483176D01*
X108137831Y-105437792D01*
X108125500Y-105383885D01*
X108125500Y-104222855D01*
X108145185Y-104155816D01*
X108161814Y-104135179D01*
X111541223Y-100755769D01*
X111602546Y-100722285D01*
X111672238Y-100727269D01*
X111716585Y-100755770D01*
X111732786Y-100771971D01*
X111866994Y-100869477D01*
X111898390Y-100892287D01*
X112014607Y-100951503D01*
X112080776Y-100985218D01*
X112080778Y-100985218D01*
X112080781Y-100985220D01*
X112185137Y-101019127D01*
X112275465Y-101048477D01*
X112376557Y-101064488D01*
X112477648Y-101080500D01*
X112477649Y-101080500D01*
X112682351Y-101080500D01*
X112682352Y-101080500D01*
X112884534Y-101048477D01*
X113079219Y-100985220D01*
X113261610Y-100892287D01*
X113395624Y-100794921D01*
X113427213Y-100771971D01*
X113427215Y-100771968D01*
X113427219Y-100771966D01*
X113571966Y-100627219D01*
X113571968Y-100627215D01*
X113571971Y-100627213D01*
X113692284Y-100461614D01*
X113692285Y-100461613D01*
X113692287Y-100461610D01*
X113739516Y-100368917D01*
X113787489Y-100318123D01*
X113855310Y-100301328D01*
X113921445Y-100323865D01*
X113960485Y-100368919D01*
X114007715Y-100461614D01*
X114128028Y-100627213D01*
X114272786Y-100771971D01*
X114406994Y-100869477D01*
X114438390Y-100892287D01*
X114554607Y-100951503D01*
X114620776Y-100985218D01*
X114620778Y-100985218D01*
X114620781Y-100985220D01*
X114725137Y-101019127D01*
X114815465Y-101048477D01*
X114916557Y-101064488D01*
X115017648Y-101080500D01*
X115017649Y-101080500D01*
X115222351Y-101080500D01*
X115222352Y-101080500D01*
X115424534Y-101048477D01*
X115619219Y-100985220D01*
X115801610Y-100892287D01*
X115935624Y-100794921D01*
X115967213Y-100771971D01*
X115967215Y-100771968D01*
X115967219Y-100771966D01*
X116111966Y-100627219D01*
X116111968Y-100627215D01*
X116111971Y-100627213D01*
X116232284Y-100461614D01*
X116232285Y-100461613D01*
X116232287Y-100461610D01*
X116279516Y-100368917D01*
X116327489Y-100318123D01*
X116395310Y-100301328D01*
X116461445Y-100323865D01*
X116500485Y-100368919D01*
X116547715Y-100461614D01*
X116668028Y-100627213D01*
X116812786Y-100771971D01*
X116946994Y-100869477D01*
X116978390Y-100892287D01*
X117094607Y-100951503D01*
X117160776Y-100985218D01*
X117160778Y-100985218D01*
X117160781Y-100985220D01*
X117265137Y-101019127D01*
X117355465Y-101048477D01*
X117456557Y-101064488D01*
X117557648Y-101080500D01*
X117557649Y-101080500D01*
X117762351Y-101080500D01*
X117762352Y-101080500D01*
X117964534Y-101048477D01*
X118159219Y-100985220D01*
X118341610Y-100892287D01*
X118475624Y-100794921D01*
X118507213Y-100771971D01*
X118507215Y-100771968D01*
X118507219Y-100771966D01*
X118651966Y-100627219D01*
X118651968Y-100627215D01*
X118651971Y-100627213D01*
X118772284Y-100461614D01*
X118772285Y-100461613D01*
X118772287Y-100461610D01*
X118819516Y-100368917D01*
X118867489Y-100318123D01*
X118935310Y-100301328D01*
X119001445Y-100323865D01*
X119040485Y-100368919D01*
X119087715Y-100461614D01*
X119208028Y-100627213D01*
X119352786Y-100771971D01*
X119486994Y-100869477D01*
X119518390Y-100892287D01*
X119634607Y-100951503D01*
X119700776Y-100985218D01*
X119700778Y-100985218D01*
X119700781Y-100985220D01*
X119805137Y-101019127D01*
X119895465Y-101048477D01*
X119996557Y-101064488D01*
X120097648Y-101080500D01*
X120097649Y-101080500D01*
X120302351Y-101080500D01*
X120302352Y-101080500D01*
X120504534Y-101048477D01*
X120699219Y-100985220D01*
X120881610Y-100892287D01*
X121015624Y-100794921D01*
X121047213Y-100771971D01*
X121047215Y-100771968D01*
X121047219Y-100771966D01*
X121191966Y-100627219D01*
X121191968Y-100627215D01*
X121191971Y-100627213D01*
X121267578Y-100523147D01*
X121312287Y-100461610D01*
X121405220Y-100279219D01*
X121468477Y-100084534D01*
X121500500Y-99882352D01*
X121500500Y-99171153D01*
X123404500Y-99171153D01*
X123404500Y-99328846D01*
X123435261Y-99483489D01*
X123435264Y-99483501D01*
X123495602Y-99629172D01*
X123495609Y-99629185D01*
X123583209Y-99760287D01*
X123583210Y-99760288D01*
X123583211Y-99760289D01*
X123640540Y-99817618D01*
X123674024Y-99878939D01*
X123669040Y-99948631D01*
X123640540Y-99992978D01*
X123607289Y-100026229D01*
X123515187Y-100175550D01*
X123515186Y-100175553D01*
X123460001Y-100342090D01*
X123460001Y-100342091D01*
X123460000Y-100342091D01*
X123449500Y-100444870D01*
X123449500Y-101644888D01*
X123449501Y-101644905D01*
X123460000Y-101747683D01*
X123460001Y-101747686D01*
X123495099Y-101853602D01*
X123515186Y-101914221D01*
X123607288Y-102063543D01*
X123731344Y-102187599D01*
X123880666Y-102279701D01*
X123924759Y-102294312D01*
X123982203Y-102334083D01*
X124009027Y-102398598D01*
X123996713Y-102467374D01*
X123958642Y-102512334D01*
X123902784Y-102552918D01*
X123902782Y-102552919D01*
X123758028Y-102697673D01*
X123637715Y-102863273D01*
X123544781Y-103045663D01*
X123481522Y-103240352D01*
X123449500Y-103442535D01*
X123449500Y-103647238D01*
X123481522Y-103849421D01*
X123544781Y-104044110D01*
X123601699Y-104155816D01*
X123635857Y-104222855D01*
X123637715Y-104226500D01*
X123758028Y-104392100D01*
X123902786Y-104536858D01*
X124057749Y-104649443D01*
X124068390Y-104657174D01*
X124131290Y-104689223D01*
X124250776Y-104750105D01*
X124250778Y-104750105D01*
X124250781Y-104750107D01*
X124355137Y-104784014D01*
X124445465Y-104813364D01*
X124543189Y-104828842D01*
X124647648Y-104845387D01*
X124647649Y-104845387D01*
X124852351Y-104845387D01*
X124852352Y-104845387D01*
X125054534Y-104813364D01*
X125249219Y-104750107D01*
X125431610Y-104657174D01*
X125543622Y-104575793D01*
X125597213Y-104536858D01*
X125597215Y-104536855D01*
X125597219Y-104536853D01*
X125741966Y-104392106D01*
X125741968Y-104392102D01*
X125741971Y-104392100D01*
X125814441Y-104292352D01*
X125862287Y-104226497D01*
X125955220Y-104044106D01*
X126018477Y-103849421D01*
X126050500Y-103647239D01*
X126050500Y-103442535D01*
X126034059Y-103338732D01*
X126018477Y-103240352D01*
X125982791Y-103130523D01*
X125955220Y-103045668D01*
X125955218Y-103045665D01*
X125955218Y-103045663D01*
X125906220Y-102949500D01*
X125862287Y-102863277D01*
X125827727Y-102815709D01*
X125741971Y-102697673D01*
X125597217Y-102552919D01*
X125541358Y-102512335D01*
X125498693Y-102457005D01*
X125492714Y-102387391D01*
X125525320Y-102325596D01*
X125575236Y-102294313D01*
X125619334Y-102279701D01*
X125768656Y-102187599D01*
X125892712Y-102063543D01*
X125984814Y-101914221D01*
X126039999Y-101747684D01*
X126050500Y-101644896D01*
X126050499Y-100444879D01*
X126039999Y-100342090D01*
X125984814Y-100175553D01*
X125922338Y-100074262D01*
X125903899Y-100006874D01*
X125924821Y-99940210D01*
X125958987Y-99906067D01*
X126010289Y-99871789D01*
X126121789Y-99760289D01*
X126209394Y-99629179D01*
X126269737Y-99483497D01*
X126300500Y-99328842D01*
X126300500Y-99171158D01*
X126300500Y-99171155D01*
X126300499Y-99171153D01*
X126293489Y-99135913D01*
X126269737Y-99016503D01*
X126262238Y-98998398D01*
X126209397Y-98870827D01*
X126209390Y-98870814D01*
X126121789Y-98739711D01*
X126121786Y-98739707D01*
X126010292Y-98628213D01*
X126010288Y-98628210D01*
X125879185Y-98540609D01*
X125879172Y-98540602D01*
X125733501Y-98480264D01*
X125733489Y-98480261D01*
X125578845Y-98449500D01*
X125578842Y-98449500D01*
X125421158Y-98449500D01*
X125421155Y-98449500D01*
X125266510Y-98480261D01*
X125266498Y-98480264D01*
X125120827Y-98540602D01*
X125120815Y-98540609D01*
X125026541Y-98603602D01*
X125008494Y-98609252D01*
X124992585Y-98619477D01*
X124961625Y-98623928D01*
X124959864Y-98624480D01*
X124957650Y-98624500D01*
X124747350Y-98624500D01*
X124680311Y-98604815D01*
X124678459Y-98603602D01*
X124584184Y-98540609D01*
X124584172Y-98540602D01*
X124438501Y-98480264D01*
X124438489Y-98480261D01*
X124283845Y-98449500D01*
X124283842Y-98449500D01*
X124126158Y-98449500D01*
X124126155Y-98449500D01*
X123971510Y-98480261D01*
X123971498Y-98480264D01*
X123825827Y-98540602D01*
X123825814Y-98540609D01*
X123694711Y-98628210D01*
X123694707Y-98628213D01*
X123583213Y-98739707D01*
X123583210Y-98739711D01*
X123495609Y-98870814D01*
X123495602Y-98870827D01*
X123435264Y-99016498D01*
X123435261Y-99016510D01*
X123404500Y-99171153D01*
X121500500Y-99171153D01*
X121500500Y-98877648D01*
X121468477Y-98675466D01*
X121446226Y-98606986D01*
X121423307Y-98536447D01*
X121405220Y-98480781D01*
X121405218Y-98480778D01*
X121405218Y-98480776D01*
X121366674Y-98405130D01*
X121312287Y-98298390D01*
X121275514Y-98247776D01*
X121191971Y-98132786D01*
X121047219Y-97988034D01*
X121045380Y-97986698D01*
X120994620Y-97949819D01*
X120951955Y-97894490D01*
X120945976Y-97824877D01*
X120978581Y-97763081D01*
X121039419Y-97728724D01*
X121067506Y-97725501D01*
X126610910Y-97725501D01*
X126677949Y-97745186D01*
X126723704Y-97797990D01*
X126725471Y-97802048D01*
X126801952Y-97986691D01*
X126801957Y-97986701D01*
X126933074Y-98213804D01*
X127092717Y-98421852D01*
X127092725Y-98421861D01*
X127278139Y-98607275D01*
X127278147Y-98607282D01*
X127278148Y-98607283D01*
X127305422Y-98628211D01*
X127486195Y-98766925D01*
X127713298Y-98898042D01*
X127713308Y-98898047D01*
X127871488Y-98963567D01*
X127955580Y-98998399D01*
X128208883Y-99066271D01*
X128468879Y-99100501D01*
X128468886Y-99100501D01*
X128731112Y-99100501D01*
X128731119Y-99100501D01*
X128991115Y-99066271D01*
X129244418Y-98998399D01*
X129486696Y-98898044D01*
X129713802Y-98766925D01*
X129921850Y-98607283D01*
X130104240Y-98424893D01*
X130165563Y-98391408D01*
X130235254Y-98396392D01*
X130282609Y-98428006D01*
X130289447Y-98435339D01*
X130305318Y-98459091D01*
X130392443Y-98546216D01*
X130392446Y-98546218D01*
X130398326Y-98552098D01*
X132088181Y-100241953D01*
X132121666Y-100303276D01*
X132124500Y-100329634D01*
X132124500Y-103001610D01*
X132148535Y-103122446D01*
X132148539Y-103122458D01*
X132150036Y-103126071D01*
X132157413Y-103143881D01*
X132195688Y-103236286D01*
X132214302Y-103264143D01*
X132219121Y-103271355D01*
X132219122Y-103271357D01*
X132264141Y-103338732D01*
X132264144Y-103338736D01*
X132355586Y-103430178D01*
X132355608Y-103430198D01*
X132697781Y-103772371D01*
X132731266Y-103833694D01*
X132730785Y-103880416D01*
X132732285Y-103880654D01*
X132699500Y-104087648D01*
X132699500Y-104292351D01*
X132731522Y-104494534D01*
X132794781Y-104689223D01*
X132847380Y-104792452D01*
X132869259Y-104835393D01*
X132887715Y-104871613D01*
X133008028Y-105037213D01*
X133152786Y-105181971D01*
X133260584Y-105260289D01*
X133318390Y-105302287D01*
X133425927Y-105357080D01*
X133500776Y-105395218D01*
X133500778Y-105395218D01*
X133500781Y-105395220D01*
X133541096Y-105408319D01*
X133695465Y-105458477D01*
X133796557Y-105474488D01*
X133897648Y-105490500D01*
X133897649Y-105490500D01*
X134102351Y-105490500D01*
X134102352Y-105490500D01*
X134304534Y-105458477D01*
X134452761Y-105410314D01*
X134522598Y-105408319D01*
X134582431Y-105444399D01*
X134594176Y-105459352D01*
X134594204Y-105459394D01*
X134628212Y-105510291D01*
X134739707Y-105621786D01*
X134739711Y-105621789D01*
X134870814Y-105709390D01*
X134870827Y-105709397D01*
X134976347Y-105753104D01*
X135016503Y-105769737D01*
X135171153Y-105800499D01*
X135171156Y-105800500D01*
X135171158Y-105800500D01*
X135328844Y-105800500D01*
X135328845Y-105800499D01*
X135483497Y-105769737D01*
X135629179Y-105709394D01*
X135760289Y-105621789D01*
X135871789Y-105510289D01*
X135959394Y-105379179D01*
X135959393Y-105379179D01*
X135962779Y-105374113D01*
X135964596Y-105375327D01*
X136006646Y-105332499D01*
X136074780Y-105317022D01*
X136123362Y-105330296D01*
X136136557Y-105337020D01*
X136250776Y-105395218D01*
X136250778Y-105395218D01*
X136250781Y-105395220D01*
X136291096Y-105408319D01*
X136445465Y-105458477D01*
X136546557Y-105474488D01*
X136647648Y-105490500D01*
X136647649Y-105490500D01*
X136852351Y-105490500D01*
X136852352Y-105490500D01*
X137054534Y-105458477D01*
X137249219Y-105395220D01*
X137431610Y-105302287D01*
X137524590Y-105234732D01*
X137597213Y-105181971D01*
X137597215Y-105181968D01*
X137597219Y-105181966D01*
X137741966Y-105037219D01*
X137741968Y-105037215D01*
X137741971Y-105037213D01*
X137836087Y-104907671D01*
X137862287Y-104871610D01*
X137955220Y-104689219D01*
X138018477Y-104494534D01*
X138050500Y-104292352D01*
X138050500Y-104087648D01*
X138037368Y-104004735D01*
X138018477Y-103885465D01*
X137981730Y-103772371D01*
X137955220Y-103690781D01*
X137955218Y-103690778D01*
X137955218Y-103690776D01*
X137898184Y-103578842D01*
X137862287Y-103508390D01*
X137830241Y-103464282D01*
X137741971Y-103342786D01*
X137597213Y-103198028D01*
X137431613Y-103077715D01*
X137431612Y-103077714D01*
X137431610Y-103077713D01*
X137368718Y-103045668D01*
X137249223Y-102984781D01*
X137054534Y-102921522D01*
X136879995Y-102893878D01*
X136852352Y-102889500D01*
X136647648Y-102889500D01*
X136623329Y-102893351D01*
X136445465Y-102921522D01*
X136250776Y-102984781D01*
X136068386Y-103077715D01*
X135902788Y-103198027D01*
X135781586Y-103319229D01*
X135720263Y-103352713D01*
X135650571Y-103347729D01*
X135606224Y-103319228D01*
X134911819Y-102624823D01*
X134897115Y-102597895D01*
X134880523Y-102572077D01*
X134879631Y-102565876D01*
X134878334Y-102563500D01*
X134875500Y-102537142D01*
X134875500Y-102424500D01*
X134895185Y-102357461D01*
X134947989Y-102311706D01*
X134999500Y-102300500D01*
X135078844Y-102300500D01*
X135078845Y-102300499D01*
X135233497Y-102269737D01*
X135379179Y-102209394D01*
X135473459Y-102146398D01*
X135540136Y-102125520D01*
X135542350Y-102125500D01*
X136061607Y-102125500D01*
X136122029Y-102113481D01*
X136182452Y-102101463D01*
X136221398Y-102085331D01*
X136296286Y-102054312D01*
X136362169Y-102010289D01*
X136398733Y-101985858D01*
X136485858Y-101898733D01*
X136485858Y-101898731D01*
X136496066Y-101888524D01*
X136496067Y-101888521D01*
X136923121Y-101461467D01*
X136984443Y-101427984D01*
X137049118Y-101431218D01*
X137105257Y-101449459D01*
X137148631Y-101463553D01*
X137381903Y-101500500D01*
X137381908Y-101500500D01*
X137618097Y-101500500D01*
X137851368Y-101463553D01*
X137950881Y-101431219D01*
X138075992Y-101390568D01*
X138286433Y-101283343D01*
X138477510Y-101144517D01*
X138644517Y-100977510D01*
X138783343Y-100786433D01*
X138890568Y-100575992D01*
X138963553Y-100351368D01*
X138965022Y-100342091D01*
X139000500Y-100118097D01*
X139000500Y-99881902D01*
X138963553Y-99648631D01*
X138929689Y-99544412D01*
X138890568Y-99424008D01*
X138890566Y-99424005D01*
X138890566Y-99424003D01*
X138834002Y-99312991D01*
X138783343Y-99213567D01*
X138644517Y-99022490D01*
X138477510Y-98855483D01*
X138286433Y-98716657D01*
X138224462Y-98685081D01*
X138075996Y-98609433D01*
X137851368Y-98536446D01*
X137618097Y-98499500D01*
X137618092Y-98499500D01*
X137381908Y-98499500D01*
X137381903Y-98499500D01*
X137148631Y-98536446D01*
X136924003Y-98609433D01*
X136713566Y-98716657D01*
X136604550Y-98795862D01*
X136522490Y-98855483D01*
X136522488Y-98855485D01*
X136522487Y-98855485D01*
X136355485Y-99022487D01*
X136355485Y-99022488D01*
X136355483Y-99022490D01*
X136323675Y-99066270D01*
X136216657Y-99213566D01*
X136109433Y-99424003D01*
X136036446Y-99648631D01*
X135999500Y-99881902D01*
X135999500Y-100118097D01*
X136036447Y-100351371D01*
X136068779Y-100450880D01*
X136070774Y-100520721D01*
X136038530Y-100576878D01*
X135988196Y-100627213D01*
X135777227Y-100838182D01*
X135750296Y-100852888D01*
X135724483Y-100869477D01*
X135718283Y-100870368D01*
X135715907Y-100871666D01*
X135689548Y-100874500D01*
X135542350Y-100874500D01*
X135475311Y-100854815D01*
X135473457Y-100853601D01*
X135465874Y-100848534D01*
X135421070Y-100794921D01*
X135412364Y-100725596D01*
X135434447Y-100672550D01*
X135533343Y-100536433D01*
X135640568Y-100325992D01*
X135713553Y-100101368D01*
X135717846Y-100074266D01*
X135750500Y-99868097D01*
X135750500Y-99631902D01*
X135713553Y-99398631D01*
X135657738Y-99226853D01*
X135640568Y-99174008D01*
X135640566Y-99174005D01*
X135640566Y-99174003D01*
X135560315Y-99016503D01*
X135533343Y-98963567D01*
X135394517Y-98772490D01*
X135227510Y-98605483D01*
X135036433Y-98466657D01*
X135020760Y-98458671D01*
X134825996Y-98359433D01*
X134601368Y-98286446D01*
X134368097Y-98249500D01*
X134368092Y-98249500D01*
X134131908Y-98249500D01*
X134131903Y-98249500D01*
X133898631Y-98286446D01*
X133674003Y-98359433D01*
X133463566Y-98466657D01*
X133361791Y-98540602D01*
X133272490Y-98605483D01*
X133272488Y-98605485D01*
X133272487Y-98605485D01*
X133105485Y-98772487D01*
X133105485Y-98772488D01*
X133105483Y-98772490D01*
X133045862Y-98854550D01*
X132966657Y-98963566D01*
X132948909Y-98998399D01*
X132914328Y-99066270D01*
X132913282Y-99068322D01*
X132865308Y-99119118D01*
X132797487Y-99135913D01*
X132731352Y-99113376D01*
X132715116Y-99099708D01*
X132081861Y-98466453D01*
X132048376Y-98405130D01*
X132053360Y-98335438D01*
X132066440Y-98309881D01*
X132142448Y-98196127D01*
X132142448Y-98196126D01*
X132142452Y-98196121D01*
X132202795Y-98050439D01*
X132224916Y-97939224D01*
X132233680Y-97922469D01*
X132237700Y-97903991D01*
X132256439Y-97878958D01*
X132257298Y-97877317D01*
X132258793Y-97875795D01*
X132375739Y-97758849D01*
X132437060Y-97725366D01*
X132439070Y-97724947D01*
X132550439Y-97702795D01*
X132696121Y-97642452D01*
X132827231Y-97554847D01*
X132938731Y-97443347D01*
X133026336Y-97312237D01*
X133086679Y-97166555D01*
X133117442Y-97011900D01*
X133117442Y-96854216D01*
X133117442Y-96854213D01*
X133117441Y-96854211D01*
X133092786Y-96730263D01*
X133086679Y-96699561D01*
X133045605Y-96600399D01*
X133026339Y-96553885D01*
X133026332Y-96553872D01*
X132938731Y-96422769D01*
X132938728Y-96422765D01*
X132827234Y-96311271D01*
X132827230Y-96311268D01*
X132696127Y-96223667D01*
X132696114Y-96223660D01*
X132550443Y-96163322D01*
X132550431Y-96163319D01*
X132395787Y-96132558D01*
X132395784Y-96132558D01*
X132238100Y-96132558D01*
X132238097Y-96132558D01*
X132083452Y-96163319D01*
X132083440Y-96163322D01*
X131937769Y-96223660D01*
X131937756Y-96223667D01*
X131806653Y-96311268D01*
X131806649Y-96311271D01*
X131695155Y-96422765D01*
X131610799Y-96549012D01*
X131606636Y-96552490D01*
X131604582Y-96557511D01*
X131580112Y-96574656D01*
X131557186Y-96593816D01*
X131551803Y-96594491D01*
X131547361Y-96597605D01*
X131517504Y-96598799D01*
X131487861Y-96602523D01*
X131482968Y-96600182D01*
X131477548Y-96600399D01*
X131451786Y-96585263D01*
X131424834Y-96572368D01*
X131420738Y-96567021D01*
X131417306Y-96565005D01*
X131407172Y-96549311D01*
X131397053Y-96536100D01*
X131392967Y-96528025D01*
X131392639Y-96526373D01*
X131345488Y-96412538D01*
X131304547Y-96351267D01*
X131277034Y-96310091D01*
X131277032Y-96310088D01*
X131186813Y-96219869D01*
X131186782Y-96219840D01*
X129598889Y-94631947D01*
X132750000Y-94631947D01*
X132750000Y-94868052D01*
X132786934Y-95101247D01*
X132859897Y-95325802D01*
X132967087Y-95536174D01*
X133027338Y-95619104D01*
X133027340Y-95619105D01*
X133850000Y-94796445D01*
X133850000Y-94802661D01*
X133877259Y-94904394D01*
X133929920Y-94995606D01*
X134004394Y-95070080D01*
X134095606Y-95122741D01*
X134197339Y-95150000D01*
X134203554Y-95150000D01*
X133380893Y-95972658D01*
X133463828Y-96032914D01*
X133674197Y-96140102D01*
X133898752Y-96213065D01*
X133898751Y-96213065D01*
X134131948Y-96250000D01*
X134368052Y-96250000D01*
X134601247Y-96213065D01*
X134825802Y-96140102D01*
X134973369Y-96064914D01*
X135036163Y-96032918D01*
X135036169Y-96032914D01*
X135119104Y-95972658D01*
X135119105Y-95972658D01*
X134296446Y-95150000D01*
X134302661Y-95150000D01*
X134404394Y-95122741D01*
X134495606Y-95070080D01*
X134570080Y-94995606D01*
X134622741Y-94904394D01*
X134650000Y-94802661D01*
X134650000Y-94796447D01*
X135472658Y-95619105D01*
X135472658Y-95619104D01*
X135532914Y-95536169D01*
X135532918Y-95536163D01*
X135640102Y-95325802D01*
X135713065Y-95101247D01*
X135747799Y-94881947D01*
X136000000Y-94881947D01*
X136000000Y-95118052D01*
X136036934Y-95351247D01*
X136109897Y-95575802D01*
X136217087Y-95786174D01*
X136277338Y-95869104D01*
X136277340Y-95869105D01*
X137100000Y-95046445D01*
X137100000Y-95052661D01*
X137127259Y-95154394D01*
X137179920Y-95245606D01*
X137254394Y-95320080D01*
X137345606Y-95372741D01*
X137447339Y-95400000D01*
X137453554Y-95400000D01*
X136630893Y-96222658D01*
X136713828Y-96282914D01*
X136924197Y-96390102D01*
X137148752Y-96463065D01*
X137148751Y-96463065D01*
X137381948Y-96500000D01*
X137618052Y-96500000D01*
X137851247Y-96463065D01*
X138075802Y-96390102D01*
X138286163Y-96282918D01*
X138286169Y-96282914D01*
X138369104Y-96222658D01*
X138369105Y-96222658D01*
X137546446Y-95400000D01*
X137552661Y-95400000D01*
X137654394Y-95372741D01*
X137745606Y-95320080D01*
X137820080Y-95245606D01*
X137872741Y-95154394D01*
X137900000Y-95052661D01*
X137900000Y-95046446D01*
X138722658Y-95869105D01*
X138722658Y-95869104D01*
X138782914Y-95786169D01*
X138782918Y-95786163D01*
X138890102Y-95575802D01*
X138963065Y-95351247D01*
X139000000Y-95118052D01*
X139000000Y-94881947D01*
X138963065Y-94648752D01*
X138890102Y-94424197D01*
X138782914Y-94213828D01*
X138722658Y-94130894D01*
X138722658Y-94130893D01*
X137900000Y-94953552D01*
X137900000Y-94947339D01*
X137872741Y-94845606D01*
X137820080Y-94754394D01*
X137745606Y-94679920D01*
X137654394Y-94627259D01*
X137552661Y-94600000D01*
X137546447Y-94600000D01*
X138369105Y-93777340D01*
X138369104Y-93777338D01*
X138286174Y-93717087D01*
X138075802Y-93609897D01*
X137851247Y-93536934D01*
X137851248Y-93536934D01*
X137618052Y-93500000D01*
X137381948Y-93500000D01*
X137148752Y-93536934D01*
X136924197Y-93609897D01*
X136713830Y-93717084D01*
X136630894Y-93777340D01*
X137453554Y-94600000D01*
X137447339Y-94600000D01*
X137345606Y-94627259D01*
X137254394Y-94679920D01*
X137179920Y-94754394D01*
X137127259Y-94845606D01*
X137100000Y-94947339D01*
X137100000Y-94953554D01*
X136277340Y-94130894D01*
X136217084Y-94213830D01*
X136109897Y-94424197D01*
X136036934Y-94648752D01*
X136000000Y-94881947D01*
X135747799Y-94881947D01*
X135749998Y-94868061D01*
X135750000Y-94868042D01*
X135750000Y-94631947D01*
X135713065Y-94398752D01*
X135640102Y-94174197D01*
X135532914Y-93963828D01*
X135484713Y-93897485D01*
X135472658Y-93880894D01*
X135472658Y-93880893D01*
X134650000Y-94703552D01*
X134650000Y-94697339D01*
X134622741Y-94595606D01*
X134570080Y-94504394D01*
X134495606Y-94429920D01*
X134404394Y-94377259D01*
X134302661Y-94350000D01*
X134296447Y-94350000D01*
X135119105Y-93527340D01*
X135119104Y-93527338D01*
X135036174Y-93467087D01*
X134825802Y-93359897D01*
X134601247Y-93286934D01*
X134601248Y-93286934D01*
X134368052Y-93250000D01*
X134131948Y-93250000D01*
X133898752Y-93286934D01*
X133674197Y-93359897D01*
X133463830Y-93467084D01*
X133380894Y-93527340D01*
X134203554Y-94350000D01*
X134197339Y-94350000D01*
X134095606Y-94377259D01*
X134004394Y-94429920D01*
X133929920Y-94504394D01*
X133877259Y-94595606D01*
X133850000Y-94697339D01*
X133850000Y-94703554D01*
X133027340Y-93880894D01*
X132967084Y-93963830D01*
X132859897Y-94174197D01*
X132786934Y-94398752D01*
X132750000Y-94631947D01*
X129598889Y-94631947D01*
X129157819Y-94190877D01*
X129124334Y-94129554D01*
X129121500Y-94103196D01*
X129121500Y-93029613D01*
X129141185Y-92962574D01*
X129193989Y-92916819D01*
X129263147Y-92906875D01*
X129301795Y-92919128D01*
X129410968Y-92974755D01*
X129605578Y-93037988D01*
X129660000Y-93046607D01*
X129660000Y-91685686D01*
X129664394Y-91690080D01*
X129755606Y-91742741D01*
X129857339Y-91770000D01*
X129962661Y-91770000D01*
X130064394Y-91742741D01*
X130155606Y-91690080D01*
X130160000Y-91685686D01*
X130160000Y-93046606D01*
X130214421Y-93037988D01*
X130409031Y-92974754D01*
X130591349Y-92881859D01*
X130756894Y-92761582D01*
X130756895Y-92761582D01*
X130901582Y-92616895D01*
X130901582Y-92616894D01*
X131021861Y-92451347D01*
X131069234Y-92358371D01*
X131117208Y-92307575D01*
X131185028Y-92290779D01*
X131251164Y-92313316D01*
X131290203Y-92358369D01*
X131337713Y-92451611D01*
X131458028Y-92617213D01*
X131602786Y-92761971D01*
X131757749Y-92874556D01*
X131768390Y-92882287D01*
X131884607Y-92941503D01*
X131950776Y-92975218D01*
X131950778Y-92975218D01*
X131950781Y-92975220D01*
X132041856Y-93004812D01*
X132145465Y-93038477D01*
X132246557Y-93054488D01*
X132347648Y-93070500D01*
X132347649Y-93070500D01*
X132552351Y-93070500D01*
X132552352Y-93070500D01*
X132754534Y-93038477D01*
X132949219Y-92975220D01*
X133131610Y-92882287D01*
X133260482Y-92788657D01*
X133297213Y-92761971D01*
X133297215Y-92761968D01*
X133297219Y-92761966D01*
X133441966Y-92617219D01*
X133441968Y-92617215D01*
X133441971Y-92617213D01*
X133562284Y-92451614D01*
X133562286Y-92451611D01*
X133562287Y-92451610D01*
X133609516Y-92358917D01*
X133657489Y-92308123D01*
X133725310Y-92291328D01*
X133791445Y-92313865D01*
X133830483Y-92358917D01*
X133859239Y-92415352D01*
X133877715Y-92451614D01*
X133998028Y-92617213D01*
X134142786Y-92761971D01*
X134297749Y-92874556D01*
X134308390Y-92882287D01*
X134424607Y-92941503D01*
X134490776Y-92975218D01*
X134490778Y-92975218D01*
X134490781Y-92975220D01*
X134581856Y-93004812D01*
X134685465Y-93038477D01*
X134786557Y-93054488D01*
X134887648Y-93070500D01*
X134887649Y-93070500D01*
X135092351Y-93070500D01*
X135092352Y-93070500D01*
X135294534Y-93038477D01*
X135489219Y-92975220D01*
X135671610Y-92882287D01*
X135800482Y-92788657D01*
X135837213Y-92761971D01*
X135837215Y-92761968D01*
X135837219Y-92761966D01*
X135981966Y-92617219D01*
X135981968Y-92617215D01*
X135981971Y-92617213D01*
X136102284Y-92451614D01*
X136102286Y-92451611D01*
X136102287Y-92451610D01*
X136149795Y-92358369D01*
X136197770Y-92307574D01*
X136265591Y-92290779D01*
X136331725Y-92313316D01*
X136370765Y-92358370D01*
X136418140Y-92451349D01*
X136538417Y-92616894D01*
X136538417Y-92616895D01*
X136683104Y-92761582D01*
X136848650Y-92881859D01*
X137030968Y-92974754D01*
X137225578Y-93037988D01*
X137280000Y-93046607D01*
X137280000Y-91685686D01*
X137284394Y-91690080D01*
X137375606Y-91742741D01*
X137477339Y-91770000D01*
X137582661Y-91770000D01*
X137684394Y-91742741D01*
X137775606Y-91690080D01*
X137780000Y-91685686D01*
X137780000Y-93046606D01*
X137834421Y-93037988D01*
X138029031Y-92974754D01*
X138211349Y-92881859D01*
X138376894Y-92761582D01*
X138376895Y-92761582D01*
X138521582Y-92616895D01*
X138521582Y-92616894D01*
X138641859Y-92451349D01*
X138734755Y-92269031D01*
X138797990Y-92074417D01*
X138830000Y-91872317D01*
X138830000Y-91620000D01*
X137845686Y-91620000D01*
X137850080Y-91615606D01*
X137902741Y-91524394D01*
X137930000Y-91422661D01*
X137930000Y-91317339D01*
X137902741Y-91215606D01*
X137850080Y-91124394D01*
X137845686Y-91120000D01*
X138830000Y-91120000D01*
X138830000Y-90867682D01*
X138797990Y-90665582D01*
X138734755Y-90470968D01*
X138641859Y-90288650D01*
X138521582Y-90123105D01*
X138521582Y-90123104D01*
X138376895Y-89978417D01*
X138211349Y-89858140D01*
X138029029Y-89765244D01*
X137834413Y-89702009D01*
X137780000Y-89693390D01*
X137780000Y-91054314D01*
X137775606Y-91049920D01*
X137684394Y-90997259D01*
X137582661Y-90970000D01*
X137477339Y-90970000D01*
X137375606Y-90997259D01*
X137284394Y-91049920D01*
X137280000Y-91054314D01*
X137280000Y-89693390D01*
X137225586Y-89702009D01*
X137030970Y-89765244D01*
X136848650Y-89858140D01*
X136683105Y-89978417D01*
X136683104Y-89978417D01*
X136538417Y-90123104D01*
X136538417Y-90123105D01*
X136418140Y-90288650D01*
X136370765Y-90381629D01*
X136322790Y-90432425D01*
X136254969Y-90449220D01*
X136188834Y-90426682D01*
X136149795Y-90381629D01*
X136134029Y-90350688D01*
X136102287Y-90288390D01*
X136078901Y-90256202D01*
X135981971Y-90122786D01*
X135837213Y-89978028D01*
X135671613Y-89857715D01*
X135671612Y-89857714D01*
X135671610Y-89857713D01*
X135582755Y-89812439D01*
X135489223Y-89764781D01*
X135294534Y-89701522D01*
X135119995Y-89673878D01*
X135092352Y-89669500D01*
X134887648Y-89669500D01*
X134863329Y-89673351D01*
X134685465Y-89701522D01*
X134490776Y-89764781D01*
X134308386Y-89857715D01*
X134142786Y-89978028D01*
X133998028Y-90122786D01*
X133877715Y-90288386D01*
X133830485Y-90381080D01*
X133782510Y-90431876D01*
X133714689Y-90448671D01*
X133648554Y-90426134D01*
X133609515Y-90381080D01*
X133594029Y-90350688D01*
X133562287Y-90288390D01*
X133538901Y-90256202D01*
X133441971Y-90122786D01*
X133297213Y-89978028D01*
X133131613Y-89857715D01*
X133131612Y-89857714D01*
X133131610Y-89857713D01*
X133042755Y-89812439D01*
X132949223Y-89764781D01*
X132754534Y-89701522D01*
X132579995Y-89673878D01*
X132552352Y-89669500D01*
X132347648Y-89669500D01*
X132323329Y-89673351D01*
X132145465Y-89701522D01*
X131950776Y-89764781D01*
X131768386Y-89857715D01*
X131602786Y-89978028D01*
X131458028Y-90122786D01*
X131337713Y-90288388D01*
X131290203Y-90381630D01*
X131242228Y-90432426D01*
X131174407Y-90449220D01*
X131108272Y-90426682D01*
X131069234Y-90381628D01*
X131021861Y-90288652D01*
X130901582Y-90123105D01*
X130901582Y-90123104D01*
X130756895Y-89978417D01*
X130591349Y-89858140D01*
X130409029Y-89765244D01*
X130214413Y-89702009D01*
X130160000Y-89693390D01*
X130160000Y-91054314D01*
X130155606Y-91049920D01*
X130064394Y-90997259D01*
X129962661Y-90970000D01*
X129857339Y-90970000D01*
X129755606Y-90997259D01*
X129664394Y-91049920D01*
X129660000Y-91054314D01*
X129660000Y-89693390D01*
X129605586Y-89702009D01*
X129410970Y-89765244D01*
X129228650Y-89858140D01*
X129063101Y-89978419D01*
X129050733Y-89990787D01*
X128989409Y-90024270D01*
X128919718Y-90019283D01*
X128875374Y-89990784D01*
X125491819Y-86607229D01*
X125458334Y-86545906D01*
X125455500Y-86519548D01*
X125455500Y-85366114D01*
X125475185Y-85299075D01*
X125508575Y-85266398D01*
X125507668Y-85265150D01*
X125511605Y-85262289D01*
X125511610Y-85262287D01*
X125677219Y-85141966D01*
X125821966Y-84997219D01*
X125821968Y-84997215D01*
X125821971Y-84997213D01*
X125942284Y-84831614D01*
X125942286Y-84831611D01*
X125942287Y-84831610D01*
X125989795Y-84738369D01*
X126037770Y-84687574D01*
X126105591Y-84670779D01*
X126171725Y-84693316D01*
X126210765Y-84738370D01*
X126258140Y-84831349D01*
X126378417Y-84996894D01*
X126378417Y-84996895D01*
X126523104Y-85141582D01*
X126688650Y-85261859D01*
X126870968Y-85354754D01*
X127065578Y-85417988D01*
X127120000Y-85426607D01*
X127120000Y-84065686D01*
X127124394Y-84070080D01*
X127215606Y-84122741D01*
X127317339Y-84150000D01*
X127422661Y-84150000D01*
X127524394Y-84122741D01*
X127615606Y-84070080D01*
X127620000Y-84065686D01*
X127620000Y-85426606D01*
X127674421Y-85417988D01*
X127869031Y-85354754D01*
X128051349Y-85261859D01*
X128216894Y-85141582D01*
X128216895Y-85141582D01*
X128361582Y-84996895D01*
X128361582Y-84996894D01*
X128481859Y-84831349D01*
X128529515Y-84737820D01*
X128577489Y-84687024D01*
X128645310Y-84670229D01*
X128711445Y-84692766D01*
X128750485Y-84737820D01*
X128798140Y-84831349D01*
X128918417Y-84996894D01*
X128918417Y-84996895D01*
X129063104Y-85141582D01*
X129228650Y-85261859D01*
X129410968Y-85354754D01*
X129605578Y-85417988D01*
X129660000Y-85426607D01*
X129660000Y-84065686D01*
X129664394Y-84070080D01*
X129755606Y-84122741D01*
X129857339Y-84150000D01*
X129962661Y-84150000D01*
X130064394Y-84122741D01*
X130155606Y-84070080D01*
X130160000Y-84065686D01*
X130160000Y-85426606D01*
X130214421Y-85417988D01*
X130409031Y-85354754D01*
X130591349Y-85261859D01*
X130756894Y-85141582D01*
X130756895Y-85141582D01*
X130901582Y-84996895D01*
X130901582Y-84996894D01*
X131021861Y-84831347D01*
X131069234Y-84738371D01*
X131117208Y-84687575D01*
X131185028Y-84670779D01*
X131251164Y-84693316D01*
X131290203Y-84738369D01*
X131337713Y-84831611D01*
X131458028Y-84997213D01*
X131602786Y-85141971D01*
X131745430Y-85245606D01*
X131768390Y-85262287D01*
X131881815Y-85320080D01*
X131950776Y-85355218D01*
X131950778Y-85355218D01*
X131950781Y-85355220D01*
X132055137Y-85389127D01*
X132145465Y-85418477D01*
X132246557Y-85434488D01*
X132347648Y-85450500D01*
X132347649Y-85450500D01*
X132552351Y-85450500D01*
X132552352Y-85450500D01*
X132754534Y-85418477D01*
X132949219Y-85355220D01*
X133131610Y-85262287D01*
X133224590Y-85194732D01*
X133297213Y-85141971D01*
X133297215Y-85141968D01*
X133297219Y-85141966D01*
X133441966Y-84997219D01*
X133441968Y-84997215D01*
X133441971Y-84997213D01*
X133562284Y-84831614D01*
X133562286Y-84831611D01*
X133562287Y-84831610D01*
X133609516Y-84738917D01*
X133657489Y-84688123D01*
X133725310Y-84671328D01*
X133791445Y-84693865D01*
X133830483Y-84738917D01*
X133865730Y-84808092D01*
X133877715Y-84831614D01*
X133998028Y-84997213D01*
X134142786Y-85141971D01*
X134285430Y-85245606D01*
X134308390Y-85262287D01*
X134421815Y-85320080D01*
X134490776Y-85355218D01*
X134490778Y-85355218D01*
X134490781Y-85355220D01*
X134595137Y-85389127D01*
X134685465Y-85418477D01*
X134786557Y-85434488D01*
X134887648Y-85450500D01*
X134887649Y-85450500D01*
X135092351Y-85450500D01*
X135092352Y-85450500D01*
X135294534Y-85418477D01*
X135489219Y-85355220D01*
X135671610Y-85262287D01*
X135764590Y-85194732D01*
X135837213Y-85141971D01*
X135837215Y-85141968D01*
X135837219Y-85141966D01*
X135981966Y-84997219D01*
X135981968Y-84997215D01*
X135981971Y-84997213D01*
X136102284Y-84831614D01*
X136102286Y-84831611D01*
X136102287Y-84831610D01*
X136149516Y-84738917D01*
X136197489Y-84688123D01*
X136265310Y-84671328D01*
X136331445Y-84693865D01*
X136370483Y-84738917D01*
X136405730Y-84808092D01*
X136417715Y-84831614D01*
X136538028Y-84997213D01*
X136682786Y-85141971D01*
X136825430Y-85245606D01*
X136848390Y-85262287D01*
X136961815Y-85320080D01*
X137030776Y-85355218D01*
X137030778Y-85355218D01*
X137030781Y-85355220D01*
X137135137Y-85389127D01*
X137225465Y-85418477D01*
X137326557Y-85434488D01*
X137427648Y-85450500D01*
X137427649Y-85450500D01*
X137632351Y-85450500D01*
X137632352Y-85450500D01*
X137834534Y-85418477D01*
X138029219Y-85355220D01*
X138211610Y-85262287D01*
X138304590Y-85194732D01*
X138377213Y-85141971D01*
X138377215Y-85141968D01*
X138377219Y-85141966D01*
X138521966Y-84997219D01*
X138521968Y-84997215D01*
X138521971Y-84997213D01*
X138584677Y-84910904D01*
X138642287Y-84831610D01*
X138735220Y-84649219D01*
X138798477Y-84454534D01*
X138830500Y-84252352D01*
X138830500Y-83247648D01*
X138798477Y-83045466D01*
X138778339Y-82983489D01*
X138769127Y-82955137D01*
X138735220Y-82850781D01*
X138735218Y-82850778D01*
X138735218Y-82850776D01*
X138672411Y-82727512D01*
X138642287Y-82668390D01*
X138634556Y-82657749D01*
X138521971Y-82502786D01*
X138377213Y-82358028D01*
X138211613Y-82237715D01*
X138211612Y-82237714D01*
X138211610Y-82237713D01*
X138154653Y-82208691D01*
X138029223Y-82144781D01*
X137834534Y-82081522D01*
X137659995Y-82053878D01*
X137632352Y-82049500D01*
X137427648Y-82049500D01*
X137403329Y-82053351D01*
X137225465Y-82081522D01*
X137030776Y-82144781D01*
X136848386Y-82237715D01*
X136682786Y-82358028D01*
X136538028Y-82502786D01*
X136417715Y-82668386D01*
X136370485Y-82761080D01*
X136322510Y-82811876D01*
X136254689Y-82828671D01*
X136188554Y-82806134D01*
X136149515Y-82761080D01*
X136132411Y-82727512D01*
X136102287Y-82668390D01*
X136094556Y-82657749D01*
X135981971Y-82502786D01*
X135837213Y-82358028D01*
X135671613Y-82237715D01*
X135671612Y-82237714D01*
X135671610Y-82237713D01*
X135614653Y-82208691D01*
X135489223Y-82144781D01*
X135294534Y-82081522D01*
X135119995Y-82053878D01*
X135092352Y-82049500D01*
X134887648Y-82049500D01*
X134863329Y-82053351D01*
X134685465Y-82081522D01*
X134490776Y-82144781D01*
X134308386Y-82237715D01*
X134142786Y-82358028D01*
X133998028Y-82502786D01*
X133877715Y-82668386D01*
X133830485Y-82761080D01*
X133782510Y-82811876D01*
X133714689Y-82828671D01*
X133648554Y-82806134D01*
X133609515Y-82761080D01*
X133592411Y-82727512D01*
X133562287Y-82668390D01*
X133554556Y-82657749D01*
X133441971Y-82502786D01*
X133297213Y-82358028D01*
X133131613Y-82237715D01*
X133131612Y-82237714D01*
X133131610Y-82237713D01*
X133074653Y-82208691D01*
X132949223Y-82144781D01*
X132754534Y-82081522D01*
X132579995Y-82053878D01*
X132552352Y-82049500D01*
X132347648Y-82049500D01*
X132323329Y-82053351D01*
X132145465Y-82081522D01*
X131950776Y-82144781D01*
X131768386Y-82237715D01*
X131602786Y-82358028D01*
X131458028Y-82502786D01*
X131337713Y-82668388D01*
X131290203Y-82761630D01*
X131242228Y-82812426D01*
X131174407Y-82829220D01*
X131108272Y-82806682D01*
X131069234Y-82761628D01*
X131021861Y-82668652D01*
X130901582Y-82503105D01*
X130901582Y-82503104D01*
X130756895Y-82358417D01*
X130591349Y-82238140D01*
X130409029Y-82145244D01*
X130214413Y-82082009D01*
X130160000Y-82073390D01*
X130160000Y-83434314D01*
X130155606Y-83429920D01*
X130064394Y-83377259D01*
X129962661Y-83350000D01*
X129857339Y-83350000D01*
X129755606Y-83377259D01*
X129664394Y-83429920D01*
X129660000Y-83434314D01*
X129660000Y-82073390D01*
X129605586Y-82082009D01*
X129410970Y-82145244D01*
X129228650Y-82238140D01*
X129063105Y-82358417D01*
X129063104Y-82358417D01*
X128918417Y-82503104D01*
X128918417Y-82503105D01*
X128798140Y-82668650D01*
X128750485Y-82762179D01*
X128702510Y-82812975D01*
X128634689Y-82829770D01*
X128568554Y-82807232D01*
X128529515Y-82762179D01*
X128481859Y-82668650D01*
X128361582Y-82503105D01*
X128361582Y-82503104D01*
X128216895Y-82358417D01*
X128051349Y-82238140D01*
X127869029Y-82145244D01*
X127674413Y-82082009D01*
X127620000Y-82073390D01*
X127620000Y-83434314D01*
X127615606Y-83429920D01*
X127524394Y-83377259D01*
X127422661Y-83350000D01*
X127317339Y-83350000D01*
X127215606Y-83377259D01*
X127124394Y-83429920D01*
X127120000Y-83434314D01*
X127120000Y-82073390D01*
X127065586Y-82082009D01*
X126870970Y-82145244D01*
X126688650Y-82238140D01*
X126523105Y-82358417D01*
X126523104Y-82358417D01*
X126378417Y-82503104D01*
X126378417Y-82503105D01*
X126258140Y-82668650D01*
X126210765Y-82761629D01*
X126162790Y-82812425D01*
X126094969Y-82829220D01*
X126028834Y-82806682D01*
X125989795Y-82761629D01*
X125972410Y-82727510D01*
X125942287Y-82668390D01*
X125934556Y-82657749D01*
X125821971Y-82502786D01*
X125677213Y-82358028D01*
X125511613Y-82237715D01*
X125511612Y-82237714D01*
X125511610Y-82237713D01*
X125454653Y-82208691D01*
X125329223Y-82144781D01*
X125134534Y-82081522D01*
X124959995Y-82053878D01*
X124932352Y-82049500D01*
X124727648Y-82049500D01*
X124703329Y-82053351D01*
X124525465Y-82081522D01*
X124330776Y-82144781D01*
X124148386Y-82237715D01*
X123982786Y-82358028D01*
X123838028Y-82502786D01*
X123717715Y-82668386D01*
X123670485Y-82761080D01*
X123622510Y-82811876D01*
X123554689Y-82828671D01*
X123488554Y-82806134D01*
X123449515Y-82761080D01*
X123432411Y-82727512D01*
X123402287Y-82668390D01*
X123394556Y-82657749D01*
X123281971Y-82502786D01*
X123137213Y-82358028D01*
X122971613Y-82237715D01*
X122971612Y-82237714D01*
X122971610Y-82237713D01*
X122914653Y-82208691D01*
X122789223Y-82144781D01*
X122594534Y-82081522D01*
X122419995Y-82053878D01*
X122392352Y-82049500D01*
X122187648Y-82049500D01*
X122163329Y-82053351D01*
X121985465Y-82081522D01*
X121790776Y-82144781D01*
X121608386Y-82237715D01*
X121442786Y-82358028D01*
X121298028Y-82502786D01*
X121177715Y-82668386D01*
X121130485Y-82761080D01*
X121082510Y-82811876D01*
X121014689Y-82828671D01*
X120948554Y-82806134D01*
X120909515Y-82761080D01*
X120892411Y-82727512D01*
X120862287Y-82668390D01*
X120854556Y-82657749D01*
X120741971Y-82502786D01*
X120597213Y-82358028D01*
X120431613Y-82237715D01*
X120431612Y-82237714D01*
X120431610Y-82237713D01*
X120374653Y-82208691D01*
X120249223Y-82144781D01*
X120054534Y-82081522D01*
X119879995Y-82053878D01*
X119852352Y-82049500D01*
X119647648Y-82049500D01*
X119623329Y-82053351D01*
X119445465Y-82081522D01*
X119250776Y-82144781D01*
X119068386Y-82237715D01*
X118902786Y-82358028D01*
X118758028Y-82502786D01*
X118637715Y-82668386D01*
X118544781Y-82850776D01*
X118481522Y-83045465D01*
X118449500Y-83247648D01*
X118449500Y-84061481D01*
X118429815Y-84128520D01*
X118377011Y-84174275D01*
X118307853Y-84184219D01*
X118244297Y-84155194D01*
X118225182Y-84134367D01*
X118222658Y-84130894D01*
X118222658Y-84130893D01*
X117400000Y-84953552D01*
X117400000Y-84947339D01*
X117372741Y-84845606D01*
X117320080Y-84754394D01*
X117245606Y-84679920D01*
X117154394Y-84627259D01*
X117052661Y-84600000D01*
X117046447Y-84600000D01*
X117869105Y-83777340D01*
X117869104Y-83777338D01*
X117786174Y-83717087D01*
X117575802Y-83609897D01*
X117351247Y-83536934D01*
X117351248Y-83536934D01*
X117118052Y-83500000D01*
X116881948Y-83500000D01*
X116648752Y-83536934D01*
X116424197Y-83609897D01*
X116213830Y-83717084D01*
X116130894Y-83777340D01*
X116953554Y-84600000D01*
X116947339Y-84600000D01*
X116845606Y-84627259D01*
X116754394Y-84679920D01*
X116679920Y-84754394D01*
X116627259Y-84845606D01*
X116600000Y-84947339D01*
X116600000Y-84953554D01*
X115777340Y-84130894D01*
X115717084Y-84213830D01*
X115609897Y-84424197D01*
X115536934Y-84648752D01*
X115500000Y-84881947D01*
X115500000Y-85118052D01*
X115536934Y-85351247D01*
X115609897Y-85575802D01*
X115717087Y-85786174D01*
X115777338Y-85869104D01*
X115777340Y-85869105D01*
X116600000Y-85046445D01*
X116600000Y-85052661D01*
X116627259Y-85154394D01*
X116679920Y-85245606D01*
X116754394Y-85320080D01*
X116845606Y-85372741D01*
X116947339Y-85400000D01*
X116953554Y-85400000D01*
X116130893Y-86222658D01*
X116213828Y-86282914D01*
X116424197Y-86390102D01*
X116648752Y-86463065D01*
X116648751Y-86463065D01*
X116881948Y-86500000D01*
X117118052Y-86500000D01*
X117351247Y-86463065D01*
X117575802Y-86390102D01*
X117786163Y-86282918D01*
X117786169Y-86282914D01*
X117869104Y-86222658D01*
X117869105Y-86222658D01*
X117046446Y-85400000D01*
X117052661Y-85400000D01*
X117154394Y-85372741D01*
X117245606Y-85320080D01*
X117320080Y-85245606D01*
X117372741Y-85154394D01*
X117400000Y-85052661D01*
X117400000Y-85046447D01*
X118222658Y-85869105D01*
X118222658Y-85869104D01*
X118282914Y-85786169D01*
X118282918Y-85786163D01*
X118390102Y-85575802D01*
X118463065Y-85351247D01*
X118500000Y-85118052D01*
X118500000Y-85023698D01*
X118519685Y-84956659D01*
X118572489Y-84910904D01*
X118641647Y-84900960D01*
X118705203Y-84929985D01*
X118724319Y-84950814D01*
X118758030Y-84997215D01*
X118902786Y-85141971D01*
X119045430Y-85245606D01*
X119068390Y-85262287D01*
X119181815Y-85320080D01*
X119250776Y-85355218D01*
X119250778Y-85355218D01*
X119250781Y-85355220D01*
X119355137Y-85389127D01*
X119445465Y-85418477D01*
X119546557Y-85434488D01*
X119647648Y-85450500D01*
X119647649Y-85450500D01*
X119852351Y-85450500D01*
X119852352Y-85450500D01*
X120054534Y-85418477D01*
X120249219Y-85355220D01*
X120315623Y-85321384D01*
X120384290Y-85308488D01*
X120449031Y-85334763D01*
X120459598Y-85344188D01*
X121014139Y-85898729D01*
X121014142Y-85898733D01*
X121101267Y-85985858D01*
X121178190Y-86037256D01*
X121183990Y-86041132D01*
X121183993Y-86041134D01*
X121203710Y-86054309D01*
X121203712Y-86054310D01*
X121203715Y-86054312D01*
X121267103Y-86080568D01*
X121267104Y-86080568D01*
X121267105Y-86080569D01*
X121298909Y-86093742D01*
X121317548Y-86101463D01*
X121438389Y-86125499D01*
X121438393Y-86125500D01*
X121438394Y-86125500D01*
X121561607Y-86125500D01*
X123439548Y-86125500D01*
X123468988Y-86134144D01*
X123498975Y-86140668D01*
X123503990Y-86144422D01*
X123506587Y-86145185D01*
X123527229Y-86161819D01*
X123588181Y-86222771D01*
X123621666Y-86284094D01*
X123624500Y-86310452D01*
X123624500Y-86949420D01*
X123648535Y-87070254D01*
X123648537Y-87070262D01*
X123662347Y-87103602D01*
X123695688Y-87184096D01*
X123729915Y-87235319D01*
X123733802Y-87241136D01*
X123733803Y-87241138D01*
X123764141Y-87286543D01*
X123855586Y-87377988D01*
X123855608Y-87378008D01*
X126401525Y-89923925D01*
X126435010Y-89985248D01*
X126430026Y-90054940D01*
X126401528Y-90099284D01*
X126378039Y-90122774D01*
X126378033Y-90122781D01*
X126257715Y-90288386D01*
X126210485Y-90381080D01*
X126162510Y-90431876D01*
X126094689Y-90448671D01*
X126028554Y-90426134D01*
X125989515Y-90381080D01*
X125974029Y-90350688D01*
X125942287Y-90288390D01*
X125918901Y-90256202D01*
X125821971Y-90122786D01*
X125677213Y-89978028D01*
X125511613Y-89857715D01*
X125511612Y-89857714D01*
X125511610Y-89857713D01*
X125422755Y-89812439D01*
X125329223Y-89764781D01*
X125134534Y-89701522D01*
X124959995Y-89673878D01*
X124932352Y-89669500D01*
X124727648Y-89669500D01*
X124703329Y-89673351D01*
X124525465Y-89701522D01*
X124330776Y-89764781D01*
X124148386Y-89857715D01*
X123982786Y-89978028D01*
X123838028Y-90122786D01*
X123717715Y-90288386D01*
X123670485Y-90381080D01*
X123622510Y-90431876D01*
X123554689Y-90448671D01*
X123488554Y-90426134D01*
X123449515Y-90381080D01*
X123434029Y-90350688D01*
X123402287Y-90288390D01*
X123378901Y-90256202D01*
X123281971Y-90122786D01*
X123137213Y-89978028D01*
X122971613Y-89857715D01*
X122971612Y-89857714D01*
X122971610Y-89857713D01*
X122882755Y-89812439D01*
X122789223Y-89764781D01*
X122594534Y-89701522D01*
X122419995Y-89673878D01*
X122392352Y-89669500D01*
X122187648Y-89669500D01*
X122163329Y-89673351D01*
X121985465Y-89701522D01*
X121790776Y-89764781D01*
X121608386Y-89857715D01*
X121442786Y-89978028D01*
X121298032Y-90122782D01*
X121298028Y-90122787D01*
X121229978Y-90216451D01*
X121174648Y-90259117D01*
X121105035Y-90265096D01*
X121043240Y-90232490D01*
X121011954Y-90182570D01*
X121011041Y-90179815D01*
X120984814Y-90100666D01*
X120892712Y-89951344D01*
X120768656Y-89827288D01*
X120654230Y-89756710D01*
X120619336Y-89735187D01*
X120619331Y-89735185D01*
X120552577Y-89713065D01*
X120452797Y-89680001D01*
X120452795Y-89680000D01*
X120350010Y-89669500D01*
X119149998Y-89669500D01*
X119149981Y-89669501D01*
X119047203Y-89680000D01*
X119047200Y-89680001D01*
X118880668Y-89735185D01*
X118880663Y-89735187D01*
X118731342Y-89827289D01*
X118607289Y-89951342D01*
X118515187Y-90100663D01*
X118515186Y-90100666D01*
X118460001Y-90267203D01*
X118460001Y-90267204D01*
X118460000Y-90267204D01*
X118449500Y-90369983D01*
X118449500Y-92370001D01*
X118449501Y-92370018D01*
X118460000Y-92472796D01*
X118460001Y-92472799D01*
X118515185Y-92639331D01*
X118515187Y-92639336D01*
X118550069Y-92695888D01*
X118607288Y-92788656D01*
X118731344Y-92912712D01*
X118880666Y-93004814D01*
X119047203Y-93059999D01*
X119149991Y-93070500D01*
X120350008Y-93070499D01*
X120452797Y-93059999D01*
X120619334Y-93004814D01*
X120768656Y-92912712D01*
X120892712Y-92788656D01*
X120984814Y-92639334D01*
X121011955Y-92557427D01*
X121051726Y-92499984D01*
X121116242Y-92473161D01*
X121185018Y-92485476D01*
X121229977Y-92523547D01*
X121297798Y-92616894D01*
X121298034Y-92617219D01*
X121442786Y-92761971D01*
X121597749Y-92874556D01*
X121608390Y-92882287D01*
X121724607Y-92941503D01*
X121790776Y-92975218D01*
X121790778Y-92975218D01*
X121790781Y-92975220D01*
X121881856Y-93004812D01*
X121985465Y-93038477D01*
X122086557Y-93054488D01*
X122187648Y-93070500D01*
X122187649Y-93070500D01*
X122392351Y-93070500D01*
X122392352Y-93070500D01*
X122594534Y-93038477D01*
X122789219Y-92975220D01*
X122971610Y-92882287D01*
X123100482Y-92788657D01*
X123137213Y-92761971D01*
X123137215Y-92761968D01*
X123137219Y-92761966D01*
X123281966Y-92617219D01*
X123281968Y-92617215D01*
X123281971Y-92617213D01*
X123402284Y-92451614D01*
X123402286Y-92451611D01*
X123402287Y-92451610D01*
X123449516Y-92358917D01*
X123497489Y-92308123D01*
X123565310Y-92291328D01*
X123631445Y-92313865D01*
X123670483Y-92358917D01*
X123699239Y-92415352D01*
X123717715Y-92451614D01*
X123838028Y-92617213D01*
X123982786Y-92761971D01*
X124137749Y-92874556D01*
X124148390Y-92882287D01*
X124264607Y-92941503D01*
X124330776Y-92975218D01*
X124330778Y-92975218D01*
X124330781Y-92975220D01*
X124421856Y-93004812D01*
X124525465Y-93038477D01*
X124626557Y-93054488D01*
X124727648Y-93070500D01*
X124727649Y-93070500D01*
X124932351Y-93070500D01*
X124932352Y-93070500D01*
X125134534Y-93038477D01*
X125329219Y-92975220D01*
X125511610Y-92882287D01*
X125640482Y-92788657D01*
X125677213Y-92761971D01*
X125677215Y-92761968D01*
X125677219Y-92761966D01*
X125821966Y-92617219D01*
X125821968Y-92617215D01*
X125821971Y-92617213D01*
X125942284Y-92451614D01*
X125942286Y-92451611D01*
X125942287Y-92451610D01*
X125989516Y-92358917D01*
X126037489Y-92308123D01*
X126105310Y-92291328D01*
X126171445Y-92313865D01*
X126210483Y-92358917D01*
X126239239Y-92415352D01*
X126257715Y-92451614D01*
X126378028Y-92617213D01*
X126522786Y-92761971D01*
X126677749Y-92874556D01*
X126688390Y-92882287D01*
X126804607Y-92941503D01*
X126870776Y-92975218D01*
X126870778Y-92975218D01*
X126870781Y-92975220D01*
X126961856Y-93004812D01*
X127065465Y-93038477D01*
X127166557Y-93054488D01*
X127267648Y-93070500D01*
X127267649Y-93070500D01*
X127472351Y-93070500D01*
X127472352Y-93070500D01*
X127674534Y-93038477D01*
X127674539Y-93038475D01*
X127674541Y-93038475D01*
X127708180Y-93027545D01*
X127778021Y-93025548D01*
X127837854Y-93061628D01*
X127868684Y-93124328D01*
X127870500Y-93145475D01*
X127870500Y-94352041D01*
X127870500Y-94475255D01*
X127874373Y-94494724D01*
X127891396Y-94580311D01*
X127894439Y-94595606D01*
X127894538Y-94596102D01*
X127941685Y-94709928D01*
X127941687Y-94709931D01*
X127941688Y-94709934D01*
X127975915Y-94761157D01*
X128010142Y-94812381D01*
X128097267Y-94899506D01*
X128097270Y-94899508D01*
X128104554Y-94906792D01*
X128153714Y-94955952D01*
X128187199Y-95017275D01*
X128182215Y-95086967D01*
X128140343Y-95142900D01*
X128098127Y-95163407D01*
X127955580Y-95201603D01*
X127955578Y-95201603D01*
X127955577Y-95201604D01*
X127955570Y-95201606D01*
X127713308Y-95301954D01*
X127713298Y-95301959D01*
X127486195Y-95433076D01*
X127278147Y-95592719D01*
X127092717Y-95778149D01*
X126933074Y-95986197D01*
X126801957Y-96213300D01*
X126801952Y-96213310D01*
X126725471Y-96397954D01*
X126681630Y-96452357D01*
X126615336Y-96474422D01*
X126610910Y-96474501D01*
X114160454Y-96474501D01*
X114093415Y-96454816D01*
X114072773Y-96438182D01*
X112061819Y-94427228D01*
X112047115Y-94400300D01*
X112030523Y-94374482D01*
X112029631Y-94368281D01*
X112028334Y-94365905D01*
X112025500Y-94339547D01*
X112025500Y-94324499D01*
X112045185Y-94257460D01*
X112097989Y-94211705D01*
X112149500Y-94200499D01*
X112947871Y-94200499D01*
X112947872Y-94200499D01*
X113007483Y-94194091D01*
X113142331Y-94143796D01*
X113257546Y-94057546D01*
X113343796Y-93942331D01*
X113394091Y-93807483D01*
X113400500Y-93747873D01*
X113400499Y-90652128D01*
X113394091Y-90592517D01*
X113388037Y-90576286D01*
X113343797Y-90457671D01*
X113343793Y-90457664D01*
X113257547Y-90342455D01*
X113257544Y-90342452D01*
X113142335Y-90256206D01*
X113142328Y-90256202D01*
X113007482Y-90205908D01*
X113007483Y-90205908D01*
X112947883Y-90199501D01*
X112947881Y-90199500D01*
X112947873Y-90199500D01*
X112947865Y-90199500D01*
X110549699Y-90199500D01*
X110482660Y-90179815D01*
X110436905Y-90127011D01*
X110426961Y-90057853D01*
X110455986Y-89994297D01*
X110462018Y-89987819D01*
X111112119Y-89337718D01*
X111624035Y-88825802D01*
X112317890Y-88131947D01*
X115560000Y-88131947D01*
X115560000Y-88368052D01*
X115596934Y-88601247D01*
X115669897Y-88825802D01*
X115777087Y-89036174D01*
X115837338Y-89119104D01*
X115837340Y-89119105D01*
X116660000Y-88296445D01*
X116660000Y-88302661D01*
X116687259Y-88404394D01*
X116739920Y-88495606D01*
X116814394Y-88570080D01*
X116905606Y-88622741D01*
X117007339Y-88650000D01*
X117013554Y-88650000D01*
X116190893Y-89472658D01*
X116273828Y-89532914D01*
X116484197Y-89640102D01*
X116708752Y-89713065D01*
X116708751Y-89713065D01*
X116941948Y-89750000D01*
X117178052Y-89750000D01*
X117411247Y-89713065D01*
X117635802Y-89640102D01*
X117846163Y-89532918D01*
X117846169Y-89532914D01*
X117929104Y-89472658D01*
X117929105Y-89472658D01*
X117106446Y-88650000D01*
X117112661Y-88650000D01*
X117214394Y-88622741D01*
X117305606Y-88570080D01*
X117380080Y-88495606D01*
X117432741Y-88404394D01*
X117460000Y-88302661D01*
X117460000Y-88296447D01*
X118282658Y-89119105D01*
X118282658Y-89119104D01*
X118342914Y-89036169D01*
X118342918Y-89036163D01*
X118450102Y-88825802D01*
X118523065Y-88601247D01*
X118560000Y-88368052D01*
X118560000Y-88131947D01*
X118523065Y-87898752D01*
X118450102Y-87674197D01*
X118342914Y-87463828D01*
X118282658Y-87380894D01*
X118282658Y-87380893D01*
X117460000Y-88203552D01*
X117460000Y-88197339D01*
X117432741Y-88095606D01*
X117380080Y-88004394D01*
X117305606Y-87929920D01*
X117214394Y-87877259D01*
X117112661Y-87850000D01*
X117106447Y-87850000D01*
X117929105Y-87027340D01*
X117929104Y-87027338D01*
X117846174Y-86967087D01*
X117635802Y-86859897D01*
X117411247Y-86786934D01*
X117411248Y-86786934D01*
X117178052Y-86750000D01*
X116941948Y-86750000D01*
X116708752Y-86786934D01*
X116484197Y-86859897D01*
X116273830Y-86967084D01*
X116190894Y-87027340D01*
X117013554Y-87850000D01*
X117007339Y-87850000D01*
X116905606Y-87877259D01*
X116814394Y-87929920D01*
X116739920Y-88004394D01*
X116687259Y-88095606D01*
X116660000Y-88197339D01*
X116660000Y-88203554D01*
X115837340Y-87380894D01*
X115777084Y-87463830D01*
X115669897Y-87674197D01*
X115596934Y-87898752D01*
X115560000Y-88131947D01*
X112317890Y-88131947D01*
X112398729Y-88051108D01*
X112398733Y-88051106D01*
X112485858Y-87963981D01*
X112529523Y-87898632D01*
X112554312Y-87861534D01*
X112601463Y-87747699D01*
X112625500Y-87626855D01*
X112625500Y-87503641D01*
X112625500Y-86441329D01*
X112645185Y-86374290D01*
X112693205Y-86330844D01*
X112786433Y-86283343D01*
X112977510Y-86144517D01*
X113144517Y-85977510D01*
X113283343Y-85786433D01*
X113390568Y-85575992D01*
X113463553Y-85351368D01*
X113468302Y-85321385D01*
X113500500Y-85118097D01*
X113500500Y-84881902D01*
X113463553Y-84648631D01*
X113429689Y-84544412D01*
X113390568Y-84424008D01*
X113390566Y-84424005D01*
X113390566Y-84424003D01*
X113298413Y-84243144D01*
X113283343Y-84213567D01*
X113144517Y-84022490D01*
X112977510Y-83855483D01*
X112786433Y-83716657D01*
X112730962Y-83688393D01*
X112577078Y-83609985D01*
X112526282Y-83562010D01*
X112509487Y-83494189D01*
X112532024Y-83428054D01*
X112586740Y-83384603D01*
X112633373Y-83375500D01*
X113582650Y-83375500D01*
X113649689Y-83395185D01*
X113651541Y-83396398D01*
X113745821Y-83459394D01*
X113745823Y-83459395D01*
X113745827Y-83459397D01*
X113829824Y-83494189D01*
X113891503Y-83519737D01*
X113977958Y-83536934D01*
X114046153Y-83550499D01*
X114046156Y-83550500D01*
X114046158Y-83550500D01*
X114203844Y-83550500D01*
X114203845Y-83550499D01*
X114358497Y-83519737D01*
X114504179Y-83459394D01*
X114635289Y-83371789D01*
X114746789Y-83260289D01*
X114834394Y-83129179D01*
X114894737Y-82983497D01*
X114925500Y-82828842D01*
X114925500Y-82671158D01*
X114925500Y-82671155D01*
X114925499Y-82671153D01*
X114894738Y-82516510D01*
X114894737Y-82516503D01*
X114894735Y-82516498D01*
X114834397Y-82370827D01*
X114834390Y-82370814D01*
X114746789Y-82239711D01*
X114746786Y-82239707D01*
X114635292Y-82128213D01*
X114635288Y-82128210D01*
X114504185Y-82040609D01*
X114504172Y-82040602D01*
X114358501Y-81980264D01*
X114358489Y-81980261D01*
X114203845Y-81949500D01*
X114203842Y-81949500D01*
X114046158Y-81949500D01*
X114046155Y-81949500D01*
X113891510Y-81980261D01*
X113891498Y-81980264D01*
X113745827Y-82040602D01*
X113745815Y-82040609D01*
X113651541Y-82103602D01*
X113584864Y-82124480D01*
X113582650Y-82124500D01*
X112142983Y-82124500D01*
X112075944Y-82104815D01*
X112030189Y-82052011D01*
X112021366Y-82024694D01*
X112019737Y-82016503D01*
X111991984Y-81949500D01*
X111959397Y-81870827D01*
X111959390Y-81870814D01*
X111871789Y-81739711D01*
X111871786Y-81739707D01*
X111763981Y-81631902D01*
X115309500Y-81631902D01*
X115309500Y-81868097D01*
X115346446Y-82101368D01*
X115419433Y-82325996D01*
X115516500Y-82516498D01*
X115526657Y-82536433D01*
X115665483Y-82727510D01*
X115832490Y-82894517D01*
X116023567Y-83033343D01*
X116122991Y-83084002D01*
X116234003Y-83140566D01*
X116234005Y-83140566D01*
X116234008Y-83140568D01*
X116286852Y-83157738D01*
X116458631Y-83213553D01*
X116691903Y-83250500D01*
X116691908Y-83250500D01*
X116928097Y-83250500D01*
X117161368Y-83213553D01*
X117260881Y-83181219D01*
X117385992Y-83140568D01*
X117596433Y-83033343D01*
X117787510Y-82894517D01*
X117954517Y-82727510D01*
X118093343Y-82536433D01*
X118200568Y-82325992D01*
X118273553Y-82101368D01*
X118283177Y-82040606D01*
X118310500Y-81868097D01*
X118310500Y-81631902D01*
X118273553Y-81398631D01*
X118239689Y-81294412D01*
X118200568Y-81174008D01*
X118200566Y-81174005D01*
X118200566Y-81174003D01*
X118093342Y-80963566D01*
X117954517Y-80772490D01*
X117787510Y-80605483D01*
X117596433Y-80466657D01*
X117520910Y-80428176D01*
X117385996Y-80359433D01*
X117161368Y-80286446D01*
X116928097Y-80249500D01*
X116928092Y-80249500D01*
X116691908Y-80249500D01*
X116691903Y-80249500D01*
X116458631Y-80286446D01*
X116234003Y-80359433D01*
X116023566Y-80466657D01*
X115971914Y-80504185D01*
X115832490Y-80605483D01*
X115832488Y-80605485D01*
X115832487Y-80605485D01*
X115665485Y-80772487D01*
X115665485Y-80772488D01*
X115665483Y-80772490D01*
X115659110Y-80781262D01*
X115526657Y-80963566D01*
X115419433Y-81174003D01*
X115346446Y-81398631D01*
X115309500Y-81631902D01*
X111763981Y-81631902D01*
X111760292Y-81628213D01*
X111760288Y-81628210D01*
X111629185Y-81540609D01*
X111629172Y-81540602D01*
X111483501Y-81480264D01*
X111483489Y-81480261D01*
X111328845Y-81449500D01*
X111328842Y-81449500D01*
X111171158Y-81449500D01*
X111171155Y-81449500D01*
X111016510Y-81480261D01*
X111016498Y-81480264D01*
X110870827Y-81540602D01*
X110870813Y-81540610D01*
X110855739Y-81550682D01*
X110789061Y-81571558D01*
X110721681Y-81553072D01*
X110674993Y-81501091D01*
X110664378Y-81466976D01*
X110653553Y-81398631D01*
X110619689Y-81294412D01*
X110580568Y-81174008D01*
X110580566Y-81174005D01*
X110580566Y-81174003D01*
X110473342Y-80963566D01*
X110334517Y-80772490D01*
X110167510Y-80605483D01*
X109976433Y-80466657D01*
X109900910Y-80428176D01*
X109765996Y-80359433D01*
X109541368Y-80286446D01*
X109308097Y-80249500D01*
X109308092Y-80249500D01*
X109071908Y-80249500D01*
X109071903Y-80249500D01*
X108838631Y-80286446D01*
X108614003Y-80359433D01*
X108403566Y-80466657D01*
X108351914Y-80504185D01*
X108212490Y-80605483D01*
X108212488Y-80605485D01*
X108212487Y-80605485D01*
X108045485Y-80772487D01*
X108045485Y-80772488D01*
X108045483Y-80772490D01*
X108039110Y-80781262D01*
X107906657Y-80963566D01*
X107799433Y-81174003D01*
X107726446Y-81398631D01*
X107689500Y-81631902D01*
X107689500Y-81868097D01*
X107726446Y-82101368D01*
X107799433Y-82325996D01*
X107896500Y-82516498D01*
X107906657Y-82536433D01*
X108045483Y-82727510D01*
X108212490Y-82894517D01*
X108403567Y-83033343D01*
X108502991Y-83084002D01*
X108614003Y-83140566D01*
X108614005Y-83140566D01*
X108614008Y-83140568D01*
X108666852Y-83157738D01*
X108838631Y-83213553D01*
X109071903Y-83250500D01*
X109071908Y-83250500D01*
X109308097Y-83250500D01*
X109541368Y-83213553D01*
X109547782Y-83211469D01*
X109640881Y-83181218D01*
X109710720Y-83179223D01*
X109766879Y-83211469D01*
X110088181Y-83532771D01*
X110121666Y-83594094D01*
X110124500Y-83620452D01*
X110124500Y-83811611D01*
X110148535Y-83932444D01*
X110148540Y-83932461D01*
X110195685Y-84046280D01*
X110195687Y-84046283D01*
X110195688Y-84046286D01*
X110229915Y-84097509D01*
X110264142Y-84148733D01*
X110351267Y-84235858D01*
X110351270Y-84235860D01*
X110358554Y-84243144D01*
X110538530Y-84423120D01*
X110572015Y-84484443D01*
X110568780Y-84549119D01*
X110536447Y-84648630D01*
X110499500Y-84881902D01*
X110499500Y-85118097D01*
X110536446Y-85351368D01*
X110609433Y-85575996D01*
X110697632Y-85749095D01*
X110716657Y-85786433D01*
X110855483Y-85977510D01*
X111022490Y-86144517D01*
X111130042Y-86222658D01*
X111213568Y-86283344D01*
X111266772Y-86310452D01*
X111306794Y-86330844D01*
X111357590Y-86378818D01*
X111374500Y-86441329D01*
X111374500Y-87254795D01*
X111354815Y-87321834D01*
X111338181Y-87342476D01*
X111010685Y-87669971D01*
X110949362Y-87703456D01*
X110879670Y-87698472D01*
X110823737Y-87656600D01*
X110812519Y-87638585D01*
X110806542Y-87626855D01*
X110723343Y-87463567D01*
X110584517Y-87272490D01*
X110417510Y-87105483D01*
X110226433Y-86966657D01*
X110015996Y-86859433D01*
X109791368Y-86786446D01*
X109558097Y-86749500D01*
X109558092Y-86749500D01*
X109321908Y-86749500D01*
X109321903Y-86749500D01*
X109088631Y-86786446D01*
X108864003Y-86859433D01*
X108653566Y-86966657D01*
X108570047Y-87027338D01*
X108462490Y-87105483D01*
X108462488Y-87105485D01*
X108462487Y-87105485D01*
X108295485Y-87272487D01*
X108295485Y-87272488D01*
X108295483Y-87272490D01*
X108244635Y-87342476D01*
X108156657Y-87463566D01*
X108049433Y-87674003D01*
X107976446Y-87898631D01*
X107939500Y-88131902D01*
X107939500Y-88368097D01*
X107976446Y-88601368D01*
X108049433Y-88825996D01*
X108156519Y-89036163D01*
X108156657Y-89036433D01*
X108295483Y-89227510D01*
X108462490Y-89394517D01*
X108653567Y-89533343D01*
X108864008Y-89640568D01*
X108893613Y-89650187D01*
X108895372Y-89651390D01*
X108897503Y-89651522D01*
X108924090Y-89671026D01*
X108951289Y-89689624D01*
X108952119Y-89691588D01*
X108953839Y-89692850D01*
X108965656Y-89723619D01*
X108978488Y-89753982D01*
X108978364Y-89756710D01*
X108978889Y-89758075D01*
X108977875Y-89767538D01*
X108976712Y-89793302D01*
X108974461Y-89804149D01*
X108972537Y-89808797D01*
X108950188Y-89921158D01*
X108950103Y-89921580D01*
X108950075Y-89921720D01*
X108948500Y-89929640D01*
X108948500Y-94087608D01*
X108953669Y-94113597D01*
X108953673Y-94113613D01*
X108954419Y-94117362D01*
X108972537Y-94208452D01*
X108986347Y-94241792D01*
X108989547Y-94249518D01*
X108989548Y-94249521D01*
X109019685Y-94322280D01*
X109019687Y-94322283D01*
X109019688Y-94322286D01*
X109038206Y-94350000D01*
X109053914Y-94373507D01*
X109053915Y-94373509D01*
X109088141Y-94424733D01*
X109179586Y-94516178D01*
X109179608Y-94516198D01*
X110588181Y-95924771D01*
X110621666Y-95986094D01*
X110624500Y-96012452D01*
X110624500Y-97631817D01*
X110604815Y-97698856D01*
X110552011Y-97744611D01*
X110482853Y-97754555D01*
X110462182Y-97749748D01*
X110344537Y-97711523D01*
X110156101Y-97681677D01*
X110092967Y-97651747D01*
X110056036Y-97592436D01*
X110051500Y-97559204D01*
X110051500Y-97421155D01*
X110051499Y-97421153D01*
X110029834Y-97312237D01*
X110020737Y-97266503D01*
X110020735Y-97266498D01*
X109960397Y-97120827D01*
X109960390Y-97120814D01*
X109872789Y-96989711D01*
X109872786Y-96989707D01*
X109761292Y-96878213D01*
X109761288Y-96878210D01*
X109630185Y-96790609D01*
X109630172Y-96790602D01*
X109484501Y-96730264D01*
X109484489Y-96730261D01*
X109329845Y-96699500D01*
X109329842Y-96699500D01*
X109172158Y-96699500D01*
X109172155Y-96699500D01*
X109017510Y-96730261D01*
X109017498Y-96730264D01*
X108871827Y-96790602D01*
X108871815Y-96790609D01*
X108777541Y-96853602D01*
X108710864Y-96874480D01*
X108708650Y-96874500D01*
X106778388Y-96874500D01*
X106662520Y-96897548D01*
X106662515Y-96897549D01*
X106657552Y-96898535D01*
X106657547Y-96898537D01*
X106543716Y-96945687D01*
X106444623Y-97011900D01*
X106444617Y-97011904D01*
X106441266Y-97014142D01*
X105669598Y-97785809D01*
X105608275Y-97819294D01*
X105538583Y-97814310D01*
X105525623Y-97808613D01*
X105459219Y-97774779D01*
X105264536Y-97711523D01*
X105129746Y-97690174D01*
X105062352Y-97679500D01*
X104857648Y-97679500D01*
X104833329Y-97683351D01*
X104655465Y-97711522D01*
X104460776Y-97774781D01*
X104278386Y-97867715D01*
X104112788Y-97988027D01*
X104019811Y-98081004D01*
X103958487Y-98114488D01*
X103888796Y-98109504D01*
X103884678Y-98107883D01*
X103733501Y-98045264D01*
X103733489Y-98045261D01*
X103578845Y-98014500D01*
X103578842Y-98014500D01*
X103421158Y-98014500D01*
X103421155Y-98014500D01*
X103266510Y-98045261D01*
X103266498Y-98045264D01*
X103120827Y-98105602D01*
X103120814Y-98105609D01*
X102989711Y-98193210D01*
X102989707Y-98193213D01*
X102894819Y-98288102D01*
X102833496Y-98321587D01*
X102763804Y-98316603D01*
X102731849Y-98297798D01*
X102731451Y-98298347D01*
X102727512Y-98295485D01*
X102727510Y-98295483D01*
X102536433Y-98156657D01*
X102489574Y-98132781D01*
X102325996Y-98049433D01*
X102101368Y-97976446D01*
X101868097Y-97939500D01*
X101868092Y-97939500D01*
X101631908Y-97939500D01*
X101631903Y-97939500D01*
X101398631Y-97976446D01*
X101174003Y-98049433D01*
X100963566Y-98156657D01*
X100909241Y-98196127D01*
X100772490Y-98295483D01*
X100772488Y-98295485D01*
X100772487Y-98295485D01*
X100712181Y-98355792D01*
X100650858Y-98389277D01*
X100581166Y-98384293D01*
X100525233Y-98342421D01*
X100500816Y-98276957D01*
X100500500Y-98268111D01*
X100500500Y-93481889D01*
X100520185Y-93414850D01*
X100572989Y-93369095D01*
X100642147Y-93359151D01*
X100705703Y-93388176D01*
X100712181Y-93394208D01*
X100772490Y-93454517D01*
X100963567Y-93593343D01*
X101051553Y-93638174D01*
X101174003Y-93700566D01*
X101174005Y-93700566D01*
X101174008Y-93700568D01*
X101283102Y-93736015D01*
X101398631Y-93773553D01*
X101631903Y-93810500D01*
X101631908Y-93810500D01*
X101868097Y-93810500D01*
X102101368Y-93773553D01*
X102325992Y-93700568D01*
X102536433Y-93593343D01*
X102633305Y-93522960D01*
X102647940Y-93517738D01*
X102660162Y-93508138D01*
X102680173Y-93506237D01*
X102699109Y-93499481D01*
X102714247Y-93503001D01*
X102729719Y-93501532D01*
X102747582Y-93510752D01*
X102767163Y-93515306D01*
X102778859Y-93526897D01*
X102791805Y-93533580D01*
X102804924Y-93552728D01*
X102813608Y-93561334D01*
X102817653Y-93568349D01*
X102827548Y-93592237D01*
X102855881Y-93634640D01*
X102857919Y-93638174D01*
X102865215Y-93668319D01*
X102874480Y-93697904D01*
X102874500Y-93700119D01*
X102874500Y-94457650D01*
X102854815Y-94524689D01*
X102853602Y-94526541D01*
X102790609Y-94620815D01*
X102790602Y-94620828D01*
X102730264Y-94766498D01*
X102730261Y-94766510D01*
X102699500Y-94921153D01*
X102699500Y-95078846D01*
X102730261Y-95233489D01*
X102730264Y-95233501D01*
X102790602Y-95379172D01*
X102790609Y-95379185D01*
X102878210Y-95510288D01*
X102878213Y-95510292D01*
X102989707Y-95621786D01*
X102989711Y-95621789D01*
X103120814Y-95709390D01*
X103120827Y-95709397D01*
X103266498Y-95769735D01*
X103266503Y-95769737D01*
X103421153Y-95800499D01*
X103421156Y-95800500D01*
X103421158Y-95800500D01*
X103578844Y-95800500D01*
X103578845Y-95800499D01*
X103733497Y-95769737D01*
X103879179Y-95709394D01*
X104010289Y-95621789D01*
X104121789Y-95510289D01*
X104209394Y-95379179D01*
X104269737Y-95233497D01*
X104300500Y-95078842D01*
X104300500Y-94921158D01*
X104300500Y-94921155D01*
X104300499Y-94921153D01*
X104297165Y-94904394D01*
X104269737Y-94766503D01*
X104241089Y-94697339D01*
X104209397Y-94620828D01*
X104209396Y-94620827D01*
X104209394Y-94620821D01*
X104146397Y-94526539D01*
X104125520Y-94459863D01*
X104125500Y-94457650D01*
X104125500Y-93807940D01*
X104145185Y-93740901D01*
X104148491Y-93736015D01*
X104154495Y-93727582D01*
X104158731Y-93723347D01*
X104177292Y-93695567D01*
X104178336Y-93694102D01*
X104204410Y-93673595D01*
X104229852Y-93652333D01*
X104231750Y-93652094D01*
X104233257Y-93650910D01*
X104266284Y-93647755D01*
X104299176Y-93643623D01*
X104301522Y-93644389D01*
X104302810Y-93644267D01*
X104305692Y-93645753D01*
X104335637Y-93655541D01*
X104371070Y-93673595D01*
X104424003Y-93700566D01*
X104424005Y-93700566D01*
X104424008Y-93700568D01*
X104533102Y-93736015D01*
X104648631Y-93773553D01*
X104881903Y-93810500D01*
X104881908Y-93810500D01*
X105118097Y-93810500D01*
X105351368Y-93773553D01*
X105575992Y-93700568D01*
X105786433Y-93593343D01*
X105977510Y-93454517D01*
X106144517Y-93287510D01*
X106283343Y-93096433D01*
X106390568Y-92885992D01*
X106463553Y-92661368D01*
X106500500Y-92428097D01*
X106500500Y-92191902D01*
X106463553Y-91958631D01*
X106407738Y-91786851D01*
X106390568Y-91734008D01*
X106390566Y-91734005D01*
X106390566Y-91734003D01*
X106330239Y-91615606D01*
X106283343Y-91523567D01*
X106144517Y-91332490D01*
X105977510Y-91165483D01*
X105786433Y-91026657D01*
X105575996Y-90919433D01*
X105351368Y-90846446D01*
X105118097Y-90809500D01*
X105118092Y-90809500D01*
X104881908Y-90809500D01*
X104881901Y-90809500D01*
X104786669Y-90824583D01*
X104717376Y-90815628D01*
X104663924Y-90770632D01*
X104643285Y-90703880D01*
X104662010Y-90636567D01*
X104679587Y-90614432D01*
X104783731Y-90510289D01*
X104871336Y-90379179D01*
X104931679Y-90233497D01*
X104962442Y-90078842D01*
X104962442Y-89921158D01*
X104962442Y-89921155D01*
X104962441Y-89921153D01*
X104940092Y-89808797D01*
X104931679Y-89766503D01*
X104913916Y-89723619D01*
X104871339Y-89620827D01*
X104871332Y-89620814D01*
X104783731Y-89489711D01*
X104783728Y-89489707D01*
X104672234Y-89378213D01*
X104672230Y-89378210D01*
X104541127Y-89290609D01*
X104541114Y-89290602D01*
X104395443Y-89230264D01*
X104395431Y-89230261D01*
X104240787Y-89199500D01*
X104240784Y-89199500D01*
X104083100Y-89199500D01*
X104083097Y-89199500D01*
X103928452Y-89230261D01*
X103928440Y-89230264D01*
X103782769Y-89290602D01*
X103782756Y-89290609D01*
X103651653Y-89378210D01*
X103651649Y-89378213D01*
X103540155Y-89489707D01*
X103540152Y-89489711D01*
X103452551Y-89620814D01*
X103452544Y-89620827D01*
X103389874Y-89772129D01*
X103387784Y-89771263D01*
X103362969Y-89812439D01*
X102756267Y-90419143D01*
X102326879Y-90848529D01*
X102265556Y-90882014D01*
X102200881Y-90878779D01*
X102101371Y-90846447D01*
X101868097Y-90809500D01*
X101868092Y-90809500D01*
X101631908Y-90809500D01*
X101631903Y-90809500D01*
X101398631Y-90846446D01*
X101174003Y-90919433D01*
X100963566Y-91026657D01*
X100931548Y-91049920D01*
X100772490Y-91165483D01*
X100772488Y-91165485D01*
X100772487Y-91165485D01*
X100712181Y-91225792D01*
X100650858Y-91259277D01*
X100581166Y-91254293D01*
X100525233Y-91212421D01*
X100500816Y-91146957D01*
X100500500Y-91138111D01*
X100500500Y-85861889D01*
X100520185Y-85794850D01*
X100572989Y-85749095D01*
X100642147Y-85739151D01*
X100705703Y-85768176D01*
X100712181Y-85774208D01*
X100772490Y-85834517D01*
X100963567Y-85973343D01*
X101062991Y-86024002D01*
X101174003Y-86080566D01*
X101174005Y-86080566D01*
X101174008Y-86080568D01*
X101294412Y-86119689D01*
X101398631Y-86153553D01*
X101631903Y-86190500D01*
X101631908Y-86190500D01*
X101868097Y-86190500D01*
X102101368Y-86153553D01*
X102129470Y-86144422D01*
X102325992Y-86080568D01*
X102536433Y-85973343D01*
X102727510Y-85834517D01*
X102894517Y-85667510D01*
X103033343Y-85476433D01*
X103140568Y-85265992D01*
X103213553Y-85041368D01*
X103220105Y-84999999D01*
X103250500Y-84808097D01*
X103250500Y-84571902D01*
X103499500Y-84571902D01*
X103499500Y-84808097D01*
X103536446Y-85041368D01*
X103609433Y-85265996D01*
X103663823Y-85372741D01*
X103716657Y-85476433D01*
X103855483Y-85667510D01*
X104022490Y-85834517D01*
X104213567Y-85973343D01*
X104312991Y-86024002D01*
X104424003Y-86080566D01*
X104424005Y-86080566D01*
X104424008Y-86080568D01*
X104544412Y-86119689D01*
X104648631Y-86153553D01*
X104881903Y-86190500D01*
X104881908Y-86190500D01*
X105118097Y-86190500D01*
X105351368Y-86153553D01*
X105379470Y-86144422D01*
X105575992Y-86080568D01*
X105786433Y-85973343D01*
X105977510Y-85834517D01*
X106144517Y-85667510D01*
X106283343Y-85476433D01*
X106390568Y-85265992D01*
X106463553Y-85041368D01*
X106470105Y-84999999D01*
X106500500Y-84808097D01*
X106500500Y-84571902D01*
X106463553Y-84338631D01*
X106403950Y-84155194D01*
X106390568Y-84114008D01*
X106390566Y-84114005D01*
X106390566Y-84114003D01*
X106298060Y-83932451D01*
X106283343Y-83903567D01*
X106144517Y-83712490D01*
X105977510Y-83545483D01*
X105786433Y-83406657D01*
X105743150Y-83384603D01*
X105575996Y-83299433D01*
X105351368Y-83226446D01*
X105118097Y-83189500D01*
X105118092Y-83189500D01*
X104881908Y-83189500D01*
X104881903Y-83189500D01*
X104648631Y-83226446D01*
X104424003Y-83299433D01*
X104213566Y-83406657D01*
X104181548Y-83429920D01*
X104022490Y-83545483D01*
X104022488Y-83545485D01*
X104022487Y-83545485D01*
X103855485Y-83712487D01*
X103855485Y-83712488D01*
X103855483Y-83712490D01*
X103808368Y-83777338D01*
X103716657Y-83903566D01*
X103609433Y-84114003D01*
X103536446Y-84338631D01*
X103499500Y-84571902D01*
X103250500Y-84571902D01*
X103213553Y-84338631D01*
X103153950Y-84155194D01*
X103140568Y-84114008D01*
X103140566Y-84114005D01*
X103140566Y-84114003D01*
X103048060Y-83932451D01*
X103033343Y-83903567D01*
X102894517Y-83712490D01*
X102727510Y-83545483D01*
X102536433Y-83406657D01*
X102493150Y-83384603D01*
X102325996Y-83299433D01*
X102101368Y-83226446D01*
X101868097Y-83189500D01*
X101868092Y-83189500D01*
X101631908Y-83189500D01*
X101631903Y-83189500D01*
X101398631Y-83226446D01*
X101174003Y-83299433D01*
X100963566Y-83406657D01*
X100931548Y-83429920D01*
X100772490Y-83545483D01*
X100772488Y-83545485D01*
X100772487Y-83545485D01*
X100712181Y-83605792D01*
X100650858Y-83639277D01*
X100581166Y-83634293D01*
X100525233Y-83592421D01*
X100500816Y-83526957D01*
X100500500Y-83518111D01*
X100500500Y-77504066D01*
X100500765Y-77495956D01*
X100509080Y-77369087D01*
X100517075Y-77247102D01*
X100519190Y-77231048D01*
X100567046Y-76990458D01*
X100571243Y-76974797D01*
X100601817Y-76884728D01*
X100650093Y-76742512D01*
X100656291Y-76727547D01*
X100764790Y-76507533D01*
X100772893Y-76493498D01*
X100909182Y-76289527D01*
X100919039Y-76276681D01*
X101080786Y-76092244D01*
X101092244Y-76080786D01*
X101276681Y-75919039D01*
X101289527Y-75909182D01*
X101493498Y-75772893D01*
X101507533Y-75764790D01*
X101727547Y-75656291D01*
X101742512Y-75650093D01*
X101969653Y-75572989D01*
X101974797Y-75571243D01*
X101990464Y-75567045D01*
X102231048Y-75519190D01*
X102247102Y-75517075D01*
X102495957Y-75500765D01*
X102504067Y-75500500D01*
X102565892Y-75500500D01*
X117924108Y-75500500D01*
X117991147Y-75520185D01*
G37*
%TD.AperFunction*%
%TA.AperFunction,Conductor*%
G36*
X129589920Y-83504394D02*
G01*
X129537259Y-83595606D01*
X129510000Y-83697339D01*
X129510000Y-83802661D01*
X129537259Y-83904394D01*
X129589920Y-83995606D01*
X129594314Y-84000000D01*
X127685686Y-84000000D01*
X127690080Y-83995606D01*
X127742741Y-83904394D01*
X127770000Y-83802661D01*
X127770000Y-83697339D01*
X127742741Y-83595606D01*
X127690080Y-83504394D01*
X127685686Y-83500000D01*
X129594314Y-83500000D01*
X129589920Y-83504394D01*
G37*
%TD.AperFunction*%
%TD*%
M02*
