M48
; DRILL file {KiCad 9.0.7} date 2026-01-25T22:41:21+0100
; FORMAT={-:-/ absolute / metric / decimal}
; #@! TF.CreationDate,2026-01-25T22:41:21+01:00
; #@! TF.GenerationSoftware,Kicad,Pcbnew,9.0.7
; #@! TF.FileFunction,Plated,1,2,PTH
FMAT,2
METRIC
; #@! TA.AperFunction,Plated,PTH,ViaDrill
T1C0.300
; #@! TA.AperFunction,Plated,PTH,ComponentDrill
T2C0.750
; #@! TA.AperFunction,Plated,PTH,ComponentDrill
T3C0.800
; #@! TA.AperFunction,Plated,PTH,ComponentDrill
T4C1.000
; #@! TA.AperFunction,Plated,PTH,ComponentDrill
T5C1.100
; #@! TA.AperFunction,Plated,PTH,ComponentDrill
T6C1.500
%
G90
G05
T1
X103.5Y-95.0
X103.5Y-98.815
X103.5Y-100.065
X103.537Y-93.213
X104.162Y-90.0
X105.461Y-102.5
X106.75Y-102.5
X109.251Y-97.5
X111.25Y-82.25
X111.25Y-103.5
X112.25Y-96.75
X112.609Y-110.607
X112.653Y-109.347
X113.25Y-80.308
X113.537Y-108.463
X114.125Y-82.75
X116.889Y-97.725
X118.243Y-76.493
X118.996Y-79.621
X120.0Y-103.75
X120.002Y-76.502
X121.0Y-104.75
X121.167Y-80.417
X124.205Y-99.25
X125.5Y-99.25
X125.625Y-79.5
X126.875Y-79.5
X128.5Y-80.125
X131.433Y-97.817
X132.317Y-96.933
X135.0Y-101.5
X135.25Y-105.0
T2
X134.23Y-79.27
X135.5Y-78.0
X136.77Y-79.27
T3
X101.38Y-110.0
X101.75Y-84.69
X101.75Y-92.31
X101.75Y-99.44
X101.75Y-107.06
X104.96Y-99.38
X104.96Y-107.0
X105.0Y-84.69
X105.0Y-92.31
X107.5Y-99.38
X107.5Y-107.0
X109.0Y-110.0
X109.19Y-81.75
X109.44Y-88.25
X110.04Y-99.38
X110.04Y-107.0
X112.0Y-85.0
X112.58Y-99.38
X112.58Y-107.0
X114.19Y-110.0
X115.12Y-99.38
X115.12Y-107.0
X116.81Y-81.75
X117.0Y-85.0
X117.06Y-88.25
X117.66Y-99.38
X117.66Y-107.0
X119.75Y-83.75
X119.75Y-91.37
X120.2Y-99.38
X120.2Y-107.0
X121.81Y-110.0
X122.29Y-83.75
X122.29Y-91.37
X124.75Y-101.045
X124.75Y-103.545
X124.83Y-83.75
X124.83Y-91.37
X127.37Y-83.75
X127.37Y-91.37
X129.91Y-83.75
X129.91Y-91.37
X132.45Y-83.75
X132.45Y-91.37
X134.0Y-104.19
X134.0Y-111.81
X134.25Y-94.75
X134.25Y-99.75
X134.99Y-83.75
X134.99Y-91.37
X136.75Y-104.19
X136.75Y-111.81
X137.5Y-95.0
X137.5Y-100.0
X137.53Y-83.75
X137.53Y-91.37
T4
X110.0Y-78.0
X112.54Y-78.0
X115.08Y-78.0
X117.62Y-78.0
X120.16Y-78.0
X122.7Y-78.0
X130.0Y-106.0
X130.0Y-108.54
X130.0Y-111.08
T5
X114.42Y-113.25
X124.58Y-113.25
T6
X111.4Y-92.2
X111.4Y-112.2
X128.6Y-97.1
X128.6Y-77.1
M30
