%TF.GenerationSoftware,KiCad,Pcbnew,9.0.7*%
%TF.CreationDate,2026-01-25T22:41:23+01:00*%
%TF.ProjectId,DiceDIP_LowerPart,44696365-4449-4505-9f4c-6f7765725061,rev?*%
%TF.SameCoordinates,Original*%
%TF.FileFunction,Soldermask,Top*%
%TF.FilePolarity,Negative*%
%FSLAX46Y46*%
G04 Gerber Fmt 4.6, Leading zero omitted, Abs format (unit mm)*
G04 Created by KiCad (PCBNEW 9.0.7) date 2026-01-25 22:41:23*
%MOMM*%
%LPD*%
G01*
G04 APERTURE LIST*
G04 Aperture macros list*
%AMRoundRect*
0 Rectangle with rounded corners*
0 $1 Rounding radius*
0 $2 $3 $4 $5 $6 $7 $8 $9 X,Y pos of 4 corners*
0 Add a 4 corners polygon primitive as box body*
4,1,4,$2,$3,$4,$5,$6,$7,$8,$9,$2,$3,0*
0 Add four circle primitives for the rounded corners*
1,1,$1+$1,$2,$3*
1,1,$1+$1,$4,$5*
1,1,$1+$1,$6,$7*
1,1,$1+$1,$8,$9*
0 Add four rect primitives between the rounded corners*
20,1,$1+$1,$2,$3,$4,$5,0*
20,1,$1+$1,$4,$5,$6,$7,0*
20,1,$1+$1,$6,$7,$8,$9,0*
20,1,$1+$1,$8,$9,$2,$3,0*%
G04 Aperture macros list end*
%ADD10C,2.000000*%
%ADD11R,1.100000X1.800000*%
%ADD12RoundRect,0.275000X-0.275000X-0.625000X0.275000X-0.625000X0.275000X0.625000X-0.275000X0.625000X0*%
%ADD13R,1.700000X1.700000*%
%ADD14C,1.700000*%
%ADD15RoundRect,0.250000X0.550000X-0.950000X0.550000X0.950000X-0.550000X0.950000X-0.550000X-0.950000X0*%
%ADD16O,1.600000X2.400000*%
%ADD17RoundRect,0.249999X-0.850001X-0.850001X0.850001X-0.850001X0.850001X0.850001X-0.850001X0.850001X0*%
%ADD18C,2.200000*%
%ADD19RoundRect,0.250000X-0.550000X0.550000X-0.550000X-0.550000X0.550000X-0.550000X0.550000X0.550000X0*%
%ADD20C,1.600000*%
%ADD21RoundRect,0.250000X-0.550000X-0.550000X0.550000X-0.550000X0.550000X0.550000X-0.550000X0.550000X0*%
%ADD22RoundRect,0.250000X0.550000X-0.550000X0.550000X0.550000X-0.550000X0.550000X-0.550000X-0.550000X0*%
%ADD23R,3.000000X3.000000*%
%ADD24C,3.000000*%
G04 APERTURE END LIST*
D10*
%TO.C,R4*%
X109190000Y-81750000D03*
X116810000Y-81750000D03*
%TD*%
D11*
%TO.C,Q1*%
X134230000Y-79670000D03*
D12*
X135500000Y-77600000D03*
X136770000Y-79670000D03*
%TD*%
D13*
%TO.C,J4*%
X110000000Y-78000000D03*
D14*
X112540000Y-78000000D03*
X115080000Y-78000000D03*
X117620000Y-78000000D03*
X120160000Y-78000000D03*
X122700000Y-78000000D03*
%TD*%
D13*
%TO.C,J1*%
X130000000Y-106000000D03*
D14*
X130000000Y-108540000D03*
X130000000Y-111080000D03*
%TD*%
D10*
%TO.C,C1*%
X117000000Y-85000000D03*
X112000000Y-85000000D03*
%TD*%
D15*
%TO.C,U1*%
X119750000Y-91370000D03*
D16*
X122290000Y-91370000D03*
X124830000Y-91370000D03*
X127370000Y-91370000D03*
X129910000Y-91370000D03*
X132450000Y-91370000D03*
X134990000Y-91370000D03*
X137530000Y-91370000D03*
X137530000Y-83750000D03*
X134990000Y-83750000D03*
X132450000Y-83750000D03*
X129910000Y-83750000D03*
X127370000Y-83750000D03*
X124830000Y-83750000D03*
X122290000Y-83750000D03*
X119750000Y-83750000D03*
%TD*%
D17*
%TO.C,D11*%
X114420000Y-113250000D03*
D18*
X124580000Y-113250000D03*
%TD*%
D19*
%TO.C,C3*%
X124750000Y-101044887D03*
D20*
X124750000Y-103544887D03*
%TD*%
D10*
%TO.C,R2*%
X101750000Y-92310000D03*
X101750000Y-84690000D03*
%TD*%
%TO.C,R3*%
X117060000Y-88250000D03*
X109440000Y-88250000D03*
%TD*%
%TO.C,R1*%
X105000000Y-92310000D03*
X105000000Y-84690000D03*
%TD*%
D21*
%TO.C,D1*%
X101380000Y-110000000D03*
D20*
X109000000Y-110000000D03*
%TD*%
D22*
%TO.C,D9*%
X134000000Y-111810000D03*
D20*
X134000000Y-104190000D03*
%TD*%
D10*
%TO.C,C2*%
X137500000Y-95000000D03*
X137500000Y-100000000D03*
%TD*%
D22*
%TO.C,D10*%
X136750000Y-111810000D03*
D20*
X136750000Y-104190000D03*
%TD*%
D10*
%TO.C,C4*%
X134250000Y-94750000D03*
X134250000Y-99750000D03*
%TD*%
%TO.C,R5*%
X114190000Y-110000000D03*
X121810000Y-110000000D03*
%TD*%
D15*
%TO.C,U2*%
X104960000Y-107000000D03*
D16*
X107500000Y-107000000D03*
X110040000Y-107000000D03*
X112580000Y-107000000D03*
X115120000Y-107000000D03*
X117660000Y-107000000D03*
X120200000Y-107000000D03*
X120200000Y-99380000D03*
X117660000Y-99380000D03*
X115120000Y-99380000D03*
X112580000Y-99380000D03*
X110040000Y-99380000D03*
X107500000Y-99380000D03*
X104960000Y-99380000D03*
%TD*%
D10*
%TO.C,R10*%
X101750000Y-107060000D03*
X101750000Y-99440000D03*
%TD*%
D23*
%TO.C,BT2*%
X128600000Y-77100000D03*
D24*
X128599999Y-97100001D03*
%TD*%
D23*
%TO.C,BT1*%
X111400000Y-92200000D03*
D24*
X111400000Y-112200000D03*
%TD*%
M02*
